<svg width="17" height="17" viewBox="0 0 17 17" fill="none" xmlns="http://www.w3.org/2000/svg">
<g clip-path="url(#clip0_1066_57755)">
<path d="M8.22545 1.69604L15.654 4.91466L8.22545 8.13327L0.796875 4.91466L8.22545 1.69604Z" stroke="black" stroke-linecap="round" stroke-linejoin="round"/>
<path d="M4.16797 6.38306L4.17533 9.885C4.17533 9.885 5.40179 11.5081 8.22566 11.5081C11.0495 11.5081 12.2826 9.885 12.2826 9.885L12.2818 6.38306" stroke="black" stroke-linecap="round" stroke-linejoin="round"/>
<path d="M2.16211 12.249V5.51685" stroke="black" stroke-linecap="round" stroke-linejoin="round"/>
<path d="M2.16366 14.9826C2.91852 14.9826 3.53045 14.3707 3.53045 13.6159C3.53045 12.861 2.91852 12.249 2.16366 12.249C1.40881 12.249 0.796875 12.861 0.796875 13.6159C0.796875 14.3707 1.40881 14.9826 2.16366 14.9826Z" stroke="black" stroke-linecap="round" stroke-linejoin="round"/>
</g>
<defs>
<clipPath id="clip0_1066_57755">
<rect width="16" height="16" fill="white" transform="translate(0.224609 0.133301)"/>
</clipPath>
</defs>
</svg>
