<svg width="41" height="41" viewBox="0 0 41 41" fill="none" xmlns="http://www.w3.org/2000/svg">
<g clip-path="url(#clip0_1066_57728)">
<path d="M15.724 25.1333C11.274 25.1333 2.39062 27.3666 2.39062 31.8V35.1333H29.0573V31.8C29.0573 27.3666 20.174 25.1333 15.724 25.1333ZM5.72396 31.8C6.09062 30.6 11.2406 28.4666 15.724 28.4666C20.224 28.4666 25.3906 30.6166 25.724 31.8H5.72396Z" fill="#1C3867"/>
<path d="M8.62331 15.1334H9.05664C9.05664 18.8167 12.04 21.8 15.7233 21.8C19.4066 21.8 22.39 18.8167 22.39 15.1334H22.8233C23.2733 15.1334 23.64 14.7667 23.64 14.3167V14.2834C23.64 13.8334 23.2733 13.4667 22.8233 13.4667H22.39C22.39 11 21.04 8.88338 19.0566 7.71672V9.30005C19.0566 9.76672 18.69 10.1334 18.2233 10.1334C17.7566 10.1334 17.39 9.76672 17.39 9.30005V7.03338C16.8566 6.90005 16.3066 6.80005 15.7233 6.80005C15.14 6.80005 14.59 6.90005 14.0566 7.03338V9.30005C14.0566 9.76672 13.69 10.1334 13.2233 10.1334C12.7566 10.1334 12.39 9.76672 12.39 9.30005V7.71672C10.4066 8.88338 9.05664 11 9.05664 13.4667H8.62331C8.17331 13.4667 7.80664 13.8334 7.80664 14.2834V14.3334C7.80664 14.7667 8.17331 15.1334 8.62331 15.1334ZM19.0566 15.1334C19.0566 16.9667 17.5566 18.4667 15.7233 18.4667C13.89 18.4667 12.39 16.9667 12.39 15.1334H19.0566Z" fill="#1C3867"/>
<path d="M37.3577 10.5166L38.9077 9.1333L37.6577 6.96663L35.6743 7.61663C35.441 7.4333 35.1743 7.2833 34.891 7.16663L34.4743 5.1333H31.9743L31.5577 7.16663C31.2743 7.2833 31.0077 7.4333 30.7577 7.61663L28.791 6.96663L27.541 9.1333L29.091 10.5166C29.0577 10.8 29.0577 11.1 29.091 11.3833L27.541 12.8L28.791 14.9666L30.791 14.3333C31.0077 14.5 31.2577 14.6333 31.5077 14.75L31.9743 16.8H34.4743L34.9243 14.7666C35.191 14.65 35.4243 14.5166 35.6577 14.35L37.641 14.9833L38.891 12.8166L37.341 11.4C37.391 11.0833 37.3743 10.8 37.3577 10.5166ZM33.2243 13.05C32.0743 13.05 31.141 12.1166 31.141 10.9666C31.141 9.81663 32.0743 8.8833 33.2243 8.8833C34.3743 8.8833 35.3077 9.81663 35.3077 10.9666C35.3077 12.1166 34.3743 13.05 33.2243 13.05Z" fill="#1C3867"/>
<path d="M33.0565 18.1167L31.6398 18.5834C31.4732 18.45 31.2898 18.35 31.0898 18.2667L30.7898 16.8H29.0065L28.7065 18.25C28.5065 18.3334 28.3065 18.45 28.1398 18.5667L26.7398 18.1L25.8398 19.65L26.9398 20.6334C26.9232 20.85 26.9232 21.05 26.9398 21.25L25.8398 22.2667L26.7398 23.8167L28.1732 23.3667C28.3398 23.4834 28.5065 23.5834 28.6898 23.6667L28.9898 25.1334H30.7732L31.0898 23.6834C31.2732 23.6 31.4565 23.5 31.6232 23.3834L33.0398 23.8334L33.9398 22.2834L32.8398 21.2667C32.8565 21.05 32.8565 20.85 32.8398 20.65L33.9398 19.6667L33.0565 18.1167ZM29.8898 22.45C29.0732 22.45 28.4065 21.7834 28.4065 20.9667C28.4065 20.15 29.0732 19.4834 29.8898 19.4834C30.7065 19.4834 31.3732 20.15 31.3732 20.9667C31.3732 21.7834 30.7065 22.45 29.8898 22.45Z" fill="#1C3867"/>
</g>
<defs>
<clipPath id="clip0_1066_57728">
<rect width="40" height="40" fill="white" transform="translate(0.724609 0.133301)"/>
</clipPath>
</defs>
</svg>
