<svg width="41" height="41" viewBox="0 0 41 41" fill="none" xmlns="http://www.w3.org/2000/svg">
<path d="M11.5573 33.4667C9.02951 33.4667 6.86979 32.5917 5.07812 30.8417C3.28646 29.0917 2.39062 26.9528 2.39062 24.4251C2.39062 22.2584 3.0434 20.3278 4.34896 18.6334C5.65451 16.9389 7.36285 15.8556 9.47396 15.3834C10.1684 12.8278 11.5573 10.7584 13.6406 9.17505C15.724 7.59172 18.0851 6.80005 20.724 6.80005C23.974 6.80005 26.7309 7.93199 28.9948 10.1959C31.2587 12.4598 32.3906 15.2167 32.3906 18.4667C34.3073 18.6889 35.8976 19.5153 37.1615 20.9459C38.4253 22.3764 39.0573 24.0501 39.0573 25.9667C39.0573 28.0501 38.3281 29.8209 36.8698 31.2792C35.4115 32.7376 33.6406 33.4667 31.5573 33.4667H11.5573ZM11.5573 30.1334H31.5573C32.724 30.1334 33.7101 29.7306 34.5156 28.9251C35.3212 28.1195 35.724 27.1334 35.724 25.9667C35.724 24.8001 35.3212 23.8139 34.5156 23.0084C33.7101 22.2028 32.724 21.8001 31.5573 21.8001H29.0573V18.4667C29.0573 16.1612 28.2448 14.1959 26.6198 12.5709C24.9948 10.9459 23.0295 10.1334 20.724 10.1334C18.4184 10.1334 16.4531 10.9459 14.8281 12.5709C13.2031 14.1959 12.3906 16.1612 12.3906 18.4667H11.5573C9.94618 18.4667 8.57118 19.0362 7.43229 20.1751C6.2934 21.3139 5.72396 22.6889 5.72396 24.3001C5.72396 25.9112 6.2934 27.2862 7.43229 28.4251C8.57118 29.5639 9.94618 30.1334 11.5573 30.1334Z" fill="#1C3867"/>
</svg>
