<svg width="41" height="41" viewBox="0 0 41 41" fill="none" xmlns="http://www.w3.org/2000/svg">
<path d="M8.93359 32.4249C7.43359 30.8971 6.24609 29.1263 5.37109 27.1124C4.49609 25.0985 4.05859 22.9388 4.05859 20.6332C4.05859 18.2999 4.49609 16.1263 5.37109 14.1124C6.24609 12.0985 7.43359 10.3416 8.93359 8.84155L11.3086 11.2166C10.0864 12.4388 9.12804 13.8554 8.43359 15.4666C7.73915 17.0777 7.39193 18.7999 7.39193 20.6332C7.39193 22.4943 7.73915 24.2304 8.43359 25.8416C9.12804 27.4527 10.0864 28.8554 11.3086 30.0499L8.93359 32.4249ZM13.6419 27.7166C12.753 26.7999 12.0447 25.7374 11.5169 24.5291C10.9891 23.3207 10.7253 22.0221 10.7253 20.6332C10.7253 19.2166 10.9891 17.9041 11.5169 16.6957C12.0447 15.4874 12.753 14.4388 13.6419 13.5499L16.0169 15.9249C15.4058 16.536 14.9266 17.2443 14.5794 18.0499C14.2322 18.8554 14.0586 19.7166 14.0586 20.6332C14.0586 21.5499 14.2322 22.411 14.5794 23.2166C14.9266 24.0221 15.4058 24.7304 16.0169 25.3416L13.6419 27.7166ZM20.7253 23.9666C19.8086 23.9666 19.0239 23.6402 18.3711 22.9874C17.7183 22.3346 17.3919 21.5499 17.3919 20.6332C17.3919 19.7166 17.7183 18.9318 18.3711 18.2791C19.0239 17.6263 19.8086 17.2999 20.7253 17.2999C21.6419 17.2999 22.4266 17.6263 23.0794 18.2791C23.7322 18.9318 24.0586 19.7166 24.0586 20.6332C24.0586 21.5499 23.7322 22.3346 23.0794 22.9874C22.4266 23.6402 21.6419 23.9666 20.7253 23.9666ZM27.8086 27.7166L25.4336 25.3416C26.0447 24.7304 26.5239 24.0221 26.8711 23.2166C27.2183 22.411 27.3919 21.5499 27.3919 20.6332C27.3919 19.7166 27.2183 18.8554 26.8711 18.0499C26.5239 17.2443 26.0447 16.536 25.4336 15.9249L27.8086 13.5499C28.6975 14.4388 29.4058 15.4874 29.9336 16.6957C30.4614 17.9041 30.7253 19.2166 30.7253 20.6332C30.7253 22.0221 30.4614 23.3207 29.9336 24.5291C29.4058 25.7374 28.6975 26.7999 27.8086 27.7166ZM32.5169 32.4249L30.1419 30.0499C31.3641 28.8277 32.3225 27.411 33.0169 25.7999C33.7114 24.1888 34.0586 22.4666 34.0586 20.6332C34.0586 18.7721 33.7114 17.036 33.0169 15.4249C32.3225 13.8138 31.3641 12.411 30.1419 11.2166L32.5169 8.84155C34.0169 10.3416 35.2044 12.0985 36.0794 14.1124C36.9544 16.1263 37.3919 18.2999 37.3919 20.6332C37.3919 22.9388 36.9544 25.0985 36.0794 27.1124C35.2044 29.1263 34.0169 30.8971 32.5169 32.4249Z" fill="#1C3867"/>
</svg>
