<svg width="41" height="41" viewBox="0 0 41 41" fill="none" xmlns="http://www.w3.org/2000/svg">
<path d="M20.2246 17.4386V33.4386M20.2246 17.4386C20.2246 13.7049 20.2246 11.8381 19.4979 10.412C18.8588 9.15757 17.8389 8.13771 16.5845 7.49854C15.1585 6.77192 13.2916 6.77192 9.55794 6.77192H7.89128C6.95786 6.77192 6.49114 6.77192 6.13463 6.95357C5.82103 7.11337 5.56606 7.36834 5.40626 7.68194C5.22461 8.03846 5.22461 8.50517 5.22461 9.43859V27.4386C5.22461 28.3721 5.22461 28.8388 5.40626 29.1953C5.56606 29.5089 5.82103 29.7638 6.13463 29.9236C6.49114 30.1053 6.95786 30.1053 7.89128 30.1053H12.8024C13.7027 30.1053 14.1529 30.1053 14.5882 30.1829C14.9745 30.2518 15.3514 30.3658 15.7111 30.5229C16.1163 30.6998 16.4909 30.9494 17.2399 31.4489L20.2246 33.4386M20.2246 17.4386C20.2246 13.7049 20.2246 11.8381 20.9513 10.412C21.5904 9.15757 22.6103 8.13771 23.8646 7.49854C25.2908 6.77192 27.1576 6.77192 30.8913 6.77192H32.5579C33.4914 6.77192 33.9581 6.77192 34.3146 6.95357C34.6283 7.11337 34.8831 7.36834 35.0429 7.68194C35.2246 8.03846 35.2246 8.50517 35.2246 9.43859V27.4386C35.2246 28.3721 35.2246 28.8388 35.0429 29.1953C34.8831 29.5089 34.6283 29.7638 34.3146 29.9236C33.9581 30.1053 33.4914 30.1053 32.5579 30.1053H27.6468C26.7464 30.1053 26.2963 30.1053 25.8611 30.1829C25.4746 30.2518 25.0978 30.3658 24.7381 30.5229C24.3329 30.6998 23.9583 30.9494 23.2093 31.4489L20.2246 33.4386" stroke="#1C3867" stroke-width="3.33333" stroke-linecap="round" stroke-linejoin="round"/>
</svg>
