<svg width="41" height="41" viewBox="0 0 41 41" fill="none" xmlns="http://www.w3.org/2000/svg">
<g clip-path="url(#clip0_1066_57260)">
<path d="M10.6587 13.4852H19.3549C20.5552 13.4852 21.5284 12.4944 21.5284 11.2937C21.5284 10.0929 20.5552 9.10269 19.3549 9.10269H10.6587C9.45841 9.10269 8.48438 10.093 8.48438 11.2937C8.48429 12.4943 9.45833 13.4852 10.6587 13.4852Z" fill="#1C3867"/>
<path d="M10.6587 23.0427H28.9192C30.1204 23.0427 31.0936 22.0518 31.0936 20.8512C31.0936 19.6504 30.1204 18.6601 28.9192 18.6601H10.6587C9.45841 18.6601 8.48438 19.6504 8.48438 20.8512C8.48429 22.0519 9.45833 23.0427 10.6587 23.0427Z" fill="#1C3867"/>
<path d="M29.7891 27.3779H10.6587C9.45841 27.3779 8.48438 28.3451 8.48438 29.5457C8.48438 30.7464 9.45841 31.7141 10.6587 31.7141H29.7892C30.9894 31.7141 31.9635 30.7465 31.9635 29.5457C31.9635 28.3451 30.9894 27.3779 29.7891 27.3779Z" fill="#1C3867"/>
<path d="M29.3245 0.105225H7.27542C4.58491 0.105225 2.41406 2.28598 2.41406 4.97559V35.2193C2.41406 37.9094 4.58491 40.1052 7.27542 40.1052H33.1706C35.8611 40.1052 38.0319 37.9093 38.0319 35.2193V9.02654L29.3245 0.105225ZM33.1706 36.6089H7.27542C6.50359 36.6089 5.86337 35.9916 5.86337 35.2194V4.97559C5.86337 4.20343 6.50359 3.55454 7.27542 3.55454H27.6356V7.46953C27.6356 9.19075 29.0303 10.5912 30.7511 10.6088L34.5826 10.6479V35.2194C34.5826 35.9916 33.9425 36.6089 33.1706 36.6089Z" fill="#1C3867"/>
</g>
<defs>
<clipPath id="clip0_1066_57260">
<rect width="40" height="40" fill="white" transform="translate(0.224609 0.105225)"/>
</clipPath>
</defs>
</svg>
