<svg width="41" height="41" viewBox="0 0 41 41" fill="none" xmlns="http://www.w3.org/2000/svg">
<path d="M20.0411 15.2888L11.1007 6.34835C10.4407 5.68831 10.1107 5.3583 9.73013 5.23465C9.3954 5.12588 9.03481 5.12588 8.70008 5.23465C8.31953 5.3583 7.98951 5.68831 7.32948 6.34833L6.38668 7.29115C5.72665 7.95118 5.39663 8.28118 5.27298 8.66173C5.16421 8.99648 5.16421 9.35705 5.27298 9.69179C5.39663 10.0723 5.72665 10.4024 6.38668 11.0624L15.3272 20.0029M24.7553 20.0029L33.6953 28.9429C34.3553 29.6029 34.6853 29.9329 34.809 30.3136C34.9178 30.6483 34.9178 31.0089 34.809 31.3436C34.6853 31.7241 34.3553 32.0541 33.6953 32.7143L32.7525 33.6569C32.0925 34.3171 31.7625 34.6471 31.382 34.7708C31.0471 34.8794 30.6866 34.8794 30.3518 34.7708C29.9713 34.6471 29.6413 34.3171 28.9813 33.6569L20.0411 24.7169M13.5577 11.7714L15.0397 10.2873M28.5576 26.7718L30.0481 25.2958M26.057 9.27529L30.771 13.9893M5.22396 35.1083L5.30305 34.5546C5.5829 32.5956 5.72283 31.6163 6.04111 30.7018C6.32355 29.8903 6.70936 29.1186 7.18906 28.4058C7.72965 27.6026 8.42928 26.9029 9.82853 25.5036L29.2418 6.09033C30.5436 4.78858 32.6541 4.78858 33.956 6.09031C35.2576 7.39206 35.2576 9.50261 33.956 10.8044L14.1864 30.5739C12.9169 31.8433 12.2822 32.4781 11.5593 32.9828C10.9176 33.4308 10.2255 33.8019 9.49726 34.0886C8.67681 34.4116 7.79688 34.5891 6.03718 34.9441L5.22396 35.1083Z" stroke="#1C3867" stroke-width="3.33333" stroke-linecap="round" stroke-linejoin="round"/>
</svg>
