<svg width="41" height="41" viewBox="0 0 41 41" fill="none" xmlns="http://www.w3.org/2000/svg">
<path d="M36.4746 2.60522H3.97461C3.64309 2.60522 3.32515 2.73692 3.09073 2.97134C2.85631 3.20576 2.72461 3.5237 2.72461 3.85522V27.6052C2.72461 27.9367 2.85631 28.2547 3.09073 28.4891C3.32515 28.7235 3.64309 28.8552 3.97461 28.8552H36.4746C36.8061 28.8552 37.1241 28.7235 37.3585 28.4891C37.5929 28.2547 37.7246 27.9367 37.7246 27.6052V3.85522C37.7246 3.5237 37.5929 3.20576 37.3585 2.97134C37.1241 2.73692 36.8061 2.60522 36.4746 2.60522ZM35.2246 26.3552H5.22461V5.10522H35.2246V26.3552Z" fill="#1C3867"/>
<path d="M22.8878 30.3427C22.6711 30.1918 22.4143 30.1091 22.1503 30.1052H18.3003C18.0363 30.1091 17.7795 30.1918 17.5628 30.3427L10.7128 35.3427C10.4966 35.4991 10.3361 35.7204 10.2548 35.9745C10.1735 36.2286 10.1756 36.502 10.2608 36.7548C10.346 37.0076 10.5098 37.2265 10.7283 37.3795C10.9468 37.5325 11.2086 37.6116 11.4753 37.6052H28.9753C29.2398 37.6062 29.4978 37.5232 29.7122 37.3682C29.9266 37.2132 30.0862 36.9941 30.1682 36.7426C30.2502 36.4911 30.2503 36.2201 30.1684 35.9685C30.0866 35.717 29.927 35.4979 29.7128 35.3427L22.8878 30.3427ZM15.2878 35.1052L18.7128 32.6052H21.7378L25.2253 35.1052H15.2878Z" fill="#1C3867"/>
<path d="M8.97461 23.8552H31.4746C31.8061 23.8552 32.1241 23.7235 32.3585 23.4891C32.5929 23.2547 32.7246 22.9367 32.7246 22.6052V13.8552C32.7246 13.5237 32.5929 13.2058 32.3585 12.9713C32.1241 12.7369 31.8061 12.6052 31.4746 12.6052H27.7246C27.3931 12.6052 27.0751 12.7369 26.8407 12.9713C26.6063 13.2058 26.4746 13.5237 26.4746 13.8552V21.3552H25.2246V11.3552C25.2246 11.0237 25.0929 10.7058 24.8585 10.4713C24.6241 10.2369 24.3061 10.1052 23.9746 10.1052H20.2246C19.8931 10.1052 19.5751 10.2369 19.3407 10.4713C19.1063 10.7058 18.9746 11.0237 18.9746 11.3552V21.3552H17.7246V8.85522C17.7246 8.5237 17.5929 8.20576 17.3585 7.97134C17.1241 7.73692 16.8061 7.60522 16.4746 7.60522H12.7246C12.3931 7.60522 12.0751 7.73692 11.8407 7.97134C11.6063 8.20576 11.4746 8.5237 11.4746 8.85522V21.3552H10.2246V12.6052C10.2246 12.2737 10.0929 11.9558 9.85849 11.7213C9.62407 11.4869 9.30613 11.3552 8.97461 11.3552C8.64309 11.3552 8.32515 11.4869 8.09073 11.7213C7.85631 11.9558 7.72461 12.2737 7.72461 12.6052V22.6052C7.72461 22.9367 7.85631 23.2547 8.09073 23.4891C8.32515 23.7235 8.64309 23.8552 8.97461 23.8552ZM28.9746 15.1052H30.2246V21.3552H28.9746V15.1052ZM21.4746 12.6052H22.7246V21.3552H21.4746V12.6052ZM13.9746 10.1052H15.2246V21.3552H13.9746V10.1052Z" fill="#1C3867"/>
</svg>
