<svg width="41" height="41" viewBox="0 0 41 41" fill="none" xmlns="http://www.w3.org/2000/svg">
<path d="M15.2253 23.4386C16.5438 23.4386 17.8327 23.0476 18.9291 22.315C20.0254 21.5825 20.8799 20.5413 21.3845 19.3231C21.889 18.105 22.0211 16.7645 21.7638 15.4713C21.5066 14.1781 20.8717 12.9902 19.9393 12.0579C19.007 11.1255 17.8191 10.4906 16.5259 10.2333C15.2327 9.97611 13.8922 10.1081 12.674 10.6127C11.4559 11.1173 10.4147 11.9718 9.68213 13.0681C8.94959 14.1644 8.55859 15.4534 8.55859 16.7719C8.55859 18.54 9.26097 20.2357 10.5112 21.486C11.7615 22.7362 13.4572 23.4386 15.2253 23.4386ZM15.2253 13.4386C15.8845 13.4386 16.529 13.6341 17.0772 14.0003C17.6253 14.3666 18.0526 14.8872 18.3049 15.4963C18.5572 16.1054 18.6232 16.7756 18.4945 17.4222C18.3659 18.0688 18.0485 18.6628 17.5823 19.1289C17.1161 19.5951 16.5222 19.9126 15.8756 20.0412C15.229 20.1698 14.5587 20.1038 13.9496 19.8515C13.3406 19.5992 12.82 19.172 12.4537 18.6238C12.0874 18.0756 11.8919 17.4312 11.8919 16.7719C11.8919 15.8879 12.2431 15.04 12.8682 14.4149C13.4934 13.7898 14.3412 13.4386 15.2253 13.4386ZM10.2253 25.1052H20.2253C21.9934 25.1052 23.6891 25.8076 24.9393 27.0579C26.1895 28.3081 26.8919 30.0038 26.8919 31.7719V35.1052C26.8919 35.5473 26.7163 35.9712 26.4038 36.2838C26.0912 36.5963 25.6673 36.7719 25.2253 36.7719C24.7832 36.7719 24.3593 36.5963 24.0467 36.2838C23.7342 35.9712 23.5586 35.5473 23.5586 35.1052V31.7719C23.5586 30.8879 23.2074 30.04 22.5823 29.4149C21.9572 28.7898 21.1093 28.4386 20.2253 28.4386H10.2253C9.34121 28.4386 8.49336 28.7898 7.86824 29.4149C7.24312 30.04 6.89193 30.8879 6.89193 31.7719V35.1052C6.89193 35.5473 6.71633 35.9712 6.40377 36.2838C6.09121 36.5963 5.66729 36.7719 5.22526 36.7719C4.78323 36.7719 4.35931 36.5963 4.04675 36.2838C3.73419 35.9712 3.55859 35.5473 3.55859 35.1052V31.7719C3.55859 30.0038 4.26097 28.3081 5.51122 27.0579C6.76146 25.8076 8.45715 25.1052 10.2253 25.1052ZM29.3286 16.7719C29.332 18.0889 29.0741 19.3935 28.5701 20.6101C28.066 21.8268 27.3257 22.9315 26.3919 23.8602C26.0776 24.1638 25.6566 24.3318 25.2196 24.328C24.7826 24.3242 24.3646 24.149 24.0556 23.8399C23.7465 23.5309 23.5713 23.1129 23.5675 22.6759C23.5637 22.2389 23.7317 21.8179 24.0353 21.5036C25.2902 20.2487 25.9951 18.5466 25.9951 16.7719C25.9951 14.9972 25.2902 13.2952 24.0353 12.0402C23.8761 11.8865 23.7491 11.7026 23.6618 11.4993C23.5744 11.2959 23.5284 11.0772 23.5265 10.8559C23.5246 10.6346 23.5668 10.4151 23.6506 10.2103C23.7344 10.0055 23.8581 9.81941 24.0146 9.66292C24.1711 9.50643 24.3572 9.38268 24.562 9.29888C24.7668 9.21507 24.9863 9.1729 25.2076 9.17483C25.4289 9.17675 25.6476 9.22273 25.8509 9.31008C26.0543 9.39742 26.2382 9.5244 26.3919 9.68358C27.3257 10.6123 28.066 11.717 28.5701 12.9337C29.0741 14.1504 29.332 15.4549 29.3286 16.7719ZM29.0269 29.6052C28.7197 29.2874 28.5513 28.8606 28.5589 28.4186C28.5664 27.9767 28.7491 27.5558 29.0669 27.2486C30.4861 25.8992 31.616 24.2754 32.3882 22.4758C33.1603 20.6763 33.5584 18.7385 33.5584 16.7802C33.5584 14.822 33.1603 12.8842 32.3882 11.0846C31.616 9.28506 30.4861 7.66125 29.0669 6.31191C28.748 6.0036 28.5646 5.58122 28.5571 5.1377C28.5496 4.69417 28.7186 4.26583 29.0269 3.94691C29.3352 3.62799 29.7576 3.44461 30.2011 3.4371C30.6447 3.4296 31.073 3.5986 31.3919 3.90691C33.1326 5.56713 34.5183 7.56333 35.465 9.77466C36.4118 11.986 36.8999 14.3664 36.8999 16.7719C36.8999 19.1774 36.4118 21.5578 35.465 23.7692C34.5183 25.9805 33.1326 27.9767 31.3919 29.6369C31.0741 29.9441 30.6473 30.1125 30.2053 30.105C29.7633 30.0975 29.3425 29.9147 29.0353 29.5969L29.0269 29.6052Z" fill="#1C3867"/>
</svg>
