<svg width="27" height="15" viewBox="0 0 27 15" fill="none" xmlns="http://www.w3.org/2000/svg">
<path d="M1.8125 6.88379C1.29473 6.88379 0.875 7.30352 0.875 7.82129C0.875 8.33906 1.29473 8.75879 1.8125 8.75879V6.88379ZM25.9129 8.4842C26.279 8.11809 26.279 7.52449 25.9129 7.15838L19.9467 1.19216C19.5806 0.826046 18.987 0.826046 18.6209 1.19216C18.2548 1.55828 18.2548 2.15187 18.6209 2.51799L23.9242 7.82129L18.6209 13.1246C18.2548 13.4907 18.2548 14.0843 18.6209 14.4504C18.987 14.8165 19.5806 14.8165 19.9467 14.4504L25.9129 8.4842ZM1.8125 8.75879H25.25V6.88379H1.8125V8.75879Z" fill="#DA0E29"/>
</svg>
