<svg width="22" height="22" viewBox="0 0 22 22" fill="none" xmlns="http://www.w3.org/2000/svg">
<path d="M1.00563 18.8806C0.456456 19.4298 0.456456 20.3202 1.00563 20.8694C1.55481 21.4185 2.44519 21.4185 2.99437 20.8694L1.00563 18.8806ZM21.4062 1.875C21.4062 1.09835 20.7766 0.46875 20 0.46875L7.34375 0.46875C6.5671 0.46875 5.9375 1.09835 5.9375 1.875C5.9375 2.65165 6.5671 3.28125 7.34375 3.28125L18.5938 3.28125V14.5312C18.5938 15.3079 19.2234 15.9375 20 15.9375C20.7767 15.9375 21.4062 15.3079 21.4062 14.5312V1.875ZM2.99437 20.8694L20.9944 2.86937L19.0056 0.880631L1.00563 18.8806L2.99437 20.8694Z" fill="white"/>
</svg>
