<svg width="22" height="16" viewBox="0 0 22 16" fill="none" xmlns="http://www.w3.org/2000/svg">
<path d="M1 7.00244C0.447715 7.00244 0 7.45016 0 8.00244C0 8.55473 0.447715 9.00244 1 9.00244V7.00244ZM21.7071 8.70955C22.0976 8.31902 22.0976 7.68586 21.7071 7.29533L15.3431 0.931374C14.9526 0.540849 14.3195 0.540849 13.9289 0.931374C13.5384 1.3219 13.5384 1.95506 13.9289 2.34559L19.5858 8.00244L13.9289 13.6593C13.5384 14.0498 13.5384 14.683 13.9289 15.0735C14.3195 15.464 14.9526 15.464 15.3431 15.0735L21.7071 8.70955ZM1 9.00244H21V7.00244H1V9.00244Z" fill="#1C3867"/>
</svg>
