<svg width="27" height="15" viewBox="0 0 27 15" fill="none" xmlns="http://www.w3.org/2000/svg">
<path d="M1.8125 6.75879C1.29473 6.75879 0.875 7.17852 0.875 7.69629C0.875 8.21406 1.29473 8.63379 1.8125 8.63379V6.75879ZM25.9129 8.3592C26.279 7.99309 26.279 7.39949 25.9129 7.03338L19.9467 1.06716C19.5806 0.701046 18.987 0.701046 18.6209 1.06716C18.2548 1.43328 18.2548 2.02687 18.6209 2.39299L23.9242 7.69629L18.6209 12.9996C18.2548 13.3657 18.2548 13.9593 18.6209 14.3254C18.987 14.6915 19.5806 14.6915 19.9467 14.3254L25.9129 8.3592ZM1.8125 8.63379H25.25V6.75879H1.8125V8.63379Z" fill="#2C3A9B"/>
</svg>
