<svg width="17" height="15" viewBox="0 0 17 15" fill="none" xmlns="http://www.w3.org/2000/svg">
<path d="M1.36133 6.84443C0.844208 6.84443 0.424999 7.26364 0.424999 7.78076C0.424999 8.29788 0.844208 8.71709 1.36133 8.71709V6.84443ZM16.0684 8.44285C16.434 8.07719 16.434 7.48434 16.0684 7.11868L10.1096 1.15991C9.74393 0.794252 9.15108 0.794252 8.78542 1.15991C8.41976 1.52557 8.41976 2.11842 8.78542 2.48408L14.0821 7.78076L8.78542 13.0774C8.41976 13.4431 8.41976 14.036 8.78542 14.4016C9.15108 14.7673 9.74393 14.7673 10.1096 14.4016L16.0684 8.44285ZM1.36133 8.71709H15.4063V6.84443H1.36133V8.71709Z" fill="#A7E1FF"/>
</svg>
