<svg width="22" height="22" viewBox="0 0 22 22" fill="none" xmlns="http://www.w3.org/2000/svg">
<path d="M0.773612 18.6486C0.0962961 19.3259 0.0962961 20.4241 0.773612 21.1014C1.45093 21.7787 2.54907 21.7787 3.22639 21.1014L0.773612 18.6486ZM21.7344 1.875C21.7344 0.917131 20.9579 0.140625 20 0.140625L4.39062 0.140625C3.43276 0.140625 2.65625 0.917131 2.65625 1.875C2.65625 2.83287 3.43276 3.60938 4.39062 3.60938L18.2656 3.60938V17.4844C18.2656 18.4422 19.0421 19.2188 20 19.2188C20.9579 19.2188 21.7344 18.4422 21.7344 17.4844V1.875ZM3.22639 21.1014L21.2264 3.10139L18.7736 0.648612L0.773612 18.6486L3.22639 21.1014Z" fill="#1C3867"/>
</svg>
