<svg width="27" height="15" viewBox="0 0 27 15" fill="none" xmlns="http://www.w3.org/2000/svg">
<path d="M1 6.57129C0.447715 6.57129 0 7.019 0 7.57129C0 8.12357 0.447715 8.57129 1 8.57129V6.57129ZM26.7071 8.2784C27.0976 7.88787 27.0976 7.25471 26.7071 6.86418L20.3431 0.500221C19.9526 0.109697 19.3195 0.109697 18.9289 0.500221C18.5384 0.890746 18.5384 1.52391 18.9289 1.91443L24.5858 7.57129L18.9289 13.2281C18.5384 13.6187 18.5384 14.2518 18.9289 14.6424C19.3195 15.0329 19.9526 15.0329 20.3431 14.6424L26.7071 8.2784ZM1 8.57129H26V6.57129H1V8.57129Z" fill="white"/>
</svg>
