<svg width="98" height="40" viewBox="0 0 98 40" fill="none" xmlns="http://www.w3.org/2000/svg">
<path d="M6.72363 24.3425C6.53143 24.4187 6.34076 24.495 6.14703 24.5712C4.85217 25.0837 3.58768 25.6692 2.35971 26.3249C1.93397 26.5537 1.49137 26.6177 1.02963 26.4515C0.636814 26.3089 0.340475 26.0474 0.20494 25.6547C0.029048 25.1932 -0.0349671 24.6968 0.0181009 24.206C0.0420972 23.9704 0.115914 23.7426 0.234695 23.5374C0.353476 23.3323 0.514529 23.1545 0.707261 23.0158C0.927162 22.8566 1.16391 22.7218 1.41327 22.6139C3.92717 21.5198 6.51917 20.6407 9.14717 19.869C9.17773 19.858 9.20893 19.8489 9.24059 19.8416C9.30352 19.8301 9.36288 19.8041 9.41393 19.7657C9.46498 19.7273 9.50632 19.6776 9.53463 19.6205C10.4298 18.1603 11.3165 16.6948 12.2331 15.2477C14.1053 12.2923 16.0617 9.39184 18.1491 6.58287C19.2457 5.10824 20.3774 3.66183 21.6202 2.30462C22.206 1.6649 22.8078 1.03891 23.5139 0.526522C23.7448 0.360609 23.991 0.216631 24.249 0.0964841C24.7084 -0.120059 25.1908 0.0331999 25.4343 0.502886C25.5147 0.655381 25.5928 0.813975 25.664 0.973332C25.8297 1.36033 26.0584 1.7174 26.3409 2.03012C26.3892 2.08197 26.4313 2.13992 26.4772 2.19406C26.8601 2.64621 26.9581 3.16622 26.8555 3.73807C26.7523 4.26419 26.5956 4.77847 26.3877 5.27294C25.9918 6.25577 25.5982 7.23937 25.1793 8.21152C24.5199 9.75603 23.9822 11.3493 23.5713 12.977C23.2553 14.2087 22.9413 15.4406 22.6294 16.6727C22.6141 16.733 22.6034 16.794 22.5858 16.8794C22.7818 16.8504 22.9526 16.8245 23.1218 16.8031C24.468 16.6094 25.8141 16.412 27.161 16.2236C27.8349 16.1291 28.5103 16.046 29.1856 15.9652C29.6681 15.9072 30.1298 15.9652 30.554 16.2252C30.7864 16.3582 30.9715 16.56 31.0836 16.8025C31.1957 17.045 31.2293 17.3162 31.1796 17.5786C31.127 17.8847 31.0205 18.1793 30.8649 18.4485C29.8656 20.2068 28.874 21.9719 28.0263 23.808C27.7905 24.3173 27.5286 24.8175 27.3731 25.3596C27.318 25.551 27.2836 25.7493 27.243 25.9444C27.2336 25.9947 27.2297 26.0458 27.2315 26.0969C27.2361 26.3364 27.3624 26.437 27.5837 26.3493C27.7479 26.2897 27.9005 26.2022 28.0347 26.0908C28.3763 25.7859 28.7071 25.4656 29.0302 25.1362C30.1941 23.9384 31.1704 22.5949 32.0824 21.2026C32.4155 20.6948 32.731 20.1755 33.0557 19.6616C33.4132 19.0974 33.6682 18.4806 33.9692 17.8881C34.2032 17.4476 34.4001 16.9885 34.558 16.5157C34.6114 16.3567 34.6493 16.1931 34.6714 16.0269C34.6837 15.872 34.7342 15.7226 34.8183 15.5917C34.9025 15.4609 35.0177 15.3526 35.1538 15.2766C35.8085 14.8885 36.5022 14.6484 37.2764 14.7078C37.3927 14.7166 37.5075 14.7388 37.6187 14.7742C38.2244 14.964 38.5008 15.4512 38.3392 16.0971C38.268 16.3822 38.134 16.6521 38.0268 16.9282C37.9951 16.9912 37.9751 17.0594 37.9678 17.1295C38.1371 16.9465 38.3063 16.7619 38.4763 16.5797C38.984 16.0345 39.5001 15.4978 40.0843 15.0319C40.2557 14.8939 40.4366 14.768 40.6257 14.6552C41.1058 14.3716 41.6135 14.293 42.1572 14.4737C42.578 14.6087 42.9655 14.8305 43.2943 15.1249C43.39 15.212 43.477 15.3083 43.5539 15.4124C43.9176 15.9026 43.8908 16.3807 43.4857 16.8374C43.0747 17.2999 42.5389 17.635 41.942 17.8027C41.4198 17.9552 40.8899 18.0787 40.3684 18.2328C39.9779 18.3487 39.5904 18.4783 39.2114 18.6277C38.585 18.8755 38.0628 19.2865 37.621 19.7821C36.1194 21.4596 34.911 23.3215 34.1752 25.4618C33.8952 26.2608 33.7115 27.0901 33.6277 27.9322C33.6093 28.1251 33.6024 28.3188 33.5764 28.5102C33.5675 28.5845 33.5424 28.6559 33.5027 28.7194C33.463 28.783 33.4097 28.837 33.3466 28.8777C32.8474 29.2056 32.3305 29.5014 31.7386 29.6348C31.5686 29.6754 31.3942 29.6948 31.2194 29.6928C30.7401 29.6791 30.397 29.4435 30.201 29.0066C29.9981 28.534 29.9395 28.0123 30.0325 27.5068C30.093 27.1255 30.2033 26.7527 30.2921 26.376C30.3114 26.3186 30.3169 26.2575 30.3082 26.1976C30.2714 26.2472 30.2316 26.2944 30.1995 26.3447C29.521 27.336 28.7966 28.2837 27.952 29.1385C27.5311 29.5784 27.0633 29.9714 26.5569 30.3104C26.2016 30.5391 25.8294 30.7366 25.4044 30.8037C24.9672 30.8723 24.5392 30.8609 24.1372 30.6413C23.693 30.3981 23.4526 30.0039 23.3132 29.5372C23.1494 28.9883 23.1486 28.4271 23.2129 27.8659C23.3515 26.6497 23.742 25.5022 24.1961 24.373C24.9098 22.5979 25.7475 20.8786 26.6112 19.1721C26.6488 19.0959 26.6832 19.0196 26.7169 18.9434C26.7215 18.9335 26.7169 18.9198 26.7169 18.89C26.5002 18.9312 26.2843 18.9663 26.0714 19.012C24.7474 19.2926 23.4243 19.5778 22.0995 19.8507C22.0293 19.86 21.9642 19.8925 21.9146 19.9429C21.8651 19.9934 21.834 20.0589 21.8262 20.129C21.4984 21.6761 21.2021 23.2293 21.003 24.7992C20.8499 26.0283 20.6868 27.2574 20.539 28.4873C20.4754 29.0127 20.4364 29.5411 20.3858 30.0679C20.3491 30.4537 20.2939 30.8365 20.1285 31.1941C20.0558 31.3594 19.9509 31.5088 19.8198 31.6335C19.6888 31.7582 19.5343 31.8558 19.3651 31.9207C18.9781 32.0819 18.5521 32.1264 18.1399 32.0488C17.5909 31.9459 17.2211 31.5997 16.9508 31.1301C16.6805 30.6604 16.551 30.1243 16.4913 29.5815C16.4056 28.7999 16.4584 28.0207 16.5503 27.2437C16.7509 25.5548 17.1376 23.9018 17.5205 22.248C17.6101 21.8583 17.7088 21.4702 17.8023 21.0814C17.8153 21.0257 17.8229 20.9693 17.8375 20.893C17.7773 20.8987 17.7175 20.9073 17.6583 20.919C15.8527 21.3836 14.057 21.8843 12.2714 22.421C12.2132 22.4389 12.1597 22.4691 12.1144 22.5095C12.069 22.5499 12.033 22.5996 12.0087 22.6551C11.1792 24.1831 10.3828 25.7276 9.61963 27.2887C8.52463 29.5296 7.48094 31.7934 6.53755 34.1022C6.09496 35.1841 5.66309 36.2707 5.33688 37.3946C5.24193 37.7232 5.16766 38.0572 5.07271 38.3858C4.97412 38.7548 4.81024 39.1034 4.58876 39.4151C4.22044 39.9123 3.71659 40.1075 3.11932 39.9428C2.17211 39.6812 1.48678 39.1155 1.16134 38.1715C1.0016 37.7224 0.996484 37.2331 1.14679 36.7808C1.36349 36.125 1.59321 35.4731 1.84897 34.8319C3.07414 31.7637 4.47543 28.7778 5.99848 25.8461C6.21288 25.4336 6.43801 25.0264 6.65547 24.6147C6.69606 24.5384 6.72439 24.4553 6.75885 24.3753L6.72363 24.3425ZM14.3718 18.4912L18.7127 17.5618C19.7587 13.7494 20.9058 9.97361 22.3882 6.30457C19.4348 10.1703 16.8474 14.2709 14.3718 18.4912Z" fill="#E32526"/>
<path d="M63.0994 16.892C63.3697 16.8546 63.6063 16.8157 63.8437 16.7883C64.4808 16.7082 65.1201 16.6358 65.7618 16.7258C65.9735 16.7526 66.1814 16.8038 66.3813 16.8782C66.696 16.998 66.8009 17.2046 66.7512 17.5363C66.7261 17.7347 66.6906 17.9317 66.6447 18.1264C66.5979 18.3357 66.4974 18.5292 66.3532 18.6884C66.2089 18.8475 66.0258 18.9668 65.8216 19.0345C65.504 19.1453 65.1804 19.2377 64.8521 19.3113C64.1132 19.4775 63.3704 19.6285 62.6315 19.7856C62.581 19.7962 62.532 19.8123 62.4508 19.8336C62.3965 19.9699 62.3499 20.1091 62.3114 20.2507C62.0396 21.5194 61.7946 22.7935 61.6123 24.0783C61.4775 25.0238 61.3665 25.9723 61.2455 26.9201C61.1636 27.5605 61.0763 28.1995 61.002 28.8407C60.9568 29.2319 60.9392 29.6261 60.8964 30.0172C60.8726 30.2872 60.8301 30.5552 60.7692 30.8194C60.5885 31.5269 60.1896 31.9516 59.3144 32.0584C59.0892 32.0851 58.8613 32.0782 58.6382 32.0378C58.0869 31.9379 57.7193 31.5803 57.4552 31.1129C57.2186 30.6735 57.0705 30.1922 57.0195 29.6962C56.9429 29.071 56.9727 28.4458 57.0363 27.8213C57.2453 25.7428 57.6856 23.7039 58.1635 21.6758C58.2301 21.3944 58.299 21.1138 58.3725 20.8111C58.2959 20.821 58.2423 20.8233 58.1895 20.8363C56.4092 21.2938 54.635 21.7772 52.8761 22.3132C52.8175 22.3289 52.7631 22.3569 52.7164 22.3955C52.6698 22.434 52.632 22.4822 52.6058 22.5366C52.0521 23.5812 51.4748 24.6136 50.9434 25.6696C49.5753 28.3881 48.31 31.1536 47.1476 33.9661C46.6943 35.0572 46.2517 36.1529 45.8979 37.2814C45.7999 37.5955 45.728 37.9173 45.6407 38.2345C45.5488 38.6118 45.397 38.9722 45.1912 39.3019C44.77 39.934 44.2378 40.133 43.5127 39.9043C42.7209 39.6549 42.1198 39.1715 41.7791 38.4022C41.5587 37.9001 41.5171 37.3382 41.6611 36.8094C41.8442 36.082 42.1206 35.3851 42.3978 34.6889C43.1635 32.7675 44.0311 30.8918 44.9393 29.0352C45.6858 27.5102 46.4562 25.9944 47.2158 24.4748C47.2441 24.4176 47.2732 24.3604 47.3153 24.2766C47.2667 24.2838 47.2186 24.2942 47.1714 24.3078C45.7545 24.8672 44.3735 25.5129 43.0364 26.2415C42.8705 26.3414 42.6927 26.4206 42.5073 26.4771C42.1971 26.5625 41.8664 26.5334 41.576 26.3951C41.2857 26.2568 41.0554 26.0186 40.9276 25.7245C40.6858 25.1766 40.6174 24.5683 40.7315 23.9807C40.7755 23.7546 40.8655 23.5398 40.9962 23.3498C41.1269 23.1598 41.2953 22.9984 41.4912 22.8759C41.6706 22.7595 41.859 22.6575 42.0547 22.5709C44.2185 21.6089 46.4413 20.7843 48.7097 20.102C49.0688 19.9922 49.4272 19.8816 49.7894 19.7833C49.8542 19.7669 49.9149 19.7373 49.9676 19.6963C50.0203 19.6554 50.0639 19.604 50.0957 19.5454C51.2443 17.6941 52.3783 15.8344 53.5514 13.9991C55.2544 11.335 57.0534 8.73601 58.9483 6.20205C59.9591 4.8578 61.0028 3.53872 62.1414 2.29817C62.6254 1.75829 63.1452 1.25137 63.6974 0.780837C63.9896 0.524293 64.3142 0.306922 64.663 0.134259C64.8531 0.0342926 65.0685 -0.00786116 65.2825 0.0130275C65.3926 0.0237452 65.4991 0.0577153 65.595 0.112674C65.6908 0.167634 65.7738 0.242318 65.8384 0.331742C65.9167 0.442542 65.986 0.559305 66.0459 0.680953C66.1455 0.876147 66.2343 1.07744 66.3315 1.27416C66.474 1.5506 66.6527 1.80699 66.8629 2.03664C67.1057 2.31037 67.314 2.60621 67.3814 2.97525C67.4296 3.28888 67.415 3.60891 67.3385 3.9169C67.2236 4.41412 67.0661 4.90059 66.8675 5.37095C66.3657 6.60311 65.8601 7.8335 65.3506 9.0621C64.8307 10.3248 64.444 11.6301 64.0986 12.9507C63.7709 14.1989 63.4577 15.4509 63.1384 16.7014C63.1246 16.7471 63.1162 16.8058 63.0994 16.892ZM62.9263 6.30117L62.8934 6.28821C62.8566 6.33243 62.8168 6.37589 62.7839 6.42164C62.5243 6.76857 62.2632 7.11473 62.0082 7.46395C60.637 9.34422 59.332 11.2695 58.093 13.2397C57.057 14.8928 56.0531 16.5664 55.0362 18.2309C55.0017 18.2873 54.9734 18.3468 54.9321 18.4253C54.9689 18.4249 55.0058 18.4223 55.0423 18.4177C56.3724 18.1409 57.7025 17.8603 59.0341 17.5904C59.0964 17.5849 59.155 17.5587 59.2007 17.5162C59.2463 17.4736 59.2764 17.4171 59.286 17.3556C59.6528 16.0654 60.0142 14.773 60.404 13.489C61.1307 11.0987 61.9263 8.73195 62.8827 6.42164C62.8995 6.38428 62.9118 6.34311 62.9263 6.30117Z" fill="#E32526"/>
<path d="M80.9431 23.9552C80.8405 24.1016 80.7555 24.2205 80.6736 24.341C79.8517 25.5361 78.8863 26.6269 77.799 27.5891C77.3159 28.023 76.799 28.4118 76.1979 28.6741C75.7703 28.8686 75.2969 28.9412 74.8303 28.8838C74.1541 28.7954 73.7138 28.4042 73.488 27.7721C73.3164 27.2948 73.2958 26.8 73.3409 26.2998C73.4382 25.2194 73.7919 24.2091 74.2008 23.2156C74.7093 21.9773 75.3234 20.7886 75.9528 19.6083C76.4 18.7696 76.8717 17.9453 77.312 17.1043C77.5609 16.6301 77.7807 16.1398 78.0012 15.6495C78.0931 15.4293 78.1681 15.2024 78.2255 14.9709C78.2673 14.7801 78.3811 14.6125 78.5433 14.5027C79.0028 14.1978 79.4905 13.9591 80.038 13.8829C80.305 13.8404 80.5779 13.8536 80.8394 13.9217C81.1009 13.9899 81.3454 14.1114 81.5573 14.2786C81.9991 14.6225 82.1254 15.0838 81.9761 15.6121C81.9152 15.816 81.832 16.0127 81.728 16.1985C81.4324 16.7434 81.1295 17.2848 80.8191 17.8226C80.3788 18.585 79.914 19.33 79.4852 20.0963C78.94 21.0722 78.4132 22.0596 77.8917 23.0463C77.7284 23.3557 77.6111 23.687 77.5433 24.0299C77.5234 24.1244 77.5142 24.2208 77.5157 24.3173C77.5203 24.5042 77.629 24.5926 77.812 24.5461C77.9427 24.509 78.0676 24.4543 78.1834 24.3837C78.4802 24.1978 78.7513 23.974 78.9897 23.718C79.6391 23.0463 80.1912 22.2953 80.7655 21.5618C81.9907 19.9941 83.2158 18.4219 84.4709 16.8725C85.2584 15.8857 86.1367 14.9741 87.0943 14.1497C87.8355 13.5176 88.6104 12.9343 89.4971 12.5165C89.939 12.3083 90.3953 12.1551 90.8938 12.1444C91.779 12.1238 92.4031 12.6286 92.7002 13.3118C92.7569 13.4421 92.8066 13.5756 92.8534 13.7082C92.9006 13.8393 92.9751 13.959 93.0719 14.0595C93.1688 14.16 93.2858 14.2391 93.4154 14.2915C93.6535 14.393 93.8955 14.4883 94.1245 14.6087C94.331 14.7155 94.5269 14.8417 94.7095 14.9854C94.8248 15.0716 94.9111 15.1907 94.9569 15.3269C95.0028 15.463 95.0059 15.6099 94.966 15.7479C94.9226 15.9424 94.8573 16.1314 94.7715 16.3113C94.6115 16.6209 94.4239 16.916 94.2447 17.2156C93.5412 18.3692 92.9021 19.5604 92.3304 20.784C92.1726 21.1302 92.0241 21.484 91.982 21.8675C91.9685 21.9759 91.9716 22.0856 91.9911 22.1931C92.0555 22.5248 92.361 22.7123 92.6803 22.5934C92.8847 22.5132 93.0774 22.406 93.2531 22.2747C93.6816 21.9481 94.0603 21.5613 94.3772 21.1264C94.7715 20.6064 95.136 20.0642 95.515 19.5328C95.6135 19.3815 95.7239 19.2382 95.8451 19.1043C95.9454 18.9976 96.0694 18.9157 96.2071 18.8651C96.3448 18.8146 96.4925 18.7967 96.6384 18.813C97.0212 18.8489 97.2272 19.1447 97.1147 19.5115C97.0669 19.6519 97.0119 19.7898 96.95 19.9247C96.6765 20.5608 96.3383 21.1673 95.9408 21.7348C95.2172 22.8008 94.374 23.7813 93.4277 24.6574C92.7668 25.2567 92.0493 25.7699 91.1994 26.0817C90.7446 26.2572 90.2596 26.3419 89.772 26.331C89.0063 26.3028 88.455 25.8736 88.2475 25.1484C88.2107 25.0181 88.1709 24.8884 88.1403 24.7573C88.0775 24.5102 87.9527 24.4637 87.7574 24.6315C87.6118 24.7599 87.4728 24.8956 87.3408 25.0379C86.8263 25.5678 86.3025 26.0871 85.7052 26.5262C85.2167 26.8861 84.6937 27.1774 84.0972 27.3169C83.6431 27.4344 83.1667 27.4373 82.7112 27.3253C81.9807 27.1332 81.496 26.6627 81.205 25.9811C81.0299 25.5625 80.9413 25.1131 80.9447 24.6597C80.9424 24.4409 80.9431 24.2197 80.9431 23.9552ZM84.7289 23.5526C84.7437 23.6732 84.7678 23.7925 84.8009 23.9094C84.8274 24.0011 84.8888 24.0789 84.9721 24.126C85.0554 24.1732 85.1539 24.186 85.2466 24.1618C85.3489 24.1459 85.4474 24.111 85.5368 24.0589C85.7858 23.9089 86.0247 23.7428 86.252 23.5617C86.8929 23.0204 87.4289 22.3791 87.9243 21.7074C88.957 20.2911 89.8543 18.7817 90.6044 17.1989C90.7997 16.7925 90.952 16.3662 91.1159 15.9454C91.1849 15.7631 91.2096 15.5671 91.1879 15.3735C91.1664 15.1554 91.0478 15.0525 90.8303 15.0487C90.6661 15.0466 90.5054 15.0959 90.3708 15.1897C90.1099 15.3575 89.8586 15.5398 89.6181 15.7357C88.9923 16.2793 88.4275 16.8887 87.9335 17.5534C87.1794 18.5559 86.5023 19.6137 85.9081 20.7177C85.5282 21.3859 85.1995 22.0817 84.9249 22.7993C84.8254 23.0403 84.7595 23.2938 84.7289 23.5526Z" fill="#E32526"/>
<path d="M72.5872 15.2503C73.1921 15.2434 73.7488 15.312 74.281 15.5232C74.6483 15.6572 74.9751 15.8824 75.2305 16.1774C75.5651 16.58 75.6716 17.0238 75.5008 17.5331C75.305 18.097 74.9747 18.6051 74.5383 19.0138C74.3269 19.2197 73.8239 19.283 73.5673 19.1427C73.4956 19.0995 73.4338 19.0419 73.3859 18.9734C73.2802 18.8263 73.1891 18.6684 73.0857 18.5213C72.993 18.3886 72.8989 18.2567 72.7947 18.1339C72.6702 17.9791 72.5074 17.8592 72.3223 17.7859C72.1371 17.7126 71.9361 17.6886 71.7388 17.7161C71.1116 17.7878 70.5779 18.0264 70.2379 18.5907C70.0894 18.8418 69.9908 19.119 69.9477 19.4073C69.8953 19.7331 69.8953 20.0651 69.9477 20.3909C70.0166 20.7801 70.1801 21.1466 70.424 21.4583C70.6782 21.8007 70.9493 22.1308 71.2142 22.4648C71.5259 22.856 71.8161 23.2616 71.98 23.7366C72.0612 23.9474 72.1143 24.1678 72.1377 24.3924C72.2157 25.3899 72.0248 26.3902 71.5849 27.2898C71.1254 28.2146 70.4225 28.9116 69.5342 29.4316C68.6973 29.9211 67.7891 30.2078 66.8342 30.3656C65.8043 30.5356 64.8349 30.3481 63.9114 29.8929C63.452 29.6742 63.0565 29.3419 62.7628 28.9276C62.5911 28.6766 62.4689 28.3953 62.4029 28.0988C62.3659 27.9137 62.3802 27.722 62.4443 27.5444C62.5245 27.2724 62.6222 27.0057 62.7368 26.7461C62.9167 26.3603 63.1197 25.9836 63.3226 25.61C63.6197 25.0588 64.122 25.2044 64.3839 25.5292C64.6849 25.8941 65.0372 26.2138 65.4299 26.4785C65.8311 26.756 66.2569 26.9855 66.7408 27.0885C67.2523 27.1998 67.7194 27.1274 68.1191 26.7629C68.3818 26.5235 68.4599 26.2292 68.3404 25.9013C68.266 25.7022 68.1677 25.5128 68.0479 25.3371C67.8864 25.0954 67.7026 24.8689 67.5196 24.6424C67.0144 24.0299 66.6864 23.2918 66.5708 22.5075C66.4749 21.821 66.5242 21.1221 66.7155 20.4557C67.036 19.2512 67.6459 18.1424 68.4928 17.2251C69.1881 16.4733 70.0036 15.8679 70.9792 15.5057C71.4945 15.3216 72.0399 15.235 72.5872 15.2503Z" fill="#E32526"/>
<path d="M80.1644 9.9376C80.1713 9.57546 80.4147 9.05017 80.8052 8.58891C81.2522 8.04513 81.8716 7.66876 82.5616 7.52155C83.0501 7.41786 83.5287 7.43997 83.9766 7.68775C84.4567 7.95383 84.707 8.37391 84.7461 8.9076C84.7882 9.48702 84.5929 10.0016 84.2568 10.4629C83.7952 11.122 83.0957 11.5779 82.3044 11.7354C81.9546 11.8125 81.5907 11.7976 81.2485 11.6919C80.561 11.4731 80.1513 10.9089 80.1644 9.9376Z" fill="#E32526"/>
<path d="M31.7494 13.4431C31.3313 13.4553 30.963 13.3912 30.6376 13.18C30.094 12.827 29.885 12.3086 29.9485 11.6819C30.0205 10.9416 30.4033 10.3622 30.9523 9.88341C31.4094 9.47547 31.9809 9.21661 32.59 9.14159C32.9519 9.09163 33.3206 9.14448 33.6535 9.29407C34.2186 9.55024 34.5509 10.1037 34.5318 10.7426C34.5153 11.2433 34.3427 11.7264 34.0379 12.1249C33.5471 12.7889 32.904 13.2304 32.0847 13.3973C31.9614 13.4232 31.8382 13.4316 31.7494 13.4431Z" fill="#E32526"/>
</svg>
