<svg width="49" height="40" viewBox="0 0 49 40" fill="none" xmlns="http://www.w3.org/2000/svg">
<path d="M12.6354 28.4359V23.4002H16.6286C16.6511 23.4324 16.7071 23.473 16.7029 23.5053C16.5866 24.4342 17.1639 24.7565 17.9261 24.7929C19.3147 24.8602 20.7074 24.9008 22.0959 24.8532C22.4532 24.842 22.8988 24.5393 23.1244 24.2367C23.5055 23.7252 23.2 23.0275 22.4672 22.8355C21.4598 22.5651 20.4118 22.4446 19.3847 22.2442C18.2428 22.0214 17.0728 21.8813 15.9729 21.5254C13.6456 20.7716 12.5989 19.2976 12.5177 16.9086C12.4392 14.6668 13.5223 12.8453 15.6927 12.0564C16.9558 11.5814 18.2881 11.3159 19.6369 11.2704C22.4084 11.2157 25.1855 11.3909 27.9612 11.4735C28.0657 11.4875 28.1688 11.5105 28.2694 11.5422V16.5976H24.3014C24.2607 16.5275 24.2145 16.4855 24.2201 16.4504C24.3602 15.5677 23.8488 15.2342 23.0866 15.174C21.9516 15.0857 20.8139 15.0339 19.6761 14.9736C19.536 14.9798 19.3979 15.0086 19.267 15.0591C18.7066 15.2244 18.1643 15.4262 18.1461 16.1268C18.1335 16.8568 18.6841 17.1594 19.267 17.2743C20.5 17.5195 21.7583 17.6386 22.9913 17.8838C24.0604 18.0954 25.142 18.3182 26.1593 18.6951C29.8457 20.0598 29.6804 25.352 27.1401 27.1539C25.8545 28.0621 24.3342 28.5802 22.7615 28.6461C21.1376 28.7288 19.5024 28.6167 17.8729 28.583C16.4493 28.5531 15.0262 28.5191 13.6035 28.4808C13.3023 28.4695 13.0039 28.4513 12.6354 28.4359Z" fill="url(#paint0_radial_741_10484)"/>
<path d="M39.1022 11.125C40.1559 11.2959 41.239 11.3632 42.259 11.6518C46.1472 12.7517 48.3596 15.9744 48.2293 20.2185C48.078 25.1225 45.0487 28.355 40.1475 28.6688C38.6863 28.7731 37.2177 28.6564 35.7913 28.3228C31.6214 27.2943 29.2409 23.5588 29.7061 19.0485C30.2161 14.0366 33.719 11.1208 39.1022 11.125ZM35.3765 20.0181C35.5853 20.9877 35.6932 21.9685 36.0197 22.8723C36.482 24.1557 37.5427 24.6938 38.878 24.7176C40.2413 24.7456 41.351 24.2328 41.8681 22.9493C42.2695 22.0005 42.4744 20.9802 42.4706 19.95C42.4667 18.9198 42.2541 17.901 41.8457 16.9552C41.2852 15.6325 40.1236 15.1897 38.7519 15.243C37.4376 15.292 36.4302 15.8833 36 17.1374C35.6806 18.0481 35.5811 19.0289 35.3765 20.0181Z" fill="url(#paint1_radial_741_10484)"/>
<path d="M3.14359 24.265V15.7866H0.523438V11.5972H11.3796V15.7656H8.71738V24.2566H11.4258C11.4258 25.6339 11.4426 26.9118 11.3992 28.1882C11.3992 28.3059 11.0027 28.5063 10.7897 28.5077C8.36289 28.5273 5.93469 28.5161 3.50369 28.5077H0.531844V24.265H3.14359Z" fill="url(#paint2_radial_741_10484)"/>
<path d="M30.5745 30.5354C30.3755 31.2696 30.1878 31.9618 29.9762 32.7394C30.7272 32.8613 31.4796 32.9664 32.218 33.1065C33.2493 33.3027 34.2861 33.4834 35.3006 33.7525C35.8288 33.8926 36.1861 33.7959 36.5336 33.4022C37.1977 32.6497 37.9684 31.9758 38.533 31.1603C39.0459 30.4163 39.6386 30.3645 40.5185 30.555C36.9469 35.7897 32.1116 38.9101 25.8736 39.4299C18.1645 40.0717 12.1185 36.9359 7.625 30.6307C8.64084 30.3 8.92807 30.4051 9.49694 31.0678C10.2269 31.9155 10.9934 32.7338 11.7668 33.5437C11.9069 33.6838 12.1759 33.8239 12.3553 33.7917C14.216 33.4694 16.0697 33.1121 17.9249 32.7618C17.999 32.7369 18.07 32.7035 18.1364 32.6624L17.576 30.5957C18.6661 30.2986 18.7263 30.3519 19.043 31.3397C19.532 32.8641 19.1117 32.5643 20.7608 32.5503C23.1638 32.5292 25.5682 32.5503 27.9697 32.6007C28.5302 32.6119 28.8609 32.4998 28.9421 31.9127C28.981 31.7302 29.032 31.5504 29.0949 31.3747C29.3737 30.3995 29.3737 30.3995 30.5745 30.5354ZM28.2346 33.8267C25.4056 33.6866 22.7084 33.5983 19.9061 33.8463C20.6221 35.4058 21.3073 36.8084 22.5683 37.799C23.6178 38.6159 24.6574 38.5696 25.6761 37.7051C26.8698 36.6977 27.5522 35.3554 28.2346 33.8267ZM20.8393 38.0792C20.1191 36.7607 19.4171 35.4619 18.6927 34.1756C18.6443 34.1167 18.5826 34.0701 18.5127 34.0396C18.4428 34.0092 18.3667 33.9958 18.2906 34.0005C16.6919 34.2246 15.096 34.4712 13.5 34.7122V34.921C15.7279 36.5029 18.1645 37.5986 20.8393 38.0792ZM27.2986 38.0484C29.0809 37.9587 33.2423 36.1835 34.7121 34.7767C33.0125 34.5077 31.4124 34.2485 29.8081 34.0173C29.682 34.0005 29.4704 34.1574 29.3961 34.2821C28.6731 35.5487 27.9726 36.8266 27.2986 38.0484Z" fill="url(#paint3_radial_741_10484)"/>
<path d="M40.4471 9.53611C39.6541 9.69023 39.0894 9.63839 38.5808 8.9252C37.9503 8.03967 37.1348 7.28165 36.3684 6.4984C36.2794 6.41688 36.1743 6.35483 36.06 6.31623C35.9456 6.27762 35.8245 6.26331 35.7042 6.27422C33.8281 6.6189 31.959 7.00001 30.0184 7.38393C30.1935 8.05648 30.3757 8.76127 30.5578 9.46184C29.4957 9.7757 29.3962 9.72386 29.116 8.76127C28.7349 7.44839 28.7349 7.50023 27.3548 7.50023C24.9056 7.50723 22.4507 7.4666 20.0071 7.41195C19.5868 7.40215 19.3542 7.49462 19.2701 7.92197C19.2169 8.2022 19.1006 8.45581 19.0221 8.72343C18.7293 9.72526 18.7307 9.72666 17.5817 9.51369C17.6728 9.14098 17.7583 8.76967 17.8535 8.40117C17.9488 8.03267 18.0497 7.68938 18.1338 7.36291C16.1806 6.96078 14.268 6.55865 12.3498 6.18875C12.1943 6.15792 11.9533 6.30504 11.8258 6.43955C11.051 7.24662 10.2719 8.05368 9.54611 8.90418C8.85394 9.71405 8.84553 9.74487 7.72461 9.52069C10.0463 5.23176 16.0601 0.795707 23.1947 0.505668C31.0888 0.170792 37.5356 4.59143 40.4471 9.53611ZM19.8754 6.2504H28.2655C27.4444 4.52698 26.7242 2.91145 25.1199 1.94325C24.7906 1.73462 24.4072 1.62761 24.0175 1.63559C23.6277 1.64356 23.249 1.76616 22.9285 1.98809C21.3845 2.95769 20.6839 4.52698 19.8754 6.2504ZM27.2048 1.90682C27.8466 2.99272 28.4939 4.00855 29.0628 5.07063C29.5896 6.05143 29.5574 6.09907 30.6755 5.94214C31.9982 5.75719 33.3111 5.50919 34.8355 5.25278C32.5704 3.58742 29.9644 2.4447 27.2048 1.90682ZM20.8688 1.91663C18.1475 2.44399 15.5797 3.57703 13.3558 5.23176C15.1101 5.51199 16.6443 5.78101 18.1842 6.00099C18.2958 5.99932 18.4054 5.97144 18.5042 5.91959C18.6031 5.86775 18.6883 5.7934 18.7531 5.70255C19.4747 4.46673 20.1584 3.20429 20.8688 1.92083V1.91663Z" fill="url(#paint4_radial_741_10484)"/>
<defs>
<radialGradient id="paint0_radial_741_10484" cx="0" cy="0" r="1" gradientUnits="userSpaceOnUse" gradientTransform="translate(20.7542 19.9679) rotate(90) scale(8.70793 8.24055)">
<stop stop-color="#F7D976"/>
<stop offset="1" stop-color="#C9964A"/>
</radialGradient>
<radialGradient id="paint1_radial_741_10484" cx="0" cy="0" r="1" gradientUnits="userSpaceOnUse" gradientTransform="translate(38.9416 19.9154) rotate(90) scale(8.7904 9.29316)">
<stop stop-color="#F7D976"/>
<stop offset="1" stop-color="#C9964A"/>
</radialGradient>
<radialGradient id="paint2_radial_741_10484" cx="0" cy="0" r="1" gradientUnits="userSpaceOnUse" gradientTransform="translate(5.97623 20.0579) rotate(90) scale(8.46071 5.45279)">
<stop stop-color="#F7D976"/>
<stop offset="1" stop-color="#C9964A"/>
</radialGradient>
<radialGradient id="paint3_radial_741_10484" cx="0" cy="0" r="1" gradientUnits="userSpaceOnUse" gradientTransform="translate(24.0717 34.9745) rotate(90) scale(4.53753 16.4467)">
<stop stop-color="#F7D976"/>
<stop offset="1" stop-color="#C9964A"/>
</radialGradient>
<radialGradient id="paint4_radial_741_10484" cx="0" cy="0" r="1" gradientUnits="userSpaceOnUse" gradientTransform="translate(24.0859 5.06414) rotate(90) scale(4.57635 16.3613)">
<stop stop-color="#F7D976"/>
<stop offset="1" stop-color="#C9964A"/>
</radialGradient>
</defs>
</svg>
