<svg width="31" height="31" viewBox="0 0 31 31" fill="none" xmlns="http://www.w3.org/2000/svg">
<path d="M15.2048 1.97729C7.96928 1.97729 2.10352 7.84273 2.10352 15.0784C2.10352 22.3141 7.96928 28.1795 15.2048 28.1795C22.4405 28.1795 28.306 22.3141 28.306 15.0784C28.306 7.84273 22.4405 1.97729 15.2048 1.97729ZM22.7194 11.6799L14.2463 20.1534L14.2459 20.1538C13.8554 20.5444 13.2596 20.6053 12.805 20.3369C12.7206 20.2871 12.6414 20.2259 12.569 20.1538C12.5688 20.1537 12.5688 20.1537 12.5688 20.1537L7.69023 15.2751C7.22743 14.812 7.22743 14.0613 7.69023 13.598C8.15335 13.1349 8.90422 13.1349 9.36735 13.598L13.4075 17.6381L21.0426 10.003C21.5055 9.54003 22.2566 9.54003 22.7195 10.003C23.1825 10.4663 23.1825 11.217 22.7194 11.6799Z" fill="white"/>
</svg>
