<svg width="367" height="41" viewBox="0 0 367 41" fill="none" xmlns="http://www.w3.org/2000/svg">
<mask id="mask0_758_93" style="mask-type:alpha" maskUnits="userSpaceOnUse" x="0" y="0" width="367" height="41">
<path d="M0.599609 0.0584412H366.6V24.0717C366.6 32.9009 359.442 40.0584 350.613 40.0584H16.5864C7.75711 40.0584 0.599609 32.9009 0.599609 24.0717V0.0584412Z" fill="#D9D9D9"/>
</mask>
<g mask="url(#mask0_758_93)">
<path d="M111.084 59.586L42.0625 59.586L42.0625 -9.45149H111.084" fill="white"/>
<path d="M76.5715 25.0677C57.5069 25.0677 42.0527 9.61356 42.0527 -9.44904L111.088 -9.44904C111.09 9.61356 95.6361 25.0677 76.5715 25.0677Z" fill="#1C3867"/>
<path d="M76.57 14.7623C63.1987 14.7623 52.3594 3.92298 52.3594 -9.44831L100.779 -9.44831C100.781 3.92298 89.9413 14.7623 76.57 14.7623Z" fill="#2D72EC"/>
<path d="M91.0988 -9.44835C91.0988 -1.42758 84.5956 5.07562 76.5748 5.07562C68.552 5.07562 62.0488 -1.42758 62.0488 -9.44835L91.0988 -9.44835Z" fill="#1C3867"/>
<path d="M71.2461 59.5866H111.081V19.7514L71.2461 59.5866Z" fill="#1C3867"/>
<path d="M111.084 -9.46034V59.5772L180.122 59.5772V-9.46034" fill="#2D72EC"/>
<path d="M180.118 -9.45836L111.08 59.5772L180.118 59.5772V-9.45836Z" fill="white"/>
<path d="M111.08 59.5772L145.599 25.0604L180.118 59.5772L111.08 59.5772Z" fill="#1C3867"/>
<path d="M111.084 19.5538C127.103 19.5538 140.096 6.57146 140.096 -9.45804L111.084 -9.45804V19.5538Z" fill="#1C3867"/>
<path d="M248.783 -9.45097V59.5865L317.821 59.5865V-9.45097" fill="#2D72EC"/>
<path d="M317.817 -9.44899L248.779 59.5865L317.817 59.5865V-9.44899Z" fill="#1C3867"/>
<path d="M248.779 59.5865L283.298 25.0698L317.817 59.5865L248.779 59.5865Z" fill="#1C3867"/>
<path d="M248.783 19.5632C264.803 19.5632 277.795 6.58086 277.795 -9.44864L248.783 -9.44864V19.5632Z" fill="#1C3867"/>
<path d="M249.155 -9.46095V59.5766L180.119 59.5766V-9.46095" fill="#2D72EC"/>
<path d="M180.119 -9.4688H249.157V25.058C249.157 44.1186 233.707 59.5687 214.63 59.5687C205.1 59.5687 196.467 55.7097 190.223 49.4651C183.978 43.2205 180.119 34.5883 180.119 25.058V-9.4688Z" fill="#1C3867"/>
<path d="M180.119 25.0662L249.155 25.0662C249.155 6.00557 233.705 -9.46063 214.63 -9.46063C205.1 -9.46063 196.467 -5.58556 190.223 0.659054C183.978 6.90366 180.119 15.5359 180.119 25.0662Z" fill="white"/>
<path d="M214.63 39.6001C222.657 39.6001 229.166 33.0909 229.166 25.0641H200.094C200.094 33.0929 206.603 39.6001 214.63 39.6001Z" fill="white"/>
<path d="M200.094 25.0662L229.166 25.0662C229.166 17.0394 222.657 10.5301 214.63 10.5301C206.603 10.5301 200.094 17.0374 200.094 25.0662Z" fill="#2D72EC"/>
<path d="M-26.9844 -9.45894L-26.9844 59.5766L42.0511 59.5766V-9.45894H-26.9844Z" fill="white"/>
<path d="M-26.9844 -9.45894L-26.9844 59.5766H8.85948L8.85948 -9.45894H-26.9844Z" fill="#1C3867"/>
<path d="M-26.9844 -9.45821L42.0511 -9.45821C42.0511 0.0720882 38.1921 8.70426 31.9315 14.9489C25.9815 20.8988 17.8605 24.6796 8.85748 25.0204C8.40843 25.0365 7.97341 25.0505 7.52436 25.0505C-5.47806 25.0505 -16.8046 17.8597 -22.6783 7.24484C-25.4207 2.30328 -26.9844 -3.39803 -26.9844 -9.45821Z" fill="#2D72EC"/>
<path d="M8.86719 25.0499L42.0468 59.5627L8.86719 59.5687L8.86719 25.0499Z" fill="#2D72EC"/>
<path d="M42.0468 59.5687L8.86719 25.056L42.0468 25.0499V59.5687Z" fill="#1C3867"/>
<path d="M-26.9902 25.0499L6.18939 59.5627L-26.9902 59.5687L-26.9902 25.0499Z" fill="white"/>
<path d="M317.818 -9.44498V59.5865L386.85 59.5865V-9.44498H317.818Z" fill="#1C3867"/>
<path d="M317.818 -9.44498V59.5865L386.85 59.5865V-9.44498H317.818Z" fill="#1C3867"/>
<path d="M317.819 25.0714L352.334 59.5865L386.849 25.0714L352.334 -9.4437L317.819 25.0714Z" fill="#2D72EC"/>
<path d="M331.499 25.0714L352.334 45.9061L373.169 25.0714L352.334 4.23679L331.499 25.0714Z" fill="white"/>
<path d="M317.818 39.7621L337.651 59.5865H317.818V39.7621Z" fill="white"/>
<path d="M317.818 9.39886L337.651 -9.44923H317.818V9.39886Z" fill="white"/>
<path d="M340.579 25.0747L352.334 36.8302L364.089 25.0747L352.334 13.3192L340.579 25.0747Z" fill="#1C3867"/>
</g>
</svg>
