<svg width="367" height="41" viewBox="0 0 367 41" fill="none" xmlns="http://www.w3.org/2000/svg">
<mask id="mask0_746_17891" style="mask-type:alpha" maskUnits="userSpaceOnUse" x="0" y="0" width="367" height="41">
<path d="M0.402344 0.0584412H366.402V24.0717C366.402 32.9009 359.245 40.0584 350.416 40.0584H16.3891C7.55985 40.0584 0.402344 32.9009 0.402344 24.0717V0.0584412Z" fill="#D9D9D9"/>
</mask>
<g mask="url(#mask0_746_17891)">
<path d="M110.887 59.586L41.8652 59.586L41.8652 -9.45149H110.887" fill="white"/>
<path d="M76.3742 25.0677C57.3096 25.0677 41.8555 9.61356 41.8555 -9.44904L110.891 -9.44904C110.893 9.61356 95.4388 25.0677 76.3742 25.0677Z" fill="#580A14"/>
<path d="M76.3728 14.7623C63.0015 14.7623 52.1621 3.92298 52.1621 -9.44831L100.581 -9.44831C100.583 3.92298 89.744 14.7623 76.3728 14.7623Z" fill="#DA0E29"/>
<path d="M90.9015 -9.44835C90.9015 -1.42758 84.3983 5.07562 76.3775 5.07562C68.3548 5.07562 61.8516 -1.42758 61.8516 -9.44835L90.9015 -9.44835Z" fill="#580A14"/>
<path d="M71.0488 59.5866H110.884V19.7514L71.0488 59.5866Z" fill="#580A14"/>
<path d="M110.887 -9.46034V59.5772L179.924 59.5772V-9.46034" fill="#DA0E29"/>
<path d="M179.92 -9.45836L110.883 59.5772L179.92 59.5772V-9.45836Z" fill="white"/>
<path d="M110.883 59.5772L145.402 25.0604L179.92 59.5772L110.883 59.5772Z" fill="#580A14"/>
<path d="M110.887 19.5538C126.906 19.5538 139.899 6.57146 139.899 -9.45804L110.887 -9.45804V19.5538Z" fill="#580A14"/>
<path d="M248.586 -9.45097V59.5865L317.623 59.5865V-9.45097" fill="#DA0E29"/>
<path d="M317.62 -9.44899L248.582 59.5865L317.62 59.5865V-9.44899Z" fill="#580A14"/>
<path d="M248.582 59.5865L283.101 25.0698L317.62 59.5865L248.582 59.5865Z" fill="#580A14"/>
<path d="M248.586 19.5632C264.605 19.5632 277.598 6.58086 277.598 -9.44864L248.586 -9.44864V19.5632Z" fill="#580A14"/>
<path d="M248.957 -9.46095V59.5766L179.922 59.5766V-9.46095" fill="#DA0E29"/>
<path d="M179.922 -9.4688H248.959V25.058C248.959 44.1186 233.509 59.5687 214.433 59.5687C204.902 59.5687 196.27 55.7097 190.025 49.4651C183.781 43.2205 179.922 34.5883 179.922 25.058V-9.4688Z" fill="#580A14"/>
<path d="M179.922 25.0662L248.957 25.0662C248.957 6.00557 233.507 -9.46063 214.433 -9.46063C204.902 -9.46063 196.27 -5.58556 190.026 0.659054C183.781 6.90366 179.922 15.5359 179.922 25.0662Z" fill="white"/>
<path d="M214.432 39.6001C222.459 39.6001 228.969 33.0909 228.969 25.0641H199.896C199.896 33.0929 206.406 39.6001 214.432 39.6001Z" fill="white"/>
<path d="M199.896 25.0662L228.969 25.0662C228.969 17.0394 222.459 10.5301 214.432 10.5301C206.406 10.5301 199.896 17.0374 199.896 25.0662Z" fill="#DA0E29"/>
<path d="M-27.1816 -9.45894L-27.1816 59.5766L41.8539 59.5766V-9.45894H-27.1816Z" fill="white"/>
<path d="M-27.1816 -9.45894L-27.1816 59.5766H8.66222L8.66222 -9.45894H-27.1816Z" fill="#580A14"/>
<path d="M-27.1816 -9.45821L41.8539 -9.45821C41.8539 0.0720882 37.9948 8.70426 31.7342 14.9489C25.7843 20.8988 17.6633 24.6796 8.66021 25.0204C8.21116 25.0365 7.77615 25.0505 7.3271 25.0505C-5.67533 25.0505 -17.0018 17.8597 -22.8756 7.24484C-25.618 2.30328 -27.1816 -3.39803 -27.1816 -9.45821Z" fill="#DA0E29"/>
<path d="M8.66992 25.0499L41.8495 59.5627L8.66992 59.5687L8.66992 25.0499Z" fill="#DA0E29"/>
<path d="M41.8495 59.5687L8.66992 25.056L41.8495 25.0499V59.5687Z" fill="#580A14"/>
<path d="M-27.1875 25.0499L5.99213 59.5627L-27.1875 59.5687L-27.1875 25.0499Z" fill="white"/>
<path d="M317.621 -9.44498V59.5865L386.653 59.5865V-9.44498H317.621Z" fill="#580A14"/>
<path d="M317.621 -9.44498V59.5865L386.653 59.5865V-9.44498H317.621Z" fill="#580A14"/>
<path d="M317.622 25.0714L352.137 59.5865L386.652 25.0714L352.137 -9.4437L317.622 25.0714Z" fill="#DA0E29"/>
<path d="M331.302 25.0714L352.137 45.9061L372.971 25.0714L352.137 4.23679L331.302 25.0714Z" fill="white"/>
<path d="M317.621 39.7621L337.453 59.5865H317.621V39.7621Z" fill="white"/>
<path d="M317.621 9.39886L337.453 -9.44923H317.621V9.39886Z" fill="white"/>
<path d="M340.381 25.0747L352.137 36.8302L363.892 25.0747L352.137 13.3192L340.381 25.0747Z" fill="#580A14"/>
</g>
</svg>
