<svg width="41" height="41" viewBox="0 0 41 41" fill="none" xmlns="http://www.w3.org/2000/svg">
<path d="M36.4574 8.28079H37.7061C38.1417 8.28079 38.4949 7.92756 38.4949 7.49197C38.4949 7.05639 38.1417 6.70316 37.7061 6.70316H34.7086C34.273 6.70316 33.9198 7.05639 33.9198 7.49197V10.4895C33.9198 10.9251 34.273 11.2783 34.7086 11.2783C35.1442 11.2783 35.4974 10.9251 35.4974 10.4895V9.62155C37.8909 12.8258 39.1918 16.7137 39.1918 20.7573C39.1918 31.0296 30.8348 39.3867 20.5625 39.3867C10.2902 39.3867 1.93311 31.0296 1.93311 20.7573C1.93311 10.485 10.2902 2.12793 20.5625 2.12793C21.3222 2.12793 22.0868 2.17408 22.8352 2.26503C23.2671 2.31725 23.661 2.00969 23.7135 1.57718C23.7661 1.14475 23.4582 0.751442 23.0256 0.698906C22.2143 0.600304 21.3856 0.550293 20.5625 0.550293C15.165 0.550293 10.0905 2.65218 6.27397 6.4688C2.45735 10.2853 0.355469 15.3598 0.355469 20.7573C0.355469 26.1548 2.45735 31.2293 6.27397 35.0458C10.0905 38.8624 15.165 40.9643 20.5625 40.9643C25.96 40.9643 31.0344 38.8624 34.851 35.0458C38.6676 31.2293 40.7695 26.1548 40.7695 20.7573C40.7695 16.2026 39.2479 11.83 36.4574 8.28079Z" fill="#1C3867"/>
<path d="M8.9113 12.4626C8.54316 12.2296 8.0559 12.3392 7.82281 12.7071C6.02201 15.5513 5.22483 18.9718 5.57815 22.3385C5.93666 25.7552 7.47447 28.9772 9.90829 31.4111C12.8455 34.3483 16.7036 35.8169 20.5619 35.8169C24.4202 35.8169 28.2783 34.3484 31.2155 31.4111C37.0899 25.5367 37.0899 15.9783 31.2155 10.1039C28.7854 7.67391 25.5687 6.13666 22.1577 5.77538C18.7972 5.41923 15.3804 6.21018 12.5374 8.00214C12.1688 8.23445 12.0584 8.72154 12.2907 9.09008C12.523 9.45869 13.0101 9.56905 13.3786 9.33682C18.7377 5.9591 25.6136 6.73317 30.0999 11.2195C35.3592 16.4788 35.3592 25.0362 30.0999 30.2955C24.8407 35.5549 16.2831 35.5549 11.0239 30.2955C6.59959 25.8712 5.81392 18.8291 9.15583 13.5512C9.38877 13.183 9.27936 12.6957 8.9113 12.4626Z" fill="#1C3867"/>
<path d="M30.8166 21.559H31.7894C32.225 21.559 32.5782 21.2058 32.5782 20.7702C32.5782 20.3346 32.225 19.9814 31.7894 19.9814H30.8166C30.381 19.9814 30.0278 20.3346 30.0278 20.7702C30.0278 21.2058 30.3809 21.559 30.8166 21.559Z" fill="#1C3867"/>
<path d="M8.54609 20.7446C8.54609 21.1802 8.89932 21.5334 9.33491 21.5334H10.3077C10.7433 21.5334 11.0965 21.1802 11.0965 20.7446C11.0965 20.309 10.7433 19.9558 10.3077 19.9558H9.33491C8.89932 19.9558 8.54609 20.3089 8.54609 20.7446Z" fill="#1C3867"/>
<path d="M21.3642 10.5025V9.52973C21.3642 9.09415 21.011 8.74092 20.5754 8.74092C20.1398 8.74092 19.7866 9.09415 19.7866 9.52973V10.5025C19.7866 10.9381 20.1398 11.2913 20.5754 11.2913C21.011 11.2913 21.3642 10.9381 21.3642 10.5025Z" fill="#1C3867"/>
<path d="M19.7614 31.0119V31.9846C19.7614 32.4202 20.1146 32.7734 20.5502 32.7734C20.9858 32.7734 21.339 32.4202 21.339 31.9846V31.0119C21.339 30.5763 20.9858 30.223 20.5502 30.223C20.1146 30.223 19.7614 30.5762 19.7614 31.0119Z" fill="#1C3867"/>
<path d="M16.6088 15.6876C16.3007 15.3797 15.8014 15.3797 15.4932 15.6876C15.1852 15.9957 15.1852 16.4952 15.4932 16.8033L18.1666 19.4767C17.9617 19.8584 17.8452 20.2944 17.8452 20.7571C17.8452 22.2556 19.0643 23.4746 20.5627 23.4746C22.0611 23.4746 23.2802 22.2556 23.2802 20.7571C23.2802 20.2944 23.1636 19.8584 22.9588 19.4767L28.353 14.0825C28.661 13.7744 28.661 13.275 28.353 12.9668C28.0449 12.6589 27.5456 12.6589 27.2374 12.9668L21.8432 18.361C21.4614 18.1562 21.0254 18.0397 20.5627 18.0397C20.1 18.0397 19.664 18.1562 19.2822 18.361L16.6088 15.6876ZM21.7025 20.7571C21.7025 21.3857 21.1912 21.897 20.5627 21.897C19.9342 21.897 19.4228 21.3857 19.4228 20.7571C19.4228 20.1286 19.9342 19.6173 20.5627 19.6173C21.1912 19.6173 21.7025 20.1286 21.7025 20.7571Z" fill="#1C3867"/>
<path d="M11.0245 11.219C11.1721 11.0722 11.2564 10.8687 11.2564 10.6613C11.2564 10.4538 11.1721 10.2511 11.0245 10.1036C10.8778 9.95692 10.675 9.87244 10.4669 9.87244C10.2594 9.87244 10.0559 9.95684 9.90916 10.1036C9.76252 10.2503 9.67803 10.4538 9.67803 10.6613C9.67803 10.8695 9.76244 11.0722 9.90916 11.219C10.0559 11.3656 10.2594 11.4501 10.4669 11.4501C10.675 11.4501 10.8778 11.3656 11.0245 11.219Z" fill="#1C3867"/>
<path d="M26.0269 2.90719C26.2352 2.90719 26.4387 2.8235 26.5853 2.67607C26.7321 2.52935 26.8165 2.32654 26.8165 2.11837C26.8165 1.91091 26.7321 1.7074 26.5853 1.56068C26.4387 1.41403 26.2352 1.32955 26.0269 1.32955C25.8194 1.32955 25.6159 1.41396 25.4692 1.56068C25.3225 1.7074 25.238 1.91091 25.238 2.11837C25.238 2.32662 25.3224 2.52935 25.4692 2.67607C25.6159 2.8235 25.8194 2.90719 26.0269 2.90719Z" fill="#1C3867"/>
</svg>
