<svg width="44" height="44" viewBox="0 0 44 44" fill="none" xmlns="http://www.w3.org/2000/svg">
<path d="M1.66983 23.5936L0.230263 23.6941C0.264094 24.1825 0.315192 24.6769 0.382501 25.1625L1.81291 24.9648C1.75018 24.5116 1.70155 24.0461 1.66983 23.5936Z" fill="#1C3867"/>
<path d="M3.85889 12.9149L2.57649 12.2524C2.35131 12.6851 2.1381 13.138 1.94322 13.5898L3.26861 14.1621C3.45186 13.7406 3.65097 13.3212 3.85889 12.9149Z" fill="#1C3867"/>
<path d="M2.04849 26.3233L0.635355 26.6201C0.736495 27.1014 0.852083 27.5835 0.987759 28.055L2.37623 27.6632C2.25289 27.222 2.14258 26.773 2.04849 26.3233Z" fill="#1C3867"/>
<path d="M2.02986 18.1037L0.615315 17.8151C0.518051 18.2933 0.434884 18.7842 0.370042 19.2719L1.80045 19.4633C1.86106 19.0079 1.93824 18.5502 2.02986 18.1037Z" fill="#1C3867"/>
<path d="M5.28992 10.5566L4.10901 9.72523C3.82779 10.1256 3.55574 10.5421 3.30095 10.9629L4.53507 11.7114C4.77329 11.3177 5.02738 10.9297 5.28992 10.5566Z" fill="#1C3867"/>
<path d="M2.76551 15.4471L1.40453 14.9678C1.24067 15.4334 1.09195 15.9063 0.96121 16.3782L2.35285 16.763C2.47337 16.3239 2.61257 15.8816 2.76551 15.4471Z" fill="#1C3867"/>
<path d="M1.66523 20.8353L0.221785 20.7415C0.192535 21.2127 0.177734 21.6888 0.177734 22.1698V22.216L1.62118 22.1698C1.62118 21.7219 1.63598 21.2772 1.66523 20.8353Z" fill="#1C3867"/>
<path d="M2.79569 28.9765L1.43753 29.4628C1.60351 29.9262 1.78605 30.3875 1.98164 30.834L3.30456 30.2568C3.12202 29.8388 2.95075 29.4089 2.79569 28.9765Z" fill="#1C3867"/>
<path d="M7.02617 8.41305L5.96896 7.4309C5.63488 7.79176 5.30856 8.16637 5.00056 8.5459L6.12191 9.45546C6.40912 9.10023 6.71394 8.74959 7.02617 8.41305Z" fill="#1C3867"/>
<path d="M19.0149 2.15725L18.8126 0.726845C18.3291 0.794154 17.8393 0.879788 17.3572 0.980928L17.6536 2.39477C18.1032 2.29892 18.561 2.21927 19.0149 2.15725Z" fill="#1C3867"/>
<path d="M21.7629 1.96151L21.7569 0.518066C21.2631 0.518066 20.7666 0.537801 20.281 0.572337L20.3835 2.01578C20.8392 1.97948 21.2987 1.96151 21.7629 1.96151Z" fill="#1C3867"/>
<path d="M16.3144 2.72366L15.9225 1.33448C15.4527 1.46699 14.9784 1.61852 14.5153 1.78556L15.0031 3.14372C15.4355 2.98866 15.8763 2.8477 16.3144 2.72366Z" fill="#1C3867"/>
<path d="M9.03598 6.52656L8.1222 5.40944C7.74266 5.71956 7.36876 6.04729 7.01178 6.38278L7.99956 7.43506C8.33294 7.12177 8.68252 6.81589 9.03598 6.52656Z" fill="#1C3867"/>
<path d="M13.7233 3.65341L13.1457 2.33119C12.6992 2.52677 12.2516 2.74174 11.815 2.96974L12.4832 4.24862C12.8888 4.03576 13.306 3.83807 13.7233 3.65341Z" fill="#1C3867"/>
<path d="M11.2819 4.92841L10.5267 3.69782C10.1081 3.95472 9.694 4.22889 9.29543 4.51257L10.132 5.6889C10.5045 5.42565 10.8908 5.16769 11.2819 4.92841Z" fill="#1C3867"/>
<path d="M29.8946 40.7046L30.4722 42.0275C30.9219 41.832 31.369 41.6177 31.8036 41.3918L31.1396 40.1112C30.7326 40.3219 30.314 40.5221 29.8946 40.7046Z" fill="#1C3867"/>
<path d="M36.6013 35.959L37.6568 36.945C37.9916 36.5841 38.3186 36.2117 38.628 35.8314L37.5088 34.9198C37.2194 35.275 36.9132 35.6249 36.6013 35.959Z" fill="#1C3867"/>
<path d="M34.5883 37.842L35.5003 38.9605C35.8799 38.6507 36.2538 38.3241 36.6125 37.9896L35.6276 36.9345C35.291 37.2489 34.9446 37.5512 34.5883 37.842Z" fill="#1C3867"/>
<path d="M38.3437 33.8197L39.5224 34.6556C39.8054 34.2549 40.0789 33.8398 40.3337 33.4198L39.101 32.6695C38.862 33.0575 38.608 33.4458 38.3437 33.8197Z" fill="#1C3867"/>
<path d="M32.3385 39.4338L33.0884 40.6658C33.5057 40.411 33.9204 40.1383 34.3218 39.8546L33.4873 38.6769C33.1159 38.9419 32.7276 39.1967 32.3385 39.4338Z" fill="#1C3867"/>
<path d="M27.3011 41.628L27.6909 43.0183C28.162 42.8861 28.6364 42.7353 29.0991 42.5707L28.6131 41.2111C28.18 41.3676 27.7406 41.5054 27.3011 41.628Z" fill="#1C3867"/>
<path d="M41.9913 23.5489L43.4312 23.6454C43.4643 23.1563 43.4809 22.6598 43.4809 22.1696H42.0374C42.0374 22.633 42.0219 23.0929 41.9913 23.5489Z" fill="#1C3867"/>
<path d="M41.62 26.2796L43.0339 26.5682C43.1329 26.0896 43.2164 25.5987 43.283 25.1117L41.8526 24.9175C41.7906 25.3757 41.7123 25.8327 41.62 26.2796Z" fill="#1C3867"/>
<path d="M40.8784 28.9337L42.238 29.4165C42.4032 28.9517 42.5534 28.4784 42.6848 28.0076L41.2942 27.6196C41.1712 28.0577 41.0313 28.4999 40.8784 28.9337Z" fill="#1C3867"/>
<path d="M39.778 31.4641L41.0596 32.1291C41.2855 31.696 41.4991 31.2449 41.6947 30.7938L40.3711 30.2162C40.1885 30.6384 39.9887 31.0578 39.778 31.4641Z" fill="#1C3867"/>
<path d="M3.89766 31.4983L2.61808 32.1664C2.84538 32.5995 3.0903 33.0326 3.34509 33.4502L4.57991 32.6975C4.33887 32.3088 4.11086 31.9053 3.89766 31.4983Z" fill="#1C3867"/>
<path d="M8.18877 38.9862C8.57113 39.297 8.96758 39.5972 9.3665 39.8788L10.1964 38.6972C9.82075 38.4318 9.4539 38.1541 9.09585 37.8645L8.18877 38.9862Z" fill="#1C3867"/>
<path d="M13.227 42.0454C13.6753 42.2395 14.1387 42.4221 14.6049 42.5874L15.0863 41.2264C14.6532 41.0717 14.2201 40.9022 13.8022 40.721L13.227 42.0454Z" fill="#1C3867"/>
<path d="M10.6015 40.6862C11.023 40.9424 11.4568 41.1856 11.8913 41.408L12.5545 40.1252C12.1489 39.9159 11.7447 39.6886 11.3507 39.4497L10.6015 40.6862Z" fill="#1C3867"/>
<path d="M6.02353 36.9704C6.36043 37.3313 6.71283 37.6812 7.06911 38.0139L8.05372 36.9574C7.72035 36.6469 7.39121 36.3192 7.07651 35.9837L6.02353 36.9704Z" fill="#1C3867"/>
<path d="M5.33605 33.8496L4.15832 34.6837C4.44201 35.0837 4.74296 35.4777 5.05307 35.859L6.16808 34.9445C5.87946 34.5907 5.60036 34.2228 5.33605 33.8496Z" fill="#1C3867"/>
<path d="M24.6026 42.189L24.7982 43.6187C25.2827 43.5521 25.7726 43.4686 26.2546 43.3681L25.9618 41.955C25.51 42.048 25.0547 42.127 24.6026 42.189Z" fill="#1C3867"/>
<path d="M18.9072 43.6259C19.39 43.6911 19.8845 43.7408 20.3771 43.7704L20.4733 42.3269C20.012 42.2966 19.5507 42.2498 19.1021 42.1892L18.9072 43.6259Z" fill="#1C3867"/>
<path d="M21.8506 42.3778V43.8213C22.345 43.8213 22.8416 43.804 23.3275 43.7702L23.2285 42.3267C22.7739 42.3609 22.3147 42.3778 21.8506 42.3778Z" fill="#1C3867"/>
<path d="M16.0146 43.0314C16.489 43.1632 16.9725 43.2802 17.451 43.3785L17.7396 41.9647C17.2928 41.873 16.8417 41.7638 16.4001 41.6412L16.0146 43.0314Z" fill="#1C3867"/>
<path d="M27.7478 6.60875L27.3327 13.6674C27.2724 14.6964 27.6547 15.7022 28.3835 16.4316L29.7836 17.8303L32.3318 11.1999L34.9079 13.7756V16.9613C34.9069 17.5347 35.1352 18.0851 35.5422 18.489L36.7936 19.7414L38.3245 17.19L38.6917 17.5565C39.2354 18.1197 40.0403 18.3452 40.7976 18.1471C41.5546 17.9491 42.1456 17.3578 42.344 16.6008C42.542 15.8438 42.3161 15.0386 41.7533 14.4952L41.3868 14.1283L43.9386 12.5971L42.6872 11.344C42.2823 10.9363 41.7311 10.7079 41.1564 10.7097H37.9692L35.3978 8.13466L42.0321 5.58326L40.6288 4.18245C39.9004 3.45298 38.8943 3.07097 37.8656 3.13229L30.807 3.54742L28.4854 1.22473C27.6283 0.407155 26.28 0.407155 25.423 1.22473C24.5772 2.0705 24.5772 3.44135 25.423 4.28712L27.7478 6.60875ZM29.2388 15.2247C28.9082 14.8074 28.7426 14.283 28.7733 13.7516L29.113 7.97784L31.2175 10.0824L29.2388 15.2247ZM36.5092 17.4064C36.4074 17.2781 36.3517 17.1192 36.3514 16.9553V15.2155L37.2743 16.137L36.5092 17.4064ZM41.1557 12.151C41.3195 12.1514 41.4785 12.207 41.6068 12.3089L40.3353 13.0761L39.4134 12.1552L41.1557 12.151ZM37.9499 4.57292C38.4813 4.54155 39.006 4.70753 39.4229 5.03844L34.2778 7.01719L32.1733 4.91263L37.9499 4.57292ZM26.4442 2.246C26.7258 1.96478 27.1822 1.96478 27.4641 2.246L40.7328 15.515C41.014 15.7966 41.014 16.253 40.7328 16.5345C40.4473 16.8077 39.9977 16.8077 39.7122 16.5345L26.4442 3.26585C26.163 2.98393 26.163 2.52792 26.4442 2.246Z" fill="#1C3867"/>
<path d="M15.5329 6.97673C19.0407 5.5609 22.9139 5.32468 26.5677 6.30372L22.0567 23.1391L26.2219 7.59289C22.8479 6.68883 19.2714 6.90696 16.0323 8.21435C12.7931 9.52174 10.0673 11.8474 8.26616 14.8403C6.46505 17.8331 5.68649 21.3307 6.04801 24.8049C6.40953 28.2792 7.89151 31.5415 10.2702 34.0995C12.6489 36.6574 15.7952 38.372 19.2341 38.9845C22.673 39.597 26.2178 39.0741 29.3334 37.4948C32.449 35.9154 34.9662 33.3654 36.505 30.2296C38.0438 27.0939 38.5207 23.5427 37.8638 20.1121L39.1751 19.861C39.8866 23.5762 39.3702 27.422 37.7037 30.8179C36.0372 34.2138 33.3113 36.9754 29.9373 38.6857C26.5633 40.396 22.7245 40.9623 19.0003 40.299C15.2762 39.6357 11.869 37.7789 9.29296 35.0088C6.71697 32.2387 5.11208 28.7058 4.72058 24.9434C4.32907 21.1809 5.17221 17.3933 7.1227 14.1522C9.07319 10.9111 12.0251 8.39255 15.5329 6.97673Z" fill="#1C3867"/>
<path d="M12.6528 22.7869C12.6897 22.0498 12.9476 21.4823 13.4267 21.0842C13.9132 20.6789 14.5508 20.4762 15.3394 20.4762C15.8775 20.4762 16.3382 20.572 16.7215 20.7636C17.1047 20.9479 17.3922 21.2022 17.5838 21.5265C17.7828 21.8434 17.8824 22.2046 17.8824 22.61C17.8824 23.0744 17.7607 23.4687 17.5175 23.793C17.2816 24.1099 16.9979 24.3237 16.6662 24.4343V24.4785C17.0937 24.6112 17.4254 24.847 17.6612 25.1861C17.9045 25.5251 18.0261 25.96 18.0261 26.4907C18.0261 26.9329 17.9229 27.3273 17.7165 27.6737C17.5175 28.0201 17.219 28.2928 16.821 28.4919C16.4303 28.6835 15.9586 28.7793 15.4058 28.7793C14.5729 28.7793 13.8948 28.5692 13.3714 28.1491C12.8481 27.729 12.5717 27.1098 12.5422 26.2917H14.0459C14.0606 26.6529 14.1822 26.944 14.4107 27.1651C14.6466 27.3789 14.9672 27.4857 15.3726 27.4857C15.7485 27.4857 16.036 27.3826 16.235 27.1762C16.4414 26.9624 16.5446 26.6897 16.5446 26.358C16.5446 25.9158 16.4045 25.5988 16.1244 25.4072C15.8443 25.2156 15.4095 25.1197 14.8198 25.1197H14.4992V23.8483H14.8198C15.8664 23.8483 16.3898 23.4982 16.3898 22.7979C16.3898 22.481 16.294 22.2341 16.1023 22.0572C15.918 21.8803 15.649 21.7918 15.2952 21.7918C14.9488 21.7918 14.6798 21.8877 14.4881 22.0793C14.3038 22.2636 14.197 22.4994 14.1675 22.7869H12.6528Z" fill="#1C3867"/>
<path d="M19.2493 24.589C19.2493 23.3139 19.4777 22.3152 19.9347 21.5928C20.3991 20.8705 21.1656 20.5093 22.2344 20.5093C23.3032 20.5093 24.066 20.8705 24.523 21.5928C24.9874 22.3152 25.2196 23.3139 25.2196 24.589C25.2196 25.8716 24.9874 26.8777 24.523 27.6074C24.066 28.3371 23.3032 28.7019 22.2344 28.7019C21.1656 28.7019 20.3991 28.3371 19.9347 27.6074C19.4777 26.8777 19.2493 25.8716 19.2493 24.589ZM23.6938 24.589C23.6938 24.0436 23.657 23.5866 23.5833 23.2181C23.5169 22.8422 23.3769 22.5363 23.1631 22.3004C22.9567 22.0646 22.6472 21.9466 22.2344 21.9466C21.8216 21.9466 21.5084 22.0646 21.2946 22.3004C21.0883 22.5363 20.9482 22.8422 20.8745 23.2181C20.8082 23.5866 20.775 24.0436 20.775 24.589C20.775 25.1492 20.8082 25.6209 20.8745 26.0042C20.9408 26.3801 21.0809 26.686 21.2946 26.9219C21.5084 27.1504 21.8216 27.2646 22.2344 27.2646C22.6472 27.2646 22.9604 27.1504 23.1742 26.9219C23.3879 26.686 23.528 26.3801 23.5943 26.0042C23.6606 25.6209 23.6938 25.1492 23.6938 24.589Z" fill="#1C3867"/>
<path d="M26.3969 24.589C26.3969 23.3139 26.6254 22.3152 27.0823 21.5928C27.5467 20.8705 28.3133 20.5093 29.382 20.5093C30.4508 20.5093 31.2137 20.8705 31.6706 21.5928C32.135 22.3152 32.3672 23.3139 32.3672 24.589C32.3672 25.8716 32.135 26.8777 31.6706 27.6074C31.2137 28.3371 30.4508 28.7019 29.382 28.7019C28.3133 28.7019 27.5467 28.3371 27.0823 27.6074C26.6254 26.8777 26.3969 25.8716 26.3969 24.589ZM30.8414 24.589C30.8414 24.0436 30.8046 23.5866 30.7309 23.2181C30.6645 22.8422 30.5245 22.5363 30.3107 22.3004C30.1044 22.0646 29.7948 21.9466 29.382 21.9466C28.9693 21.9466 28.656 22.0646 28.4423 22.3004C28.2359 22.5363 28.0958 22.8422 28.0221 23.2181C27.9558 23.5866 27.9226 24.0436 27.9226 24.589C27.9226 25.1492 27.9558 25.6209 28.0221 26.0042C28.0885 26.3801 28.2285 26.686 28.4423 26.9219C28.656 27.1504 28.9693 27.2646 29.382 27.2646C29.7948 27.2646 30.108 27.1504 30.3218 26.9219C30.5355 26.686 30.6756 26.3801 30.7419 26.0042C30.8083 25.6209 30.8414 25.1492 30.8414 24.589Z" fill="#1C3867"/>
</svg>
