<svg width="39" height="45" viewBox="0 0 39 45" fill="none" xmlns="http://www.w3.org/2000/svg">
<path d="M19.7441 23.1394C20.2415 23.1579 20.7371 23.0692 21.1966 22.8794C21.6561 22.6897 22.0685 22.4034 22.4053 22.0404C22.5024 21.9189 22.5475 21.7645 22.531 21.6105C22.5144 21.4564 22.4376 21.3149 22.3169 21.2163C22.1961 21.1178 22.0412 21.07 21.8854 21.0833C21.7295 21.0966 21.5851 21.1699 21.4832 21.2874C21.2573 21.5137 20.9856 21.6902 20.686 21.8053C20.3864 21.9203 20.0657 21.9714 19.7448 21.9552C19.4238 21.9717 19.103 21.9209 18.8033 21.8061C18.5035 21.6913 18.2317 21.515 18.0056 21.2888C17.9034 21.1726 17.7593 21.1005 17.6042 21.0878C17.4491 21.0751 17.2951 21.1229 17.175 21.2209C17.0548 21.319 16.9781 21.4595 16.961 21.6128C16.9439 21.766 16.9878 21.9198 17.0835 22.0414C17.4204 22.4042 17.8327 22.6902 18.292 22.8797C18.7514 23.0693 19.2468 23.1579 19.7441 23.1394Z" fill="#1C3867"/>
<path d="M15.5402 8.34088L19.6103 9.57418C19.7243 9.60874 19.8461 9.60874 19.9601 9.57418L24.0302 8.34088C24.1059 8.31872 24.1765 8.28192 24.2377 8.23261C24.299 8.18329 24.3498 8.12244 24.3872 8.05357C24.4246 7.9847 24.4479 7.90917 24.4556 7.83135C24.4634 7.75352 24.4555 7.67495 24.4324 7.60017C24.4093 7.52538 24.3715 7.45587 24.3212 7.39564C24.2708 7.33541 24.2089 7.28566 24.139 7.24926C24.0691 7.21286 23.9926 7.19054 23.914 7.18359C23.8353 7.17663 23.7561 7.18517 23.6808 7.20872L19.7855 8.38926L15.8903 7.20872C15.7387 7.16279 15.5749 7.17838 15.4349 7.25206C15.2949 7.32574 15.1902 7.45148 15.1438 7.60161C15.0975 7.75175 15.1132 7.91398 15.1876 8.05262C15.262 8.19126 15.3886 8.29495 15.5402 8.34088Z" fill="#1C3867"/>
<path d="M17.688 5.9364L19.6106 6.51922C19.7245 6.55378 19.8463 6.55378 19.9603 6.51922L21.8825 5.9364C21.9582 5.91424 22.0287 5.87744 22.09 5.82812C22.1513 5.77881 22.2021 5.71796 22.2395 5.64908C22.2769 5.58021 22.3002 5.50468 22.3079 5.42686C22.3157 5.34904 22.3078 5.27047 22.2847 5.19568C22.2616 5.12089 22.2238 5.05138 22.1734 4.99115C22.1231 4.93092 22.0612 4.88117 21.9913 4.84478C21.9214 4.80838 21.8449 4.78606 21.7663 4.7791C21.6876 4.77214 21.6084 4.78069 21.5331 4.80424L19.7854 5.33396L18.0378 4.80424C17.8862 4.75831 17.7224 4.7739 17.5824 4.84758C17.4424 4.92126 17.3377 5.047 17.2913 5.19713C17.245 5.34726 17.2607 5.50949 17.3351 5.64813C17.4095 5.78677 17.5365 5.89046 17.688 5.9364Z" fill="#1C3867"/>
<path d="M33.4813 31.1574C32.432 30.8219 31.3425 30.6252 30.2412 30.5726L26.5508 30.2133C26.1679 30.1703 25.8102 30.0026 25.5337 29.7367C25.2573 29.4707 25.0777 29.1215 25.0231 28.7436L24.7065 26.2902C25.9682 25.2759 26.881 23.8987 27.3189 22.3488C27.5191 21.6368 27.6519 20.9031 27.8111 20.1812C27.9578 20.2062 28.1063 20.2193 28.2551 20.2205C28.9766 20.2218 29.6716 19.9511 30.199 19.4633C30.7263 18.9756 31.0463 18.3073 31.0942 17.5943C31.142 16.8812 30.914 16.1769 30.4564 15.6243C29.9989 15.0718 29.3462 14.7124 28.6308 14.6192V14.1514C28.6839 14.0622 28.7122 13.9607 28.7128 13.8571V11.9595L30.762 10.6629C31.4238 10.2499 31.9514 9.65671 32.2815 8.95435C32.6117 8.252 32.7303 7.47028 32.6234 6.70283C32.5164 5.93538 32.1883 5.21474 31.6784 4.62724C31.1685 4.03974 30.4984 3.61028 29.7483 3.39031L23.5135 1.45614C21.087 0.698864 18.4841 0.698864 16.0577 1.45614L9.82629 3.39201C9.07627 3.61202 8.40619 4.0415 7.89631 4.62903C7.38643 5.21655 7.05838 5.93719 6.95144 6.70464C6.84451 7.47208 6.96323 8.25379 7.29338 8.95612C7.62353 9.65845 8.15112 10.2516 8.81294 10.6646L10.8622 11.9612V13.8585C10.8628 13.9622 10.8912 14.0638 10.9445 14.1531V14.6077C10.2172 14.6785 9.54546 15.0241 9.06874 15.5726C8.59202 16.1212 8.34701 16.8305 8.3846 17.5533C8.42218 18.2761 8.73949 18.9568 9.27059 19.4539C9.80169 19.951 10.5057 20.2264 11.2365 20.2228C11.412 20.2217 11.5869 20.2042 11.7591 20.1707C11.9192 20.897 12.0535 21.6351 12.2543 22.3518C12.6918 23.9018 13.6047 25.279 14.8667 26.2929L14.5501 28.746C14.4949 29.1236 14.315 29.4725 14.0386 29.7384C13.7622 30.0042 13.4048 30.172 13.0221 30.2157L9.57253 30.5516C9.06705 30.6007 8.56054 30.6453 8.05541 30.6913C7.48426 30.7444 6.92075 30.8595 6.37503 31.0346C5.74947 31.2035 5.15657 31.4741 4.62054 31.8353C3.77531 32.3493 3.03407 33.0146 2.43468 33.7972C2.38095 33.8718 2.34583 33.9579 2.33222 34.0485C1.39873 35.3733 0.89827 36.9499 0.898438 38.5653V43.597C0.898438 43.754 0.961409 43.9045 1.0735 44.0155C1.18559 44.1265 1.33761 44.1889 1.49613 44.1889H38.0737C38.2322 44.1889 38.3842 44.1265 38.4963 44.0155C38.6084 43.9045 38.6714 43.754 38.6714 43.597V38.5653C38.6759 36.9529 38.1807 35.3779 37.2525 34.0531C36.3244 32.7283 35.0081 31.7176 33.4813 31.1574ZM31.8249 33.3791V31.9388C32.4801 32.0494 33.1151 32.2557 33.7091 32.5511L33.0032 33.9623L31.8249 33.3791ZM34.7321 33.1731C35.1239 33.4586 35.4835 33.785 35.8048 34.1466L35.0876 34.994L34.0729 34.4913L34.7321 33.1731ZM25.9039 31.2877C26.8466 31.5447 27.8996 31.5343 28.8692 31.6286L23.9903 36.4695L20.8502 33.51L24.7892 30.6751C25.1103 30.9586 25.4911 31.1678 25.9039 31.2877ZM21.6641 35.9124L20.4086 37.4237H19.4273L18.1711 35.9124L19.9181 34.266L20.3498 34.672L21.6641 35.9124ZM27.5146 13.2658H12.0559V12.2284H27.5153L27.5146 13.2658ZM27.2455 14.4497C27.1504 14.939 26.9382 15.3985 26.6267 15.7898C26.3151 16.181 25.9134 16.4925 25.4552 16.6982C23.6721 17.4929 21.7391 17.9038 19.7839 17.9038C17.8286 17.9038 15.8956 17.4929 14.1126 16.6982C13.6547 16.4924 13.2532 16.1808 12.942 15.7897C12.6307 15.3985 12.4187 14.9391 12.3236 14.4501L27.2455 14.4497ZM29.8996 17.4065C29.8992 17.8387 29.7256 18.2531 29.4171 18.5587C29.1085 18.8644 28.6901 19.0364 28.2537 19.0369C28.1909 19.0369 28.1282 19.033 28.0659 19.0254C28.3549 17.9764 28.5425 16.9025 28.626 15.8183C28.9881 15.902 29.3109 16.1044 29.5422 16.3927C29.7734 16.681 29.8992 17.0383 29.8996 17.4065ZM8.10937 7.2617C8.11377 6.64526 8.31768 6.04646 8.69114 5.55329C9.06461 5.06012 9.58793 4.69858 10.1842 4.5218L16.4156 2.58593C18.6091 1.90085 20.9624 1.90085 23.1559 2.58593L29.3873 4.5218C29.9835 4.69864 30.5068 5.06021 30.8802 5.55337C31.2536 6.04654 31.4574 6.6453 31.4618 7.2617C31.4602 7.74253 31.3358 8.21514 31.1002 8.63558C30.8646 9.05601 30.5255 9.41061 30.1144 9.6664L27.9382 11.0445H11.633L9.45709 9.66673C9.04583 9.41098 8.70658 9.05635 8.47088 8.63585C8.23519 8.21536 8.11105 7.74265 8.10937 7.2617ZM11.2348 19.0369C10.8235 19.0368 10.4271 18.8843 10.1237 18.6093C9.82028 18.3344 9.63176 17.9569 9.59526 17.5511C9.55877 17.1454 9.67694 16.7409 9.92652 16.4171C10.1761 16.0933 10.539 15.8738 10.9438 15.8018C11.0254 16.8882 11.2125 17.9644 11.5026 19.0152C11.4141 19.0298 11.3245 19.037 11.2348 19.0369ZM13.6491 22.7432C13.2099 21.6696 13.0436 20.4599 12.7953 19.3322C12.6112 18.4923 12.4076 17.6551 12.2522 16.8098C12.6407 17.2178 13.1063 17.5462 13.6225 17.7765C15.5598 18.6399 17.66 19.0863 19.7844 19.0863C21.9088 19.0863 24.009 18.6399 25.9463 17.7765C26.4626 17.5462 26.9283 17.2178 27.3169 16.8098C27.1608 17.6666 26.9508 18.5146 26.766 19.3657C26.5238 20.4819 26.3561 21.6807 25.921 22.7429C25.4688 23.8448 24.7218 24.8037 23.7604 25.5166C23.1575 25.9202 22.5086 26.252 21.8273 26.5053C20.5 26.9323 19.0702 26.9323 17.7428 26.5053C17.0614 26.2514 16.412 25.9197 15.808 25.5169C14.8472 24.804 14.1008 23.845 13.6491 22.7432ZM17.7169 27.7319C19.6937 28.2705 21.805 28.0197 23.5972 27.0334L23.8363 28.8938C23.8802 29.1772 23.9681 29.4522 24.0969 29.709L19.9181 32.7165L15.5536 29.5761C15.6428 29.3571 15.7032 29.1277 15.7336 28.8935L15.9726 27.033C16.5233 27.3355 17.109 27.5706 17.7169 27.7332V27.7319ZM13.1368 31.3915C13.8006 31.3226 14.4205 31.0309 14.8937 30.5648L18.986 33.51L15.8459 36.4695L10.9431 31.6056L13.1368 31.3915ZM4.77287 33.2046L5.41769 34.49L4.40298 34.9926L3.72297 34.191C4.03629 33.826 4.38828 33.4951 4.77287 33.2046ZM6.48671 33.9619L5.78997 32.5717C6.38076 32.2754 7.01211 32.0661 7.664 31.9507V33.3791L6.48671 33.9619ZM2.09383 38.5653C2.093 37.3807 2.40842 36.2169 3.00813 35.1919L3.78957 36.1129C3.87596 36.2149 3.99449 36.285 4.12604 36.312C4.2576 36.339 4.3945 36.3213 4.51466 36.2618L8.52776 34.2745C8.627 34.2253 8.71046 34.1498 8.76879 34.0563C8.82712 33.9628 8.85802 33.855 8.85803 33.7451V31.8086L9.40449 31.7555L15.4115 37.7156C15.5227 37.8233 15.6714 37.8844 15.8269 37.8864C15.9824 37.8883 16.1327 37.8309 16.2466 37.7261L17.3023 36.7313L18.4594 38.1232L16.5181 43.005H7.32246V40.8063C7.32246 40.6493 7.25949 40.4988 7.1474 40.3877C7.03531 40.2767 6.88329 40.2144 6.72477 40.2144C6.56625 40.2144 6.41422 40.2767 6.30213 40.3877C6.19004 40.4988 6.12707 40.6493 6.12707 40.8063V43.005H2.09383V38.5653ZM17.8047 43.005L19.5537 38.6076H19.9383L21.6873 43.005H17.8047ZM37.4774 43.005H33.3618V40.8063C33.3618 40.6493 33.2988 40.4988 33.1867 40.3877C33.0747 40.2767 32.9226 40.2144 32.7641 40.2144C32.6056 40.2144 32.4536 40.2767 32.3415 40.3877C32.2294 40.4988 32.1664 40.6493 32.1664 40.8063V43.005H22.9705L21.1401 38.4047C21.1439 38.4003 21.1487 38.3972 21.1524 38.3928L22.5329 36.7316L23.5886 37.7264C23.7024 37.8313 23.8527 37.8888 24.0081 37.8868C24.1636 37.8849 24.3123 37.8237 24.4234 37.716L30.4075 31.7785L30.6298 31.8001V33.7451C30.6298 33.8551 30.6608 33.9629 30.7192 34.0564C30.7776 34.1499 30.8611 34.2254 30.9604 34.2745L34.9735 36.2618C35.0937 36.3212 35.2305 36.3388 35.362 36.3118C35.4934 36.2848 35.6119 36.2148 35.6983 36.1129L36.5289 35.132C37.1503 36.1709 37.4776 37.3565 37.4763 38.564L37.4774 43.005Z" fill="#1C3867"/>
</svg>
