<svg width="517" height="209" viewBox="0 0 517 209" fill="none" xmlns="http://www.w3.org/2000/svg">
<path d="M241.057 187.663V192.077C241.057 194.059 242.669 195.671 244.652 195.671C246.633 195.671 248.245 194.059 248.245 192.077V187.663H249.816V192.077C249.816 194.925 247.499 197.243 244.652 197.243C241.803 197.243 239.486 194.925 239.486 192.077V187.663H241.057Z" fill="#1C3867"/>
<path d="M188.664 151.617L233.835 178.962V179.999H234.228V179.199L234.439 179.326C234.615 179.431 234.742 179.604 234.794 179.804L235.27 181.656C235.444 182.332 235.903 182.863 236.489 183.174L236.645 184.91C235.251 184.561 234.118 183.488 233.747 182.046L233.351 180.506L187.083 152.498C187.62 152.223 188.148 151.933 188.664 151.617Z" fill="#1C3867"/>
<path d="M235.662 173.894C231.755 174.186 227.811 173.179 224.544 171.041L190.453 150.389C190.899 150.056 191.334 149.707 191.76 149.341L225.382 169.712C228.377 171.674 231.971 172.571 235.521 172.315L235.662 173.894Z" fill="#1C3867"/>
<path d="M236.483 183.171L235.651 173.892L235.509 172.313L235.508 172.3C235.508 167.263 239.605 163.166 244.644 163.166C249.681 163.166 253.779 167.263 253.777 172.371L252.469 186.945C252.432 187.351 252.093 187.66 251.686 187.66H249.81H248.239H241.051H239.48H237.605C237.198 187.66 236.859 187.351 236.823 186.945L236.64 184.908L236.483 183.171ZM238.097 186.832L238.435 186.089H250.968L250.981 185.938L251.304 186.595L252.01 186.248L251.116 184.436L252.208 172.299C252.208 168.234 248.977 164.933 244.954 164.767V163.964H244.168V164.785C240.221 165.037 237.077 168.291 237.074 172.231L238.196 184.714L237.379 186.509L238.097 186.832Z" fill="#1C3867"/>
<path d="M85.3305 187.663V192.077C85.3305 194.059 86.9425 195.671 88.9238 195.671C90.9066 195.671 92.5187 194.059 92.5187 192.077V187.663H94.0898V192.077C94.0898 194.925 91.7724 197.243 88.9238 197.243C86.0753 197.243 83.7593 194.925 83.7593 192.077V187.663H85.3305Z" fill="#1C3867"/>
<path d="M143.088 150.412L109.062 171.025C106.142 172.938 102.751 173.949 99.2598 173.949C98.8136 173.949 98.3673 173.928 97.9227 173.894L98.0594 172.371C98.0594 172.352 98.0563 172.334 98.0563 172.315C98.4569 172.345 98.8576 172.378 99.2582 172.378C102.443 172.378 105.535 171.455 108.223 169.695L141.796 149.355C142.216 149.726 142.645 150.075 143.088 150.412Z" fill="#1C3867"/>
<path d="M97.0895 183.173C97.6756 182.861 98.1344 182.332 98.3072 181.656L98.7817 179.804C98.832 179.604 98.9592 179.433 99.1368 179.326L99.2122 179.281V180.326H99.605V179.043L144.86 151.65C145.369 151.967 145.889 152.267 146.42 152.542L100.226 180.505L99.8313 182.044C99.462 183.485 98.3292 184.56 96.9356 184.909L97.0895 183.173Z" fill="#1C3867"/>
<path d="M97.9262 173.895L97.0919 183.171L96.9363 184.909L96.7525 186.947C96.7164 187.352 96.377 187.662 95.9701 187.662H94.0956H92.5245H85.3363H83.7651H81.8891C81.4822 187.662 81.1428 187.352 81.1067 186.947L79.7948 172.302C79.7948 167.265 83.8924 163.167 88.9296 163.167C93.9495 163.167 98.033 167.235 98.0613 172.316C98.0613 172.335 98.0645 172.354 98.0645 172.373L97.9262 173.895ZM88.3326 163.964V164.798C84.4454 165.107 81.3643 168.331 81.3612 172.231L82.4626 184.491L81.545 186.508L82.2599 186.834L82.6056 186.075L82.6071 186.091H95.219L95.4688 186.596L96.1743 186.249L95.3824 184.645L96.4949 172.3C96.4949 168.195 93.2001 164.858 89.1181 164.755V163.964H88.3326Z" fill="#1C3867"/>
<path d="M163.192 199.125V203.54C163.192 205.521 164.804 207.133 166.785 207.133C168.768 207.133 170.38 205.521 170.38 203.54V199.125H171.951V203.54C171.951 206.389 169.634 208.704 166.785 208.704C163.937 208.704 161.621 206.387 161.621 203.54V199.125H163.192Z" fill="#1C3867"/>
<path d="M168.696 168.069H167.972V161.864C168.545 161.713 169.076 161.465 169.543 161.124V168.21C169.274 168.127 168.993 168.069 168.696 168.069Z" fill="#1C3867"/>
<path d="M167.972 174.713V173.874H168.696C168.993 173.874 169.273 173.816 169.543 173.732V175.052C169.037 174.894 168.511 174.784 167.972 174.713Z" fill="#1C3867"/>
<path d="M164.887 173.874H165.611V174.713C165.072 174.782 164.546 174.892 164.04 175.052V173.732C164.31 173.817 164.592 173.874 164.887 173.874Z" fill="#1C3867"/>
<path d="M165.611 161.865V168.07H164.887C164.59 168.07 164.31 168.128 164.04 168.211V161.126C164.507 161.466 165.038 161.716 165.611 161.865Z" fill="#1C3867"/>
<path d="M165.609 174.714C165.995 174.663 166.386 174.629 166.787 174.629C167.188 174.629 167.579 174.663 167.967 174.714C168.506 174.783 169.032 174.894 169.538 175.053C173.237 176.225 175.923 179.699 175.922 183.836L174.612 198.409C174.575 198.814 174.236 199.124 173.829 199.124H171.955H170.383H163.195H161.624H159.748C159.341 199.124 159.002 198.814 158.966 198.409L157.654 183.765C157.654 179.685 160.342 176.222 164.039 175.053C164.543 174.893 165.07 174.784 165.609 174.714ZM160.103 198.501L160.535 197.552H172.962L173.314 198.264L174.019 197.917L173.223 196.305L174.352 183.764C174.352 179.652 171.051 176.312 166.961 176.216V175.793H166.176V176.26C162.295 176.577 159.222 179.798 159.219 183.693L160.333 196.098L159.387 198.173L160.103 198.501Z" fill="#1C3867"/>
<path d="M164.885 168.069H165.609H167.968H168.692C168.989 168.069 169.269 168.127 169.539 168.211C170.725 168.575 171.596 169.667 171.596 170.971C171.596 172.275 170.725 173.367 169.539 173.733C169.269 173.817 168.989 173.875 168.692 173.875H167.968H165.609H164.885C164.588 173.875 164.309 173.817 164.038 173.733C162.852 173.369 161.982 172.275 161.982 170.971C161.982 169.667 162.852 168.575 164.038 168.211C164.309 168.127 164.59 168.069 164.885 168.069ZM163.162 170.971C163.162 171.922 163.935 172.696 164.887 172.696H168.694C169.644 172.696 170.419 171.923 170.419 170.971C170.419 170.022 169.646 169.248 168.694 169.248H164.887C163.935 169.248 163.162 170.021 163.162 170.971Z" fill="#1C3867"/>
<path d="M164.066 158.84C164.599 159.802 165.612 160.461 166.789 160.461C167.964 160.461 168.978 159.802 169.512 158.84H171.217C170.901 159.765 170.317 160.559 169.542 161.124C169.075 161.464 168.544 161.714 167.971 161.864C167.591 161.963 167.201 162.033 166.791 162.033C166.381 162.033 165.991 161.963 165.612 161.864C165.039 161.714 164.508 161.465 164.041 161.124C163.265 160.56 162.681 159.764 162.365 158.838H164.066V158.84Z" fill="#1C3867"/>
<path d="M155.606 155.053C155.74 156.294 156.783 157.27 158.059 157.27H175.518C176.803 157.27 177.851 156.283 177.974 155.029C178.506 154.992 179.036 154.943 179.561 154.869C179.518 157.066 177.725 158.841 175.518 158.841H171.214H169.51H164.066H162.361H158.059C155.873 158.841 154.1 157.1 154.023 154.934C154.547 155.001 155.077 155.023 155.606 155.053Z" fill="#1C3867"/>
<path d="M166.447 10.7232L164.232 61.7018H162.658L164.889 10.376C165.373 10.5771 165.9 10.6855 166.447 10.7232Z" fill="#1C3867"/>
<path d="M169.355 61.7012L167.14 10.7226C167.687 10.6849 168.213 10.5765 168.699 10.377L170.93 61.7028L169.355 61.7012Z" fill="#1C3867"/>
<path d="M237.537 91.3922L237.938 91.5745C238.925 92.027 239.858 92.4544 240.801 92.4779L274.369 93.3468L271.745 94.8504L240.762 94.0475C239.495 94.0145 238.372 93.4992 237.285 93.0011L236.849 92.8142L203.437 89.6561V88.0786L236.981 91.2477C237.173 91.265 237.36 91.3137 237.537 91.3922Z" fill="#1C3867"/>
<path d="M236.627 97.1879L236.965 96.9852L236.556 96.3049L236.809 96.2939L237.222 96.1289C238.3 95.6984 239.414 95.249 240.768 95.249C240.772 95.249 240.776 95.249 240.776 95.249L269.752 95.9985L267.126 97.5037L240.644 96.8186C239.722 96.8186 238.792 97.191 237.807 97.5869L237.382 97.7551C237.202 97.8258 237.012 97.8635 236.828 97.8698L203.442 99.2665V97.6922L236.108 96.3206L236.627 97.1879Z" fill="#1C3867"/>
<path d="M281.27 95.6816C281.27 95.6879 281.273 95.6942 281.273 95.7005C281.242 96.8899 280.409 97.8216 279.335 97.8216L277.619 97.7776L281.27 95.6816Z" fill="#1C3867"/>
<path d="M235.399 94.3756L236.558 96.305L236.967 96.9853L236.629 97.188L236.112 96.3239L235.169 94.7527L203.444 92.5609V92.1665L235.298 94.3677L235.399 94.3756Z" fill="#1C3867"/>
<path d="M96.1909 97.7551L95.7699 97.5885C94.7863 97.1941 93.8577 96.8218 92.8459 96.8218H92.8412L66.802 97.4958L64.1797 95.9922L92.9323 95.249C94.1578 95.249 95.275 95.6968 96.3544 96.1305L96.8131 96.3017L97.0174 96.3096L96.612 96.9852L96.9498 97.1879L97.4652 96.3284L130.135 97.6969V99.2681L96.7581 97.8713C96.5664 97.865 96.3763 97.8273 96.1909 97.7551Z" fill="#1C3867"/>
<path d="M56.3066 97.7647L54.1966 97.8196C53.1643 97.8196 52.33 96.8879 52.3001 95.6985C52.2986 95.6247 52.3253 95.5571 52.3284 95.4849L56.3066 97.7647Z" fill="#1C3867"/>
<path d="M96.2868 93.0055C95.2011 93.5036 94.0761 94.0189 92.8097 94.0519L62.1796 94.8454L59.5557 93.3402L92.7705 92.4808C93.7148 92.4556 94.6465 92.0298 95.6332 91.5773L96.0338 91.3951C96.2114 91.3149 96.3983 91.2678 96.5759 91.2537L130.135 88.083V89.6605L96.678 92.828L96.2868 93.0055Z" fill="#1C3867"/>
<path d="M97.4652 96.3286L96.9498 97.188L96.612 96.9853L97.019 96.3097L98.1266 94.462L98.18 94.3756L130.135 92.1665V92.5609L98.411 94.7527L97.4652 96.3286Z" fill="#1C3867"/>
<path d="M247.42 113.279L304.479 80.5698H307.637L281.275 95.6814L277.622 97.7758L250.787 113.159L250.477 113.166L247.42 113.279Z" fill="#1C3867"/>
<path d="M213.275 130.185L206.477 134.082L206.258 133.717L205.921 133.92L206.136 134.278L199.92 137.84C200.216 137.183 200.511 136.526 200.769 135.851C200.824 135.724 200.866 135.587 200.916 135.458L210.304 130.075L213.275 130.185Z" fill="#1C3867"/>
<path d="M269.747 95.9994L271.745 94.854L274.369 93.3504L297.305 80.2012C297.89 80.4337 298.521 80.5688 299.188 80.5688H299.822L242.443 113.462L239.066 113.587L267.121 97.5046L269.747 95.9994Z" fill="#1C3867"/>
<path d="M197.966 141.618L217.63 130.347L220.598 130.455L196.067 144.517C196.742 143.578 197.38 142.613 197.966 141.618Z" fill="#1C3867"/>
<path d="M206.674 135.176L206.134 134.278L205.92 133.921L206.256 133.718L206.475 134.083L206.813 134.645L214.522 130.232L215.266 130.259L206.841 135.081L206.674 135.176Z" fill="#1C3867"/>
<path d="M301.29 80.5698H302.08L244.767 113.376L243.921 113.408L301.29 80.5698Z" fill="#1C3867"/>
<path d="M304.466 80.5694H302.072H301.28H299.824H299.189C298.523 80.5694 297.891 80.4327 297.307 80.2017C295.632 79.5387 294.401 78.0241 294.126 76.1921L295.691 76.1245C296.015 77.7601 297.459 78.9998 299.189 78.9998H310.198C311.403 78.9998 312.494 78.5378 313.339 77.8025H314.445V77.6972H314.838V77.0154H314.07C314.445 76.5016 314.723 75.9171 314.872 75.2792L316.477 75.2085C315.983 78.2409 313.367 80.5694 310.197 80.5694H307.625H304.466Z" fill="#1C3867"/>
<path d="M132.849 135.883C133.077 136.465 133.341 137.027 133.594 137.594L127.691 134.21L127.864 133.922L127.526 133.72L127.35 134.015L120.655 130.178L123.623 130.068L132.627 135.231C132.708 135.445 132.764 135.668 132.849 135.883Z" fill="#1C3867"/>
<path d="M62.1828 94.8446L64.183 95.99L66.8052 97.4936L94.9121 113.606L91.5357 113.482L34.1215 80.5688H34.7547C35.4209 80.5688 36.0525 80.4321 36.6386 80.2012L59.5589 93.341L62.1828 94.8446Z" fill="#1C3867"/>
<path d="M116.292 130.336L135.492 141.343C136.067 142.332 136.696 143.288 137.355 144.223L113.324 130.446L116.292 130.336Z" fill="#1C3867"/>
<path d="M29.4755 80.5698L86.5723 113.299L83.1958 113.175L56.3144 97.7648L52.3362 95.485L26.3175 80.5698H29.4755Z" fill="#1C3867"/>
<path d="M127.35 134.013L127.525 133.719L127.863 133.922L127.69 134.209L127.108 135.177L118.51 130.255L119.252 130.228L126.969 134.646L127.35 134.013Z" fill="#1C3867"/>
<path d="M89.8906 113.422L89.0453 113.39L31.7051 80.5698H32.4969L89.8906 113.422Z" fill="#1C3867"/>
<path d="M18.7571 77.8005H20.6C21.4453 78.5358 22.5358 78.9977 23.7409 78.9977H34.7501C36.4769 78.9977 37.9177 77.7675 38.2476 76.1382L39.8125 76.2073C39.5328 78.0315 38.3041 79.5398 36.634 80.1997C36.0495 80.4322 35.4163 80.5673 34.7501 80.5673H34.117H32.4939H31.702H29.471H26.3113H23.7393C21.5161 80.5673 19.5599 79.422 18.4161 77.6937H18.7555V77.8005H18.7571Z" fill="#1C3867"/>
<path d="M19.071 75.2947C19.2218 75.9263 19.4968 76.5061 19.8691 77.0152H18.3655V77.5965C17.9146 76.8879 17.6067 76.0866 17.4637 75.2256L19.071 75.2947Z" fill="#1C3867"/>
<path d="M501.568 58.7135V59.5164L412.585 61.3861V60.6791H411.014V61.4191L406.362 61.5165V60.6791H404.791V61.5495L381.473 62.0397V61.1615H379.902V62.0727L375.249 62.1701V61.6611H373.678V62.2031L316.355 63.4082V63.0814H314.784V63.4412L267.26 64.4389V63.9817H266.475V64.4562L211.832 65.6032V65.1554H211.047V65.6205L208.159 65.6817L208.173 64.7312L206.602 64.706L206.586 65.7147L198.945 65.875C198.369 65.3157 197.748 64.8019 197.087 64.3415L502.338 57.9279C502.386 57.9217 502.421 57.9421 502.465 57.9468C502.245 57.9217 502.031 57.9672 501.86 58.1039C501.676 58.2516 501.568 58.4763 501.568 58.7135Z" fill="#1C3867"/>
<path d="M502.654 57.9743L502.648 57.9727C502.648 57.9727 502.651 57.9727 502.654 57.9743Z" fill="#1C3867"/>
<path d="M314.884 75.2774L298.284 76.008C298.231 75.854 298.187 75.6954 298.187 75.5241H297.401C297.401 75.7032 297.428 75.876 297.466 76.0442L295.701 76.1211L294.137 76.1887L203.446 80.1779V78.6036L206.394 78.4732L206.384 79.1142L207.956 79.1394L207.967 78.4056L312.138 73.8257V73.8885H312.923V73.7911L314.787 73.7094V75.0905H316.358V73.6402L500.474 65.5439L501.572 66.2243V66.2478C501.572 66.6108 501.82 66.9282 502.175 67.0114L502.285 67.0381L316.488 75.2083L314.884 75.2774Z" fill="#1C3867"/>
<path d="M511.909 69.2104C511.549 69.2104 511.188 69.168 510.834 69.0832L502.279 67.0359L502.169 67.0092C501.814 66.9244 501.566 66.6086 501.566 66.2456V66.2221L502.144 66.5803L502.559 65.911L501.566 65.2966V59.5147V58.7118C501.566 58.4761 501.672 58.2499 501.858 58.1006C502.028 57.9655 502.243 57.9184 502.463 57.9435C502.482 57.9451 502.499 57.9388 502.516 57.9419L502.645 57.9686L502.651 57.9702L512.853 60.14C514.955 60.5878 516.482 62.4732 516.482 64.6242C516.484 67.1538 514.43 69.2104 511.909 69.2104ZM503.137 59.6828V65.6266L511.199 67.556C511.433 67.6125 511.671 67.6408 511.907 67.6408C513.565 67.6408 514.911 66.2896 514.911 64.6273C514.911 63.2148 513.907 61.9751 512.525 61.6813L503.137 59.6828Z" fill="#1C3867"/>
<path d="M411.005 66.29L411.038 67.0756L412.186 67.0269C412.078 67.0897 411.96 67.1369 411.828 67.1416L374.492 68.5054C374.481 68.5054 374.472 68.5054 374.462 68.5054C374.26 68.5054 374.063 68.4268 373.917 68.2854C373.763 68.1361 373.677 67.9319 373.677 67.7198V62.2018V61.6597H375.248V62.1688V66.9043L411.013 65.5971V61.4178V60.6777H412.584V61.3848V66.224L411.005 66.29Z" fill="#1C3867"/>
<path d="M405.598 64.2442L380.709 64.9135C380.701 64.9135 380.694 64.9135 380.687 64.9135C380.482 64.9135 380.286 64.8334 380.138 64.6904C379.986 64.5412 379.901 64.3385 379.901 64.1279V62.0713V61.16H381.472V62.0383V63.3204L404.79 62.695V61.5496V60.6792H406.361V61.5166V63.4602C406.363 63.8844 406.024 64.2316 405.598 64.2442Z" fill="#1C3867"/>
<path d="M207.946 79.1406L206.375 79.1155L206.386 78.4744L206.579 65.7133L206.595 64.7046L208.166 64.7297L208.152 65.6803L207.959 78.4053L207.946 79.1406Z" fill="#1C3867"/>
<path d="M316.355 73.641V75.0896H314.784V73.7085V63.4408V63.0811H316.355V63.4079V73.641Z" fill="#1C3867"/>
<path d="M-167.989 66.2453V66.1793L-167.059 65.5352L17.2233 73.6393V75.0895H18.7945V73.7085L21.4231 73.8247V74.7894H22.2087V73.8593L125.614 78.4063L125.625 79.14L127.197 79.1149L127.187 78.4738L130.135 78.6042V80.1786L39.8122 76.2066L38.2473 76.1375L35.7507 76.0275C35.7869 75.8641 35.8104 75.6976 35.8104 75.5247H35.0248C35.0248 75.6897 34.9809 75.8437 34.9306 75.9914L19.0695 75.2938L17.4622 75.2231L-168.704 67.0356L-168.594 67.0089C-168.237 66.9257 -167.989 66.6099 -167.989 66.2453Z" fill="#1C3867"/>
<path d="M134.641 65.8737L126.993 65.7135L126.977 64.7048L125.406 64.7299L125.42 65.6805L123.296 65.6349V65.1541H122.51V65.6176L67.8676 64.4707V63.9805H67.082V64.4534L18.7949 63.4384V63.0786H17.2237V63.4054L-40.0993 62.2003V61.6583H-41.6705V62.1673L-46.3228 62.0699V61.1586H-47.894V62.0369L-71.2118 61.5467V60.6763H-72.783V61.5137L-77.4353 61.4163V60.6763H-79.0065V61.3833L-167.989 59.5136V58.7107C-167.989 58.475 -168.096 58.2488 -168.281 58.0995C-168.446 57.9644 -168.657 57.9173 -168.873 57.9424C-168.834 57.9377 -168.798 57.9204 -168.759 57.9251L136.5 64.3387C135.84 64.8006 135.219 65.3144 134.641 65.8737Z" fill="#1C3867"/>
<path d="M127.195 79.1155L125.624 79.1406L125.613 78.4053L125.42 65.6803L125.404 64.7297L126.975 64.7046L126.991 65.7133L127.186 78.4744L127.195 79.1155Z" fill="#1C3867"/>
<path d="M18.793 73.7085V75.0896H17.2218V73.641V63.4079V63.0811H18.793V63.4408V73.7085Z" fill="#1C3867"/>
<path d="M135.49 141.343C134.786 140.134 134.165 138.877 133.59 137.594C133.337 137.027 133.073 136.462 132.845 135.883C132.76 135.667 132.704 135.446 132.624 135.228C131.962 133.446 131.441 131.631 131.045 129.791L132.644 129.732C133.065 131.619 133.596 133.487 134.31 135.309C135.699 138.851 137.593 142.142 139.956 145.106C143.938 150.397 150.268 153.557 156.889 153.557H176.205C183.085 153.557 189.477 150.452 193.746 145.038C196.087 142.084 197.957 138.804 199.311 135.262C199.485 134.849 199.636 134.448 199.776 134.027C200.265 132.616 200.639 131.179 200.958 129.73L202.551 129.79C202.211 131.389 201.804 132.978 201.266 134.535C201.159 134.852 201.038 135.154 200.917 135.459C200.865 135.587 200.822 135.724 200.769 135.851C200.511 136.527 200.214 137.184 199.921 137.84C199.339 139.137 198.694 140.397 197.975 141.619C197.389 142.614 196.752 143.578 196.076 144.518C195.716 145.019 195.366 145.528 194.981 146.014C194.01 147.246 192.916 148.341 191.755 149.341C191.331 149.708 190.896 150.056 190.448 150.389C190.203 150.573 189.953 150.751 189.702 150.924L189.213 150.627L189.01 150.961L189.354 151.17C189.125 151.323 188.897 151.472 188.663 151.617C188.148 151.932 187.62 152.223 187.082 152.498C184.74 153.698 182.206 154.5 179.558 154.87C179.033 154.944 178.504 154.993 177.971 155.031C177.384 155.073 176.799 155.131 176.205 155.131H156.889C156.457 155.131 156.033 155.079 155.604 155.056C155.074 155.024 154.545 155.002 154.02 154.935C151.352 154.591 148.78 153.771 146.416 152.545C145.883 152.269 145.364 151.968 144.855 151.653C144.697 151.554 144.532 151.466 144.375 151.364L144.945 151.023L144.742 150.685L144.029 151.111C143.707 150.889 143.396 150.653 143.085 150.416C142.642 150.078 142.211 149.728 141.793 149.359C140.671 148.366 139.623 147.283 138.712 146.072C138.234 145.473 137.791 144.851 137.35 144.226C136.693 143.288 136.065 142.332 135.49 141.343Z" fill="#1C3867"/>
<path d="M198.943 65.8742C201.712 68.5578 203.441 72.3082 203.441 76.4609V78.6055V80.1798V88.0829V89.6604V92.1664V92.5608V97.6954V99.2697V114.905L201.87 114.963V106.266L202.1 106.398L202.296 106.057L201.87 105.812V104.045C201.994 104.117 202.129 104.184 202.252 104.258L203.06 102.912C202.676 102.682 202.269 102.465 201.87 102.244V76.4593C201.87 69.1879 195.953 63.2708 188.683 63.2708H169.003V62.4899H167.431V63.2708H166.148V62.4899H164.577V63.2708H144.909C137.629 63.2708 131.708 69.1941 131.708 76.4719V102.242C131.308 102.464 130.901 102.681 130.518 102.91L131.326 104.257C131.448 104.183 131.583 104.115 131.708 104.043V105.811L131.28 106.056L131.477 106.397L131.708 106.265V114.963L130.136 114.905V99.2681V97.697V92.5608V92.1664V89.6604V88.0829V80.1798V78.6055V76.4734C130.136 72.3161 131.869 68.561 134.642 65.8742C135.219 65.3149 135.841 64.8011 136.503 64.3423C138.891 62.6816 141.787 61.7012 144.909 61.7012H162.655H164.229H166.484V62.5355H166.877V61.7012H169.351H170.926H188.686C191.807 61.7012 194.701 62.6816 197.088 64.3408C197.746 64.8011 198.366 65.3149 198.943 65.8742Z" fill="#1C3867"/>
<path d="M171.893 96.1035C169.389 95.9762 167.426 93.9101 167.426 91.4025V63.2721V62.4912H168.997V63.2721V84.4296C168.748 84.3872 168.499 84.3401 168.245 84.3118L168.158 85.0911C168.441 85.1225 168.719 85.1712 168.996 85.2215V91.401C168.996 93.0727 170.303 94.4475 171.975 94.5339C174.299 94.6659 176.558 94.8843 178.747 95.1702C178.78 95.376 178.819 95.5803 178.842 95.7893L179.622 95.7028C179.606 95.5614 179.576 95.4248 179.557 95.2833C181.058 95.4955 182.532 95.7296 183.949 96.0124C190.757 97.3432 196.906 99.4925 201.863 102.242C202.262 102.464 202.669 102.68 203.053 102.91L202.245 104.256C202.123 104.183 201.987 104.115 201.863 104.043C196.93 101.166 190.65 98.9238 183.644 97.5553C179.993 96.8278 176.036 96.3392 171.893 96.1035Z" fill="#1C3867"/>
<path d="M166.146 91.4025C166.146 93.9117 164.184 95.9762 161.684 96.1035C157.536 96.3376 153.58 96.8278 149.922 97.5584C142.92 98.9269 136.641 101.169 131.706 104.044C131.582 104.117 131.447 104.184 131.324 104.258L130.517 102.911C130.9 102.682 131.307 102.465 131.706 102.244C136.665 99.4941 142.813 97.3447 149.618 96.0155C151.036 95.7327 152.51 95.497 154.011 95.2865C153.987 95.4499 153.956 95.6102 153.938 95.7751L154.721 95.8584C154.746 95.6212 154.815 95.3996 154.853 95.1686C157.034 94.8843 159.284 94.6674 161.599 94.537C163.267 94.4506 164.574 93.0758 164.574 91.4041V85.2514C164.751 85.2184 164.919 85.1586 165.1 85.1335L164.993 84.3542C164.852 84.3746 164.714 84.4061 164.574 84.4296V63.2721V62.4912H166.145V63.2721V91.4025H166.146Z" fill="#1C3867"/>
<path d="M192.514 143.034C192.517 143.758 192.236 144.44 191.725 144.952C191.214 145.467 190.531 145.752 189.805 145.752C189.082 145.752 188.403 145.471 187.893 144.961L184.502 141.588C184.922 141.268 185.336 140.942 185.736 140.6L189 143.849C189.429 144.278 190.18 144.278 190.611 143.846C190.826 143.629 190.944 143.345 190.944 143.038C190.942 142.735 190.823 142.449 190.608 142.234L187.404 139.048C187.77 138.674 188.117 138.279 188.462 137.883L191.715 141.12C192.231 141.629 192.512 142.309 192.514 143.034Z" fill="#1C3867"/>
<path d="M143.775 145.751C143.049 145.751 142.366 145.467 141.855 144.951C141.345 144.439 141.064 143.757 141.067 143.033C141.068 142.308 141.351 141.628 141.865 141.118L145.119 137.881C145.463 138.275 145.81 138.67 146.176 139.045L142.972 142.231C142.757 142.447 142.638 142.731 142.636 143.036C142.636 143.341 142.754 143.627 142.969 143.844C143.185 144.06 143.471 144.18 143.775 144.18C144.079 144.178 144.365 144.062 144.58 143.847L147.845 140.597C148.244 140.942 148.659 141.267 149.078 141.586L145.687 144.959C145.175 145.47 144.498 145.749 143.775 145.751Z" fill="#1C3867"/>
<path d="M141.404 108.915L141.665 108.62L141.622 108.582C144.303 105.166 148.458 102.959 153.128 102.959H180.457C185.127 102.959 189.281 105.165 191.963 108.582L191.92 108.62L192.181 108.915L192.198 108.9C193.556 110.73 194.494 112.881 194.879 115.222L193.3 115.28C192.203 109.179 186.869 104.532 180.457 104.532H153.128C146.716 104.532 141.38 109.179 140.285 115.28L138.706 115.222C139.089 112.881 140.027 110.728 141.386 108.9L141.404 108.915Z" fill="#1C3867"/>
<path d="M165.301 145.533H166.591V146.266H166.984V145.533H168.275C178.979 145.533 188.127 138.821 191.788 129.394L193.438 129.454C192.297 132.574 190.603 135.424 188.458 137.882C188.114 138.276 187.767 138.67 187.401 139.046C186.868 139.588 186.309 140.1 185.732 140.597C185.333 140.941 184.919 141.266 184.499 141.585C179.988 145.031 174.376 147.103 168.275 147.103H165.299C159.198 147.103 153.584 145.032 149.075 141.585C148.656 141.264 148.241 140.939 147.842 140.597C147.265 140.1 146.706 139.588 146.173 139.046C145.807 138.672 145.46 138.278 145.116 137.882C142.971 135.423 141.277 132.576 140.137 129.454L141.786 129.393C145.449 138.821 154.596 145.533 165.301 145.533Z" fill="#1C3867"/>
<path d="M155.95 107.636H177.639C182.324 107.636 186.194 111.158 186.758 115.693C186.483 115.763 186.222 115.862 185.963 115.965C185.52 111.74 181.978 108.421 177.639 108.421H155.95C151.609 108.421 148.067 111.738 147.626 115.965C147.367 115.862 147.106 115.763 146.831 115.693C147.395 111.158 151.265 107.636 155.95 107.636Z" fill="#1C3867"/>
<path d="M161.801 135.965H171.774C177.366 135.965 182.203 132.723 184.543 128.029C184.758 128.178 184.994 128.296 185.225 128.42C182.748 133.35 177.656 136.75 171.774 136.75H166.983V136.276H166.59V136.75H161.801C155.919 136.75 150.827 133.35 148.351 128.42C148.582 128.296 148.819 128.178 149.032 128.029C151.372 132.725 156.21 135.965 161.801 135.965Z" fill="#1C3867"/>
<path d="M167.138 10.7221C167.052 10.7284 166.967 10.7473 166.879 10.7488V10.1361H166.486V10.7268C166.472 10.7268 166.46 10.7237 166.447 10.7237C165.9 10.686 165.374 10.5776 164.888 10.3765C163.08 9.62701 161.803 7.84686 161.803 5.76976C161.803 3.01862 164.04 0.78125 166.791 0.78125C169.542 0.78125 171.781 3.01862 171.781 5.76976C171.781 7.84686 170.504 9.62701 168.695 10.3765C168.212 10.576 167.684 10.6828 167.138 10.7221ZM163.374 5.76818C163.374 7.65203 164.907 9.18551 166.791 9.18551C168.677 9.18551 170.21 7.65203 170.21 5.76818C170.21 3.88433 168.677 2.35086 166.791 2.35086C164.907 2.35086 163.374 3.88433 163.374 5.76818Z" fill="#1C3867"/>
<path d="M154.501 120.633H151.748C151.605 120.077 151.393 119.554 151.124 119.062H154.824C154.684 119.573 154.576 120.097 154.501 120.633Z" fill="#1C3867"/>
<path d="M154.551 124.453H151.633C151.792 123.95 151.894 123.427 151.933 122.881H154.386C154.408 123.416 154.463 123.939 154.551 124.453Z" fill="#1C3867"/>
<path d="M179.195 122.881H181.648C181.688 123.427 181.789 123.95 181.949 124.453H179.032C179.118 123.939 179.171 123.416 179.195 122.881Z" fill="#1C3867"/>
<path d="M178.761 119.062H182.461C182.192 119.554 181.98 120.077 181.837 120.633H179.084C179.009 120.097 178.902 119.573 178.761 119.062Z" fill="#1C3867"/>
<path d="M179.077 120.632C179.156 121.198 179.211 121.77 179.211 122.357C179.211 122.535 179.192 122.708 179.184 122.882C179.162 123.415 179.107 123.939 179.019 124.453C178.018 130.309 172.92 134.784 166.783 134.784C160.647 134.784 155.549 130.309 154.548 124.453C154.46 123.939 154.407 123.415 154.383 122.882C154.375 122.708 154.356 122.535 154.356 122.357C154.356 121.77 154.411 121.198 154.49 120.632C154.565 120.096 154.672 119.573 154.814 119.061C156.264 113.807 161.073 109.931 166.781 109.931C172.491 109.931 177.3 113.805 178.751 119.061C178.895 119.571 179.002 120.096 179.077 120.632ZM155.931 122.356C155.931 125.278 157.097 127.929 158.98 129.883L158.537 130.326L158.817 130.606L159.26 130.163C161.213 132.047 163.864 133.212 166.784 133.212C169.707 133.212 172.357 132.047 174.31 130.161L174.755 130.606L175.033 130.326L174.59 129.883C176.474 127.93 177.64 125.278 177.64 122.357C177.64 116.371 172.769 111.503 166.784 111.503C160.8 111.502 155.931 116.371 155.931 122.356Z" fill="#1C3867"/>
<path d="M217.637 130.348L215.266 130.26L214.523 130.232L213.274 130.186L210.306 130.076L202.552 129.79L200.959 129.731L193.44 129.454L191.79 129.394L188.239 129.262C187.141 129.222 186.13 128.906 185.227 128.42C184.996 128.296 184.759 128.178 184.545 128.029C183.313 127.171 182.405 125.914 181.943 124.453C181.784 123.95 181.682 123.427 181.641 122.882C181.629 122.709 181.591 122.542 181.591 122.365C181.591 121.763 181.692 121.19 181.835 120.634C181.978 120.077 182.19 119.554 182.458 119.062C183.225 117.658 184.451 116.559 185.959 115.966C186.218 115.863 186.479 115.764 186.754 115.694C187.232 115.571 187.725 115.486 188.24 115.466L193.298 115.279L194.877 115.221L201.874 114.962L203.445 114.903L239.076 113.587L242.453 113.461L243.92 113.406L244.765 113.375L247.416 113.276L250.473 113.163L250.783 113.158L250.817 113.156C252.645 113.156 254.414 113.692 255.933 114.705C258.38 116.335 259.842 118.954 259.951 121.89C260.058 124.827 258.79 127.547 256.469 129.352L256.134 129.61C254.525 130.863 252.513 131.553 250.47 131.553L220.608 130.452L217.637 130.348ZM256.147 129.127L256.18 128.342L255.255 128.304L255.5 128.115C257.416 126.624 258.464 124.378 258.375 121.952C258.285 119.526 257.077 117.364 255.057 116.017C253.795 115.177 252.329 114.732 250.813 114.732L237.118 115.238V114.828H236.333V115.268L188.295 117.04C185.551 117.141 183.397 119.279 183.199 121.974L182.556 121.975L182.559 122.761L183.199 122.759C183.395 125.454 185.551 127.592 188.295 127.696L250.183 129.984L250.467 129.99C251.749 129.99 253.017 129.66 254.137 129.047L256.147 129.127Z" fill="#1C3867"/>
<path d="M237.123 122.639L219.003 122.678V122.468H218.217V122.68L183.202 122.755L182.562 122.757L182.559 121.971L183.203 121.969L236.337 121.856V115.264V114.824H237.123V115.235V122.639Z" fill="#1C3867"/>
<path d="M254.132 129.043L218.208 127.566V122.68V122.468H218.994V122.678V126.811L255.25 128.303L256.176 128.341L256.141 129.126L254.132 129.043Z" fill="#1C3867"/>
<path d="M86.5686 113.299L89.0448 113.39L89.8901 113.421L91.532 113.483L94.9084 113.607L130.134 114.906L131.706 114.964L138.702 115.222L140.281 115.28L145.339 115.467C145.852 115.486 146.346 115.571 146.823 115.695C147.098 115.766 147.359 115.865 147.618 115.967C149.127 116.561 150.352 117.659 151.119 119.063C151.388 119.555 151.598 120.078 151.743 120.635C151.886 121.191 151.986 121.764 151.986 122.366C151.986 122.544 151.949 122.71 151.936 122.883C151.895 123.428 151.795 123.951 151.636 124.454C151.174 125.915 150.266 127.172 149.034 128.03C148.819 128.179 148.583 128.297 148.352 128.421C147.449 128.908 146.437 129.223 145.34 129.264L141.789 129.396L140.14 129.457L132.647 129.733L131.047 129.793L123.622 130.066L120.654 130.176L119.252 130.228L118.511 130.257L116.292 130.338L113.324 130.448L83.4514 131.553L83.1088 131.559C81.0679 131.559 79.0568 130.869 77.4447 129.616L77.1132 129.356C74.7942 127.553 73.5247 124.833 73.6315 121.896C73.7383 118.96 75.2027 116.341 77.649 114.711C79.1683 113.696 80.9375 113.162 82.7648 113.162L83.1953 113.178L86.5686 113.299ZM79.4464 129.051C80.5651 129.66 81.8268 129.986 83.1057 129.986L145.277 127.692C148.024 127.59 150.178 125.45 150.374 122.756L151.196 122.757L151.199 121.972L150.374 121.97C150.176 119.276 148.022 117.139 145.277 117.037L97.4207 115.267V114.824H96.6352V115.238L83.0444 114.735L82.7585 114.729C81.2423 114.729 79.7764 115.173 78.5147 116.014C76.4942 117.36 75.2844 119.522 75.1964 121.948C75.1068 124.374 76.1548 126.621 78.0732 128.112L78.3246 128.308L77.5736 128.34L77.6066 129.125L79.4464 129.051Z" fill="#1C3867"/>
<path d="M115.543 122.68V122.468H114.757V122.678L97.0264 122.64L96.6352 122.639V115.239V114.824H97.4208V115.267V121.856L150.374 121.969L151.199 121.971L151.196 122.757L150.374 122.755L115.543 122.68Z" fill="#1C3867"/>
<path d="M77.5777 128.341L78.3287 128.309L114.761 126.811V122.678V122.468H115.547V122.68V127.566L79.449 129.051L77.6107 129.126L77.5777 128.341Z" fill="#1C3867"/>
<path d="M166.789 122.359L166.649 122.498L166.789 122.638L159.263 130.164L158.82 130.606L158.54 130.328L158.983 129.885L166.648 122.219L166.789 122.359Z" fill="#1C3867"/>
<path d="M166.648 122.498L166.788 122.359L166.926 122.219L174.592 129.883L175.035 130.328L174.759 130.606L174.314 130.163L166.788 122.638L166.648 122.498Z" fill="#1C3867"/>
<path d="M179.564 95.286C179.585 95.4258 179.613 95.5641 179.629 95.7055L178.85 95.7919C178.826 95.583 178.787 95.3787 178.754 95.1729C177.929 90.1655 173.979 86.1449 169.003 85.2242C168.726 85.1723 168.448 85.1252 168.166 85.0938L168.252 84.3145C168.507 84.3427 168.755 84.3883 169.005 84.4323C174.447 85.3734 178.769 89.7963 179.564 95.286Z" fill="#1C3867"/>
<path d="M164.573 84.4285C164.713 84.4049 164.85 84.3719 164.993 84.353L165.1 85.1323C164.919 85.1575 164.751 85.2187 164.573 85.2502C159.541 86.1756 155.677 90.1287 154.852 95.169C154.815 95.4016 154.746 95.6216 154.72 95.8588L153.938 95.7755C153.955 95.6106 153.987 95.4503 154.01 95.2869C154.805 89.7485 159.055 85.3774 164.573 84.4285Z" fill="#1C3867"/>
<path d="M22.2106 69.6317V73.8581V74.7883H21.425V73.8236V68.8084L67.0835 70.8808V71.4307H67.8691V70.9169L122.513 73.3947V65.6173V65.1538H123.299V65.6346V74.218L22.2106 69.6317Z" fill="#1C3867"/>
<path d="M67.8691 71.4305H67.0835V70.8806V64.4529V63.98H67.8691V64.4702V70.9168V71.4305Z" fill="#1C3867"/>
<path d="M266.472 70.9153V71.4307H267.257V70.8808L312.504 68.8272L312.916 68.8084V73.7906V73.888H312.13V73.8252V69.6317L211.454 74.1991L211.042 74.218V65.6189V65.1538H211.828V65.6016V73.3947L266.472 70.9153Z" fill="#1C3867"/>
<path d="M267.26 71.4305H266.474V70.9152V64.4545V63.98H267.26V64.4372V70.8806V71.4305Z" fill="#1C3867"/>
<path d="M497.128 63.4786L412.185 67.0279L411.035 67.0766L411.002 66.291L412.583 66.225L497.216 62.6883L497.337 62.6836L501.564 65.298L502.557 65.9139L502.143 66.5817L501.564 66.2235L500.465 65.5447L497.128 63.4786Z" fill="#1C3867"/>
<path d="M166.484 10.1367H166.877V10.7479V61.7013V62.5356H166.484V61.7013V10.7275V10.1367Z" fill="#1C3867"/>
<path d="M166.988 146.265H166.595V145.533V136.75V136.277H166.988V136.75V145.533V146.265Z" fill="#1C3867"/>
<path d="M196.709 104.902L192.196 108.898L192.179 108.913L191.918 108.618L191.96 108.58L196.449 104.605C197.23 103.915 198.361 103.797 199.27 104.316L201.873 105.81L202.299 106.055L202.102 106.396L201.873 106.264L199.073 104.659C198.313 104.223 197.364 104.321 196.709 104.902Z" fill="#1C3867"/>
<path d="M137.135 104.606L141.624 108.581L141.666 108.619L141.405 108.914L141.388 108.899L136.875 104.903C136.223 104.322 135.271 104.224 134.512 104.661L131.713 106.267L131.482 106.399L131.285 106.058L131.713 105.813L134.316 104.319C135.223 103.799 136.355 103.915 137.135 104.606Z" fill="#1C3867"/>
<path d="M19.8697 77.0154H33.5374C34.1926 77.0154 34.7347 76.5833 34.9326 75.9925C34.9829 75.8433 35.0269 75.6909 35.0269 75.5259H35.8125C35.8125 75.6987 35.7889 75.8668 35.7528 76.0287C35.5234 77.0421 34.62 77.8009 33.5374 77.8009H20.6003H18.7574V77.6957H18.418H18.3646V77.5967V77.0154H19.8697Z" fill="#1C3867"/>
<path d="M299.675 77.8015C298.598 77.8015 297.701 77.049 297.464 76.045C297.425 75.8768 297.4 75.7056 297.4 75.5249H298.185C298.185 75.6962 298.229 75.8548 298.283 76.0088C298.485 76.5902 299.024 77.016 299.675 77.016H314.079H314.848V77.6963H314.455V77.8015H313.349H299.675Z" fill="#1C3867"/>
<path d="M160.335 196.1L162.551 191.231H166.178V191.624H166.963V191.231H170.717L173.223 196.306L174.02 197.918L173.314 198.265L172.962 197.553L170.23 192.017H163.057L160.536 197.553L160.104 198.501L159.389 198.176L160.335 196.1Z" fill="#1C3867"/>
<path d="M166.963 191.23V191.623H166.177V191.23V176.26V175.793H166.963V176.216V191.23Z" fill="#1C3867"/>
<path d="M88.3301 179.564V179.792H89.1157V179.564H92.8677L95.38 184.647L96.1719 186.25L95.4664 186.597L95.2166 186.091L92.3806 180.35H85.2082L82.6016 186.075L82.2575 186.833L81.541 186.507L82.4602 184.492L84.7023 179.564H88.3301Z" fill="#1C3867"/>
<path d="M89.1172 164.757V179.566V179.793H88.3316V179.566V164.8V163.965H89.1172V164.757Z" fill="#1C3867"/>
<path d="M238.209 184.715L240.555 179.564H244.18V179.792H244.965V179.564H248.72L251.127 184.438L252.021 186.25L251.316 186.597L250.992 185.94L248.232 180.35H241.061L238.445 186.091L238.107 186.833L237.392 186.507L238.209 184.715Z" fill="#1C3867"/>
<path d="M244.961 179.566V179.793H244.175V179.566V164.787V163.965H244.961V164.77V179.566Z" fill="#1C3867"/>
<path d="M234.227 177.923V179.199V179.999H233.834V178.962V178.143L189.352 151.171L189.008 150.962L189.211 150.627L189.698 150.924L234.132 177.867L234.227 177.923Z" fill="#1C3867"/>
<path d="M99.601 179.043V180.325H99.2082V179.28V177.921L144.029 151.107L144.743 150.682L144.945 151.019L144.373 151.36L99.601 178.144V179.043Z" fill="#1C3867"/>
</svg>
