<svg width="41" height="33" viewBox="0 0 41 33" fill="none" xmlns="http://www.w3.org/2000/svg">
<path d="M38.8688 9.47334H35.5198C34.595 9.47334 33.8453 10.223 33.8453 11.1478V11.5371L32.8875 12.176C32.7351 11.4509 32.4295 11.0582 31.9255 10.5559L30.251 8.88144C29.6649 8.29534 29.3233 8.02909 28.8218 7.90602V5.14311C29.6465 4.72451 29.6591 3.45436 29.6591 2.77706C29.6591 1.96161 29.6591 0.26532 28.224 0.26532H25.2334C23.7984 0.263672 23.7984 1.95988 23.7984 2.77541C23.7984 3.45271 23.8109 4.72703 24.6356 5.14146V7.79888H18.7749V5.14146C19.5996 4.72287 19.6122 3.45271 19.6122 2.77541C19.6122 1.95996 19.6122 0.263672 18.1771 0.263672H15.1865C13.7514 0.263672 13.7514 1.95996 13.7514 2.77541C13.7514 3.45271 13.764 4.72703 14.5887 5.14146V7.79888H8.72795V5.14146C9.55266 4.72287 9.56522 3.45271 9.56522 2.77541C9.56522 1.95996 9.56522 0.263672 8.13015 0.263672H5.13946C3.7044 0.263672 3.7044 1.95996 3.7044 2.77541C3.7044 3.45271 3.71696 4.72703 4.54167 5.14146V7.90437C4.03932 8.02658 3.7044 8.29031 3.11249 8.87979L1.43803 10.5543C0.669436 11.322 0.355469 11.8176 0.355469 13.6595V27.0555C0.358687 29.8285 2.60591 32.0757 5.37894 32.079H27.1473C30.3826 32.0753 33.0043 29.4535 33.008 26.2182V25.2704L33.8453 25.8289V26.2182C33.8453 27.143 34.595 27.8927 35.5198 27.8927H38.8688C39.7936 27.8927 40.5432 27.143 40.5432 26.2182V11.1478C40.5432 10.223 39.7936 9.47334 38.8688 9.47334ZM25.5071 1.93814H27.9502C27.9777 2.21631 27.9892 2.4959 27.9845 2.77541C27.9891 3.05492 27.9776 3.33443 27.9502 3.61268H25.5071C25.4796 3.3345 25.4681 3.05492 25.4728 2.77541C25.4682 2.49582 25.4797 2.21631 25.5071 1.93814ZM27.1473 5.28706V7.7988H26.31V5.28706H27.1473ZM15.4602 1.93814H17.9032C17.9308 2.21631 17.9422 2.4959 17.9375 2.77541C17.9422 3.05492 17.9307 3.33443 17.9032 3.61268H15.4602C15.4326 3.3345 15.4212 3.05492 15.4259 2.77541C15.4212 2.49582 15.4327 2.21631 15.4602 1.93814ZM17.1003 5.28706V7.7988H16.2631V5.28706H17.1003ZM5.41324 1.93814H7.85629C7.88384 2.21631 7.89531 2.4959 7.8906 2.77541C7.89523 3.05492 7.88377 3.33443 7.85629 3.61268H5.41324C5.38569 3.3345 5.37423 3.05492 5.37894 2.77541C5.37431 2.49582 5.38577 2.21631 5.41324 1.93814ZM7.0534 5.28706V7.7988H6.21621V5.28706H7.0534ZM2.02993 13.6595C2.02993 12.3292 2.14296 12.2162 2.62184 11.7397L4.2963 10.0652C4.88821 9.47334 4.88821 9.47334 6.21613 9.47334H27.1473C28.4751 9.47334 28.4751 9.47334 29.0671 10.0652L30.7416 11.7397C31.2188 12.2153 31.3327 12.3258 31.3327 13.6587V15.3331H2.02993V13.6595ZM25.2426 22.8692H21.2866C19.9646 22.8692 19.6122 21.2902 19.6122 20.3575V17.0085H24.6356V20.3575C24.6355 21.3345 24.8591 22.1869 25.2426 22.8692ZM18.5446 22.8692H14.5752C13.2641 22.8692 12.9141 21.2902 12.9141 20.3575V17.0085H17.9375V20.3575C17.9376 21.3345 18.1612 22.1869 18.5446 22.8692ZM11.8441 22.8692H7.89067C6.56864 22.8692 6.21621 21.2902 6.21621 20.3575V17.0085H11.2397V20.3575C11.2397 21.3345 11.4624 22.1869 11.8441 22.8692ZM31.3336 26.2182C31.3308 28.5291 29.4582 30.4017 27.1474 30.4044H5.37894C3.52936 30.4044 2.02993 28.905 2.02993 27.0554V17.0085H4.54167V20.3575C4.54167 22.8224 5.91896 24.5437 7.89067 24.5437H31.3336V26.2182ZM31.3336 22.8692H27.9846C26.6625 22.8692 26.3101 21.2902 26.3101 20.3575V17.0085H31.3336V22.8692ZM33.8453 23.8161L33.008 23.2585V14.1075L33.8453 13.549V23.8161ZM38.8688 26.2182H35.5198V11.1478H38.8688V26.2182Z" fill="#1C3867"/>
</svg>
