<svg width="41" height="38" viewBox="0 0 41 38" fill="none" xmlns="http://www.w3.org/2000/svg">
<path d="M23.5278 16.9905C23.3368 16.7177 22.9609 16.6514 22.688 16.8424L10.9466 25.0639L7.57977 24.4702L8.28491 23.4476L10.274 23.7982C10.309 23.8044 10.344 23.8074 10.3788 23.8074C10.5719 23.8074 10.7561 23.7145 10.8704 23.5535L15.4315 17.1308C15.5512 16.9623 15.5762 16.7441 15.4977 16.5527C15.4191 16.3615 15.2481 16.2237 15.0445 16.1878L13.4803 15.9119L14.0315 15.1124C14.2205 14.8383 14.1515 14.4627 13.8772 14.2737C13.6032 14.0846 13.2276 14.1536 13.0385 14.4278L6.0538 24.5587C5.93731 24.7277 5.91479 24.9444 5.99401 25.1338C6.07331 25.3232 6.24348 25.4592 6.44554 25.4949L10.9831 26.2949C11.018 26.301 11.053 26.3041 11.0878 26.3041C11.2107 26.3041 11.3316 26.2665 11.4338 26.1951L23.3798 17.8304C23.6526 17.6393 23.7189 17.2633 23.5278 16.9905ZM12.7275 17.0038L13.8961 17.2099L10.1079 22.5443L9.03763 22.3556L12.7275 17.0038Z" fill="#1C3867"/>
<path d="M20.876 8.33418L15.8491 1.15498C15.7573 1.02397 15.6174 0.934761 15.4599 0.907006L10.9223 0.106868C10.7196 0.0711036 10.5137 0.140888 10.3745 0.291717C10.2353 0.442545 10.1823 0.653801 10.234 0.852527L11.9506 7.44792C12.0344 7.77027 12.3635 7.96353 12.6861 7.87955C13.0083 7.79573 13.2016 7.4664 13.1176 7.14412L12.2845 3.94317L13.3546 4.1319L14.3874 7.88534C14.461 8.1529 14.7038 8.32847 14.9685 8.32847C15.0214 8.32847 15.0752 8.32141 15.1287 8.30666C15.4498 8.21832 15.6386 7.88645 15.5502 7.56528L14.4162 3.44421C14.3544 3.21964 14.1689 3.05081 13.9396 3.01036L11.9504 2.6597L11.6375 1.45751L15.0046 2.05123L19.8882 9.02575C20.0055 9.19331 20.1925 9.28292 20.3826 9.28292C20.502 9.28292 20.6226 9.24756 20.7279 9.17381C21.0008 8.98285 21.067 8.60697 20.876 8.33418Z" fill="#1C3867"/>
<path d="M9.46582 17.0056L6.11278 16.4144C5.30685 16.2723 4.54945 15.9228 3.92235 15.4035C3.66589 15.1912 3.28565 15.2268 3.07336 15.4834C2.86092 15.7398 2.89676 16.12 3.15322 16.3324C3.94098 16.9846 4.89195 17.4237 5.90327 17.602L9.25631 18.1933C9.29176 18.1996 9.32697 18.2026 9.36178 18.2026C9.64885 18.2026 9.90324 17.9968 9.95487 17.7042C10.0128 17.3762 9.79381 17.0634 9.46582 17.0056Z" fill="#1C3867"/>
<path d="M26.222 10.8992L7.98618 7.68347L6.32595 3.80641C6.24585 3.61934 6.07671 3.48532 5.8764 3.44995L2.56363 2.86583C2.39885 2.83672 2.22978 2.8774 2.09624 2.97788C1.9627 3.07835 1.87681 3.22981 1.85929 3.39603L1.03829 11.1351C0.909432 12.3481 1.15161 13.5528 1.73859 14.6189C1.84842 14.8183 2.05476 14.9312 2.26737 14.9312C2.3657 14.9312 2.46546 14.9071 2.55761 14.8562C2.84935 14.6956 2.95561 14.3289 2.79503 14.0372C2.32764 13.1884 2.13478 12.229 2.23747 11.2625L2.38053 9.91394L4.33401 10.2583C4.3689 10.2645 4.40387 10.2675 4.43876 10.2675C4.57778 10.2675 4.71386 10.2194 4.82273 10.1295C4.95881 10.017 5.03883 9.8505 5.04168 9.6739L5.12162 4.54152L5.34572 4.58109L7.00587 8.45815C7.08596 8.64522 7.25511 8.77924 7.4555 8.8146L26.0126 12.0867C26.3414 12.1445 26.6533 11.9255 26.7111 11.5976C26.7689 11.2697 26.5499 10.957 26.222 10.8992ZM3.84679 8.94767L2.50812 8.71167L2.99027 4.16556L3.91871 4.32923L3.84679 8.94767Z" fill="#1C3867"/>
<path d="M39.5642 17.6732C39.0587 16.951 38.3078 16.4632 37.4448 16.2945L36.9487 15.274C36.1216 13.5726 34.5156 12.3608 32.6527 12.0322L28.2038 11.2478C27.8754 11.1899 27.5632 11.4089 27.5054 11.7369C27.4475 12.0651 27.6665 12.3777 27.9944 12.4356L31.8497 13.1154L31.7133 13.8893C31.4663 15.2896 32.4048 16.6297 33.805 16.8766L36.9302 17.4277C36.9308 17.4277 36.9314 17.428 36.932 17.4281L37.1718 17.4703C37.7444 17.5713 38.2431 17.8889 38.5764 18.3648C38.91 18.8413 39.0381 19.419 38.9372 19.9915C38.8363 20.5638 38.5185 21.0626 38.0423 21.3958C37.5661 21.7291 36.9883 21.857 36.4161 21.7561L22.4658 19.2965C22.1377 19.2386 21.8252 19.4577 21.7674 19.7856C21.7095 20.1136 21.9285 20.4262 22.2564 20.484L36.2066 22.9439C36.4051 22.9788 36.6039 22.9961 36.8013 22.9961C37.4889 22.9961 38.1589 22.7863 38.7339 22.3838C39.474 21.8658 39.9681 21.0905 40.1249 20.2009C40.2816 19.3112 40.0827 18.4134 39.5642 17.6732ZM34.0146 15.6891C33.2691 15.5576 32.7695 14.8442 32.9009 14.0988L33.0304 13.3644C34.2597 13.7498 35.2941 14.6292 35.8641 15.8014L35.9778 16.0352L34.0146 15.6891Z" fill="#1C3867"/>
<path d="M9.25701 11.4001C9.13092 11.1749 8.86653 11.0531 8.61317 11.1033C8.36591 11.1523 8.1725 11.3577 8.13435 11.6061C8.09288 11.8762 8.24894 12.1475 8.50064 12.2514C8.74711 12.3554 9.04353 12.2759 9.20713 12.0648C9.35431 11.875 9.37453 11.61 9.25701 11.4001Z" fill="#1C3867"/>
<path d="M11.1956 11.5166C10.8675 11.4587 10.5548 11.6782 10.497 12.0062C10.4391 12.3342 10.6586 12.647 10.9858 12.7049C11.0211 12.7105 11.0564 12.7137 11.0911 12.7137C11.378 12.7137 11.6329 12.5079 11.6844 12.2153C11.7423 11.8873 11.5236 11.5745 11.1956 11.5166Z" fill="#1C3867"/>
<path d="M15.9127 12.3492C15.5847 12.2913 15.2719 12.51 15.2142 12.838C15.1561 13.166 15.3749 13.4787 15.7029 13.5366C15.7382 13.543 15.7737 13.5463 15.8082 13.5463C16.0953 13.5463 16.3501 13.3405 16.4015 13.0478C16.4595 12.7198 16.2399 12.4071 15.9127 12.3492Z" fill="#1C3867"/>
<path d="M25.3484 14.0112C25.0203 13.9533 24.7075 14.1728 24.6497 14.5C24.5918 14.8289 24.8113 15.1408 25.1385 15.1987C25.1739 15.2051 25.2093 15.2083 25.2438 15.2083C25.5316 15.2083 25.7856 15.0025 25.8372 14.7098C25.8951 14.3819 25.6763 14.0691 25.3484 14.0112Z" fill="#1C3867"/>
<path d="M22.9883 13.5969C22.6602 13.5391 22.3474 13.7578 22.2896 14.0858C22.2317 14.4138 22.4512 14.7266 22.7792 14.7844C22.8137 14.7908 22.8492 14.7941 22.8845 14.7941C23.1714 14.7941 23.4255 14.5882 23.477 14.2956C23.535 13.9676 23.3162 13.6548 22.9883 13.5969Z" fill="#1C3867"/>
<path d="M20.6289 13.1817C20.3008 13.1238 19.9881 13.3425 19.9303 13.6705C19.8724 13.9986 20.0919 14.3113 20.4199 14.3691C20.4553 14.3756 20.4906 14.378 20.5251 14.378C20.8122 14.378 21.0662 14.1722 21.1177 13.8796C21.1756 13.5516 20.9569 13.2396 20.6289 13.1817Z" fill="#1C3867"/>
<path d="M18.2709 12.7651C17.9429 12.7072 17.6301 12.9267 17.5724 13.2539C17.5153 13.5828 17.734 13.8947 18.062 13.9525C18.0973 13.959 18.1327 13.9622 18.1672 13.9622C18.4543 13.9622 18.7083 13.7563 18.7605 13.4637C18.8176 13.1357 18.5989 12.823 18.2709 12.7651Z" fill="#1C3867"/>
<path d="M13.5518 11.9331C13.2237 11.8752 12.9109 12.0939 12.8532 12.4219C12.7952 12.75 13.014 13.0627 13.342 13.1206C13.3773 13.127 13.4127 13.1294 13.4472 13.1294C13.7343 13.1294 13.9891 12.9237 14.0406 12.631C14.0985 12.3038 13.879 11.991 13.5518 11.9331Z" fill="#1C3867"/>
<path d="M27.3059 14.4968C27.0439 14.6436 26.9265 14.9752 27.0435 15.2533C27.1418 15.4854 27.3762 15.637 27.6296 15.6247C27.874 15.6128 28.0905 15.4492 28.1705 15.2185C28.3476 14.7072 27.7793 14.2318 27.3059 14.4968Z" fill="#1C3867"/>
<path d="M40.3541 32.9323H38.7107V32.0882C38.7107 30.9578 37.7912 30.0381 36.6607 30.0381C35.5301 30.0381 34.6106 30.9578 34.6106 32.0882V32.9323H23.5159V32.0882C23.5159 30.9578 22.5963 30.0381 21.4659 30.0381C20.3354 30.0381 19.4158 30.9578 19.4158 32.0882V32.9323H8.32124V32.0882C8.32124 30.9578 7.4016 30.0381 6.27118 30.0381C5.14068 30.0381 4.22095 30.9578 4.22095 32.0882V32.9323H0.958467C0.625406 32.9323 0.355469 33.2023 0.355469 33.5353C0.355469 33.8683 0.625406 34.1383 0.958467 34.1383H40.3541C40.6872 34.1383 40.9571 33.8683 40.9571 33.5353C40.9571 33.2023 40.6872 32.9323 40.3541 32.9323ZM7.11525 32.9323H5.42695V32.0882C5.42695 31.6228 5.80561 31.244 6.27118 31.244C6.73659 31.244 7.11533 31.6227 7.11533 32.0882L7.11525 32.9323ZM22.3099 32.9323H20.6217V32.0882C20.6217 31.6228 21.0004 31.244 21.4659 31.244C21.9313 31.244 22.31 31.6227 22.31 32.0882L22.3099 32.9323ZM37.5047 32.9323H35.8165V32.0882C35.8165 31.6228 36.1952 31.244 36.6607 31.244C37.1261 31.244 37.5048 31.6227 37.5048 32.0882L37.5047 32.9323Z" fill="#1C3867"/>
<path d="M40.3524 35.8653H7.94295C7.60989 35.8653 7.33995 36.1353 7.33995 36.4683C7.33995 36.8013 7.60989 37.0713 7.94295 37.0713H40.3524C40.6855 37.0713 40.9554 36.8013 40.9554 36.4683C40.9554 36.1353 40.6855 35.8653 40.3524 35.8653Z" fill="#1C3867"/>
<path d="M5.93455 35.8663H0.958467C0.625406 35.8663 0.355469 36.1363 0.355469 36.4693C0.355469 36.8022 0.625406 37.0723 0.958467 37.0723H5.93455C6.26761 37.0723 6.53755 36.8022 6.53755 36.4693C6.53755 36.1363 6.26753 35.8663 5.93455 35.8663Z" fill="#1C3867"/>
<path d="M34.1139 23.5767C33.7997 23.1282 33.3298 22.8288 32.7906 22.7337C32.2515 22.6386 31.7073 22.7591 31.2587 23.0733C30.8101 23.3874 30.5106 23.8575 30.4157 24.3966C30.3205 24.9359 30.4411 25.4799 30.7553 25.9285C31.0694 26.3771 31.5394 26.6765 32.0786 26.7716C32.1986 26.7927 32.3179 26.8029 32.4356 26.8029C33.4113 26.8029 34.2785 26.1019 34.4537 25.1087C34.5487 24.5693 34.4281 24.0253 34.1139 23.5767ZM33.266 24.8992C33.1851 25.3577 32.7456 25.6645 32.288 25.584C32.066 25.5448 31.8724 25.4216 31.7432 25.2368C31.6139 25.0521 31.5642 24.8282 31.6034 24.606C31.6425 24.384 31.7659 24.1905 31.9505 24.0612C32.094 23.9607 32.2612 23.9084 32.4328 23.9084C32.482 23.9084 32.5317 23.9127 32.5813 23.9214C32.8033 23.9605 32.9969 24.0839 33.1262 24.2685C33.2554 24.4532 33.305 24.6772 33.266 24.8992Z" fill="#1C3867"/>
<path d="M18.6605 24.2812C18.3463 23.8327 17.8764 23.5333 17.3372 23.4382C16.7981 23.3431 16.2538 23.4636 15.8052 23.7778C15.3567 24.0919 15.0572 24.5619 14.9623 25.1011C14.8671 25.6404 14.9877 26.1845 15.3019 26.633C15.616 27.0816 16.086 27.381 16.6253 27.4761C16.7452 27.4972 16.8645 27.5074 16.9821 27.5074C17.9578 27.5074 18.825 26.8064 19.0002 25.8131C19.0953 25.2738 18.9748 24.7297 18.6605 24.2812ZM17.8125 25.6037C17.7316 26.0621 17.292 26.3692 16.8346 26.2885C16.6125 26.2493 16.4189 26.126 16.2897 25.9413C16.1604 25.7566 16.1107 25.5326 16.1499 25.3105C16.1891 25.0885 16.3124 24.8949 16.497 24.7656C16.6405 24.6651 16.8078 24.6128 16.9794 24.6128C17.0285 24.6128 17.0782 24.6171 17.1277 24.6258C17.3498 24.665 17.5434 24.7883 17.6727 24.973C17.8019 25.1577 17.8516 25.3817 17.8125 25.6037Z" fill="#1C3867"/>
</svg>
