<svg width="248" height="142" viewBox="0 0 248 142" fill="none" xmlns="http://www.w3.org/2000/svg">
<path d="M169.656 98.8108L181.572 121.33C181.572 121.33 183.827 125.197 182.385 125.422C180.942 125.647 179.185 122.803 179.185 122.803L166.596 100.211" stroke="#1C3867" stroke-width="0.607258" stroke-miterlimit="10" stroke-linecap="round" stroke-linejoin="round"/>
<path d="M179.864 117.602C179.864 117.602 187.743 114.764 190.007 121.549C192.702 129.63 184.207 134.986 179.02 131.2C173.832 127.414 174.041 122.301 177.345 119.839" stroke="#1C3867" stroke-width="0.607258" stroke-miterlimit="10" stroke-linecap="round" stroke-linejoin="round"/>
<path d="M181.943 117.201C183.76 117.545 187.055 118.81 187.96 121.562C189.963 127.654 185.347 133.033 179.626 131.658" stroke="#1C3867" stroke-width="0.303629" stroke-miterlimit="10" stroke-linecap="round" stroke-linejoin="round"/>
<path d="M181.604 121.53C181.604 121.53 184.146 120.812 184.663 123.408C185.138 125.793 183.29 127.784 180.978 127.364C178.554 126.923 178.143 123.873 179.186 122.803" stroke="#1C3867" stroke-width="0.607258" stroke-miterlimit="10" stroke-linecap="round" stroke-linejoin="round"/>
<path d="M146.971 92.0496L100.941 53.7686C100.941 53.7686 96.9298 52.261 96.6244 53.458C96.319 54.6545 144.29 93.1438 144.29 93.1438C144.29 93.1438 146.54 92.7925 146.971 92.0496Z" stroke="#1C3867" stroke-width="0.607258" stroke-miterlimit="10" stroke-linecap="round" stroke-linejoin="round"/>
<path d="M98.8724 53.2174L145.869 92.436" stroke="#1C3867" stroke-width="0.303629" stroke-miterlimit="10" stroke-linecap="round" stroke-linejoin="round"/>
<path d="M143.962 118.599C143.962 118.599 145.577 93.9053 148.386 92.9743C148.386 92.9743 143.943 93.1157 143.773 94.7606C143.646 95.9887 141.057 117.46 141.057 117.46" stroke="#1C3867" stroke-width="0.607258" stroke-miterlimit="10" stroke-linecap="round" stroke-linejoin="round"/>
<path d="M139.981 132.95C139.981 132.95 146.764 131.821 147.017 125.45C147.328 117.627 138.298 115.311 134.389 119.214C129.971 123.626 131.709 133.585 139.981 132.95Z" stroke="#1C3867" stroke-width="0.607258" stroke-miterlimit="10" stroke-linecap="round" stroke-linejoin="round"/>
<path d="M137.934 128.225C137.934 128.225 140.469 128.395 140.653 125.039C140.836 121.683 137.05 120.504 135.655 122.279C134.26 124.055 134.689 128.448 137.934 128.225Z" stroke="#1C3867" stroke-width="0.607258" stroke-miterlimit="10" stroke-linecap="round" stroke-linejoin="round"/>
<path d="M137.871 126.822C137.871 126.822 139.36 126.922 139.467 124.952C139.575 122.982 137.352 122.289 136.533 123.332C135.714 124.374 135.966 126.954 137.871 126.822Z" stroke="#1C3867" stroke-width="0.607258" stroke-miterlimit="10" stroke-linecap="round" stroke-linejoin="round"/>
<path d="M136.492 117.911C136.492 117.911 138.866 117.571 140.725 118.493C142.585 119.416 144.127 121.386 144.425 123.556C145.021 127.895 142.683 131.031 138.358 131.338C138.358 131.338 134.666 131.869 132.826 128.933" stroke="#1C3867" stroke-width="0.303629" stroke-miterlimit="10" stroke-linecap="round" stroke-linejoin="round"/>
<path d="M146.592 93.2551C146.592 93.2551 145.971 94.8123 145.358 98.3271C144.628 102.515 142.855 118.055 142.855 118.055" stroke="#1C3867" stroke-width="0.303629" stroke-miterlimit="10" stroke-linecap="round" stroke-linejoin="round"/>
<path d="M168.206 65.7454L105.533 45.3361C105.533 45.3361 100.425 49.4165 98.5617 49.051C96.6988 48.6849 96.2033 47.6135 96.2033 47.6135L100.475 44.4843C100.475 44.4843 101.632 43.4825 100.325 43.5225C99.018 43.5625 59.1699 29.1029 59.1699 29.1029C59.1699 29.1029 54.047 26.7844 49.8205 28.1002C45.5941 29.4172 40.8972 29.8225 36.9311 31.7553C32.965 33.6875 18.5579 42.3393 18.9183 43.5964C19.2786 44.853 22.3035 46.3505 22.3035 46.3505L58.2358 57.8107L61.6612 56.6187L58.3759 59.7587L108.785 76.6728" stroke="#1C3867" stroke-width="0.607258" stroke-miterlimit="10" stroke-linecap="round" stroke-linejoin="round"/>
<path d="M21.07 44.676C21.07 44.676 38.1203 30.5403 53.1075 29.429L58.2822 31.0794L26.8317 47.464" stroke="#1C3867" stroke-width="0.607258" stroke-miterlimit="10" stroke-linecap="round" stroke-linejoin="round"/>
<path d="M35.9291 42.764L118.072 71.8843" stroke="#1C3867" stroke-width="0.303629" stroke-miterlimit="10" stroke-linecap="round" stroke-linejoin="round"/>
<path d="M37.0078 41.777L115.451 69.8359" stroke="#1C3867" stroke-width="0.303629" stroke-miterlimit="10" stroke-linecap="round" stroke-linejoin="round"/>
<path d="M53.8361 49.1877L51.1125 51.0642L53.1414 51.6582L55.7766 49.8066" stroke="#1C3867" stroke-width="0.303629" stroke-miterlimit="10" stroke-linecap="round" stroke-linejoin="round"/>
<path d="M74.6095 56.763L71.8854 58.6395L73.9142 59.2335L76.55 57.3818" stroke="#1C3867" stroke-width="0.303629" stroke-miterlimit="10" stroke-linecap="round" stroke-linejoin="round"/>
<path d="M95.7482 64.6604L93.0241 66.5369L95.0535 67.1309L97.6887 65.2793" stroke="#1C3867" stroke-width="0.303629" stroke-miterlimit="10" stroke-linecap="round" stroke-linejoin="round"/>
<path d="M58.282 31.079L143.914 59.9102" stroke="#1C3867" stroke-width="0.303629" stroke-miterlimit="10" stroke-linecap="round" stroke-linejoin="round"/>
<path d="M105.531 45.3364C105.531 45.3364 103.817 42.9256 100.777 43.7815" stroke="#1C3867" stroke-width="0.607258" stroke-miterlimit="10" stroke-linecap="round" stroke-linejoin="round"/>
<path d="M190.662 70.0611C190.989 67.6604 191.997 66.077 193.498 65.6914C195.488 65.1809 197.752 67.038 199.383 70.3267" stroke="#1C3867" stroke-width="0.303629" stroke-miterlimit="10" stroke-linecap="round" stroke-linejoin="round"/>
<path d="M201.096 75.3995C202.046 80.3032 200.973 84.5672 198.506 85.2001C195.841 85.8843 192.56 82.0717 191.177 76.6841C190.879 75.52 190.693 74.3775 190.612 73.2942" stroke="#1C3867" stroke-width="0.303629" stroke-miterlimit="10" stroke-linecap="round" stroke-linejoin="round"/>
<path d="M189.256 69.6649C189.524 66.1923 190.808 63.7797 192.871 63.2504C195.545 62.5636 198.714 65.4982 200.756 70.1646" stroke="#1C3867" stroke-width="0.607258" stroke-miterlimit="10" stroke-linecap="round" stroke-linejoin="round"/>
<path d="M202.67 77.3442C203.25 82.6186 201.885 86.9362 199.135 87.6423C195.803 88.4976 191.7 83.7303 189.972 76.9948C189.637 75.693 189.416 74.4135 189.301 73.1899" stroke="#1C3867" stroke-width="0.607258" stroke-miterlimit="10" stroke-linecap="round" stroke-linejoin="round"/>
<path d="M191.173 63.971C191.173 63.971 189.474 63.3569 188.647 63.3219C187.821 63.2868 180.566 65.1985 180.566 65.1985C180.566 65.1985 178.959 66.6989 179.706 69.3733C180.452 72.0472 181.828 80.8604 181.828 80.8604L190.231 77.9066" stroke="#1C3867" stroke-width="0.303629" stroke-miterlimit="10" stroke-linecap="round" stroke-linejoin="round"/>
<path d="M192.328 83.2515C192.328 83.2515 188.719 85.037 183.876 86.6144C183.876 86.6144 188.933 92.7188 193.31 92.3635C197.686 92.0083 201.866 87.9886 202.338 83.647" stroke="#1C3867" stroke-width="0.303629" stroke-miterlimit="10" stroke-linecap="round" stroke-linejoin="round"/>
<path d="M177.041 63.2907C177.041 63.2907 173.526 68.6969 173.926 71.2606C174.327 73.8244 175.793 84.2651 177.055 86.038C178.317 87.8107 182.4 93.1846 182.4 93.1846" stroke="#1C3867" stroke-width="0.607258" stroke-miterlimit="10" stroke-linecap="round" stroke-linejoin="round"/>
<path d="M192.62 92.3818C192.62 92.3818 188.346 96.3129 187.918 96.3797C187.491 96.4464 184.062 96.2154 183.171 94.7136C183.171 94.7136 185.849 93.6384 185.689 91.9123L181.245 93.5915L172.799 95.5669C172.799 95.5669 171.02 96.7894 171.904 99.6464C173.111 103.548 176.378 103.806 176.378 103.806L185.537 101.453C185.537 101.453 187.749 99.8786 186.761 96.499" stroke="#1C3867" stroke-width="0.607258" stroke-miterlimit="10" stroke-linecap="round" stroke-linejoin="round"/>
<path d="M181.745 93.9018C181.745 93.9018 182.093 97.6176 181.131 97.7678C180.17 97.9179 171.904 99.6464 171.904 99.6464" stroke="#1C3867" stroke-width="0.303629" stroke-miterlimit="10" stroke-linecap="round" stroke-linejoin="round"/>
<path d="M190.393 59.7457L189.32 62.2182L192.871 63.2505" stroke="#1C3867" stroke-width="0.607258" stroke-miterlimit="10" stroke-linecap="round" stroke-linejoin="round"/>
<path d="M189.32 62.2183L176.013 65.0647" stroke="#1C3867" stroke-width="0.607258" stroke-miterlimit="10" stroke-linecap="round" stroke-linejoin="round"/>
<path d="M183.169 94.7131C183.169 94.7131 182.714 99.1278 184.101 100.14C186.824 102.127 185.812 96.3391 185.812 96.3391" stroke="#1C3867" stroke-width="0.607258" stroke-miterlimit="10" stroke-linecap="round" stroke-linejoin="round"/>
<path d="M196.061 71.4219C196.061 71.4219 203.597 68.5166 204.816 71.3995C205.937 74.0521 198.104 76.6343 198.104 76.6343C198.104 76.6343 196.428 76.6115 195.713 74.2187C195.665 74.0571 195.626 73.9047 195.595 73.7602" stroke="#1C3867" stroke-width="0.607258" stroke-miterlimit="10" stroke-linecap="round" stroke-linejoin="round"/>
<path d="M200.932 70.1617C200.932 70.1617 208.014 61.0657 209.514 60.8314C211.014 60.5972 212.489 62.8253 212.489 62.8253L203.838 70.3224" stroke="#1C3867" stroke-width="0.607258" stroke-miterlimit="10" stroke-linecap="round" stroke-linejoin="round"/>
<path d="M197.82 71.8773L185.356 68.8043C185.356 68.8043 183.906 70.6699 184.981 72.9605L198.002 73.6928C198.002 73.6928 197.461 72.8553 197.82 71.8773Z" stroke="#1C3867" stroke-width="0.607258" stroke-miterlimit="10" stroke-linecap="round" stroke-linejoin="round"/>
<path d="M202.415 74.7318C202.415 74.7318 211.379 81.9495 211.442 82.3497C211.504 82.7493 208.991 84.3709 208.991 84.3709L201.161 75.5552" stroke="#1C3867" stroke-width="0.607258" stroke-miterlimit="10" stroke-linecap="round" stroke-linejoin="round"/>
<path d="M198.741 70.6193C198.741 70.6193 197.41 71.4418 198.005 73.6925C198.495 75.5495 200.08 75.75 200.08 75.75" stroke="#1C3867" stroke-width="0.607258" stroke-miterlimit="10" stroke-linecap="round" stroke-linejoin="round"/>
<path d="M40.2741 135.14C40.2741 135.14 43.238 134.677 43.156 130.996C43.0736 127.315 37.5398 126.49 36.8863 131.318C36.3143 135.546 40.2741 135.14 40.2741 135.14Z" stroke="#1C3867" stroke-width="0.607258" stroke-miterlimit="10" stroke-linecap="round" stroke-linejoin="round"/>
<path d="M39.8525 134.228C39.8525 134.228 41.912 134.07 41.7997 131.226C41.6874 128.381 37.9943 127.67 37.566 131.378C37.2366 134.228 39.8525 134.228 39.8525 134.228Z" stroke="#1C3867" stroke-width="0.607258" stroke-miterlimit="10" stroke-linecap="round" stroke-linejoin="round"/>
<path d="M39.7826 132.844C39.7826 132.844 40.667 132.706 40.6177 131.445C40.5677 130.185 38.931 129.87 38.7413 131.513C38.5955 132.775 39.7826 132.844 39.7826 132.844Z" stroke="#1C3867" stroke-width="0.607258" stroke-miterlimit="10" stroke-linecap="round" stroke-linejoin="round"/>
<path d="M47.2599 124.988L45.1933 129.618L43.157 130.996" stroke="#1C3867" stroke-width="0.607258" stroke-miterlimit="10" stroke-linecap="round" stroke-linejoin="round"/>
<path d="M44.2693 125.455L44.0536 128.978L42.9248 129.92" stroke="#1C3867" stroke-width="0.607258" stroke-miterlimit="10" stroke-linecap="round" stroke-linejoin="round"/>
<path d="M146.952 60.9984C146.361 61.4188 148.049 64.2622 148.049 64.2622C148.049 64.2622 157.869 69.3363 159.396 68.6056C160.924 67.8747 189.082 59.8117 190.363 59.6116C191.646 59.4114 196.942 60.6198 196.942 60.6198L195.86 63.4986" stroke="#1C3867" stroke-width="0.607258" stroke-miterlimit="10" stroke-linecap="round" stroke-linejoin="round"/>
<path d="M118.09 72.8039C108.069 76.9625 106.706 77.4998 101.579 79.9323C93.3266 83.8474 53.2656 105.862 53.2656 105.862L21.0124 102.199L15.0005 77.3666C15.0005 77.3666 13.0234 69.9601 8.13053 71.2165C3.2383 72.4728 -0.708056 82.9383 -0.708056 82.9383L-1.14921 84.3207C-1.14921 84.3207 0.0205682 110.73 1.76323 112.428C3.50521 114.125 17.8072 107.952 20.2164 104.457" stroke="#1C3867" stroke-width="0.607258" stroke-miterlimit="10" stroke-linecap="round" stroke-linejoin="round"/>
<path d="M149.836 59.8045C136.902 65.1119 128.239 68.6664 122.139 71.1888" stroke="#1C3867" stroke-width="0.607258" stroke-miterlimit="10" stroke-linecap="round" stroke-linejoin="round"/>
<path d="M8.00183 111.866C4.9311 110.921 28.8498 118.195 34.1064 117.718C39.1238 117.263 54.5076 109.608 53.9221 106.909" stroke="#1C3867" stroke-width="0.607258" stroke-miterlimit="10" stroke-linecap="round" stroke-linejoin="round"/>
<path d="M144.561 107.34C157.075 103.233 170.995 98.1928 170.995 98.1928" stroke="#1C3867" stroke-width="0.607258" stroke-miterlimit="10" stroke-linecap="round" stroke-linejoin="round"/>
<path d="M32.6882 118.103C32.6882 118.103 34.6409 125.349 36.8742 125.985C39.1075 126.622 115.752 114.981 124.676 113.259C127.107 112.789 136.085 110.003 141.337 108.355" stroke="#1C3867" stroke-width="0.607258" stroke-miterlimit="10" stroke-linecap="round" stroke-linejoin="round"/>
<path d="M148.246 93.1168L166.535 86.6984L175.51 81.1997" stroke="#1C3867" stroke-width="0.607258" stroke-miterlimit="10" stroke-linecap="round" stroke-linejoin="round"/>
<path d="M34.8068 123.455L32.2383 124.061L32.7628 124.798L35.8877 125.13C44.769 125.587 100.021 109.886 100.021 109.886L142.974 94.8852" stroke="#1C3867" stroke-width="0.607258" stroke-miterlimit="10" stroke-linecap="round" stroke-linejoin="round"/>
<path d="M63.5121 99.9939C63.5121 99.9939 64.8676 116.033 67.291 118.938L71.4707 121.462L64.241 122.533C64.241 122.533 62.0326 122.057 60.4257 120.174C58.8183 118.291 56.4359 106.188 57.8233 103.509" stroke="#1C3867" stroke-width="0.303629" stroke-miterlimit="10" stroke-linecap="round" stroke-linejoin="round"/>
<path d="M78.2043 92.119C78.2043 92.119 76.3416 86.5003 71.9049 87.5214C67.4683 88.5425 63.1667 94.6315 62.8955 100.255" stroke="#1C3867" stroke-width="0.607258" stroke-miterlimit="10" stroke-linecap="round" stroke-linejoin="round"/>
<path d="M86.0601 119.524C86.0601 119.524 77.9722 125.312 71.9586 126.744C65.9444 128.175 65.7693 127.054 65.7693 127.054C65.7693 127.054 63.5533 125.829 65.0882 122.543" stroke="#1C3867" stroke-width="0.607258" stroke-miterlimit="10" stroke-linecap="round" stroke-linejoin="round"/>
<path d="M77.9324 105.923C77.7325 110.185 75.1555 113.526 72.1766 113.386C69.1979 113.246 66.9449 109.678 67.1448 105.417C67.3453 101.155 69.9223 97.8133 72.9012 97.9535C75.8799 98.0931 78.1328 101.661 77.9324 105.923Z" stroke="#1C3867" stroke-width="0.303629" stroke-miterlimit="10" stroke-linecap="round" stroke-linejoin="round"/>
<path d="M75.8614 105.826C75.7379 108.451 74.1503 110.51 72.3151 110.423C70.48 110.337 69.0925 108.139 69.2153 105.513C69.3388 102.888 70.9263 100.829 72.7615 100.916C74.5967 101.002 75.9842 103.2 75.8614 105.826Z" stroke="#1C3867" stroke-width="0.303629" stroke-miterlimit="10" stroke-linecap="round" stroke-linejoin="round"/>
<path d="M74.132 105.744C74.0733 107.001 73.3127 107.987 72.4336 107.946C71.5549 107.905 70.8902 106.852 70.9495 105.594C71.0083 104.337 71.7688 103.351 72.6474 103.392C73.5266 103.434 74.1913 104.486 74.132 105.744Z" stroke="#1C3867" stroke-width="0.303629" stroke-miterlimit="10" stroke-linecap="round" stroke-linejoin="round"/>
<path d="M-1.1482 84.32L13.5737 78.0105L18.5215 101.823L13.2779 103.666L9.22344 80.3291" stroke="#1C3867" stroke-width="0.303629" stroke-miterlimit="10" stroke-linecap="round" stroke-linejoin="round"/>
<path d="M1.48224 92.8874L7.91535 90.3051L8.80904 96.0277L1.93115 98.521L1.48224 92.8874Z" stroke="#1C3867" stroke-width="0.303629" stroke-miterlimit="10" stroke-linecap="round" stroke-linejoin="round"/>
<path d="M1.27481 90.3056L0.973633 86.5352L6.95531 84.1672L7.55816 88.0275L1.27481 90.3056Z" stroke="#1C3867" stroke-width="0.303629" stroke-miterlimit="10" stroke-linecap="round" stroke-linejoin="round"/>
<path d="M9.16305 98.3056L10.1409 104.567L2.68456 107.985L2.13765 101.126L9.16305 98.3056Z" stroke="#1C3867" stroke-width="0.303629" stroke-miterlimit="10" stroke-linecap="round" stroke-linejoin="round"/>
<path d="M69.783 121.783C69.783 121.783 67.5112 124.289 70.7109 127.068" stroke="#1C3867" stroke-width="0.303629" stroke-miterlimit="10" stroke-linecap="round" stroke-linejoin="round"/>
<path d="M137.435 96.958L136.518 107.008L127.905 109.582L128.769 99.9068" stroke="#1C3867" stroke-width="0.303629" stroke-miterlimit="10" stroke-linecap="round" stroke-linejoin="round"/>
<path d="M136.603 104.916L128.289 107.513" stroke="#1C3867" stroke-width="0.303629" stroke-miterlimit="10" stroke-linecap="round" stroke-linejoin="round"/>
<path d="M136.351 105.92L128.037 108.517" stroke="#1C3867" stroke-width="0.303629" stroke-miterlimit="10" stroke-linecap="round" stroke-linejoin="round"/>
<path d="M133.923 68.5033C137.576 67.0243 141.19 65.5989 144.6 64.3097L154.693 69.9043L154.68 71.1356L137.525 77.7383L133.923 68.5033Z" stroke="#1C3867" stroke-width="0.303629" stroke-miterlimit="10" stroke-linecap="round" stroke-linejoin="round"/>
<path d="M109.358 78.8857L111.369 87.99L98.2493 92.8557L96.7378 84.4871C96.7378 84.4871 101.88 82.1542 109.358 78.8857Z" stroke="#1C3867" stroke-width="0.303629" stroke-miterlimit="10" stroke-linecap="round" stroke-linejoin="round"/>
<path d="M120.412 74.0548L122.851 83.2773L114.192 86.7199L111.393 77.9991C114.259 76.7526 117.128 75.449 120.412 74.0548Z" stroke="#1C3867" stroke-width="0.303629" stroke-miterlimit="10" stroke-linecap="round" stroke-linejoin="round"/>
<path d="M123.548 72.49C126.038 71.441 128.693 70.6405 131.241 69.5966L134.386 78.9479L132.296 79.8053" stroke="#1C3867" stroke-width="0.303629" stroke-miterlimit="10" stroke-linecap="round" stroke-linejoin="round"/>
<path d="M129.11 80.9745L124.591 82.6212L122.568 75.6454" stroke="#1C3867" stroke-width="0.303629" stroke-miterlimit="10" stroke-linecap="round" stroke-linejoin="round"/>
<path d="M103.383 81.5971L105.254 90.3208" stroke="#1C3867" stroke-width="0.303629" stroke-miterlimit="10" stroke-linecap="round" stroke-linejoin="round"/>
<path d="M155.174 73.6467L156.317 78.9997L150.941 81.2566L149.713 75.7774L155.174 73.6467Z" stroke="#1C3867" stroke-width="0.303629" stroke-miterlimit="10" stroke-linecap="round" stroke-linejoin="round"/>
<path d="M155.11 75.4561L150.098 77.2837" stroke="#1C3867" stroke-width="0.303629" stroke-miterlimit="10" stroke-linecap="round" stroke-linejoin="round"/>
<path d="M140.278 90.0827L141.557 94.3389L128.109 98.7439L121.614 74.8661" stroke="#1C3867" stroke-width="0.303629" stroke-miterlimit="10" stroke-linecap="round" stroke-linejoin="round"/>
<path d="M128.108 98.7439L117.612 102.38L109.937 76.8432" stroke="#1C3867" stroke-width="0.303629" stroke-miterlimit="10" stroke-linecap="round" stroke-linejoin="round"/>
<path d="M132.549 67.166L138.707 84.9502" stroke="#1C3867" stroke-width="0.303629" stroke-miterlimit="10" stroke-linecap="round" stroke-linejoin="round"/>
<path d="M203.269 74.2909C203.269 74.2909 236.853 81.0766 241.066 82.8262C241.066 82.8262 241.637 84.3787 240.134 85.2697C238.632 86.1608 212.506 96.1503 207.698 96.9011C202.891 97.6519 190.727 94.3425 190.727 94.3425" stroke="#1C3867" stroke-width="0.607258" stroke-miterlimit="10" stroke-linecap="round" stroke-linejoin="round"/>
<path d="M198.562 90.1649L214.808 93.3836L213.987 93.7307L196.977 91.2372" stroke="#1C3867" stroke-width="0.303629" stroke-miterlimit="10" stroke-linecap="round" stroke-linejoin="round"/>
<path d="M240.955 84.3989L204.217 76.1027" stroke="#1C3867" stroke-width="0.303629" stroke-miterlimit="10" stroke-linecap="round" stroke-linejoin="round"/>
<path d="M204.687 96.8234C209.503 96.174 232.734 86.1946 234.971 85.4358C237.209 84.6765 238.299 83.7889 238.299 83.7889L238.034 82.0892" stroke="#1C3867" stroke-width="0.607258" stroke-miterlimit="10" stroke-linecap="round" stroke-linejoin="round"/>
</svg>
