<svg width="44" height="44" viewBox="0 0 44 44" fill="none" xmlns="http://www.w3.org/2000/svg">
<path d="M2.11126 23.1478L0.686745 23.2483C0.720222 23.7367 0.770786 24.2311 0.837391 24.7167L2.25284 24.519C2.19076 24.0658 2.14264 23.6003 2.11126 23.1478Z" fill="#1C3867"/>
<path d="M4.27742 12.4691L3.00844 11.8066C2.78561 12.2393 2.57463 12.6922 2.38179 13.144L3.69332 13.7163C3.87465 13.2948 4.07168 12.8754 4.27742 12.4691Z" fill="#1C3867"/>
<path d="M2.48596 25.8775L1.0876 26.1743C1.18768 26.6556 1.30206 27.1377 1.43632 27.6092L2.81027 27.2174C2.68821 26.7762 2.57907 26.3272 2.48596 25.8775Z" fill="#1C3867"/>
<path d="M2.46752 17.6579L1.06777 17.3693C0.971523 17.8475 0.889226 18.3384 0.825062 18.8261L2.24051 19.0175C2.30049 18.5621 2.37686 18.1044 2.46752 17.6579Z" fill="#1C3867"/>
<path d="M5.69348 10.1108L4.52493 9.27943C4.24665 9.67976 3.97744 10.0963 3.72532 10.5171L4.94653 11.2656C5.18226 10.8719 5.43369 10.4839 5.69348 10.1108Z" fill="#1C3867"/>
<path d="M3.19548 15.0013L1.84873 14.522C1.68658 14.9876 1.53942 15.4605 1.41005 15.9324L2.78713 16.3172C2.90639 15.8781 3.04414 15.4358 3.19548 15.0013Z" fill="#1C3867"/>
<path d="M2.1067 20.3895L0.678355 20.2957C0.649412 20.7669 0.634766 21.243 0.634766 21.724V21.7702L2.06311 21.724C2.06311 21.2761 2.07776 20.8314 2.1067 20.3895Z" fill="#1C3867"/>
<path d="M3.22534 28.5307L1.88138 29.017C2.04563 29.4804 2.22626 29.9417 2.4198 30.3882L3.72889 29.811C3.54825 29.393 3.37878 28.9631 3.22534 28.5307Z" fill="#1C3867"/>
<path d="M7.41158 7.96725L6.36543 6.9851C6.03484 7.34596 5.71193 7.72056 5.40715 8.1001L6.51677 9.00966C6.80097 8.65443 7.10261 8.30379 7.41158 7.96725Z" fill="#1C3867"/>
<path d="M19.2749 1.71145L19.0748 0.281044C18.5963 0.348353 18.1116 0.433987 17.6346 0.535127L17.9278 1.94897C18.3728 1.85312 18.8258 1.77347 19.2749 1.71145Z" fill="#1C3867"/>
<path d="M21.9941 1.51571L21.9882 0.0722656C21.4996 0.0722656 21.0083 0.0920002 20.5278 0.126536L20.6292 1.56998C21.0801 1.53368 21.5349 1.51571 21.9941 1.51571Z" fill="#1C3867"/>
<path d="M16.6026 2.27786L16.2148 0.888682C15.75 1.02119 15.2806 1.17272 14.8224 1.33976L15.305 2.69792C15.7329 2.54286 16.1692 2.4019 16.6026 2.27786Z" fill="#1C3867"/>
<path d="M9.40037 6.08076L8.49614 4.96364C8.12057 5.27376 7.75058 5.60149 7.39733 5.93698L8.37479 6.98926C8.70467 6.67597 9.0506 6.37009 9.40037 6.08076Z" fill="#1C3867"/>
<path d="M14.0386 3.2076L13.4671 1.88539C13.0253 2.08097 12.5824 2.29594 12.1503 2.52394L12.8115 3.80281C13.2129 3.58996 13.6258 3.39226 14.0386 3.2076Z" fill="#1C3867"/>
<path d="M11.6228 4.48261L10.8755 3.25202C10.4612 3.50892 10.0515 3.78309 9.6571 4.06677L10.485 5.2431C10.8535 4.97985 11.2357 4.72189 11.6228 4.48261Z" fill="#1C3867"/>
<path d="M30.0408 40.2588L30.6124 41.5817C31.0573 41.3862 31.4999 41.1719 31.9298 40.946L31.2728 39.6654C30.8701 39.8761 30.4558 40.0763 30.0408 40.2588Z" fill="#1C3867"/>
<path d="M36.6774 35.5132L37.7218 36.4992C38.0531 36.1383 38.3767 35.7659 38.6829 35.3856L37.5754 34.4739C37.2891 34.8292 36.986 35.1791 36.6774 35.5132Z" fill="#1C3867"/>
<path d="M34.6855 37.3962L35.5879 38.5147C35.9635 38.2049 36.3335 37.8783 36.6885 37.5438L35.7138 36.4887C35.3808 36.8031 35.038 37.1054 34.6855 37.3962Z" fill="#1C3867"/>
<path d="M38.4015 33.3739L39.568 34.2098C39.848 33.8091 40.1186 33.394 40.3707 32.9739L39.1509 32.2237C38.9145 32.6117 38.6631 33 38.4015 33.3739Z" fill="#1C3867"/>
<path d="M32.4592 38.988L33.2012 40.22C33.6141 39.9652 34.0246 39.6925 34.4218 39.4088L33.596 38.2311C33.2284 38.4961 32.8442 38.7509 32.4592 38.988Z" fill="#1C3867"/>
<path d="M27.4745 41.1822L27.8601 42.5725C28.3264 42.4403 28.7958 42.2895 29.2536 42.1249L28.7727 40.7653C28.3442 40.9218 27.9093 41.0596 27.4745 41.1822Z" fill="#1C3867"/>
<path d="M42.011 23.1031L43.4358 23.1996C43.4686 22.7105 43.485 22.214 43.485 21.7238H42.0567C42.0567 22.1872 42.0413 22.6471 42.011 23.1031Z" fill="#1C3867"/>
<path d="M41.6436 25.8338L43.0427 26.1224C43.1407 25.6438 43.2233 25.1529 43.2892 24.6659L41.8738 24.4717C41.8124 24.9299 41.735 25.3869 41.6436 25.8338Z" fill="#1C3867"/>
<path d="M40.9097 28.4879L42.2551 28.9707C42.4186 28.5059 42.5672 28.0326 42.6973 27.5618L41.3212 27.1738C41.1995 27.6119 41.0611 28.0541 40.9097 28.4879Z" fill="#1C3867"/>
<path d="M39.8208 31.0183L41.0891 31.6833C41.3126 31.2502 41.524 30.7991 41.7175 30.348L40.4077 29.7704C40.2271 30.1926 40.0294 30.612 39.8208 31.0183Z" fill="#1C3867"/>
<path d="M4.31578 31.0525L3.04959 31.7206C3.27451 32.1537 3.51687 32.5868 3.76899 33.0044L4.9909 32.2517C4.75238 31.863 4.52676 31.4595 4.31578 31.0525Z" fill="#1C3867"/>
<path d="M8.56201 38.5404C8.94037 38.8512 9.33268 39.1514 9.72743 39.433L10.5487 38.2514C10.1769 37.986 9.81391 37.7083 9.45961 37.4187L8.56201 38.5404Z" fill="#1C3867"/>
<path d="M13.5476 41.5996C13.9912 41.7937 14.4497 41.9763 14.9111 42.1416L15.3874 40.7806C14.9589 40.6259 14.5303 40.4564 14.1167 40.2752L13.5476 41.5996Z" fill="#1C3867"/>
<path d="M10.9495 40.2404C11.3666 40.4966 11.7959 40.7398 12.2258 40.9622L12.8821 39.6794C12.4807 39.4701 12.0808 39.2428 11.6909 39.0039L10.9495 40.2404Z" fill="#1C3867"/>
<path d="M6.41942 36.5246C6.75279 36.8855 7.10151 37.2354 7.45406 37.5681L8.42838 36.5116C8.0985 36.2011 7.77279 35.8734 7.46139 35.5379L6.41942 36.5246Z" fill="#1C3867"/>
<path d="M5.73914 33.4038L4.57372 34.2379C4.85444 34.6379 5.15224 35.0319 5.45912 35.4132L6.56246 34.4987C6.27686 34.1449 6.00067 33.777 5.73914 33.4038Z" fill="#1C3867"/>
<path d="M24.8042 41.7432L24.9977 43.1729C25.4772 43.1063 25.9619 43.0228 26.4389 42.9223L26.1492 41.5092C25.7021 41.6022 25.2516 41.6812 24.8042 41.7432Z" fill="#1C3867"/>
<path d="M19.1684 43.1801C19.6461 43.2453 20.1354 43.295 20.6229 43.3246L20.7181 41.8811C20.2616 41.8508 19.8051 41.804 19.3612 41.7434L19.1684 43.1801Z" fill="#1C3867"/>
<path d="M22.081 41.932V43.3755C22.5702 43.3755 23.0616 43.3582 23.5425 43.3244L23.4445 41.8809C22.9946 41.9151 22.5402 41.932 22.081 41.932Z" fill="#1C3867"/>
<path d="M16.306 42.5856C16.7754 42.7174 17.2538 42.8344 17.7274 42.9327L18.013 41.5189C17.5708 41.4272 17.1245 41.318 16.6875 41.1954L16.306 42.5856Z" fill="#1C3867"/>
<path d="M27.9165 6.16295L27.5057 13.2216C27.446 14.2506 27.8244 15.2564 28.5456 15.9858L29.931 17.3845L32.4526 10.7541L35.0017 13.3298V16.5155C35.0007 17.0889 35.2266 17.6393 35.6294 18.0432L36.8677 19.2956L38.3825 16.7442L38.7459 17.1107C39.284 17.6739 40.0804 17.8994 40.8298 17.7013C41.5789 17.5033 42.1637 16.912 42.36 16.155C42.556 15.398 42.3325 14.5928 41.7756 14.0494L41.4129 13.6825L43.938 12.1513L42.6996 10.8982C42.299 10.4905 41.7536 10.2621 41.1848 10.2639H38.031L35.4864 7.68886L42.0514 5.13746L40.6628 3.73665C39.942 3.00718 38.9464 2.62517 37.9285 2.68649L30.9437 3.10162L28.6463 0.77893C27.7982 -0.0386455 26.4641 -0.0386455 25.616 0.77893C24.7791 1.6247 24.7791 2.99555 25.616 3.84132L27.9165 6.16295ZM29.3919 14.7789C29.0648 14.3616 28.9009 13.8372 28.9312 13.3058L29.2674 7.53204L31.3499 9.63659L29.3919 14.7789ZM36.5863 16.9606C36.4855 16.8323 36.4304 16.6734 36.4301 16.5095V14.7697L37.3433 15.6912L36.5863 16.9606ZM41.1841 11.7052C41.3463 11.7056 41.5036 11.7612 41.6305 11.8631L40.3723 12.6303L39.4601 11.7094L41.1841 11.7052ZM38.0118 4.12712C38.5377 4.09575 39.0569 4.26173 39.4695 4.59264L34.3782 6.57138L32.2957 4.46683L38.0118 4.12712ZM26.6266 1.8002C26.9052 1.51898 27.3568 1.51898 27.6357 1.8002L40.7657 15.0692C41.0439 15.3508 41.0439 15.8072 40.7657 16.0887C40.4832 16.3619 40.0382 16.3619 39.7558 16.0887L26.6266 2.82005C26.3483 2.53813 26.3483 2.08212 26.6266 1.8002Z" fill="#1C3867"/>
<path d="M15.8294 6.53093C19.3004 5.1151 23.1331 4.87888 26.7487 5.85792L22.2849 22.6933L26.4065 7.14709C23.0678 6.24303 19.5287 6.46116 16.3235 7.76855C13.1182 9.07593 10.4209 11.4016 8.63859 14.3945C6.85633 17.3873 6.08591 20.8849 6.44365 24.3591C6.80138 27.8334 8.26786 31.0957 10.6217 33.6537C12.9755 36.2116 16.0889 37.9262 19.4918 38.5387C22.8948 39.1512 26.4025 38.6283 29.4855 37.049C32.5685 35.4696 35.0594 32.9196 36.5821 29.7838C38.1048 26.6481 38.5767 23.0969 37.9266 19.6663L39.2243 19.4152C39.9283 23.1304 39.4173 26.9762 37.7683 30.3721C36.1192 33.768 33.4217 36.5296 30.083 38.2399C26.7443 39.9502 22.9457 40.5165 19.2605 39.8532C15.5753 39.1899 12.2037 37.333 9.65466 34.563C7.10561 31.7929 5.51751 28.26 5.1301 24.4976C4.74269 20.7351 5.577 16.9475 7.50709 13.7064C9.43718 10.4653 12.3583 7.94675 15.8294 6.53093Z" fill="#1C3867"/>
<path d="M13.4389 26.5314C14.1391 25.9417 14.697 25.4515 15.1128 25.0609C15.5285 24.6629 15.8749 24.2501 16.1521 23.8226C16.4293 23.3951 16.5678 22.975 16.5678 22.5622C16.5678 22.1863 16.4803 21.8915 16.3053 21.6777C16.1302 21.464 15.8604 21.3571 15.4957 21.3571C15.131 21.3571 14.8502 21.4824 14.6533 21.733C14.4563 21.9762 14.3542 22.3116 14.3469 22.7391H12.859C12.8882 21.8546 13.1471 21.1839 13.6358 20.7269C14.1318 20.2699 14.759 20.0414 15.5176 20.0414C16.349 20.0414 16.9872 20.2662 17.4321 20.7158C17.8771 21.1581 18.0995 21.7441 18.0995 22.4738C18.0995 23.0487 17.9463 23.5978 17.64 24.1211C17.3337 24.6444 16.9836 25.1014 16.5897 25.4921C16.1959 25.8754 15.6817 26.3397 15.0471 26.8852H18.2746V28.1677H12.87V27.0178L13.4389 26.5314Z" fill="#1C3867"/>
<path d="M24.6006 21.5561H21.0558V23.4467C21.209 23.2551 21.4278 23.1003 21.7123 22.9823C21.9967 22.857 22.2994 22.7944 22.6203 22.7944C23.2038 22.7944 23.6816 22.9234 24.0535 23.1814C24.4255 23.4393 24.6954 23.771 24.8631 24.1764C25.0309 24.5744 25.1148 25.0019 25.1148 25.4589C25.1148 26.3066 24.8741 26.9883 24.3927 27.5043C23.9186 28.0203 23.2403 28.2782 22.3578 28.2782C21.5263 28.2782 20.8626 28.0682 20.3666 27.648C19.8706 27.2279 19.5898 26.6788 19.5242 26.0007H21.0121C21.0777 26.2955 21.2236 26.5314 21.4497 26.7083C21.6831 26.8852 21.9785 26.9736 22.3359 26.9736C22.7662 26.9736 23.0908 26.8372 23.3096 26.5645C23.5284 26.2918 23.6378 25.9306 23.6378 25.481C23.6378 25.024 23.5247 24.6776 23.2986 24.4418C23.0798 24.1985 22.7553 24.0769 22.3249 24.0769C22.0186 24.0769 21.7633 24.1543 21.5591 24.3091C21.3549 24.4639 21.209 24.6702 21.1215 24.9282H19.6555V20.1962H24.6006V21.5561Z" fill="#1C3867"/>
<path d="M26.2805 24.1432C26.2805 22.8681 26.5066 21.8694 26.9588 21.147C27.4183 20.4247 28.1769 20.0635 29.2345 20.0635C30.292 20.0635 31.0469 20.4247 31.4991 21.147C31.9586 21.8694 32.1884 22.8681 32.1884 24.1432C32.1884 25.4258 31.9586 26.4319 31.4991 27.1616C31.0469 27.8913 30.292 28.2561 29.2345 28.2561C28.1769 28.2561 27.4183 27.8913 26.9588 27.1616C26.5066 26.4319 26.2805 25.4258 26.2805 24.1432ZM30.6786 24.1432C30.6786 23.5978 30.6421 23.1408 30.5692 22.7723C30.5036 22.3964 30.365 22.0905 30.1535 21.8546C29.9492 21.6188 29.6429 21.5008 29.2345 21.5008C28.826 21.5008 28.516 21.6188 28.3045 21.8546C28.1003 22.0905 27.9617 22.3964 27.8888 22.7723C27.8231 23.1408 27.7903 23.5978 27.7903 24.1432C27.7903 24.7034 27.8231 25.1751 27.8888 25.5584C27.9544 25.9343 28.093 26.2402 28.3045 26.4761C28.516 26.7046 28.826 26.8188 29.2345 26.8188C29.6429 26.8188 29.9529 26.7046 30.1644 26.4761C30.3759 26.2402 30.5145 25.9343 30.5801 25.5584C30.6458 25.1751 30.6786 24.7034 30.6786 24.1432Z" fill="#1C3867"/>
</svg>
