<svg width="41" height="42" viewBox="0 0 41 42" fill="none" xmlns="http://www.w3.org/2000/svg">
<path d="M1.43161 22.4998L0.0880863 22.5936C0.11966 23.0494 0.167349 23.5109 0.230167 23.9641L1.56514 23.7796C1.50659 23.3566 1.46121 22.9221 1.43161 22.4998Z" fill="#1C3867"/>
<path d="M3.47461 12.5336L2.27778 11.9153C2.06762 12.3192 1.86864 12.7418 1.68676 13.1634L2.92372 13.6975C3.09474 13.3042 3.28057 12.9128 3.47461 12.5336Z" fill="#1C3867"/>
<path d="M1.785 25.0474L0.466151 25.3243C0.560543 25.7736 0.668419 26.2235 0.795042 26.6636L2.09087 26.2979C1.97576 25.8861 1.87282 25.4671 1.785 25.0474Z" fill="#1C3867"/>
<path d="M1.76762 17.3762L0.447448 17.1068C0.356674 17.5531 0.279055 18.0113 0.218539 18.4664L1.55351 18.645C1.61008 18.2201 1.68211 17.7929 1.76762 17.3762Z" fill="#1C3867"/>
<path d="M4.81016 10.3326L3.70805 9.55674C3.44559 9.93036 3.19169 10.3191 2.9539 10.7118L4.10568 11.4104C4.32801 11.043 4.56514 10.6809 4.81016 10.3326Z" fill="#1C3867"/>
<path d="M2.45419 14.8969L1.18401 14.4496C1.03108 14.884 0.892283 15.3254 0.770265 15.7658L2.06906 16.1249C2.18154 15.7151 2.31145 15.3024 2.45419 14.8969Z" fill="#1C3867"/>
<path d="M1.42731 19.9255L0.0801739 19.838C0.0528759 20.2777 0.0390625 20.7221 0.0390625 21.171V21.2141L1.3862 21.171C1.3862 20.753 1.40001 20.3379 1.42731 19.9255Z" fill="#1C3867"/>
<path d="M2.48235 27.5235L1.2148 27.9774C1.36971 28.4099 1.54008 28.8404 1.72261 29.2571L2.95727 28.7184C2.7869 28.3283 2.62706 27.9271 2.48235 27.5235Z" fill="#1C3867"/>
<path d="M6.43058 8.3321L5.4439 7.41548C5.13211 7.75226 4.82756 8.10188 4.54011 8.45609L5.58664 9.30496C5.85469 8.97344 6.13918 8.64619 6.43058 8.3321Z" fill="#1C3867"/>
<path d="M17.6194 2.49369L17.4306 1.15872C16.9794 1.22153 16.5223 1.30145 16.0723 1.39585L16.3489 2.71536C16.7686 2.6259 17.1958 2.55157 17.6194 2.49369Z" fill="#1C3867"/>
<path d="M20.184 2.31101L20.1784 0.963867C19.7177 0.963867 19.2543 0.982285 18.801 1.01452L18.8967 2.36165C19.322 2.32778 19.7509 2.31101 20.184 2.31101Z" fill="#1C3867"/>
<path d="M15.099 3.0223L14.7333 1.72581C14.2949 1.84948 13.8522 1.9909 13.4201 2.14679L13.8752 3.41434C14.2788 3.26963 14.6902 3.13807 15.099 3.0223Z" fill="#1C3867"/>
<path d="M8.30629 6.57148L7.45347 5.52889C7.09926 5.81832 6.75031 6.12419 6.41714 6.43729L7.33902 7.41936C7.65015 7.12698 7.97641 6.8415 8.30629 6.57148Z" fill="#1C3867"/>
<path d="M12.6809 3.89002L12.1418 2.65602C11.7251 2.83855 11.3074 3.03918 10.8999 3.25197L11.5235 4.44552C11.902 4.24686 12.2914 4.06236 12.6809 3.89002Z" fill="#1C3867"/>
<path d="M10.4024 5.07996L9.69757 3.93147C9.30685 4.17123 8.9204 4.42711 8.54843 4.69186L9.32921 5.7897C9.67685 5.54402 10.0373 5.30327 10.4024 5.07996Z" fill="#1C3867"/>
<path d="M27.7732 38.4692L28.3123 39.7038C28.7319 39.5213 29.1493 39.3213 29.5548 39.1105L28.9352 37.9153C28.5553 38.112 28.1646 38.2988 27.7732 38.4692Z" fill="#1C3867"/>
<path d="M34.0325 34.0402L35.0175 34.9604C35.33 34.6236 35.6352 34.276 35.9239 33.9211L34.8794 33.0703C34.6094 33.4018 34.3235 33.7284 34.0325 34.0402Z" fill="#1C3867"/>
<path d="M32.1538 35.7975L33.005 36.8414C33.3592 36.5523 33.7081 36.2475 34.0429 35.9353L33.1237 34.9506C32.8096 35.244 32.4863 35.5262 32.1538 35.7975Z" fill="#1C3867"/>
<path d="M35.6586 32.0437L36.7587 32.8238C37.0228 32.4498 37.278 32.0624 37.5158 31.6704L36.3654 30.9702C36.1424 31.3323 35.9052 31.6947 35.6586 32.0437Z" fill="#1C3867"/>
<path d="M30.0541 37.2832L30.754 38.433C31.1434 38.1952 31.5305 37.9406 31.9051 37.6759L31.1263 36.5767C30.7796 36.8241 30.4172 37.0618 30.0541 37.2832Z" fill="#1C3867"/>
<path d="M25.3528 39.331L25.7165 40.6285C26.1563 40.5051 26.5989 40.3644 27.0308 40.2108L26.5772 38.9419C26.173 39.0879 25.7629 39.2165 25.3528 39.331Z" fill="#1C3867"/>
<path d="M39.0628 22.4581L40.4067 22.5482C40.4376 22.0917 40.453 21.6283 40.453 21.1708H39.1059C39.1059 21.6033 39.0914 22.0325 39.0628 22.4581Z" fill="#1C3867"/>
<path d="M38.7163 25.0066L40.0358 25.2759C40.1283 24.8293 40.2062 24.3712 40.2684 23.9166L38.9334 23.7354C38.8755 24.163 38.8025 24.5895 38.7163 25.0066Z" fill="#1C3867"/>
<path d="M38.0242 27.4837L39.293 27.9342C39.4473 27.5004 39.5874 27.0587 39.7101 26.6193L38.4123 26.2572C38.2975 26.666 38.1669 27.0788 38.0242 27.4837Z" fill="#1C3867"/>
<path d="M36.9972 29.8452L38.1933 30.4658C38.4042 30.0616 38.6035 29.6406 38.786 29.2196L37.5507 28.6806C37.3803 29.0746 37.1939 29.466 36.9972 29.8452Z" fill="#1C3867"/>
<path d="M3.51079 29.8771L2.31659 30.5007C2.52873 30.9049 2.7573 31.3091 2.99509 31.6988L4.14753 30.9963C3.92257 30.6335 3.70977 30.257 3.51079 29.8771Z" fill="#1C3867"/>
<path d="M7.5156 36.8654C7.87245 37.1555 8.24245 37.4357 8.61476 37.6985L9.3893 36.5957C9.0387 36.348 8.69632 36.0889 8.36217 35.8185L7.5156 36.8654Z" fill="#1C3867"/>
<path d="M12.2177 39.7205C12.6361 39.9017 13.0686 40.0721 13.5037 40.2263L13.953 38.9561C13.5488 38.8118 13.1445 38.6536 12.7545 38.4845L12.2177 39.7205Z" fill="#1C3867"/>
<path d="M9.76737 38.452C10.1607 38.6911 10.5656 38.9181 10.9711 39.1256L11.5901 37.9284C11.2115 37.7331 10.8343 37.521 10.4666 37.298L9.76737 38.452Z" fill="#1C3867"/>
<path d="M5.49483 34.9841C5.80925 35.3209 6.13814 35.6475 6.47065 35.958L7.38957 34.972C7.07844 34.6822 6.77125 34.3763 6.47755 34.0632L5.49483 34.9841Z" fill="#1C3867"/>
<path d="M4.85322 32.0715L3.75407 32.85C4.01882 33.2233 4.2997 33.591 4.58912 33.9469L5.62973 33.0934C5.36037 32.7632 5.09989 32.4198 4.85322 32.0715Z" fill="#1C3867"/>
<path d="M22.8343 39.8545L23.0168 41.1888C23.469 41.1267 23.9262 41.0487 24.3761 40.955L24.1028 39.6362C23.6812 39.723 23.2563 39.7966 22.8343 39.8545Z" fill="#1C3867"/>
<path d="M17.5189 41.1956C17.9695 41.2564 18.431 41.3028 18.8908 41.3304L18.9805 39.9833C18.55 39.955 18.1195 39.9112 17.7008 39.8547L17.5189 41.1956Z" fill="#1C3867"/>
<path d="M20.2659 40.0307V41.3779C20.7274 41.3779 21.1908 41.3618 21.6443 41.3302L21.5519 39.9831C21.1276 40.015 20.6991 40.0307 20.2659 40.0307Z" fill="#1C3867"/>
<path d="M14.8193 40.6407C15.262 40.7637 15.7132 40.8729 16.1599 40.9647L16.4292 39.6452C16.0122 39.5597 15.5912 39.4577 15.1791 39.3433L14.8193 40.6407Z" fill="#1C3867"/>
<path d="M25.7696 6.64818L25.3822 13.2359C25.326 14.1962 25.6828 15.1349 26.363 15.8157L27.6696 17.1211L30.0479 10.933L32.4521 13.3368V16.31C32.4511 16.8451 32.6642 17.3589 33.0441 17.7358L34.212 18.9046L35.6407 16.5235L35.9834 16.8655C36.4908 17.3911 37.242 17.6016 37.9488 17.4167C38.6553 17.2319 39.2068 16.68 39.392 15.9736C39.5768 15.2671 39.366 14.5156 38.8408 14.0084L38.4987 13.6661L40.8802 12.237L39.7123 11.0675C39.3344 10.687 38.82 10.4738 38.2836 10.4755H35.3091L32.9092 8.07228L39.1009 5.69111L37.7913 4.38377C37.1115 3.70296 36.1725 3.34644 35.2124 3.40367L28.6248 3.79111L26.458 1.62338C25.6582 0.860356 24.3998 0.860356 23.6 1.62338C22.8106 2.41272 22.8106 3.69211 23.6 4.48145L25.7696 6.64818ZM27.1612 14.6892C26.8527 14.2998 26.6981 13.8104 26.7267 13.3145L27.0438 7.92593L29.0079 9.89006L27.1612 14.6892ZM33.9465 16.7254C33.8515 16.6057 33.7995 16.4574 33.7992 16.3044V14.6807L34.6606 15.5407L33.9465 16.7254ZM38.283 11.8207C38.4359 11.821 38.5842 11.8729 38.7039 11.968L37.5173 12.684L36.6569 11.8246L38.283 11.8207ZM35.291 4.74818C35.787 4.71891 36.2767 4.87382 36.6658 5.18264L31.864 7.02937L29.8999 5.06523L35.291 4.74818ZM24.5531 2.57651C24.8159 2.31406 25.2418 2.31406 25.5049 2.57651L37.8883 14.9603C38.1508 15.223 38.1508 15.6489 37.8883 15.9117C37.6219 16.1666 37.2022 16.1666 36.9358 15.9117L24.5531 3.52832C24.2906 3.26521 24.2906 2.83962 24.5531 2.57651Z" fill="#1C3867"/>
<path d="M14.3698 6.99161C17.6435 5.67025 21.2582 5.44979 24.6683 6.36351L20.4582 22.0756L24.3456 7.56666C21.1967 6.72292 17.8588 6.9265 14.8358 8.14666C11.8128 9.36682 9.26876 11.5373 7.58783 14.3305C5.90689 17.1237 5.18028 20.3879 5.51768 23.6303C5.85507 26.8728 7.23817 29.9175 9.45817 32.3047C11.6782 34.692 14.6145 36.2922 17.824 36.8639C21.0334 37.4355 24.3418 36.9475 27.2495 35.4735C30.1572 33.9995 32.5064 31.6196 33.9426 28.693C35.3787 25.7666 35.8238 22.4523 35.2107 19.2506L36.4345 19.0162C37.0986 22.4836 36.6166 26.0728 35.0613 29.2421C33.506 32.4114 30.9619 34.9887 27.813 36.585C24.6642 38.1812 21.0815 38.7097 17.6058 38.0906C14.1302 37.4716 10.9503 35.7386 8.54613 33.1534C6.14201 30.5681 4.64419 27.2709 4.27881 23.7595C3.91343 20.2481 4.70031 16.7132 6.52066 13.6883C8.34101 10.6635 11.096 8.31297 14.3698 6.99161Z" fill="#1C3867"/>
<path d="M13.1733 21.2755V19.9444H15.6601V27.4666H14.1742V21.2755H13.1733Z" fill="#1C3867"/>
<path d="M17.5412 25.8363C18.2016 25.286 18.7278 24.8285 19.1199 24.4639C19.512 24.0925 19.8388 23.7072 20.1002 23.3082C20.3616 22.9093 20.4923 22.5172 20.4923 22.1319C20.4923 21.7811 20.4097 21.506 20.2446 21.3065C20.0795 21.107 19.825 21.0072 19.4811 21.0072C19.1371 21.0072 18.8723 21.1242 18.6865 21.3581C18.5008 21.5851 18.4045 21.8981 18.3976 22.297H16.9943C17.0218 21.4716 17.266 20.8456 17.7269 20.4191C18.1947 19.9926 18.7863 19.7793 19.5017 19.7793C20.2859 19.7793 20.8878 19.9891 21.3074 20.4088C21.727 20.8215 21.9369 21.3684 21.9369 22.0494C21.9369 22.586 21.7924 23.0984 21.5035 23.5868C21.2146 24.0753 20.8844 24.5018 20.5129 24.8663C20.1414 25.224 19.6565 25.6574 19.058 26.1665H22.1019V27.3634H17.0046V26.2903L17.5412 25.8363Z" fill="#1C3867"/>
<path d="M23.0122 23.6075C23.0122 22.4174 23.2255 21.4853 23.652 20.8112C24.0854 20.137 24.8008 19.8 25.7982 19.8C26.7957 19.8 27.5076 20.137 27.9341 20.8112C28.3675 21.4853 28.5842 22.4174 28.5842 23.6075C28.5842 24.8044 28.3675 25.7434 27.9341 26.4244C27.5076 27.1054 26.7957 27.446 25.7982 27.446C24.8008 27.446 24.0854 27.1054 23.652 26.4244C23.2255 25.7434 23.0122 24.8044 23.0122 23.6075ZM27.1603 23.6075C27.1603 23.0984 27.1259 22.6719 27.0571 22.328C26.9952 21.9772 26.8645 21.6917 26.665 21.4716C26.4724 21.2514 26.1834 21.1414 25.7982 21.1414C25.413 21.1414 25.1206 21.2514 24.9211 21.4716C24.7285 21.6917 24.5978 21.9772 24.529 22.328C24.4671 22.6719 24.4362 23.0984 24.4362 23.6075C24.4362 24.1303 24.4671 24.5705 24.529 24.9282C24.591 25.2791 24.7217 25.5646 24.9211 25.7847C25.1206 25.9979 25.413 26.1046 25.7982 26.1046C26.1834 26.1046 26.4758 25.9979 26.6753 25.7847C26.8748 25.5646 27.0055 25.2791 27.0674 24.9282C27.1293 24.5705 27.1603 24.1303 27.1603 23.6075Z" fill="#1C3867"/>
</svg>
