<svg width="41" height="41" viewBox="0 0 41 41" fill="none" xmlns="http://www.w3.org/2000/svg">
<path d="M4.75358 9.98017C5.86959 9.98017 6.77428 9.07548 6.77428 7.95947C6.77428 6.84347 5.86959 5.93877 4.75358 5.93877C3.63758 5.93877 2.73288 6.84347 2.73288 7.95947C2.73288 9.07548 3.63758 9.98017 4.75358 9.98017ZM4.75358 7.28591C5.12558 7.28591 5.42715 7.58747 5.42715 7.95947C5.42715 8.33147 5.12558 8.63304 4.75358 8.63304C4.38158 8.63304 4.08002 8.33147 4.08002 7.95947C4.08002 7.58747 4.38158 7.28591 4.75358 7.28591Z" fill="#1C3867"/>
<path d="M39.1059 3.24456V2.57099C39.1059 1.45499 38.2012 0.550293 37.0852 0.550293H35.7381C34.6221 0.550293 33.7174 1.45499 33.7174 2.57099V3.31192C32.1504 3.63417 31.0252 5.01261 31.0231 6.6124V9.64345C31.0231 10.5734 31.7771 11.3274 32.7071 11.3274C32.8931 11.3274 33.0438 11.4781 33.0438 11.6641V12.3377C33.0438 12.5237 32.8931 12.6745 32.7071 12.6745C31.7771 12.6745 31.0231 13.4284 31.0231 14.3584V15.032C31.0231 15.962 31.7771 16.7159 32.7071 16.7159C32.8931 16.7159 33.0438 16.8667 33.0438 17.0527V17.7262C33.0438 17.9123 32.8931 18.063 32.7071 18.063C31.7771 18.063 31.0231 18.8169 31.0231 19.747V20.0837C31.0279 21.8699 32.4281 23.3407 34.2118 23.4334C33.7986 24.6557 32.6501 25.4768 31.3599 25.4723H29.676V22.1044C29.676 16.8964 25.4541 12.6745 20.2461 12.6745C15.0381 12.6745 10.8161 16.8964 10.8161 22.1044V25.4723H9.13222C7.84201 25.4768 6.6935 24.6557 6.28033 23.4334C8.06408 23.3407 9.46425 21.8699 9.469 20.0837V19.747C9.469 19.3003 9.29159 18.872 8.97579 18.5562C8.66 18.2404 8.23168 18.063 7.78508 18.063C7.59908 18.063 7.4483 17.9123 7.4483 17.7262V17.0527C7.4483 16.8667 7.59908 16.7159 7.78508 16.7159C8.23168 16.7159 8.66 16.5385 8.97579 16.2227C9.29159 15.9069 9.469 15.4786 9.469 15.032V14.3584C9.469 13.9118 9.29159 13.4835 8.97579 13.1677C8.66 12.8519 8.23168 12.6745 7.78508 12.6745C7.59908 12.6745 7.4483 12.5237 7.4483 12.3377V11.6641C7.4483 11.4781 7.59908 11.3274 7.78508 11.3274C8.23168 11.3274 8.66 11.15 8.97579 10.8342C9.29159 10.5184 9.469 10.09 9.469 9.64345V6.6124C9.46698 5.01261 8.34173 3.63417 6.77473 3.31192V2.57099C6.77473 2.03507 6.56184 1.5211 6.18288 1.14214C5.80393 0.763188 5.28995 0.550293 4.75403 0.550293H3.4069C2.29089 0.550293 1.3862 1.45499 1.3862 2.57099V3.24456C0.642195 3.24456 0.0390625 3.84769 0.0390625 4.59169V22.1044C0.040675 22.6045 0.320277 23.0622 0.764494 23.2919C1.18721 27.5939 4.80955 30.8704 9.13222 30.8608H11.4493C12.8274 30.8555 14.068 31.6951 14.5753 32.9765L17.5996 40.5406C17.7019 40.7966 17.9498 40.9644 18.2254 40.9643H22.2668C22.5424 40.9644 22.7903 40.7966 22.8925 40.5406L25.9168 32.9765C26.4242 31.6951 27.6647 30.8555 29.0429 30.8608H31.3599C35.6826 30.8704 39.3049 27.5939 39.7276 23.2919C40.1719 23.0622 40.4515 22.6045 40.4531 22.1044V4.59169C40.4531 3.84769 39.8499 3.24456 39.1059 3.24456ZM35.0645 2.57099C35.0645 2.19899 35.3661 1.89743 35.7381 1.89743H37.0852C37.4572 1.89743 37.7588 2.19899 37.7588 2.57099V3.24456H35.0645V2.57099ZM32.3703 20.0837V19.747C32.3703 19.5609 32.5211 19.4102 32.7071 19.4102C33.6371 19.4102 34.391 18.6563 34.391 17.7262V17.0527C34.391 16.6061 34.2136 16.1778 33.8978 15.862C33.582 15.5462 33.1537 15.3688 32.7071 15.3688C32.5211 15.3688 32.3703 15.218 32.3703 15.032V14.3584C32.3703 14.1724 32.5211 14.0216 32.7071 14.0216C33.6371 14.0216 34.391 13.2677 34.391 12.3377V11.6641C34.391 11.2175 34.2136 10.7892 33.8978 10.4734C33.582 10.1576 33.1537 9.98023 32.7071 9.98023C32.5211 9.98023 32.3703 9.82945 32.3703 9.64345V6.6124C32.3703 5.49639 33.275 4.59169 34.391 4.59169H39.1059V22.1044H34.391C33.275 22.1044 32.3703 21.1997 32.3703 20.0837ZM12.1633 22.1044C12.1633 17.6404 15.7821 14.0216 20.2461 14.0216C24.7101 14.0216 28.3289 17.6404 28.3289 22.1044V25.4723H26.9817C26.6097 25.4723 26.3082 25.1707 26.3082 24.7987V22.778C26.3099 21.0947 25.6111 19.4867 24.3793 18.3395C23.1475 17.1923 21.4939 16.6094 19.815 16.7307C16.5918 17.023 14.1376 19.7487 14.184 22.9848V24.7987C14.184 25.1707 13.8824 25.4723 13.5104 25.4723H12.1633V22.1044ZM2.73333 2.57099C2.73333 2.19899 3.0349 1.89743 3.4069 1.89743H4.75403C5.12603 1.89743 5.4276 2.19899 5.4276 2.57099V3.24456H2.73333V2.57099ZM1.3862 4.59169H6.10116C7.21717 4.59169 8.12187 5.49639 8.12187 6.6124V9.64345C8.12187 9.82945 7.97108 9.98023 7.78508 9.98023C6.85508 9.98023 6.10116 10.7341 6.10116 11.6641V12.3377C6.10116 13.2677 6.85508 14.0216 7.78508 14.0216C7.97108 14.0216 8.12187 14.1724 8.12187 14.3584V15.032C8.12187 15.218 7.97108 15.3688 7.78508 15.3688C6.85508 15.3688 6.10116 16.1227 6.10116 17.0527V17.7262C6.10116 18.6563 6.85508 19.4102 7.78508 19.4102C7.97108 19.4102 8.12187 19.5609 8.12187 19.747V20.0837C8.12187 21.1997 7.21717 22.1044 6.10116 22.1044H1.3862V4.59169ZM31.3599 29.5137H29.0429C27.1125 29.5061 25.3748 30.6824 24.6647 32.4774L21.8108 39.6172H18.6814L15.8261 32.4774C15.116 30.6824 13.3783 29.5061 11.4479 29.5137H9.13222C5.61139 29.5247 2.62172 26.9375 2.12712 23.4516H4.87527C5.33227 25.4314 7.10033 26.8302 9.13222 26.8194H13.5104C14.6264 26.8194 15.5311 25.9147 15.5311 24.7987V22.9848C15.4827 20.4554 17.3909 18.3156 19.9093 18.0752C21.2154 17.9796 22.5023 18.4324 23.4609 19.3247C24.4195 20.2171 24.963 21.4684 24.961 22.778V24.7987C24.961 25.9147 25.8657 26.8194 26.9817 26.8194H31.3599C33.3918 26.8302 35.1599 25.4314 35.6169 23.4516H38.365C37.8704 26.9375 34.8808 29.5247 31.3599 29.5137Z" fill="#1C3867"/>
<path d="M37.7591 7.95947C37.7591 6.84347 36.8544 5.93877 35.7384 5.93877C34.6224 5.93877 33.7177 6.84347 33.7177 7.95947C33.7177 9.07548 34.6224 9.98017 35.7384 9.98017C36.8544 9.98017 37.7591 9.07548 37.7591 7.95947ZM35.0648 7.95947C35.0648 7.58747 35.3664 7.28591 35.7384 7.28591C36.1104 7.28591 36.412 7.58747 36.412 7.95947C36.412 8.33147 36.1104 8.63304 35.7384 8.63304C35.3664 8.63304 35.0648 8.33147 35.0648 7.95947Z" fill="#1C3867"/>
<path d="M20.2465 22.7781C18.7585 22.7781 17.5522 23.9844 17.5522 25.4724C17.5522 26.9604 18.7585 28.1666 20.2465 28.1666C21.7345 28.1666 22.9408 26.9604 22.9408 25.4724C22.9408 23.9844 21.7345 22.7781 20.2465 22.7781ZM20.2465 26.8195C19.5025 26.8195 18.8994 26.2164 18.8994 25.4724C18.8994 24.7284 19.5025 24.1252 20.2465 24.1252C20.9905 24.1252 21.5937 24.7284 21.5937 25.4724C21.5937 26.2164 20.9905 26.8195 20.2465 26.8195Z" fill="#1C3867"/>
</svg>
