<svg width="1420" height="703" viewBox="0 0 1420 703" fill="none" xmlns="http://www.w3.org/2000/svg">
<path d="M-200.818 -156.998H-244V-113.998M-200.818 -156.998V-113.998M-200.818 -156.998H-157.636M-244 -113.998H-200.818M-244 -113.998V-70.9976M-200.818 -113.998V-70.9976M-200.818 -113.998H-157.636M-157.636 -156.998V-113.998M-157.636 -156.998H-114.455M-200.818 -70.9976H-244M-200.818 -70.9976V-27.9975M-200.818 -70.9976H-157.636M-157.636 -113.998V-70.9976M-157.636 -113.998H-114.455M-244 -70.9976V-27.9975M-200.818 -27.9975H-244M-200.818 -27.9975V15.0025M-200.818 -27.9975H-157.636M-157.636 -70.9976V-27.9975M-157.636 -70.9976L-114.455 -70.9976M-244 -27.9975V15.0025M-200.818 15.0025H-244M-200.818 15.0025V58.0024M-200.818 15.0025H-157.636M-157.636 -27.9975V15.0025M-157.636 -27.9975H-114.455M-244 15.0025V58.0024M-200.818 58.0024H-244M-200.818 58.0024V101.002M-200.818 58.0024H-157.636M-157.636 15.0025V58.0024M-157.636 15.0025H-114.455M-244 58.0024L-244 101.002M-200.818 101.002H-244M-200.818 101.002V144.002M-200.818 101.002H-157.636M-157.636 58.0024V101.002M-157.636 58.0024H-114.455M-244 101.002V144.002M-200.818 144.002H-244M-200.818 144.002L-200.818 187.002M-200.818 144.002H-157.636M-157.636 101.002V144.002M-157.636 101.002H-114.455M-244 144.002V187.002M-200.818 187.002H-244M-200.818 187.002V230.002M-200.818 187.002H-157.636M-157.636 144.002V187.002M-157.636 144.002H-114.455M-244 187.002V230.002M-200.818 230.002H-244M-200.818 230.002V273.002M-200.818 230.002H-157.636M-157.636 187.002L-157.636 230.002M-157.636 187.002H-114.455M-244 230.002V273.002M-200.818 273.002H-244M-200.818 273.002V316.002M-200.818 273.002H-157.636M-157.636 230.002V273.002M-157.636 230.002H-114.455M-244 273.002V316.002M-200.818 316.002H-244M-200.818 316.002V359.002M-200.818 316.002H-157.636M-157.636 273.002V316.002M-157.636 273.002H-114.455M-244 316.002V359.002M-200.818 359.002H-244M-200.818 359.002V402.002M-200.818 359.002H-157.636M-157.636 316.002V359.002M-157.636 316.002H-114.455M-244 359.002V402.002M-200.818 402.002H-244M-200.818 402.002V445.002M-200.818 402.002H-157.636M-157.636 359.002V402.002M-157.636 359.002H-114.455M-244 402.002V445.002M-200.818 445.002H-244M-200.818 445.002V488.002M-200.818 445.002H-157.636M-157.636 402.002V445.002M-157.636 402.002H-114.455M-244 445.002V488.002M-200.818 488.002H-244M-200.818 488.002V531.002M-200.818 488.002H-157.636M-157.636 445.002L-157.636 488.002M-157.636 445.002H-114.455M-244 488.002V531.002M-200.818 531.002H-244M-200.818 531.002L-200.818 574.002M-200.818 531.002H-157.636M-157.636 488.002V531.002M-157.636 488.002H-114.455M-244 531.002V574.002M-200.818 574.002H-244M-200.818 574.002V617.003M-200.818 574.002H-157.636M-157.636 531.002V574.002M-157.636 531.002H-114.455M-244 574.002L-244 617.003M-200.818 617.003H-244M-200.818 617.003V660.002M-200.818 617.003H-157.636M-157.636 574.002V617.003M-157.636 574.002H-114.455M-244 617.003V660.002M-200.818 660.002H-244M-200.818 660.002V703.002M-200.818 660.002H-157.636M-157.636 617.003V660.002M-157.636 617.003H-114.455M-244 660.002V703.002H-200.818M-200.818 703.002H-157.636M-157.636 660.002V703.002M-157.636 660.002H-114.455M-157.636 703.002H-114.455M-114.455 -156.998V-113.998M-114.455 -156.998H-71.2727M-114.455 -113.998V-70.9976M-114.455 -113.998H-71.2727M-114.455 -70.9976V-27.9975M-114.455 -70.9976H-71.2727M-114.455 -27.9975V15.0025M-114.455 -27.9975H-71.2727M-114.455 15.0025V58.0024M-114.455 15.0025H-71.2727M-114.455 58.0024L-114.455 101.002M-114.455 58.0024H-71.2727M-114.455 101.002V144.002M-114.455 101.002H-71.2727M-114.455 144.002V187.002M-114.455 144.002H-71.2727M-114.455 187.002V230.002M-114.455 187.002H-71.2727M-114.455 230.002V273.002M-114.455 230.002H-71.2727M-114.455 273.002V316.002M-114.455 273.002H-71.2727M-114.455 316.002V359.002M-114.455 316.002H-71.2727M-114.455 359.002V402.002M-114.455 359.002H-71.2727M-114.455 402.002V445.002M-114.455 402.002H-71.2727M-114.455 445.002V488.002M-114.455 445.002H-71.2727M-114.455 488.002V531.002M-114.455 488.002H-71.2727M-114.455 531.002V574.002M-114.455 531.002H-71.2727M-114.455 574.002L-114.455 617.003M-114.455 574.002H-71.2727M-114.455 617.003V660.002M-114.455 617.003H-71.2727M-114.455 660.002V703.002M-114.455 660.002H-71.2727M-114.455 703.002H-71.2727M-71.2727 -156.998V-113.998M-71.2727 -156.998H-28.0909M-71.2727 -113.998V-70.9976M-71.2727 -113.998L-28.0909 -113.998M-71.2727 -70.9976V-27.9975M-71.2727 -70.9976H-28.0909M-71.2727 -27.9975V15.0025M-71.2727 -27.9975H-28.0909M-71.2727 15.0025V58.0024M-71.2727 15.0025H-28.0909M-71.2727 58.0024L-71.2727 101.002M-71.2727 58.0024H-28.0909M-71.2727 101.002V144.002M-71.2727 101.002H-28.0909M-71.2727 144.002V187.002M-71.2727 144.002H-28.0909M-71.2727 187.002V230.002M-71.2727 187.002H-28.0909M-71.2727 230.002V273.002M-71.2727 230.002H-28.0909M-71.2727 273.002V316.002M-71.2727 273.002H-28.0909M-71.2727 316.002V359.002M-71.2727 316.002H-28.0909M-71.2727 359.002V402.002M-71.2727 359.002H-28.0909M-71.2727 402.002V445.002M-71.2727 402.002H-28.0909M-71.2727 445.002V488.002M-71.2727 445.002H-28.0909M-71.2727 488.002V531.002M-71.2727 488.002H-28.0909M-71.2727 531.002V574.002M-71.2727 531.002H-28.0909M-71.2727 574.002L-71.2727 617.003M-71.2727 574.002H-28.0909M-71.2727 617.003V660.002M-71.2727 617.003H-28.0909M-71.2727 660.002V703.002M-71.2727 660.002H-28.0909M-71.2727 703.002H-28.0909M-28.0909 -156.998V-113.998M-28.0909 -156.998L15.0909 -156.998M-28.0909 -113.998V-70.9976M-28.0909 -113.998H15.0909M-28.0909 -70.9976V-27.9975M-28.0909 -70.9976H15.0909M-28.0909 -27.9975V15.0025M-28.0909 -27.9975L15.0909 -27.9975M-28.0909 15.0025V58.0024M-28.0909 15.0025L15.0909 15.0025M-28.0909 58.0024L-28.0909 101.002M-28.0909 58.0024L15.0909 58.0024M-28.0909 101.002V144.002M-28.0909 101.002H15.0909M-28.0909 144.002V187.002M-28.0909 144.002H15.0909M-28.0909 187.002V230.002M-28.0909 187.002H15.0909M-28.0909 230.002V273.002M-28.0909 230.002H15.0909M-28.0909 273.002V316.002M-28.0909 273.002H15.0909M-28.0909 316.002V359.002M-28.0909 316.002H15.0909M-28.0909 359.002V402.002M-28.0909 359.002H15.0909M-28.0909 402.002V445.002M-28.0909 402.002H15.0909M-28.0909 445.002V488.002M-28.0909 445.002H15.0909M-28.0909 488.002V531.002M-28.0909 488.002H15.0909M-28.0909 531.002V574.002M-28.0909 531.002H15.0909M-28.0909 574.002L-28.0909 617.003M-28.0909 574.002H15.0909M-28.0909 617.003V660.002M-28.0909 617.003H15.0909M-28.0909 660.002V703.002M-28.0909 660.002H15.0909M-28.0909 703.002H15.0909M15.0909 -156.998V-113.998M15.0909 -156.998H58.2727M15.0909 -113.998V-70.9976M15.0909 -113.998H58.2727M15.0909 -70.9976V-27.9975M15.0909 -70.9976H58.2727M15.0909 -27.9975V15.0025M15.0909 -27.9975H58.2727M15.0909 15.0025V58.0024M15.0909 15.0025H58.2727M15.0909 58.0024V101.002M15.0909 58.0024H58.2727M15.0909 101.002V144.002M15.0909 101.002H58.2727M15.0909 144.002V187.002M15.0909 144.002H58.2727M15.0909 187.002V230.002M15.0909 187.002H58.2727M15.0909 230.002V273.002M15.0909 230.002H58.2727M15.0909 273.002V316.002M15.0909 273.002H58.2727M15.0909 316.002L15.0909 359.002M15.0909 316.002H58.2727M15.0909 359.002V402.002M15.0909 359.002H58.2727M15.0909 402.002V445.002M15.0909 402.002H58.2727M15.0909 445.002V488.002M15.0909 445.002H58.2727M15.0909 488.002V531.002M15.0909 488.002H58.2727M15.0909 531.002V574.002M15.0909 531.002H58.2727M15.0909 574.002V617.003M15.0909 574.002H58.2727M15.0909 617.003V660.002M15.0909 617.003H58.2727M15.0909 660.002V703.002M15.0909 660.002H58.2727M15.0909 703.002H58.2727M58.2727 -156.998V-113.998M58.2727 -156.998H101.455M58.2727 -113.998V-70.9976M58.2727 -113.998L101.455 -113.998M58.2727 -70.9976V-27.9975M58.2727 -70.9976H101.455M58.2727 -27.9975V15.0025M58.2727 -27.9975H101.455M58.2727 15.0025V58.0024M58.2727 15.0025H101.455M58.2727 58.0024V101.002M58.2727 58.0024H101.455M58.2727 101.002V144.002M58.2727 101.002H101.455M58.2727 144.002H101.455M58.2727 144.002V187.002M58.2727 187.002V230.002M58.2727 187.002H101.455M58.2727 230.002V273.002M58.2727 230.002H101.455M58.2727 273.002V316.002M58.2727 273.002H101.455M58.2727 316.002L58.2727 359.002M58.2727 316.002H101.455M58.2727 359.002V402.002M58.2727 359.002H101.455M58.2727 402.002V445.002M58.2727 402.002H101.455M58.2727 445.002V488.002M58.2727 445.002H101.455M58.2727 488.002V531.002M58.2727 488.002H101.455M58.2727 531.002V574.002M58.2727 531.002H101.455M58.2727 574.002V617.003M58.2727 574.002H101.455M58.2727 617.003V660.002M58.2727 617.003H101.455M58.2727 660.002V703.002M58.2727 660.002H101.455M58.2727 703.002H101.455M101.455 -156.998V-113.998M101.455 -156.998H144.636M101.455 -113.998V-70.9976M101.455 -113.998H144.636M101.455 -70.9976V-27.9975M101.455 -70.9976L144.636 -70.9976M101.455 -27.9975V15.0025M101.455 -27.9975H144.636M101.455 15.0025V58.0024M101.455 15.0025H144.636M101.455 58.0024V101.002M101.455 58.0024H144.636M101.455 101.002V144.002M101.455 101.002H144.636M101.455 144.002V187.002M101.455 144.002H144.636M101.455 187.002V230.002M101.455 187.002H144.636M101.455 230.002V273.002M101.455 230.002H144.636M101.455 273.002V316.002M101.455 273.002H144.636M101.455 316.002L101.455 359.002M101.455 316.002H144.636M101.455 359.002V402.002M101.455 359.002H144.636M101.455 402.002V445.002M101.455 402.002C101.455 402.002 127.773 402.002 144.636 402.002M101.455 445.002V488.002M101.455 445.002H144.636M101.455 488.002V531.002M101.455 488.002H144.636M101.455 531.002V574.002M101.455 531.002H144.636M101.455 574.002V617.003M101.455 574.002H144.636M101.455 617.003V660.002M101.455 617.003H144.636M101.455 660.002V703.002M101.455 660.002H144.636M101.455 703.002H144.636M144.636 -156.998V-113.998M144.636 -156.998H187.818M144.636 -113.998V-70.9976M144.636 -113.998H187.818M144.636 -70.9976V-27.9975M144.636 -70.9976H187.818M144.636 -27.9975V15.0025M144.636 -27.9975H187.818M144.636 15.0025V58.0024M144.636 15.0025H187.818M144.636 58.0024V101.002M144.636 58.0024H187.818M144.636 101.002V144.002M144.636 101.002H187.818M144.636 144.002V187.002M144.636 144.002H187.818M144.636 187.002V230.002M144.636 187.002H187.818M144.636 230.002V273.002M144.636 230.002H187.818M144.636 273.002V316.002M144.636 273.002H187.818M144.636 316.002L144.636 359.002M144.636 316.002H187.818M144.636 359.002C144.636 359.002 144.636 385.21 144.636 402.002M144.636 359.002H187.818M144.636 402.002C144.636 418.795 144.636 445.002 144.636 445.002M144.636 402.002C161.5 402.002 187.818 402.002 187.818 402.002M144.636 445.002V488.002M144.636 445.002H187.818M144.636 488.002V531.002M144.636 488.002H187.818M144.636 531.002V574.002M144.636 531.002H187.818M144.636 574.002V617.003M144.636 574.002H187.818M144.636 617.003V660.002M144.636 617.003H187.818M144.636 660.002V703.002M144.636 660.002H187.818M144.636 703.002H187.818M187.818 -156.998V-113.998M187.818 -156.998H231M187.818 -113.998V-70.9976M187.818 -113.998H231M187.818 -70.9976V-27.9975M187.818 -70.9976H231M187.818 -27.9975V15.0025M187.818 -27.9975H231M187.818 15.0025V58.0024M187.818 15.0025H231M187.818 58.0024V101.002M187.818 58.0024H231M187.818 101.002V144.002M187.818 101.002H231M187.818 144.002V187.002M187.818 144.002H231M187.818 187.002V230.002M187.818 187.002H231M187.818 230.002V273.002M187.818 230.002H231M187.818 273.002V316.002M187.818 273.002H231M187.818 316.002L187.818 359.002M187.818 316.002H231M187.818 359.002V402.002M187.818 359.002H231M187.818 402.002V445.002M187.818 402.002H231M187.818 445.002V488.002M187.818 445.002H231M187.818 488.002V531.002M187.818 488.002H231M187.818 531.002V574.002M187.818 531.002H231M187.818 574.002V617.003M187.818 574.002H231M187.818 617.003V660.002M187.818 617.003H231M187.818 660.002V703.002M187.818 660.002H231M187.818 703.002H231M231 -156.998V-113.998M231 -156.998H274.182M231 -113.998V-70.9976M231 -113.998H274.182M231 -70.9976V-27.9975M231 -70.9976H274.182M231 -27.9975V15.0025M231 -27.9975H274.182M231 15.0025V58.0024M231 15.0025L1181 15.0025M231 58.0024V101.002M231 58.0024L1181 58.0024M231 101.002V144.002M231 101.002L274.182 101.002M231 144.002V187.002M231 144.002L274.182 144.002M231 187.002V230.002M231 187.002L274.182 187.002M231 230.002V273.002M231 230.002L274.182 230.002M231 273.002V316.002M231 273.002L274.182 273.002M231 316.002L231 359.002M231 316.002L274.182 316.002M231 359.002V402.002M231 359.002H274.182M231 402.002V445.002M231 402.002H274.182M231 445.002V488.002M231 445.002H274.182M231 488.002V531.002M231 488.002H274.182M231 531.002V574.002M231 531.002H274.182M231 574.002V617.003M231 574.002H274.182M231 617.003V660.002M231 617.003H274.182M231 660.002V703.002M231 660.002H274.182M231 703.002H274.182M274.182 -156.998V-113.998M274.182 -156.998H317.364M274.182 -113.998V-70.9976M274.182 -113.998H317.364M274.182 -70.9976V-27.9975M274.182 -70.9976H317.364M274.182 -27.9975H317.364M274.182 -27.9975V101.002M1181 15.0025V-27.9975M1181 15.0025V58.0024M1181 15.0025H1224.18M1181 58.0024V101.002M1181 58.0024H1224.18M274.182 101.002V144.002M274.182 101.002H317.364M274.182 144.002V187.002M274.182 144.002H317.364M274.182 187.002V230.002M274.182 187.002H317.364M274.182 230.002V273.002M274.182 230.002H317.364M274.182 273.002V316.002M274.182 273.002H317.364M274.182 316.002V359.002M274.182 316.002H317.364M274.182 359.002V402.002M274.182 359.002H317.364M274.182 402.002V445.002M274.182 402.002H317.364M274.182 445.002V488.002M274.182 445.002H317.364M274.182 488.002V531.002M274.182 488.002H317.364M274.182 531.002V574.002M274.182 531.002H317.364M274.182 574.002V617.003M274.182 574.002H317.364M274.182 617.003V660.002M274.182 617.003H317.364M274.182 660.002V703.002M274.182 660.002H317.364M274.182 703.002H317.364M317.364 -156.998V-113.998M317.364 -156.998H360.545M317.364 -113.998V-70.9976M317.364 -113.998H360.545M317.364 -70.9976V-27.9975M317.364 -70.9976H360.545M317.364 -27.9975H360.545M317.364 -27.9975V101.002M317.364 101.002V144.002M317.364 101.002H360.545M317.364 144.002V187.002M317.364 144.002H360.545M317.364 187.002V230.002M317.364 187.002H360.545M317.364 230.002V273.002M317.364 230.002H360.545M317.364 273.002V316.002M317.364 273.002H360.545M317.364 316.002V359.002M317.364 316.002H360.545M317.364 359.002V402.002M317.364 359.002H360.545M317.364 402.002V445.002M317.364 402.002H360.545M317.364 445.002V488.002M317.364 445.002H360.545M317.364 488.002V531.002M317.364 488.002H360.545M317.364 531.002V574.002M317.364 531.002H360.545M317.364 574.002V617.003M317.364 574.002H360.545M317.364 617.003V660.002M317.364 617.003H360.545M317.364 660.002V703.002M317.364 660.002H360.545M317.364 703.002H360.545M360.545 -156.998V-113.998M360.545 -156.998H403.727M360.545 -113.998V-70.9976M360.545 -113.998H403.727M360.545 -70.9976V-27.9975M360.545 -70.9976L403.727 -70.9976M360.545 -27.9975H403.727M360.545 -27.9975V101.002M360.545 101.002V144.002M360.545 101.002H1051.45M360.545 144.002V187.002M360.545 144.002H1051.45M360.545 187.002V230.002M360.545 187.002H403.727M360.545 230.002V273.002M360.545 230.002H403.727M360.545 273.002V316.002M360.545 273.002H403.727M360.545 316.002V359.002M360.545 316.002H403.727M360.545 359.002V402.002M360.545 359.002H403.727M360.545 402.002V445.002M360.545 402.002H403.727M360.545 445.002V488.002M360.545 445.002H403.727M360.545 488.002V531.002M360.545 488.002H403.727M360.545 531.002V574.002M360.545 531.002H403.727M360.545 574.002V617.003M360.545 574.002H403.727M360.545 617.003V660.002M360.545 617.003H403.727M360.545 660.002V703.002M360.545 660.002H403.727M360.545 703.002H403.727M403.727 -156.998V-113.998M403.727 -156.998H446.909M403.727 -113.998V-70.9976M403.727 -113.998H446.909M403.727 -70.9976V-27.9975M403.727 -70.9976H446.909M403.727 -27.9975H446.909M403.727 -27.9975V187.002M1051.45 101.002V-27.9975M1051.45 101.002V144.002M1051.45 101.002H1094.64M1051.45 144.002V187.002M1051.45 144.002H1094.64M403.727 187.002V230.002M403.727 187.002H446.909M403.727 230.002V273.002M403.727 230.002H446.909M403.727 273.002V316.002M403.727 273.002H446.909M403.727 316.002V359.002M403.727 316.002H446.909M403.727 359.002V402.002M403.727 359.002H446.909M403.727 402.002V445.002M403.727 402.002H446.909M403.727 445.002V488.002M403.727 445.002H446.909M403.727 488.002V531.002M403.727 488.002H446.909M403.727 531.002V574.002M403.727 531.002H446.909M403.727 574.002V617.003M403.727 574.002H446.909M403.727 617.003V660.002M403.727 617.003H446.909M403.727 660.002V703.002M403.727 660.002H446.909M403.727 703.002H446.909M446.909 -156.998V-113.998M446.909 -156.998H490.091M446.909 -113.998V-70.9976M446.909 -113.998L490.091 -113.998M446.909 -70.9976V-27.9975M446.909 -70.9976H490.091M446.909 -27.9975H490.091M446.909 -27.9975V187.002M446.909 187.002V230.002M446.909 187.002H490.091M446.909 230.002V273.002M446.909 230.002H490.091M446.909 273.002V316.002M446.909 273.002H490.091M446.909 316.002V359.002M446.909 316.002H490.091M446.909 359.002V402.002M446.909 359.002H490.091M446.909 402.002V445.002M446.909 402.002H490.091M446.909 445.002V488.002M446.909 445.002H490.091M446.909 488.002V531.002M446.909 488.002H490.091M446.909 531.002V574.002M446.909 531.002H490.091M446.909 574.002V617.003M446.909 574.002H490.091M446.909 617.003V660.002M446.909 617.003H490.091M446.909 660.002V703.002M446.909 660.002H490.091M446.909 703.002H490.091M490.091 -156.998V-113.998M490.091 -156.998L533.273 -156.998M490.091 -113.998V-70.9976M490.091 -113.998H533.273M490.091 -70.9976V-27.9975M490.091 -70.9976H533.273M490.091 -27.9975L533.273 -27.9975M490.091 -27.9975V187.002M490.091 187.002V230.002M490.091 187.002H533.273M490.091 230.002V273.002M490.091 230.002H533.273M490.091 273.002V316.002M490.091 273.002H533.273M490.091 316.002V359.002M490.091 316.002H533.273M490.091 359.002V402.002M490.091 359.002H533.273M490.091 402.002V445.002M490.091 402.002H533.273M490.091 445.002V488.002M490.091 445.002H533.273M490.091 488.002V531.002M490.091 488.002H533.273M490.091 531.002V574.002M490.091 531.002H533.273M490.091 574.002V617.003M490.091 574.002H533.273M490.091 617.003V660.002M490.091 617.003H533.273M490.091 660.002V703.002M490.091 660.002H533.273M490.091 703.002H533.273M533.273 -156.998V-113.998M533.273 -156.998H576.455M533.273 -113.998V-70.9976M533.273 -113.998H576.455M533.273 -70.9976V-27.9975M533.273 -70.9976H576.455M533.273 -27.9975H576.455M533.273 -27.9975V187.002M533.273 187.002V230.002M533.273 187.002H576.455M533.273 230.002V273.002M533.273 230.002H576.455M533.273 273.002V316.002M533.273 273.002H576.455M533.273 316.002V359.002M533.273 316.002H576.455M533.273 359.002V402.002M533.273 359.002H576.455M533.273 402.002V445.002M533.273 402.002H576.455M533.273 445.002V488.002M533.273 445.002H576.455M533.273 488.002V531.002M533.273 488.002H576.455M533.273 531.002V574.002M533.273 531.002H576.455M533.273 574.002V617.003M533.273 574.002H576.455M533.273 617.003V660.002M533.273 617.003H576.455M533.273 660.002V703.002M533.273 660.002H576.455M533.273 703.002H576.455M576.455 -156.998V-113.998M576.455 -156.998H619.636M576.455 -113.998V-70.9976M576.455 -113.998L619.636 -113.998M576.455 -70.9976V-27.9975M576.455 -70.9976H619.636M576.455 -27.9975H619.636M576.455 -27.9975V187.002M576.455 187.002V230.002M576.455 187.002H619.636M576.455 230.002V273.002M576.455 230.002H619.636M576.455 273.002V316.002M576.455 273.002H619.636M576.455 316.002V359.002M576.455 316.002H619.636M576.455 359.002V402.002M576.455 359.002H619.636M576.455 402.002V445.002M576.455 402.002H619.636M576.455 445.002V488.002M576.455 445.002H619.636M576.455 488.002V531.002M576.455 488.002H619.636M576.455 531.002V574.002M576.455 531.002H619.636M576.455 574.002V617.003M576.455 574.002H619.636M576.455 617.003V660.002M576.455 617.003H619.636M576.455 660.002V703.002M576.455 660.002H619.636M576.455 703.002H619.636M619.636 -156.998V-113.998M619.636 -156.998H662.818M619.636 -113.998V-70.9976M619.636 -113.998H662.818M619.636 -70.9976V-27.9975M619.636 -70.9976L662.818 -70.9976M619.636 -27.9975H662.818M619.636 -27.9975V187.002M619.636 187.002V230.002M619.636 187.002H662.818M619.636 230.002V273.002M619.636 230.002H662.818M619.636 273.002V316.002M619.636 273.002H662.818M619.636 316.002V359.002M619.636 316.002H662.818M619.636 359.002V402.002M619.636 359.002H662.818M619.636 402.002V445.002M619.636 402.002H662.818M619.636 445.002V488.002M619.636 445.002H662.818M619.636 488.002V531.002M619.636 488.002H662.818M619.636 531.002V574.002M619.636 531.002H662.818M619.636 574.002V617.003M619.636 574.002H662.818M619.636 617.003V660.002M619.636 617.003H662.818M619.636 660.002V703.002M619.636 660.002H662.818M619.636 703.002H662.818M662.818 -156.998V-113.998M662.818 -156.998H706M662.818 -113.998H706M662.818 -113.998V-70.9976M662.818 -70.9976V-27.9975M662.818 -70.9976H706M662.818 -27.9975H706M662.818 -27.9975V187.002M662.818 187.002V230.002M662.818 187.002H706M662.818 230.002V273.002M662.818 230.002H706M662.818 273.002V316.002M662.818 273.002H706M662.818 316.002V359.002M662.818 316.002H706M662.818 359.002V402.002M662.818 359.002H706M662.818 402.002V445.002M662.818 402.002H706M662.818 445.002V488.002M662.818 445.002H706M662.818 488.002V531.002M662.818 488.002H706M662.818 531.002V574.002M662.818 531.002H706M662.818 574.002V617.003M662.818 574.002H706M662.818 617.003V660.002M662.818 617.003H706M662.818 660.002V703.002M662.818 660.002H706M662.818 703.002H706M706 -156.998V-113.998M706 -156.998H749.182M706 -113.998H749.182M706 -113.998V-70.9976M706 -70.9976V-27.9975M706 -70.9976H749.182M706 -27.9975H749.182M706 -27.9975V187.002M706 187.002V230.002M706 187.002H749.182M706 230.002V273.002M706 230.002H749.182M706 273.002V316.002M706 273.002H749.182M706 316.002V359.002M706 316.002H749.182M706 359.002V402.002M706 359.002H749.182M706 402.002V445.002M706 402.002H749.182M706 445.002V488.002M706 445.002H749.182M706 488.002V531.002M706 488.002H749.182M706 531.002V574.002M706 531.002H749.182M706 574.002V617.003M706 574.002H749.182M706 617.003V660.002M706 617.003H749.182M706 660.002V703.002M706 660.002H749.182M706 703.002H749.182M749.182 -156.998V-113.998M749.182 -156.998H792.364M749.182 -113.998H792.364M749.182 -113.998V-70.9976M749.182 -70.9976V-27.9975M749.182 -70.9976H792.364M749.182 -27.9975H792.364M749.182 -27.9975V187.002M749.182 187.002V230.002M749.182 187.002H792.364M749.182 230.002V273.002M749.182 230.002H792.364M749.182 273.002V316.002M749.182 273.002H792.364M749.182 316.002V359.002M749.182 316.002H792.364M749.182 359.002V402.002M749.182 359.002L792.364 359.002M749.182 402.002V445.002M749.182 402.002L792.364 402.002M749.182 445.002V488.002M749.182 445.002L792.364 445.002M749.182 488.002V531.002M749.182 488.002L792.364 488.002M749.182 531.002V574.002M749.182 531.002L792.364 531.002M749.182 574.002V617.003M749.182 574.002L792.364 574.002M749.182 617.003V660.002M749.182 617.003L792.364 617.003M749.182 660.002V703.002M749.182 660.002L792.364 660.002M749.182 703.002L792.364 703.002M792.364 -156.998V-113.998M792.364 -156.998H835.545M792.364 -113.998H835.545M792.364 -113.998V-70.9976M792.364 -70.9976V-27.9975M792.364 -70.9976H835.545M792.364 -27.9975H835.545M792.364 -27.9975V187.002M792.364 187.002V230.002M792.364 187.002H835.545M792.364 230.002V273.002M792.364 230.002H835.545M792.364 273.002V316.002M792.364 273.002H835.545M792.364 316.002V359.002M792.364 316.002H835.545M792.364 359.002V402.002M792.364 359.002H835.545M792.364 402.002V445.002M792.364 402.002H835.545M792.364 445.002V488.002M792.364 445.002H835.545M792.364 488.002V531.002M792.364 488.002H835.545M792.364 531.002V574.002M792.364 531.002H835.545M792.364 574.002V617.003M792.364 574.002H835.545M792.364 617.003V660.002M792.364 617.003H835.545M792.364 660.002V703.002M792.364 660.002H835.545M792.364 703.002H835.545M835.545 -156.998V-113.998M835.545 -156.998H878.727M835.545 -113.998V-70.9976M835.545 -113.998H878.727M835.545 -70.9976V-27.9975M835.545 -70.9976H878.727M835.545 -27.9975H878.727M835.545 -27.9975V187.002M835.545 187.002V230.002M835.545 187.002H878.727M835.545 230.002V273.002M835.545 230.002H878.727M835.545 273.002V316.002M835.545 273.002H878.727M835.545 316.002V359.002M835.545 316.002H878.727M835.545 359.002V402.002M835.545 359.002H878.727M835.545 402.002V445.002M835.545 402.002H878.727M835.545 445.002V488.002M835.545 445.002H878.727M835.545 488.002V531.002M835.545 488.002H878.727M835.545 531.002V574.002M835.545 531.002H878.727M835.545 574.002V617.003M835.545 574.002H878.727M835.545 617.003V660.002M835.545 617.003H878.727M835.545 660.002V703.002M835.545 660.002H878.727M835.545 703.002H878.727M878.727 -156.998V-113.998M878.727 -156.998H921.909M878.727 -113.998V-70.9976M878.727 -113.998H921.909M878.727 -70.9976V-27.9975M878.727 -70.9976L921.909 -70.9976M878.727 -27.9975H921.909M878.727 -27.9975V187.002M878.727 187.002V230.002M878.727 187.002H921.909M878.727 230.002V273.002M878.727 230.002H921.909M878.727 273.002V316.002M878.727 273.002H921.909M878.727 316.002V359.002M878.727 316.002H921.909M878.727 359.002V402.002M878.727 359.002H921.909M878.727 402.002V445.002M878.727 402.002H921.909M878.727 445.002V488.002M878.727 445.002H921.909M878.727 488.002V531.002M878.727 488.002H921.909M878.727 531.002V574.002M878.727 531.002H921.909M878.727 574.002V617.003M878.727 574.002H921.909M878.727 617.003V660.002M878.727 617.003H921.909M878.727 660.002V703.002M878.727 660.002H921.909M878.727 703.002H921.909M921.909 -156.998V-113.998M921.909 -156.998H965.091M921.909 -113.998V-70.9976M921.909 -113.998H965.091M921.909 -70.9976V-27.9975M921.909 -70.9976H965.091M921.909 -27.9975H965.091M921.909 -27.9975V187.002M921.909 187.002V230.002M921.909 187.002H965.091M921.909 230.002V273.002M921.909 230.002H965.091M921.909 273.002V316.002M921.909 273.002H965.091M921.909 316.002V359.002M921.909 316.002H965.091M921.909 359.002V402.002M921.909 359.002H965.091M921.909 402.002V445.002M921.909 402.002H965.091M921.909 445.002V488.002M921.909 445.002H965.091M921.909 488.002V531.002M921.909 488.002H965.091M921.909 531.002V574.002M921.909 531.002H965.091M921.909 574.002V617.003M921.909 574.002H965.091M921.909 617.003V660.002M921.909 617.003H965.091M921.909 660.002V703.002M921.909 660.002H965.091M921.909 703.002H965.091M965.091 -156.998V-113.998M965.091 -156.998H1008.27M965.091 -113.998V-70.9976M965.091 -113.998L1008.27 -113.998M965.091 -70.9976V-27.9975M965.091 -70.9976H1008.27M965.091 -27.9975H1008.27M965.091 -27.9975V187.002M965.091 187.002V230.002M965.091 187.002H1008.27M965.091 230.002V273.002M965.091 230.002H1008.27M965.091 273.002V316.002M965.091 273.002H1008.27M965.091 316.002V359.002M965.091 316.002H1008.27M965.091 359.002V402.002M965.091 359.002H1008.27M965.091 402.002V445.002M965.091 402.002H1008.27M965.091 445.002V488.002M965.091 445.002H1008.27M965.091 488.002V531.002M965.091 488.002H1008.27M965.091 531.002V574.002M965.091 531.002H1008.27M965.091 574.002V617.003M965.091 574.002H1008.27M965.091 617.003V660.002M965.091 617.003H1008.27M965.091 660.002V703.002M965.091 660.002H1008.27M965.091 703.002H1008.27M1008.27 -156.998V-113.998M1008.27 -156.998L1051.45 -156.998M1008.27 -113.998V-70.9976M1008.27 -113.998H1051.45M1008.27 -70.9976V-27.9975M1008.27 -70.9976H1051.45M1008.27 -27.9975L1051.45 -27.9975M1008.27 -27.9975V187.002M1008.27 187.002V230.002M1008.27 187.002H1051.45M1008.27 230.002V273.002M1008.27 230.002H1051.45M1008.27 273.002V316.002M1008.27 273.002H1051.45M1008.27 316.002V359.002M1008.27 316.002H1051.45M1008.27 359.002V402.002M1008.27 359.002H1051.45M1008.27 402.002V445.002M1008.27 402.002H1051.45M1008.27 445.002V488.002M1008.27 445.002H1051.45M1008.27 488.002V531.002M1008.27 488.002H1051.45M1008.27 531.002V574.002M1008.27 531.002H1051.45M1008.27 574.002V617.003M1008.27 574.002H1051.45M1008.27 617.003V660.002M1008.27 617.003H1051.45M1008.27 660.002V703.002M1008.27 660.002H1051.45M1008.27 703.002H1051.45M1051.45 -156.998V-113.998M1051.45 -156.998H1094.64M1051.45 -113.998V-70.9976M1051.45 -113.998H1094.64M1051.45 -70.9976V-27.9975M1051.45 -70.9976H1094.64M1051.45 -27.9975H1094.64M1051.45 187.002V230.002M1051.45 187.002H1094.64M1051.45 230.002V273.002M1051.45 230.002H1094.64M1051.45 273.002V316.002M1051.45 273.002H1094.64M1051.45 316.002V359.002M1051.45 316.002H1094.64M1051.45 359.002V402.002M1051.45 359.002H1094.64M1051.45 402.002V445.002M1051.45 402.002H1094.64M1051.45 445.002V488.002M1051.45 445.002H1094.64M1051.45 488.002V531.002M1051.45 488.002H1094.64M1051.45 531.002V574.002M1051.45 531.002H1094.64M1051.45 574.002V617.003M1051.45 574.002H1094.64M1051.45 617.003V660.002M1051.45 617.003H1094.64M1051.45 660.002V703.002M1051.45 660.002H1094.64M1051.45 703.002H1094.64M1094.64 -156.998V-113.998M1094.64 -156.998H1137.82M1094.64 -113.998V-70.9976M1094.64 -113.998L1137.82 -113.998M1094.64 -70.9976V-27.9975M1094.64 -70.9976H1137.82M1094.64 -27.9975H1137.82M1094.64 -27.9975V101.002M1094.64 101.002V144.002M1094.64 101.002H1137.82M1094.64 144.002V187.002M1094.64 144.002H1137.82M1094.64 187.002V230.002M1094.64 187.002H1137.82M1094.64 230.002V273.002M1094.64 230.002H1137.82M1094.64 273.002V316.002M1094.64 273.002H1137.82M1094.64 316.002V359.002M1094.64 316.002H1137.82M1094.64 359.002V402.002M1094.64 359.002H1137.82M1094.64 402.002V445.002M1094.64 402.002H1137.82M1094.64 445.002V488.002M1094.64 445.002H1137.82M1094.64 488.002V531.002M1094.64 488.002H1137.82M1094.64 531.002V574.002M1094.64 531.002H1137.82M1094.64 574.002V617.003M1094.64 574.002H1137.82M1094.64 617.003V660.002M1094.64 617.003H1137.82M1094.64 660.002V703.002M1094.64 660.002H1137.82M1094.64 703.002H1137.82M1137.82 -156.998V-113.998M1137.82 -156.998H1181M1137.82 -113.998V-70.9976M1137.82 -113.998H1181M1137.82 -70.9976V-27.9975M1137.82 -70.9976L1181 -70.9976M1137.82 -27.9975H1181M1137.82 -27.9975V101.002M1137.82 101.002V144.002M1137.82 101.002H1181M1137.82 144.002V187.002M1137.82 144.002H1181M1137.82 187.002V230.002M1137.82 187.002H1181M1137.82 230.002V273.002M1137.82 230.002H1181M1137.82 273.002V316.002M1137.82 273.002H1181M1137.82 316.002V359.002M1137.82 316.002H1181M1137.82 359.002V402.002M1137.82 359.002H1181M1137.82 402.002V445.002M1137.82 402.002H1181M1137.82 445.002V488.002M1137.82 445.002H1181M1137.82 488.002V531.002M1137.82 488.002H1181M1137.82 531.002V574.002M1137.82 531.002H1181M1137.82 574.002V617.003M1137.82 574.002H1181M1137.82 617.003V660.002M1137.82 617.003H1181M1137.82 660.002V703.002M1137.82 660.002H1181M1137.82 703.002H1181M1181 -156.998V-113.998M1181 -156.998H1224.18M1181 -113.998V-70.9976M1181 -113.998H1224.18M1181 -70.9976V-27.9975M1181 -70.9976H1224.18M1181 -27.9975H1224.18M1181 101.002V144.002M1181 101.002H1224.18M1181 144.002V187.002M1181 144.002H1224.18M1181 187.002V230.002M1181 187.002H1224.18M1181 230.002V273.002M1181 230.002H1224.18M1181 273.002V316.002M1181 273.002H1224.18M1181 316.002V359.002M1181 316.002H1224.18M1181 359.002V402.002M1181 359.002H1224.18M1181 402.002V445.002M1181 402.002H1224.18M1181 445.002V488.002M1181 445.002H1224.18M1181 488.002V531.002M1181 488.002H1224.18M1181 531.002V574.002M1181 531.002H1224.18M1181 574.002V617.003M1181 574.002H1224.18M1181 617.003V660.002M1181 617.003H1224.18M1181 660.002V703.002M1181 660.002H1224.18M1181 703.002H1224.18M1224.18 -156.998V-113.998M1224.18 -156.998H1267.36M1224.18 -113.998V-70.9976M1224.18 -113.998H1267.36M1224.18 -70.9976V-27.9975M1224.18 -70.9976H1267.36M1224.18 -27.9975V15.0025M1224.18 -27.9975H1267.36M1224.18 15.0025V58.0024M1224.18 15.0025H1267.36M1224.18 58.0024V101.002M1224.18 58.0024H1267.36M1224.18 101.002V144.002M1224.18 101.002H1267.36M1224.18 144.002V187.002M1224.18 144.002H1267.36M1224.18 187.002V230.002M1224.18 187.002H1267.36M1224.18 230.002V273.002M1224.18 230.002H1267.36M1224.18 273.002V316.002M1224.18 273.002H1267.36M1224.18 316.002V359.002M1224.18 316.002H1267.36M1224.18 359.002V402.002M1224.18 359.002H1267.36M1224.18 402.002V445.002M1224.18 402.002H1267.36M1224.18 445.002V488.002M1224.18 445.002H1267.36M1224.18 488.002V531.002M1224.18 488.002H1267.36M1224.18 531.002V574.002M1224.18 531.002H1267.36M1224.18 574.002V617.003M1224.18 574.002H1267.36M1224.18 617.003V660.002M1224.18 617.003H1267.36M1224.18 660.002V703.002M1224.18 660.002H1267.36M1224.18 703.002H1267.36M1267.36 -156.998V-113.998M1267.36 -156.998H1310.55M1267.36 -113.998V-70.9976M1267.36 -113.998H1310.55M1267.36 -70.9976V-27.9975M1267.36 -70.9976H1310.55M1267.36 -27.9975V15.0025M1267.36 -27.9975H1310.55M1267.36 15.0025V58.0024M1267.36 15.0025H1310.55M1267.36 58.0024V101.002M1267.36 58.0024H1310.55M1267.36 101.002V144.002M1267.36 101.002L1310.55 101.002M1267.36 144.002V187.002M1267.36 144.002L1310.55 144.002M1267.36 187.002V230.002M1267.36 187.002L1310.55 187.002M1267.36 230.002V273.002M1267.36 230.002L1310.55 230.002M1267.36 273.002V316.002M1267.36 273.002L1310.55 273.002M1267.36 316.002V359.002M1267.36 316.002L1310.55 316.002M1267.36 359.002V402.002M1267.36 359.002H1310.55M1267.36 402.002V445.002M1267.36 402.002H1310.55M1267.36 445.002V488.002M1267.36 445.002H1310.55M1267.36 488.002V531.002M1267.36 488.002H1310.55M1267.36 531.002V574.002M1267.36 531.002H1310.55M1267.36 574.002V617.003M1267.36 574.002H1310.55M1267.36 617.003V660.002M1267.36 617.003H1310.55M1267.36 660.002V703.002M1267.36 660.002H1310.55M1267.36 703.002H1310.55M1310.55 -156.998V-113.998M1310.55 -156.998H1353.73M1310.55 -113.998V-70.9976M1310.55 -113.998H1353.73M1310.55 -70.9976V-27.9975M1310.55 -70.9976H1353.73M1310.55 -27.9975V15.0025M1310.55 -27.9975H1353.73M1310.55 15.0025V58.0024M1310.55 15.0025H1353.73M1310.55 58.0024V101.002M1310.55 58.0024H1353.73M1310.55 101.002V144.002M1310.55 101.002H1353.73M1310.55 144.002V187.002M1310.55 144.002H1353.73M1310.55 187.002V230.002M1310.55 187.002H1353.73M1310.55 230.002V273.002M1310.55 230.002H1353.73M1310.55 273.002V316.002M1310.55 273.002H1353.73M1310.55 316.002V359.002M1310.55 316.002H1353.73M1310.55 359.002V402.002M1310.55 359.002H1353.73M1310.55 402.002V445.002M1310.55 402.002H1353.73M1310.55 445.002V488.002M1310.55 445.002H1353.73M1310.55 488.002V531.002M1310.55 488.002H1353.73M1310.55 531.002V574.002M1310.55 531.002H1353.73M1310.55 574.002V617.003M1310.55 574.002H1353.73M1310.55 617.003V660.002M1310.55 617.003H1353.73M1310.55 660.002V703.002M1310.55 660.002H1353.73M1310.55 703.002H1353.73M1353.73 -156.998V-113.998M1353.73 -156.998H1396.91M1353.73 -113.998V-70.9976M1353.73 -113.998H1396.91M1353.73 -70.9976V-27.9975M1353.73 -70.9976H1396.91M1353.73 -27.9975V15.0025M1353.73 -27.9975H1396.91M1353.73 15.0025V58.0024M1353.73 15.0025H1396.91M1353.73 58.0024V101.002M1353.73 58.0024H1396.91M1353.73 101.002V144.002M1353.73 101.002H1396.91M1353.73 144.002H1396.91M1353.73 144.002V187.002M1353.73 187.002V230.002M1353.73 187.002H1396.91M1353.73 230.002V273.002M1353.73 230.002H1396.91M1353.73 273.002V316.002M1353.73 273.002H1396.91M1353.73 316.002V359.002M1353.73 316.002H1396.91M1353.73 359.002V402.002M1353.73 359.002H1396.91M1353.73 402.002V445.002M1353.73 402.002H1396.91M1353.73 445.002V488.002M1353.73 445.002H1396.91M1353.73 488.002V531.002M1353.73 488.002H1396.91M1353.73 531.002V574.002M1353.73 531.002H1396.91M1353.73 574.002V617.003M1353.73 574.002H1396.91M1353.73 617.003V660.002M1353.73 617.003H1396.91M1353.73 660.002V703.002M1353.73 660.002H1396.91M1353.73 703.002H1396.91M1396.91 -156.998V-113.998M1396.91 -156.998H1440.09M1396.91 -113.998V-70.9976M1396.91 -113.998H1440.09M1396.91 -70.9976V-27.9975M1396.91 -70.9976L1440.09 -70.9976M1396.91 -27.9975V15.0025M1396.91 -27.9975H1440.09M1396.91 15.0025V58.0024M1396.91 15.0025H1440.09M1396.91 58.0024V101.002M1396.91 58.0024H1440.09M1396.91 101.002V144.002M1396.91 101.002H1440.09M1396.91 144.002V187.002M1396.91 144.002H1440.09M1396.91 187.002V230.002M1396.91 187.002H1440.09M1396.91 230.002V273.002M1396.91 230.002H1440.09M1396.91 273.002V316.002M1396.91 273.002H1440.09M1396.91 316.002V359.002M1396.91 316.002H1440.09M1396.91 359.002V402.002M1396.91 359.002H1440.09M1396.91 402.002V445.002M1396.91 402.002H1440.09M1396.91 445.002V488.002M1396.91 445.002H1440.09M1396.91 488.002V531.002M1396.91 488.002H1440.09M1396.91 531.002V574.002M1396.91 531.002H1440.09M1396.91 574.002V617.003M1396.91 574.002H1440.09M1396.91 617.003V660.002M1396.91 617.003H1440.09M1396.91 660.002V703.002M1396.91 660.002H1440.09M1396.91 703.002H1440.09M1440.09 -156.998V-113.998M1440.09 -156.998H1483.27M1440.09 -113.998V-70.9976M1440.09 -113.998H1483.27M1440.09 -70.9976V-27.9975M1440.09 -70.9976H1483.27M1440.09 -27.9975V15.0025M1440.09 -27.9975H1483.27M1440.09 15.0025V58.0024M1440.09 15.0025H1483.27M1440.09 58.0024V101.002M1440.09 58.0024H1483.27M1440.09 101.002V144.002M1440.09 101.002H1483.27M1440.09 144.002V187.002M1440.09 144.002H1483.27M1440.09 187.002V230.002M1440.09 187.002H1483.27M1440.09 230.002V273.002M1440.09 230.002H1483.27M1440.09 273.002V316.002M1440.09 273.002H1483.27M1440.09 316.002V359.002M1440.09 316.002H1483.27M1440.09 359.002V402.002M1440.09 359.002H1483.27M1440.09 402.002V445.002M1440.09 402.002H1483.27M1440.09 445.002V488.002M1440.09 445.002H1483.27M1440.09 488.002V531.002M1440.09 488.002H1483.27M1440.09 531.002V574.002M1440.09 531.002H1483.27M1440.09 574.002V617.003M1440.09 574.002H1483.27M1440.09 617.003V660.002M1440.09 617.003H1483.27M1440.09 660.002V703.002M1440.09 660.002H1483.27M1440.09 703.002H1483.27M1483.27 -156.998V-113.998M1483.27 -156.998H1526.45M1483.27 -113.998V-70.9976M1483.27 -113.998L1526.45 -113.998M1483.27 -70.9976V-27.9975M1483.27 -70.9976H1526.45M1483.27 -27.9975V15.0025M1483.27 -27.9975H1526.45M1483.27 15.0025V58.0024M1483.27 15.0025H1526.45M1483.27 58.0024V101.002M1483.27 58.0024H1526.45M1483.27 101.002V144.002M1483.27 101.002H1526.45M1483.27 144.002V187.002M1483.27 144.002H1526.45M1483.27 187.002V230.002M1483.27 187.002H1526.45M1483.27 230.002V273.002M1483.27 230.002H1526.45M1483.27 273.002V316.002M1483.27 273.002H1526.45M1483.27 316.002V359.002M1483.27 316.002H1526.45M1483.27 359.002V402.002M1483.27 359.002H1526.45M1483.27 402.002V445.002M1483.27 402.002H1526.45M1483.27 445.002V488.002M1483.27 445.002H1526.45M1483.27 488.002V531.002M1483.27 488.002H1526.45M1483.27 531.002V574.002M1483.27 531.002H1526.45M1483.27 574.002V617.003M1483.27 574.002H1526.45M1483.27 617.003V660.002M1483.27 617.003H1526.45M1483.27 660.002V703.002M1483.27 660.002H1526.45M1483.27 703.002H1526.45M1526.45 -156.998V-113.998M1526.45 -156.998L1569.64 -156.998M1526.45 -113.998V-70.9976M1526.45 -113.998H1569.64M1526.45 -70.9976V-27.9975M1526.45 -70.9976H1569.64M1526.45 -27.9975V15.0025M1526.45 -27.9975L1569.64 -27.9975M1526.45 15.0025V58.0024M1526.45 15.0025L1569.64 15.0025M1526.45 58.0024V101.002M1526.45 58.0024L1569.64 58.0024M1526.45 101.002V144.002M1526.45 101.002H1569.64M1526.45 144.002V187.002M1526.45 144.002H1569.64M1526.45 187.002V230.002M1526.45 187.002H1569.64M1526.45 230.002V273.002M1526.45 230.002H1569.64M1526.45 273.002V316.002M1526.45 273.002H1569.64M1526.45 316.002V359.002M1526.45 316.002H1569.64M1526.45 359.002V402.002M1526.45 359.002H1569.64M1526.45 402.002V445.002M1526.45 402.002H1569.64M1526.45 445.002V488.002M1526.45 445.002H1569.64M1526.45 488.002V531.002M1526.45 488.002H1569.64M1526.45 531.002V574.002M1526.45 531.002H1569.64M1526.45 574.002V617.003M1526.45 574.002H1569.64M1526.45 617.003V660.002M1526.45 617.003H1569.64M1526.45 660.002V703.002M1526.45 660.002H1569.64M1526.45 703.002H1569.64M1569.64 -156.998V-113.998M1569.64 -156.998H1612.82M1569.64 -113.998V-70.9976M1569.64 -113.998L1612.82 -113.998M1569.64 -70.9976V-27.9975M1569.64 -70.9976H1612.82M1569.64 -27.9975V15.0025M1569.64 -27.9975H1612.82M1569.64 15.0025V58.0024M1569.64 15.0025H1612.82M1569.64 58.0024V101.002M1569.64 58.0024H1612.82M1569.64 101.002V144.002M1569.64 101.002H1612.82M1569.64 144.002V187.002M1569.64 144.002H1612.82M1569.64 187.002V230.002M1569.64 187.002H1612.82M1569.64 230.002V273.002M1569.64 230.002H1612.82M1569.64 273.002V316.002M1569.64 273.002H1612.82M1569.64 316.002V359.002M1569.64 316.002H1612.82M1569.64 359.002V402.002M1569.64 359.002H1612.82M1569.64 402.002V445.002M1569.64 402.002H1612.82M1569.64 445.002V488.002M1569.64 445.002H1612.82M1569.64 488.002V531.002M1569.64 488.002H1612.82M1569.64 531.002V574.002M1569.64 531.002H1612.82M1569.64 574.002V617.003M1569.64 574.002H1612.82M1569.64 617.003V660.002M1569.64 617.003H1612.82M1569.64 660.002V703.002M1569.64 660.002H1612.82M1569.64 703.002H1612.82M1612.82 -156.998V-113.998M1612.82 -156.998H1656V-113.998M1612.82 -113.998V-70.9976M1612.82 -113.998H1656M1612.82 -70.9976V-27.9975M1612.82 -70.9976H1656M1612.82 -27.9975V15.0025M1612.82 -27.9975H1656M1612.82 15.0025V58.0024M1612.82 15.0025H1656M1612.82 58.0024V101.002M1612.82 58.0024H1656M1612.82 101.002V144.002M1612.82 101.002H1656M1612.82 144.002V187.002M1612.82 144.002H1656M1612.82 187.002V230.002M1612.82 187.002H1656M1612.82 230.002V273.002M1612.82 230.002H1656M1612.82 273.002V316.002M1612.82 273.002H1656M1612.82 316.002V359.002M1612.82 316.002H1656M1612.82 359.002V402.002M1612.82 359.002H1656M1612.82 402.002V445.002M1612.82 402.002H1656M1612.82 445.002V488.002M1612.82 445.002H1656M1612.82 488.002V531.002M1612.82 488.002H1656M1612.82 531.002V574.002M1612.82 531.002H1656M1612.82 574.002V617.003M1612.82 574.002H1656M1612.82 617.003V660.002M1612.82 617.003H1656M1612.82 660.002V703.002M1612.82 660.002H1656M1612.82 703.002H1656V660.002M1656 -113.998V-70.9976M1656 -70.9976V-27.9975M1656 -27.9975V15.0025M1656 15.0025V58.0024M1656 58.0024V101.002M1656 101.002V144.002M1656 144.002V187.002M1656 187.002V230.002M1656 230.002V273.002M1656 273.002V316.002M1656 316.002V359.002M1656 359.002V402.002M1656 402.002V445.002M1656 445.002V488.002M1656 488.002V531.002M1656 531.002V574.002M1656 574.002V617.003M1656 617.003V660.002" stroke="url(#paint0_linear_840_271)" stroke-opacity="0.2"/>
<defs>
<linearGradient id="paint0_linear_840_271" x1="706" y1="703.002" x2="706" y2="-156.998" gradientUnits="userSpaceOnUse">
<stop stop-color="white" stop-opacity="0.2"/>
<stop offset="1" stop-color="white" stop-opacity="0"/>
</linearGradient>
</defs>
</svg>
