<svg width="155" height="64" viewBox="0 0 155 64" fill="none" xmlns="http://www.w3.org/2000/svg">
<path d="M19.4822 4.61754C20.9361 2.31346 21.5673 0.166748 21.5673 0.166748C21.5673 0.166748 19.6566 0.809906 17.3098 2.67609C15.1665 4.62267 12.6845 8.01122 12.859 12.4432C16.0662 9.86543 18.1822 7.10635 19.4805 4.61754H19.4822ZM7.23651 30.219L7.11335 32.0304C7.09111 32.4153 7.35282 32.7574 7.73769 32.766C8.10716 32.7967 8.43901 32.4837 8.46124 32.1125L8.58611 30.3062C11.2203 28.7154 13.0283 26.4439 14.1641 24.4186C14.7389 23.2965 15.252 22.2856 15.6215 21.5603C15.9208 20.7906 16.1158 20.3236 16.1158 20.3236C16.1158 20.3236 14.4036 20.4895 12.2962 21.8648C10.8047 23.004 8.80164 25.0806 8.05927 28.3887C8.05414 28.3887 8.05072 28.3836 8.04387 28.3836C8.06953 24.9711 7.65729 22.2565 6.80545 20.0995C6.02887 17.5508 4.90677 15.9754 4.90677 15.9754L4.43808 17.5936C4.19006 18.6062 3.86677 19.9935 3.96256 21.6167C3.98308 24.5571 4.72203 28.0056 7.23651 30.2207V30.219Z" fill="#E9E9E9"/>
<path d="M8.88193 20.8471C8.85056 20.9344 8.83726 21.0271 8.84282 21.1196C8.84839 21.2122 8.8727 21.3026 8.9143 21.3855C8.95589 21.4684 9.01389 21.5419 9.08478 21.6017C9.15567 21.6614 9.23796 21.7062 9.32666 21.7332C9.67561 21.846 10.0382 21.6185 10.1717 21.2645L10.7396 19.5984C13.6098 18.7363 15.4811 16.8342 17.1061 15.2759C17.8035 14.5317 18.4225 13.7177 18.9535 12.847C19.3948 12.2124 19.6839 11.8378 19.6839 11.8378C19.6839 11.8378 17.9084 11.5179 15.8694 12.4929C14.1692 13.2353 12.031 14.7439 10.6352 17.568L10.5959 17.556C11.3006 14.4343 11.3228 11.8412 11.0372 9.69447C10.5925 7.04658 9.98522 5.41303 9.98522 5.41303C9.75088 5.1821 5.46088 13.7399 9.42245 19.2341L8.88193 20.8471ZM12.8298 52.6235C13.3276 53.3471 14.253 54.6642 14.3248 54.5958C14.6053 54.8866 15.0501 54.9174 15.3135 54.6522C15.4418 54.5238 15.5152 54.3505 15.5184 54.169C15.5216 53.9875 15.4543 53.8118 15.3306 53.6789C15.2588 53.7303 14.33 52.42 13.8613 51.7495C16.2817 44.1787 14.785 38.1303 15.0484 37.7231C15.0484 37.7231 13.124 38.7768 12.0721 41.1955C10.95 43.3063 10.3393 47.2251 12.6947 51.1576C12.6776 51.1696 12.6622 51.1747 12.6485 51.1867C12.6228 51.2038 12.6092 51.2312 12.5903 51.2517C9.84495 47.5997 7.50495 44.9553 5.32061 42.8872C2.73772 40.6208 0.992981 39.4628 0.994691 39.4525C0.852718 39.3943 1.36588 42.853 3.44074 46.5306C5.3514 49.8918 8.94009 52.7741 12.8298 52.6218V52.6235Z" fill="#E9E9E9"/>
<path d="M21.2777 60.6119L25.6515 63.3538C25.9834 63.5762 26.4127 63.4051 26.5649 63.075C26.7257 62.7038 26.5649 62.3207 26.2519 62.112L21.938 59.3957C21.7498 55.2117 20.6226 51.8112 19.663 49.4165C18.7735 46.7583 17.7078 45.0495 17.7814 44.9708C17.7814 44.9708 16.3035 46.6745 16.1085 49.6046C15.686 52.3603 16.8799 56.368 20.8449 59.382C20.8176 59.4111 20.7868 59.435 20.7628 59.4709C16.6336 56.8316 12.9663 55.3537 10.1063 54.0622C6.80153 52.8392 4.53679 52.338 4.53679 52.338C4.53679 52.338 4.84468 53.1984 5.75126 54.3736C6.67495 55.5025 7.91508 57.1104 9.6256 58.4412C12.9184 60.9642 17.5043 62.4661 21.2777 60.6136V60.6119ZM8.00231 42.0646L8.666 44.5021C8.77376 44.887 9.1381 45.1145 9.48705 44.9742C9.66009 44.8998 9.80085 44.766 9.88396 44.5969C9.96707 44.4279 9.98707 44.2347 9.94034 44.0522L9.30403 41.7088C11.7313 38.9053 13.2776 35.8708 13.9909 33.3957C15.0736 30.6948 15.089 28.5121 15.2122 28.4779C15.2122 28.4779 13.2571 28.9911 11.3549 31.0437C9.58968 32.8175 7.77653 36.165 8.47442 40.7013C8.42652 40.6979 8.37863 40.6876 8.33074 40.6962C7.17442 36.2745 5.79745 32.903 4.39653 30.3749C2.75784 27.5576 1.19271 25.9515 1.19271 25.9515C1.19271 25.9515 1.00113 26.7178 1.03534 27.999C1.0285 29.2716 1.11403 31.0523 1.4185 32.9338C2.28745 36.5499 4.18613 40.6586 8.00402 42.0646H8.00231ZM136.41 4.61607C135.532 3.2253 134.832 1.73006 134.326 0.165283C134.326 0.165283 136.237 0.808441 138.582 2.67634C140.727 4.6212 143.209 8.00976 143.035 12.4417C139.827 9.86397 137.712 7.10489 136.413 4.61607H136.41ZM148.654 30.2175L148.779 32.029C148.801 32.4138 148.539 32.7559 148.154 32.7645C147.785 32.7953 147.453 32.4823 147.431 32.1111L147.306 30.3047C144.672 28.714 142.864 26.4424 141.728 24.4171C141.153 23.295 140.64 22.2841 140.27 21.5588C139.971 20.7891 139.776 20.3221 139.776 20.3221C139.776 20.3221 141.49 20.488 143.596 21.8633C145.086 23.0025 147.09 25.0791 147.833 28.3872C147.838 28.3872 147.841 28.3821 147.848 28.3821C147.824 24.9696 148.235 22.255 149.087 20.098C149.863 17.5494 150.985 15.974 150.985 15.974L151.454 17.5921C151.702 18.6048 152.025 19.992 151.929 21.6153C151.909 24.5557 151.17 28.0041 148.654 30.2192V30.2175Z" fill="#E9E9E9"/>
<path d="M147.009 20.8471C147.04 20.9344 147.054 21.0271 147.048 21.1196C147.043 21.2122 147.018 21.3026 146.977 21.3855C146.935 21.4684 146.877 21.5419 146.806 21.6017C146.735 21.6614 146.653 21.7062 146.564 21.7332C146.215 21.846 145.853 21.6185 145.719 21.2645L145.151 19.5984C142.281 18.7363 140.41 16.8342 138.785 15.2759C138.087 14.5317 137.468 13.7177 136.937 12.847C136.496 12.2124 136.207 11.8378 136.207 11.8378C136.207 11.8378 137.983 11.5179 140.022 12.4929C141.722 13.2353 143.86 14.7439 145.256 17.568L145.295 17.556C144.59 14.4343 144.568 11.8412 144.854 9.69447C145.298 7.04658 145.906 5.41303 145.906 5.41303C146.14 5.1821 150.43 13.7399 146.468 19.2341L147.009 20.8471ZM143.061 52.6235C142.563 53.3471 141.638 54.6642 141.566 54.5958C141.286 54.8866 140.841 54.9174 140.577 54.6522C140.449 54.5238 140.376 54.3505 140.373 54.169C140.369 53.9875 140.437 53.8118 140.56 53.6789C140.632 53.7303 141.561 52.42 142.03 51.7495C139.609 44.1787 141.106 38.1303 140.841 37.7231C140.841 37.7231 142.767 38.7768 143.817 41.1955C144.939 43.3063 145.552 47.2251 143.196 51.1576C143.213 51.1696 143.229 51.1747 143.242 51.1867C143.268 51.2038 143.28 51.2312 143.301 51.2517C146.046 47.5997 148.386 44.9553 150.57 42.8872C153.153 40.6208 154.898 39.4628 154.896 39.4525C155.038 39.3943 154.525 42.853 152.45 46.5306C150.54 49.8918 146.951 52.7741 143.061 52.6218V52.6235Z" fill="#E9E9E9"/>
<path d="M134.614 60.6133L130.24 63.3552C129.908 63.5776 129.479 63.4066 129.327 63.0764C129.166 62.7052 129.327 62.3221 129.64 62.1134L133.954 59.3971C134.142 55.2131 135.269 51.8126 136.229 49.4179C137.118 46.7597 138.184 45.0509 138.11 44.9722C138.11 44.9722 139.588 46.6759 139.783 49.606C140.206 52.3617 139.012 56.3695 135.047 59.3834C135.074 59.4125 135.105 59.4364 135.129 59.4723C139.258 56.833 142.926 55.3551 145.786 54.0637C149.09 52.8406 151.355 52.3395 151.355 52.3395C151.355 52.3395 151.047 53.1999 150.141 54.375C149.217 55.5039 147.977 57.1118 146.266 58.4426C142.973 60.9656 138.388 62.4675 134.614 60.615V60.6133ZM147.888 42.066L147.226 44.5035C147.118 44.8884 146.754 45.1159 146.405 44.9756C146.232 44.9012 146.091 44.7674 146.008 44.5984C145.925 44.4293 145.905 44.2362 145.952 44.0537L146.588 41.7102C144.161 38.9067 142.614 35.8722 141.901 33.3971C140.818 30.6962 140.803 28.5135 140.68 28.4793C140.68 28.4793 142.635 28.9925 144.537 31.0451C146.302 32.8189 148.115 36.1664 147.416 40.7027C147.465 40.6993 147.513 40.6891 147.561 40.6976C148.717 36.2759 150.094 32.9045 151.495 30.3763C153.136 27.5591 154.699 25.9529 154.699 25.9529C154.699 25.9529 154.891 26.7192 154.857 28.0004C154.863 29.273 154.778 31.0537 154.473 32.9352C153.604 36.5513 151.706 40.66 147.888 42.066Z" fill="#E9E9E9"/>
<path d="M52.4655 31.7804C52.413 31.7104 50.978 29.8204 48.3004 28.0879C48.5279 27.0554 48.6329 26.1454 48.6854 25.3929C48.8079 23.6078 48.6329 22.4528 48.6329 22.4003L48.5979 22.1728L48.3704 22.1378C48.3179 22.1378 47.1629 21.9453 45.3779 22.0853C44.6429 22.1378 43.7154 22.2428 42.7004 22.4528C40.9678 19.7753 39.0778 18.3753 39.0078 18.3053L38.8153 18.1653L38.6228 18.3053C38.5353 18.3753 36.6628 19.7753 34.9128 22.4703C33.8803 22.2428 32.9702 22.1378 32.2177 22.0853C30.4327 21.9628 29.2777 22.1378 29.2252 22.1378L28.9802 22.1728L28.9452 22.4003C28.9277 22.4528 28.7702 23.6078 28.8927 25.3929C28.9452 26.1454 29.0502 27.0554 29.2777 28.0879C26.5652 29.8204 25.1652 31.6929 25.1127 31.7804L24.9727 31.9729L25.1127 32.1654C25.1652 32.2529 26.5827 34.1255 29.2777 35.8755C29.0677 36.8905 28.9452 37.818 28.8927 38.553C28.7702 40.338 28.9277 41.493 28.9452 41.5455L28.9802 41.7906L29.2252 41.8256C29.2602 41.8256 29.8902 41.9131 30.9052 41.9131C31.2902 41.9131 31.7277 41.8956 32.2177 41.8606C32.9702 41.8081 33.8978 41.703 34.9128 41.4755C36.6628 44.1706 38.5353 45.5881 38.6228 45.6581L38.8153 45.8156L39.0078 45.6581C39.0953 45.6056 40.9678 44.1706 42.7004 41.493C43.7154 41.7031 44.6254 41.8256 45.3779 41.8781C45.8679 41.9131 46.3054 41.9306 46.6904 41.9306C47.7054 41.9306 48.3354 41.8431 48.3704 41.8431L48.6154 41.808L48.6504 41.563C48.6504 41.5105 48.8254 40.3555 48.7029 38.5705C48.6504 37.818 48.5454 36.908 48.3179 35.893C51.013 34.1605 52.448 32.2704 52.5005 32.2004L52.658 32.0079L52.4655 31.7804ZM46.9704 31.9729C47.2504 31.3779 47.4954 30.7829 47.6879 30.2054C48.7379 30.9404 49.4379 31.6229 49.7529 31.9554C49.4379 32.2879 48.7379 32.988 47.6704 33.723C47.4954 33.163 47.2504 32.5679 46.9704 31.9729ZM45.3779 22.7153C46.6379 22.6278 47.5829 22.6978 48.0029 22.7328C48.1079 23.7303 48.3354 27.6854 46.3229 31.8329C46.0604 32.3579 45.7804 32.8829 45.4829 33.3555C45.2554 33.7055 45.0279 34.0555 44.7829 34.3705L44.7129 34.4755L44.7304 34.6155C44.9754 36.173 44.8529 37.468 44.7829 37.958C44.2929 38.028 43.0154 38.1505 41.4403 37.9055L41.3003 37.888L41.1953 37.9755C40.9328 38.168 40.6353 38.378 40.3378 38.5705C40.0578 38.448 39.7603 38.3255 39.4803 38.168C40.0578 37.818 40.6178 37.433 41.1428 37.013C42.6479 37.3805 43.7329 37.2755 43.7854 37.2755L44.0479 37.258L44.0654 36.9955C44.0654 36.943 44.1704 35.858 43.8029 34.3705C44.3629 33.6705 44.8529 32.918 45.2904 32.1479C45.5704 31.6404 45.8329 31.0979 46.0604 30.5554C47.5479 26.9504 47.2504 23.9754 47.2329 23.8353L47.2154 23.5728L46.9529 23.5378C46.8304 23.5203 43.9429 23.2403 40.4078 24.6579C40.1278 24.4829 39.8303 24.3079 39.5328 24.1504C41.7903 23.1528 43.9254 22.8203 45.3779 22.7153ZM45.3779 34.668C45.4829 34.528 45.5879 34.388 45.6754 34.248C46.6204 36.8205 46.6379 39.043 46.6204 39.7955C45.8679 39.8305 43.6629 39.7955 41.0728 38.868C41.2128 38.7805 41.3353 38.693 41.4578 38.588C43.5229 38.8855 45.0454 38.588 45.1154 38.588L45.3254 38.553L45.3604 38.343C45.3954 38.2555 45.6754 36.7155 45.3779 34.668ZM34.3528 34.038C33.8278 33.3905 33.3553 32.6904 32.9352 31.9729C33.3378 31.2554 33.8103 30.5554 34.3353 29.9079L34.4403 29.7854L34.4053 29.6279C34.1428 28.5954 34.1078 27.7554 34.1253 27.3354C34.5453 27.3354 35.3853 27.3529 36.4178 27.6154L36.5753 27.6504L36.6978 27.5454C37.3628 27.0204 38.0628 26.5304 38.7978 26.1104C39.5328 26.5304 40.2328 27.0029 40.8803 27.5279L41.0028 27.6329L41.1603 27.5979C42.1929 27.3354 43.0329 27.3004 43.4354 27.3004C43.4354 27.7204 43.4179 28.5604 43.1554 29.5929L43.1204 29.7504L43.2254 29.8729C43.7504 30.5204 44.2229 31.2204 44.6429 31.9554C44.2229 32.6904 43.7504 33.3905 43.2254 34.0555L43.1204 34.178L43.1554 34.3355C43.4179 35.3505 43.4529 36.208 43.4529 36.628C43.0329 36.628 42.1929 36.6105 41.1778 36.3305L41.0203 36.2955L40.8978 36.4005C40.2503 36.9255 39.5503 37.398 38.8328 37.8005C38.0978 37.3805 37.3978 36.908 36.7503 36.383L36.6278 36.278L36.4703 36.313C35.4378 36.5755 34.5978 36.6105 34.1778 36.593C34.1603 36.173 34.1953 35.333 34.4578 34.3005L34.4928 34.143L34.3528 34.038ZM45.3779 25.6204L45.3429 25.4104L45.1329 25.3754C45.0629 25.3579 43.5404 25.0779 41.4753 25.3754C41.3528 25.2879 41.2128 25.1829 41.0728 25.0954C43.6629 24.1503 45.8504 24.1504 46.6029 24.1679C46.6379 24.9204 46.6204 27.1254 45.6754 29.6979C45.5879 29.5579 45.4829 29.4179 45.3779 29.2779C45.6754 27.2129 45.3954 25.6904 45.3779 25.6204ZM38.7628 23.7653C38.1678 23.4853 37.5903 23.2403 37.0128 23.0478C37.7478 21.9978 38.4478 21.3153 38.7803 21.0003C39.1128 21.3153 39.7953 21.9978 40.5303 23.0478C39.9528 23.2403 39.3753 23.4853 38.7628 23.7653ZM38.7803 18.9703C39.2878 19.3728 40.6703 20.6153 42.0003 22.5928C41.7378 22.6628 41.4578 22.7328 41.1778 22.8203C40.0578 21.1928 39.0253 20.3353 38.9903 20.3003L38.7803 20.1253L38.5703 20.3003C38.5178 20.3353 37.4853 21.1928 36.3653 22.8203C36.0853 22.7328 35.8053 22.6628 35.5428 22.5928C36.8903 20.6153 38.2903 19.3903 38.7803 18.9703ZM29.5402 22.7328C30.5377 22.6278 34.4753 22.4003 38.6228 24.4129C39.1653 24.6754 39.6903 24.9554 40.1803 25.2704C40.5303 25.4804 40.8803 25.7254 41.1778 25.9529L41.2828 26.0404L41.4053 26.0229C42.9629 25.7779 44.2579 25.9004 44.7479 25.9704C44.8179 26.4604 44.9404 27.7379 44.6954 29.3129L44.6779 29.4529L44.7654 29.5579C44.9754 29.8379 45.1679 30.1529 45.3604 30.4504C45.2379 30.7479 45.1154 31.0279 44.9579 31.3079C44.6079 30.7304 44.2229 30.1529 43.8029 29.6279C44.1529 28.1229 44.0654 27.0379 44.0654 27.0029L44.0479 26.7404L43.7679 26.7054C43.7154 26.7054 42.6479 26.6004 41.1428 26.9679C40.4428 26.4254 39.7078 25.9179 38.9378 25.4979C38.4128 25.2179 37.8703 24.9554 37.3103 24.7279C33.7053 23.2403 30.7302 23.5378 30.6077 23.5553L30.3452 23.5728L30.3102 23.8353C30.2927 23.9579 30.0127 26.8454 31.4302 30.3804C31.2552 30.6779 31.0802 30.9579 30.9227 31.2554C29.9427 28.9804 29.5927 26.8454 29.5052 25.3929C29.4352 24.1154 29.5052 23.1528 29.5402 22.7328ZM32.1477 29.2779C32.0602 29.4004 31.9727 29.5404 31.8852 29.6629C30.9402 27.0729 30.9402 24.8679 30.9577 24.1328C31.7102 24.0978 33.8978 24.1154 36.4878 25.0604C36.3478 25.1479 36.2078 25.2529 36.0853 25.3404C34.0203 25.0429 32.4802 25.3404 32.4102 25.3579L32.2002 25.3929L32.1477 25.6029C32.1477 25.6904 31.8502 27.2129 32.1477 29.2779ZM29.8552 33.723C28.8052 32.988 28.1052 32.3054 27.8077 31.9729C28.1227 31.6404 28.8052 30.9579 29.8552 30.2229C30.0477 30.8004 30.2927 31.3779 30.5727 31.9729C30.2927 32.5679 30.0477 33.163 29.8552 33.723ZM25.7777 31.9729C26.1802 31.4654 27.4227 30.0829 29.4002 28.7529C29.4702 29.0154 29.5402 29.2954 29.6277 29.5754C28.0002 30.6954 27.1427 31.7279 27.1077 31.7629L26.9327 31.9729L27.1077 32.1829C27.1427 32.2354 28.0002 33.2505 29.6452 34.388C29.5577 34.668 29.4877 34.948 29.4177 35.2105C27.4402 33.8805 26.1977 32.4804 25.7777 31.9729ZM32.1652 41.213C30.9052 41.3005 29.9602 41.248 29.5402 41.1955C29.5052 40.7755 29.4352 39.8305 29.5227 38.5705C29.6277 36.9955 30.0127 34.598 31.2027 32.1129C31.4652 31.5879 31.7452 31.0454 32.0602 30.5554C32.2702 30.2054 32.4977 29.8729 32.7252 29.5579L32.8127 29.4529L32.7952 29.3129C32.5502 27.7379 32.6902 26.4604 32.7602 25.9529C33.2502 25.8829 34.5278 25.7604 36.1028 25.9879L36.2253 26.0054L36.3303 25.9354C36.6103 25.7254 36.9078 25.5329 37.2053 25.3404C37.5028 25.4629 37.8003 25.6029 38.0978 25.7429C37.5028 26.0929 36.9253 26.4954 36.3828 26.9154C34.8778 26.5654 33.7928 26.6704 33.7403 26.6704L33.4778 26.7054L33.4428 26.9679C33.4428 27.0204 33.3378 28.1054 33.6878 29.6104C33.1452 30.2929 32.6552 31.0279 32.2352 31.7979C31.9377 32.3229 31.6752 32.8654 31.4477 33.4255C29.9777 37.0305 30.2402 40.0055 30.2577 40.128L30.2927 40.3905L30.5552 40.408C30.5902 40.408 30.8527 40.443 31.2902 40.443C32.3927 40.443 34.5978 40.2855 37.1178 39.288C37.3978 39.463 37.6778 39.6205 37.9578 39.7605C35.7703 40.7755 33.6178 41.108 32.1652 41.213ZM31.8852 34.2655C31.9727 34.388 32.0602 34.528 32.1477 34.6505C31.8502 36.7155 32.1477 38.2555 32.1652 38.3255L32.2177 38.5355L32.4277 38.5705C32.4977 38.588 34.0378 38.8855 36.1028 38.588C36.2428 38.6755 36.3653 38.7805 36.5053 38.868C33.9153 39.813 31.6927 39.8305 30.9402 39.813C30.9227 39.0605 30.9402 36.8555 31.8852 34.2655ZM38.7628 40.163C39.3578 40.443 39.9528 40.688 40.5303 40.8805C39.7953 41.9306 39.1128 42.6306 38.7803 42.9456C38.4478 42.6306 37.7653 41.9306 37.0128 40.863C37.5903 40.688 38.1853 40.443 38.7628 40.163ZM38.7803 44.9756C38.2728 44.5556 36.8728 43.3131 35.5603 41.318C35.8228 41.248 36.1028 41.178 36.3828 41.0905C37.5028 42.7356 38.5353 43.6106 38.5878 43.6456L38.7978 43.8206L39.0078 43.6456C39.0603 43.6106 40.0753 42.7356 41.1953 41.0905C41.4753 41.178 41.7378 41.248 42.0178 41.318C40.6878 43.2956 39.2878 44.5556 38.7803 44.9756ZM48.0029 41.1955C47.5654 41.2305 46.6379 41.3005 45.3779 41.213C43.8029 41.108 41.3878 40.723 38.9203 39.5155C38.3953 39.2705 37.8703 38.973 37.3803 38.6755C37.0303 38.4655 36.6978 38.2205 36.3653 37.993L36.2603 37.9055L36.1203 37.923C34.5453 38.168 33.2677 38.028 32.7602 37.958C32.6902 37.468 32.5502 36.173 32.7952 34.598L32.8127 34.458L32.7252 34.353C32.5327 34.073 32.3402 33.793 32.1477 33.4955C32.2702 33.198 32.4102 32.9005 32.5502 32.6029C32.9002 33.198 33.2853 33.758 33.7228 34.283C33.3728 35.788 33.4778 36.873 33.4778 36.9255L33.5128 37.188L33.7753 37.223C33.8278 37.223 34.9128 37.328 36.4178 36.9605C37.1178 37.503 37.8528 38.0105 38.6228 38.4305C39.1303 38.7105 39.6728 38.973 40.2153 39.183C42.8054 40.2505 45.0629 40.408 46.1829 40.408C46.6379 40.408 46.9004 40.3905 46.9354 40.373L47.1979 40.338L47.2329 40.0755C47.2504 39.953 47.5129 37.048 46.0954 33.513C46.2704 33.233 46.4279 32.953 46.5854 32.6729C47.5654 34.9305 47.8979 37.083 48.0029 38.518C48.1079 39.8305 48.0379 40.7755 48.0029 41.1955ZM48.1254 35.193C48.0554 34.9305 47.9854 34.6505 47.8979 34.388C49.5429 33.268 50.4179 32.2354 50.4529 32.1829L50.6279 31.9729L50.4529 31.7629C50.4179 31.7104 49.5429 30.6954 47.8979 29.5754C47.9854 29.2954 48.0554 29.0329 48.1254 28.7529C50.1029 30.0654 51.363 31.4654 51.783 31.9729C51.363 32.4804 50.1204 33.8805 48.1254 35.193Z" fill="#BA9653"/>
<path d="M60.3226 40.5828H58.6251V41.9128H60.0776V42.2979H58.5901C58.5901 42.2979 58.6251 42.4204 58.6251 42.5254V44.1354H58.2051V40.2153H60.4276L60.3226 40.5828Z" fill="#501C4B"/>
<path d="M61.6885 44.1704C61.251 44.1704 61.041 43.9429 61.041 43.4704V39.9004H61.461V43.4704C61.461 43.7154 61.531 43.8029 61.706 43.8029H61.916V44.1879H61.6885V44.1704Z" fill="#501C4B"/>
<path d="M63.3673 44.8879C63.2098 45.2904 62.9823 45.4304 62.4923 45.4304H62.1073V45.0454H62.4923C62.8248 45.0454 62.8948 44.9754 62.9998 44.6954L63.1923 44.1878L62.0723 41.1953H62.5098L63.3148 43.3478C63.3498 43.4353 63.3848 43.5928 63.4023 43.7153C63.4373 43.5753 63.4723 43.4353 63.5073 43.3478L64.3123 41.1953H64.7498L63.3673 44.8879Z" fill="#501C4B"/>
<path d="M67.6213 44.2053C67.1838 44.2053 66.8513 44.0478 66.8513 43.4003V41.7903C66.8513 41.6853 66.8863 41.6328 66.9038 41.5803H66.3613V41.2128H66.8688V40.2153L67.2888 40.0928V41.2128H68.3389L68.2164 41.5803H67.2888V43.4178C67.2888 43.7678 67.4463 43.8728 67.7613 43.8728C67.9013 43.8728 68.0588 43.8203 68.2339 43.7153L68.4964 43.9953C68.2689 44.1528 67.9188 44.2053 67.6213 44.2053Z" fill="#501C4B"/>
<path d="M70.9462 44.1354V42.2629C70.9462 41.6329 70.6837 41.4754 70.3337 41.4754C70.0887 41.4754 69.9137 41.5454 69.6512 41.7379L69.3712 41.9304V44.1354H68.9512V39.9004H69.3712V41.4054L69.3362 41.5979L69.5987 41.4054C69.8787 41.2129 70.1062 41.1079 70.3512 41.1079C70.9462 41.1079 71.3837 41.4229 71.3837 42.2279V44.1179H70.9462V44.1354Z" fill="#501C4B"/>
<path d="M72.416 42.7878C72.4335 43.5053 72.6435 43.8553 73.326 43.8553C73.746 43.8553 74.0085 43.7153 74.1485 43.4353L74.516 43.5753C74.3235 43.9778 73.991 44.2053 73.326 44.2053C72.3985 44.2053 71.9785 43.7328 71.9785 42.6653C71.9785 41.6853 72.311 41.1252 73.3435 41.1252C74.4285 41.1252 74.5685 41.8428 74.5685 42.6653V42.7878H72.416ZM73.3435 41.4752C72.766 41.4752 72.4685 41.7028 72.4335 42.4378H74.131C74.131 41.8428 73.991 41.4752 73.3435 41.4752Z" fill="#501C4B"/>
<path d="M78.5575 44.1353V42.2628C78.5575 41.6327 78.295 41.4752 77.945 41.4752C77.7 41.4752 77.5425 41.5452 77.2625 41.7378L76.9825 41.9303V44.1353H76.5625V41.2127H76.895L76.9825 41.5627L77.1925 41.4227C77.4725 41.2302 77.7 41.1252 77.945 41.1252C78.54 41.1252 78.9775 41.4402 78.9775 42.2453V44.1353H78.5575Z" fill="#501C4B"/>
<path d="M80.043 42.7878C80.0605 43.5053 80.2705 43.8553 80.953 43.8553C81.373 43.8553 81.6355 43.7153 81.7755 43.4353L82.143 43.5753C81.9505 43.9778 81.6005 44.2053 80.953 44.2053C80.0255 44.2053 79.6055 43.7328 79.6055 42.6653C79.6055 41.6853 79.938 41.1252 80.9705 41.1252C82.0555 41.1252 82.213 41.8428 82.213 42.6653V42.7878H80.043ZM80.953 41.4752C80.393 41.4752 80.078 41.7028 80.043 42.4378H81.7405C81.7405 41.8428 81.6005 41.4752 80.953 41.4752Z" fill="#501C4B"/>
<path d="M85.611 44.1354H85.191L84.596 42.1929C84.5435 42.0004 84.491 41.6504 84.491 41.6504C84.491 41.6504 84.456 42.0179 84.4035 42.1929L83.791 44.1354H83.3709L82.4609 41.2129H82.8809L83.476 43.2079C83.5285 43.3654 83.5809 43.7504 83.5809 43.7504C83.5809 43.7504 83.6335 43.3829 83.686 43.2079L84.2985 41.2129H84.701L85.3135 43.2079C85.366 43.3829 85.401 43.7504 85.401 43.7504C85.401 43.7504 85.471 43.3654 85.506 43.2079L86.1185 41.2129H86.5385L85.611 44.1354Z" fill="#501C4B"/>
<path d="M90.2135 40.3381C90.1085 40.3206 90.021 40.3031 89.951 40.2856C89.8635 40.2681 89.776 40.2506 89.636 40.2506C89.321 40.2506 89.041 40.4081 89.041 40.8806V41.1956H90.0385L89.951 41.5631H89.041V44.1181H88.621V41.8081C88.621 41.7206 88.6385 41.6506 88.6735 41.5631H88.166V41.1956H88.621V40.8806C88.621 40.2156 89.041 39.8831 89.636 39.8831C89.916 39.8831 90.0385 39.9181 90.301 39.9531L90.2135 40.3381Z" fill="#501C4B"/>
<path d="M90.7382 42.7878C90.7557 43.5053 90.9657 43.8553 91.6482 43.8553C92.0682 43.8553 92.3307 43.7153 92.4707 43.4353L92.8382 43.5753C92.6457 43.9778 92.2957 44.2053 91.6482 44.2053C90.7207 44.2053 90.2832 43.7328 90.2832 42.6653C90.2832 41.6853 90.6157 41.1252 91.6482 41.1252C92.7332 41.1252 92.8907 41.8428 92.8907 42.6653V42.7878H90.7382ZM91.6657 41.4752C91.0882 41.4752 90.7907 41.7028 90.7557 42.4378H92.4532C92.4532 41.8428 92.3132 41.4752 91.6657 41.4752Z" fill="#501C4B"/>
<path d="M93.873 42.7878C93.8905 43.5053 94.1005 43.8553 94.783 43.8553C95.203 43.8553 95.4655 43.7153 95.6055 43.4353L95.973 43.5753C95.7805 43.9778 95.448 44.2053 94.783 44.2053C93.838 44.2053 93.418 43.7328 93.418 42.6653C93.418 41.6853 93.7505 41.1252 94.783 41.1252C95.868 41.1252 96.0255 41.8428 96.0255 42.6653V42.7878H93.873ZM94.783 41.4752C94.2055 41.4752 93.908 41.7028 93.873 42.4378H95.588C95.5705 41.8428 95.4305 41.4752 94.783 41.4752Z" fill="#501C4B"/>
<path d="M97.3018 44.1704C96.8818 44.1704 96.6543 43.9429 96.6543 43.4704V39.9004H97.0743V43.4704C97.0743 43.7154 97.1443 43.8029 97.3193 43.8029H97.5293V44.1879H97.3018V44.1704Z" fill="#501C4B"/>
<path d="M98.4354 40.4081H97.9979L97.9629 40.3556V39.9356L97.9979 39.8831H98.4354L98.4704 39.9356V40.3556L98.4354 40.4081ZM97.9979 41.2131H98.4179V44.1356H97.9979V41.2131Z" fill="#501C4B"/>
<path d="M101.186 44.1353V42.2628C101.186 41.6327 100.924 41.4752 100.574 41.4752C100.329 41.4752 100.154 41.5452 99.8914 41.7378L99.6114 41.9303V44.1353H99.1914V41.2127H99.5239L99.6114 41.5627L99.8214 41.4227C100.101 41.2302 100.329 41.1252 100.574 41.1252C101.169 41.1252 101.606 41.4402 101.606 42.2453V44.1353H101.186Z" fill="#501C4B"/>
<path d="M104.966 41.5279H104.756C104.703 41.5279 104.598 41.5279 104.493 41.4929C104.668 41.6854 104.738 41.9479 104.738 42.1404C104.738 42.8229 104.353 43.1379 103.548 43.1379C103.408 43.1379 103.338 43.1204 103.216 43.1029L103.006 43.0679C102.831 43.0679 102.761 43.1729 102.761 43.2954C102.761 43.4004 102.831 43.4704 102.971 43.4879L104.178 43.6979C104.808 43.8029 104.948 44.1354 104.948 44.503C104.948 45.203 104.336 45.413 103.548 45.413C102.901 45.413 102.148 45.2905 102.148 44.4329C102.148 44.0829 102.323 43.8379 102.568 43.6629C102.463 43.5754 102.393 43.4704 102.393 43.2779C102.393 43.0854 102.498 42.9629 102.691 42.8579C102.463 42.6479 102.376 42.4204 102.376 42.1229C102.376 41.3879 102.936 41.1079 103.566 41.1079C103.863 41.1079 104.108 41.1429 104.336 41.2829L104.791 41.1079H105.088L104.966 41.5279ZM104.091 44.0654L102.848 43.8379C102.656 43.9604 102.568 44.1879 102.568 44.4504C102.568 44.9405 102.901 45.098 103.531 45.098C104.248 45.098 104.493 44.8705 104.493 44.5204C104.476 44.2579 104.371 44.1179 104.091 44.0654ZM103.513 41.4579C103.041 41.4579 102.743 41.6504 102.743 42.1404C102.743 42.6654 103.076 42.7879 103.513 42.7879C103.986 42.7879 104.283 42.6479 104.283 42.1404C104.283 41.7029 104.021 41.4579 103.513 41.4579Z" fill="#501C4B"/>
<path d="M56.155 27.5798H57.87C58.08 27.5798 58.15 27.7198 58.1675 27.7548C59.0775 29.4523 62.175 34.9648 62.175 34.9648C62.175 34.9648 65.3251 29.4348 66.2526 27.7373C66.2876 27.6848 66.3401 27.5623 66.5326 27.5623H67.4076C67.5476 27.5623 67.6176 27.7198 67.5476 27.8248C66.4801 29.6973 63.5225 34.8423 62.8925 35.9624C62.8225 36.1024 62.735 36.1724 62.5775 36.1724H60.95C60.7925 36.1724 60.6875 36.0674 60.6175 35.9448C59.9875 34.8423 57.0475 29.7148 55.98 27.8598C55.98 27.7898 55.91 27.5798 56.155 27.5798Z" fill="#501C4B"/>
<path d="M82.0395 29.0677C81.5845 28.8227 80.2195 28.1052 78.137 28.1052C75.8795 28.1052 75.4419 29.0677 75.4419 29.7502C75.4419 30.6078 76.3345 30.8528 77.367 30.9228C77.997 30.9753 79.5895 31.0453 80.447 31.2028C82.4945 31.5703 83.037 32.7253 83.037 33.6528C83.037 35.5953 80.7795 36.4178 78.0495 36.4178C75.7394 36.4178 74.0769 35.6828 73.4119 35.3153C73.2894 35.2453 73.2894 35.0878 73.3419 34.9828C73.5169 34.6678 73.4644 34.7728 73.6044 34.5103C73.6744 34.3703 73.7969 34.3528 73.9194 34.4228C74.4619 34.7728 76.1944 35.6128 78.067 35.6128C79.992 35.6128 81.0245 34.7728 81.0245 33.9328C81.0245 33.2328 80.762 32.7953 79.3095 32.5853C78.5395 32.4803 76.8245 32.4803 75.9495 32.2703C75.0744 32.0778 73.5519 31.6578 73.5519 29.9602C73.5519 29.0152 74.3044 27.2827 78.242 27.2827C80.3945 27.2827 81.8295 27.8602 82.547 28.2277C82.6695 28.2977 82.7045 28.4027 82.6345 28.5252C82.512 28.7177 82.477 28.8052 82.3545 28.9977C82.267 29.1027 82.1445 29.1202 82.0395 29.0677Z" fill="#501C4B"/>
<path d="M70.9613 27.5801H69.5613C69.4213 27.5801 69.2988 27.7026 69.2988 27.8426V35.8927C69.2988 36.0502 69.4213 36.1902 69.5613 36.1902H70.9613C71.1013 36.1902 71.2239 36.0502 71.2239 35.8927V27.8426C71.2239 27.7026 71.1013 27.5801 70.9613 27.5801Z" fill="#501C4B"/>
<path d="M91.3349 35.7352C91.2124 35.3852 91.2649 35.5252 91.1599 35.2102C91.1074 35.0352 90.9499 35.0702 90.8799 35.0877C90.3199 35.3152 89.5499 35.5077 89.0074 35.5077C87.6249 35.5077 86.8199 34.9127 86.8199 33.6702V28.6651H90.7049C90.8624 28.6651 91.0024 28.5426 91.0024 28.4026V28.0001C91.0024 27.8426 90.8624 27.7376 90.7049 27.7376H86.8199V25.6551C86.8199 25.4626 86.6449 25.3926 86.5224 25.4451C86.1899 25.5501 85.5598 25.7601 85.2098 25.8651C85.0873 25.9001 84.9648 26.0051 84.9648 26.1976V33.2152C84.9648 34.9652 85.9799 36.3827 88.7274 36.3827C89.6899 36.3827 90.5999 36.1727 91.1774 35.9977C91.2649 35.9802 91.4049 35.9102 91.3349 35.7352Z" fill="#501C4B"/>
<path d="M114.539 35.7873C113.559 35.0348 111.354 33.3723 111.091 33.1623C112.649 33.1623 114.486 32.2698 114.486 30.3098C114.486 28.1573 112.386 27.5623 111.406 27.5623H105.054C104.914 27.5623 104.791 27.6848 104.791 27.8598V35.8749C104.791 36.0324 104.914 36.1724 105.054 36.1724H106.401C106.541 36.1724 106.664 36.0324 106.664 35.8749V33.2323H108.746C108.746 33.2323 111.126 35.1573 111.949 35.8399C112.019 35.9099 112.316 36.1549 112.631 36.1549H114.486C114.626 36.1899 114.766 35.9624 114.539 35.7873ZM106.681 32.4273V28.4373H110.654C111.914 28.4373 112.474 29.4523 112.474 30.3448C112.474 31.3423 111.984 32.4273 110.374 32.4273H106.681Z" fill="#501C4B"/>
<path d="M102.551 31.1151V31.0451C102.551 30.5026 102.411 29.2601 101.361 28.4025C100.993 28.105 99.8732 27.405 97.7032 27.405C95.9007 27.405 94.5356 27.86 93.2056 28.56C93.0831 28.6125 93.0481 28.735 93.1006 28.84C93.2581 29.1901 93.2231 29.1551 93.3281 29.3651C93.3806 29.4876 93.4856 29.5226 93.6256 29.4351C94.2906 29.05 95.7957 28.2625 97.4932 28.2625C99.5582 28.2625 100.678 29.2076 100.678 30.5026V31.5001C99.9432 31.3076 98.5782 31.0101 97.1957 31.0101C93.6781 31.0101 92.4531 32.2876 92.4531 33.7576C92.4531 35.8926 94.5706 36.4176 96.4432 36.4176C98.0532 36.4176 99.5057 36.0501 100.643 35.1926H100.678C100.678 35.5951 100.678 35.9101 100.678 35.9101C100.678 36.0676 100.801 36.2076 100.941 36.2076H102.271C102.428 36.2076 102.533 36.0676 102.533 35.9101L102.551 31.1151ZM96.8107 35.5426C94.9207 35.5426 94.4306 34.5801 94.4306 33.6526C94.4306 32.0951 96.3032 31.7976 97.4757 31.7976C98.8057 31.7976 99.9607 32.0426 100.678 32.2176V34.3526C99.9257 34.8601 98.7532 35.5426 96.8107 35.5426Z" fill="#501C4B"/>
<path d="M126.123 31.1151V31.0451C126.123 30.5026 126 29.2601 124.933 28.4025C124.565 28.105 123.463 27.405 121.293 27.405C119.49 27.405 118.125 27.86 116.795 28.56C116.673 28.6125 116.655 28.735 116.69 28.84C116.848 29.1901 116.813 29.1551 116.918 29.3651C116.97 29.4876 117.075 29.5226 117.215 29.4351C117.88 29.05 119.385 28.2625 121.065 28.2625C123.13 28.2625 124.25 29.2076 124.25 30.5026V31.5001C123.515 31.3076 122.15 31.0101 120.785 31.0101C117.25 31.0101 116.025 32.2876 116.025 33.7576C116.025 35.8926 118.143 36.4176 120.033 36.4176C121.643 36.4176 123.078 36.0501 124.233 35.1926H124.268C124.268 35.5951 124.268 35.9101 124.268 35.9101C124.268 36.0676 124.39 36.2076 124.548 36.2076H125.878C126.018 36.2076 126.141 36.0676 126.141 35.9101V31.1151H126.123ZM120.383 35.5426C118.493 35.5426 118.003 34.5801 118.003 33.6526C118.003 32.0951 119.875 31.7976 121.048 31.7976C122.378 31.7976 123.515 32.0426 124.25 32.2176V34.3526C123.48 34.8601 122.308 35.5426 120.383 35.5426Z" fill="#501C4B"/>
<path d="M106.453 25.06L106.243 24.465H105.421L105.211 25.06H104.756L105.613 22.6975H106.068L106.926 25.06H106.453ZM105.876 23.3975L105.841 23.205L105.788 23.3975L105.543 24.0975H106.121L105.876 23.3975Z" fill="#501C4B"/>
<path d="M108.659 23.065V25.06H108.222V23.065H107.539V22.6975H109.324V23.065H108.659Z" fill="#501C4B"/>
<path d="M110.951 25.06L110.741 24.465H109.919L109.709 25.06H109.254L110.111 22.6975H110.566L111.424 25.06H110.951ZM110.391 23.3975L110.339 23.205L110.286 23.3975L110.041 24.0975H110.619L110.391 23.3975Z" fill="#501C4B"/>
<path d="M112.474 23.065V25.06H112.036V23.065H111.354V22.6975H113.156V23.065H112.474Z" fill="#501C4B"/>
<path d="M114.785 25.06L114.575 24.465H113.753L113.543 25.06H113.088L113.945 22.6975H114.4L115.258 25.06H114.785ZM114.225 23.3975L114.173 23.205L114.12 23.3975L113.875 24.0975H114.453L114.225 23.3975Z" fill="#501C4B"/>
<path d="M117.059 25.113C116.569 25.113 116.341 24.8855 116.184 24.6405L116.551 24.4479C116.656 24.6055 116.814 24.728 117.059 24.728C117.426 24.728 117.531 24.5705 117.531 24.3604C117.531 24.2029 117.461 24.0979 117.251 24.0629L116.761 23.9754C116.429 23.9229 116.201 23.7479 116.201 23.3104C116.201 22.9779 116.429 22.6279 117.059 22.6279C117.549 22.6279 117.759 22.8029 117.916 23.0479L117.549 23.2404C117.444 23.0829 117.304 23.0129 117.059 23.0129C116.744 23.0129 116.639 23.1354 116.639 23.3104C116.639 23.4854 116.691 23.5379 116.866 23.5554L117.339 23.6254C117.689 23.6779 117.986 23.8704 117.986 24.3429C117.969 24.798 117.706 25.113 117.059 25.113Z" fill="#501C4B"/>
<path d="M118.773 22.6975H118.336V25.06H118.773V22.6975Z" fill="#501C4B"/>
<path d="M120.926 25.06L120.716 24.465H119.894L119.684 25.06H119.229L120.086 22.6975H120.541L121.399 25.06H120.926ZM120.349 23.3975L120.296 23.205L120.244 23.3975L119.999 24.0975H120.576L120.349 23.3975Z" fill="#501C4B"/>
<path d="M122.869 25.1126C122.694 25.1126 122.484 25.0776 122.309 24.9201L122.501 24.6401C122.624 24.7626 122.746 24.7626 122.851 24.7626C123.044 24.7626 123.114 24.6576 123.114 24.3776V22.7151H123.551V24.3776C123.551 24.9026 123.289 25.1126 122.869 25.1126Z" fill="#501C4B"/>
<path d="M125.303 25.06H124.865L124.008 22.6975H124.48L125.04 24.36L125.093 24.5525L125.128 24.36L125.705 22.6975H126.16L125.303 25.06Z" fill="#501C4B"/>
<path d="M128.835 27.4397C129.027 27.4397 129.202 27.4922 129.395 27.5797C129.57 27.6672 129.71 27.8072 129.815 27.9997C129.92 28.1747 129.972 28.3672 129.972 28.5597C129.972 28.7522 129.92 28.9447 129.832 29.1197C129.727 29.2947 129.587 29.4347 129.412 29.5397C129.237 29.6447 129.045 29.6972 128.852 29.6972C128.66 29.6972 128.467 29.6447 128.292 29.5397C128.117 29.4347 127.977 29.2947 127.872 29.1197C127.767 28.9447 127.715 28.7522 127.715 28.5597C127.715 28.3672 127.767 28.1747 127.872 27.9997C127.977 27.8247 128.117 27.6847 128.292 27.5797C128.467 27.4922 128.642 27.4397 128.835 27.4397ZM128.835 27.6322C128.677 27.6322 128.52 27.6672 128.38 27.7547C128.222 27.8422 128.117 27.9472 128.03 28.1047C127.942 28.2622 127.907 28.4197 127.907 28.5772C127.907 28.7347 127.942 28.8922 128.03 29.0497C128.117 29.2072 128.222 29.3122 128.38 29.3997C128.52 29.4872 128.677 29.5222 128.852 29.5222C129.01 29.5222 129.167 29.4872 129.325 29.3997C129.465 29.3122 129.587 29.2072 129.675 29.0497C129.762 28.9097 129.797 28.7522 129.797 28.5772C129.797 28.4197 129.762 28.2622 129.675 28.1047C129.587 27.9472 129.465 27.8422 129.325 27.7547C129.15 27.6672 128.992 27.6322 128.835 27.6322ZM128.345 29.1897V27.9822H128.765C128.905 27.9822 129.01 27.9997 129.08 28.0172L129.237 28.1397L129.29 28.3147C129.29 28.4022 129.255 28.4722 129.202 28.5422C129.132 28.6122 129.062 28.6472 128.957 28.6472L129.062 28.7172C129.115 28.7697 129.167 28.8397 129.237 28.9622L129.377 29.2072H129.115L129.01 29.0147C128.922 28.8572 128.852 28.7697 128.8 28.7347L128.642 28.6997H128.52V29.2247H128.345V29.1897ZM128.537 28.5072H128.782C128.887 28.5072 128.975 28.4897 129.01 28.4547L129.062 28.3147L129.027 28.2097L128.94 28.1397C128.905 28.1222 128.835 28.1222 128.747 28.1222H128.52L128.537 28.5072Z" fill="#501C4B"/>
</svg>
