<svg width="153" height="52" viewBox="0 0 153 52" fill="none" xmlns="http://www.w3.org/2000/svg">
<path d="M22.36 3.72C22.39 3.66 22.42 3.57 22.48 3.51C22.69 3.3 23.08 3.3 23.29 3.51C23.5 3.72 23.53 4.02 23.38 4.23V4.26L23.14 4.74L22.75 5.55C31.93 4.08 41.44 2.82 45.61 3.03C46.03 3.06 46.39 3.09 46.69 3.15C47.02 3.21 47.32 3.27 47.53 3.36C47.8 3.48 47.98 3.63 48.13 3.81C48.31 4.05 48.37 4.29 48.28 4.59C48.22 4.92 47.92 5.1 47.59 5.04C47.32 4.98 47.14 4.74 47.14 4.47L47.08 4.44C46.93 4.38 46.75 4.35 46.51 4.29C46.24 4.26 45.91 4.23 45.55 4.2C41.35 3.96 31.48 5.31 22.12 6.84C19.84 11.49 14.98 21.51 10.93 30.24C10.15 31.95 9.4 33.6 8.71 35.16C8.47 36 6.49 43.02 5.35 45.12C5.2 45.42 5.05 45.66 4.9 45.81C4.51 46.14 4.18 46.17 3.82 45.81C3.58 45.6 3.55 45.24 3.64 44.73C3.7 44.43 3.82 43.98 4 43.44C4.63 41.58 5.95 38.46 7.6 34.74C7.63 34.71 7.66 34.65 7.69 34.59C8.38 33.06 9.1 31.44 9.88 29.76C13.69 21.51 18.31 12 20.71 7.05C10.33 8.76 0.91 10.59 0.88 10.59C0.55 10.65 0.25 10.44 0.19 10.14C0.13 9.81 0.34 9.51 0.64 9.45C0.7 9.45 10.63 7.53 21.34 5.79C21.67 5.1 21.91 4.59 22.09 4.23L22.33 3.75L22.36 3.72ZM25.8189 14.37C25.6989 14.19 25.6989 13.95 25.8189 13.77L26.9889 11.97C29.4789 6.9 31.4589 3.09 32.4489 2.94C32.8089 2.94 32.9589 3.45 32.7789 4.02C32.2389 5.88 29.6889 9.69 28.1889 12.18L28.0389 12.48C24.9489 18.75 21.3789 26.49 20.5089 28.77C19.9389 30.3 19.3389 31.83 18.7389 33.36C19.4589 32.58 20.4789 31.29 21.6189 29.91C24.1989 26.79 27.2289 23.07 28.3989 22.8C28.9689 22.68 29.2989 22.89 29.4189 23.4C29.5689 24.12 28.9689 25.68 28.2789 27.48C27.3489 29.91 26.5389 32.55 27.0789 32.91C28.6089 33.93 35.6589 26.97 35.6889 26.94C35.9289 26.73 36.1989 26.64 36.4989 26.88C36.7089 27.12 36.5589 27.57 36.3189 27.78C36.3189 27.78 32.5089 32.31 29.1489 33.84C27.9489 34.35 26.8089 34.47 26.2089 34.11C24.7689 33.27 26.0889 29.91 27.1989 27.06C27.6489 25.89 28.0389 24.84 28.2189 24.21C27.0789 25.11 24.6189 28.08 22.5189 30.66C21.1989 32.25 19.9989 33.72 19.2789 34.47C19.0689 34.68 18.8889 34.83 18.7689 34.95C18.4689 35.16 18.1989 35.25 17.9589 35.13C17.9289 35.13 17.8989 35.13 17.8689 35.1C17.1489 34.68 17.5689 33.03 18.1689 31.44C20.2689 25.71 23.1789 19.83 25.8189 14.37ZM35.965 28.83C36.415 28.89 37.285 28.74 38.485 27.51C39.715 26.31 40.285 25.23 40.405 24.51C40.435 24.36 40.435 24.24 40.435 24.15C40.105 24.18 39.445 24.63 38.605 25.38C37.825 26.1 36.955 27.09 36.295 28.26C36.175 28.44 36.055 28.65 35.965 28.83ZM39.325 28.35C37.555 30.09 36.175 30.09 35.455 29.88C35.185 30.51 35.005 31.11 34.915 31.62C34.825 32.1 34.825 32.49 34.915 32.79C34.975 33.06 35.095 33.24 35.275 33.36C35.395 33.42 35.515 33.45 35.665 33.48C37.495 33.81 45.505 26.97 45.535 26.94C45.835 26.61 46.195 26.64 46.405 26.88C46.615 27.15 46.585 27.51 46.165 27.81C46.135 27.81 37.855 35.04 35.485 34.62C35.185 34.59 34.915 34.5 34.705 34.35C34.225 34.08 33.925 33.63 33.775 33.09C33.655 32.61 33.655 32.04 33.775 31.44C33.955 30.3 34.525 28.98 35.275 27.69C36.025 26.4 36.955 25.32 37.825 24.51C38.995 23.46 40.165 22.89 40.735 23.01C40.945 23.04 41.125 23.13 41.245 23.28C41.425 23.46 41.545 23.67 41.575 23.97C41.605 24.18 41.605 24.45 41.545 24.75C41.395 25.65 40.705 26.97 39.325 28.35ZM60.5373 9.27C60.6873 9 61.0173 8.88 61.3173 9.06C61.6173 9.21 61.7073 9.57 61.5573 9.84C61.5573 9.9 56.0073 20.46 51.1773 30C52.9473 30.66 54.8073 30.69 56.6373 30.3C58.9173 29.79 61.1373 28.59 63.1173 26.97C65.0973 25.32 66.8673 23.25 68.1573 21C70.1673 17.58 71.1273 13.8 70.3473 10.71C69.4473 7.26 67.0773 5.37 64.0773 4.77C62.2173 4.38 60.1173 4.5 57.9573 5.04C55.7973 5.55 53.5773 6.51 51.5373 7.8C46.0173 11.37 41.7273 17.52 42.7473 24.93C42.7773 25.05 42.8073 25.14 42.8673 25.2C42.8973 25.26 42.9273 25.29 42.9573 25.32C42.9873 25.32 43.0173 25.32 43.0473 25.32C43.0773 25.32 43.0773 25.32 43.0773 25.32C43.3473 25.14 43.7073 25.2 43.8873 25.47C44.0673 25.74 44.0073 26.1 43.7373 26.28C43.5873 26.4 43.4073 26.46 43.2273 26.49C42.9873 26.49 42.7473 26.46 42.5073 26.34C42.2973 26.25 42.0873 26.07 41.9073 25.86C41.7573 25.62 41.6673 25.35 41.6073 25.02C40.4973 17.13 45.0273 10.59 50.9073 6.84C53.0373 5.46 55.3473 4.44 57.6573 3.9C59.9373 3.33 62.2173 3.21 64.2573 3.63C67.7073 4.32 70.4673 6.48 71.4573 10.47C72.3273 13.86 71.3073 17.94 69.1773 21.63C67.7973 23.97 65.9673 26.13 63.8673 27.87C61.7673 29.61 59.3673 30.9 56.9073 31.44C54.8373 31.89 52.7073 31.83 50.6373 31.05C49.4073 33.54 48.2073 35.91 47.1873 38.01C47.2173 38.25 47.2173 38.55 47.1873 38.85C47.0973 39.48 46.8873 40.23 46.5873 41.01C46.0173 42.6 45.1473 44.28 44.5473 45C44.3973 45.18 44.2473 45.3 44.0973 45.39C43.9773 45.45 43.8573 45.48 43.7373 45.51C43.5873 45.51 43.4373 45.48 43.3173 45.39C43.2873 45.36 43.2573 45.36 43.2273 45.33C43.1673 45.27 43.1073 45.21 43.0773 45.12C42.9273 44.88 42.9873 44.49 43.1673 43.98C43.2873 43.59 43.5273 43.08 43.7973 42.45C44.3073 41.31 45.0273 39.75 45.8973 37.98C45.7173 37.83 45.6273 37.62 45.6873 37.41C45.7473 37.08 46.0473 36.9 46.3473 36.96H46.3773C47.3373 35.04 48.4173 32.85 49.5573 30.57C49.3173 30.45 49.0773 30.3 48.8073 30.15C48.5373 29.97 48.4473 29.61 48.5973 29.34C48.7473 29.07 49.1073 28.98 49.4073 29.16C49.6173 29.31 49.8573 29.43 50.0973 29.55C54.9273 19.95 60.5073 9.33 60.5373 9.27ZM71.5792 23.16C71.7592 22.89 72.1192 22.8 72.3892 22.98C72.6592 23.16 72.7192 23.52 72.5392 23.79C72.5392 23.82 68.9392 29.1 68.7592 31.89C68.7292 32.19 68.7592 32.46 68.8492 32.67C68.9092 32.82 68.9992 32.91 69.1192 33C71.4292 34.2 78.8392 26.94 78.8692 26.91C79.0792 26.7 79.4692 26.7 79.6792 26.94C79.9192 27.15 79.8892 27.54 79.6792 27.75C79.6492 27.78 71.6392 35.61 68.5792 34.02C68.1892 33.81 67.9192 33.51 67.7692 33.12C67.6192 32.73 67.5592 32.31 67.5892 31.83C67.7992 28.71 71.5792 23.16 71.5792 23.16ZM74.2192 18.24C74.6992 18.24 75.0592 18.63 75.0592 19.08C75.0592 19.56 74.6992 19.92 74.2192 19.92C73.7692 19.92 73.3792 19.56 73.3792 19.08C73.3792 18.63 73.7692 18.24 74.2192 18.24ZM86.3793 14.97C86.3193 15.03 86.2593 15.09 86.2293 15.12C85.7793 15.96 85.3593 16.83 84.9393 17.7C84.1893 19.14 83.4993 20.55 82.8693 21.84C81.0993 25.26 79.8093 28.23 79.2693 30.39C78.8193 32.22 78.8793 33.39 79.7193 33.57C81.8493 34.08 88.2693 27.15 88.2993 27.12C88.5093 26.88 88.8993 26.88 89.1093 27.09C89.3493 27.33 89.3793 27.69 89.1393 27.93C89.1393 27.93 82.2393 35.37 79.4493 34.71C77.7993 34.32 77.4993 32.67 78.1593 30.09C78.6993 27.84 80.0193 24.81 81.8193 21.3C82.4493 20.04 83.1693 18.63 83.8893 17.19C85.9893 12.96 88.2393 8.4 89.8893 5.79C90.9993 4.05 91.9593 3.15 92.6793 3.6C93.0993 3.87 93.1893 4.35 92.9793 5.01C92.8593 5.46 92.5893 6 92.2593 6.6C90.4893 9.75 86.3793 14.97 86.3793 14.97ZM89.4993 8.76C90.1593 7.8 90.7893 6.84 91.2393 6.03C91.4193 5.7 91.5693 5.4 91.6893 5.16C91.4793 5.46 91.2093 5.88 90.8793 6.42C90.4593 7.08 90.0093 7.89 89.4993 8.76ZM92.0493 4.59C92.0793 4.59 92.1093 4.59 92.0793 4.59C92.0493 4.59 92.0493 4.59 92.0493 4.59ZM92.3029 24.96C92.1229 26.55 92.1529 27.66 92.4229 28.32C92.5129 27.99 92.5429 27.6 92.6029 27.21C92.6929 26.1 92.5129 25.41 92.3029 24.96ZM91.9729 29.73C91.7329 29.52 91.5529 29.22 91.4029 28.89C91.0429 28.05 90.9229 26.76 91.1329 24.96C90.4429 25.68 89.6329 26.76 88.9429 28.23C88.1929 29.79 87.9229 31.05 87.9829 31.89C88.0129 32.19 88.0729 32.46 88.1629 32.64C88.2529 32.76 88.3429 32.85 88.4329 32.91C88.4929 32.94 88.5829 32.94 88.6729 32.94C89.3029 32.88 90.3529 32.22 91.2529 30.99C91.5229 30.63 91.7629 30.18 91.9729 29.73ZM92.1529 22.62C92.4529 22.47 92.8129 22.56 92.9629 22.86C93.1129 23.13 93.0229 23.46 92.7529 23.64C93.3529 24.21 93.9229 25.29 93.7429 27.3C93.7129 27.9 93.5929 28.47 93.4429 28.98C94.1029 28.86 94.9129 28.41 95.9029 27.63C98.6929 25.47 102.473 21.06 106.463 15.6C97.7029 16.2 89.8429 16.98 89.8129 16.98C89.4829 17.01 89.2129 16.8 89.1829 16.47C89.1529 16.14 89.3629 15.87 89.6929 15.84C89.7529 15.84 98.1829 15 107.333 14.37C107.633 13.98 107.903 13.59 108.173 13.17L108.203 13.14V13.11C108.893 11.82 109.523 10.62 110.123 9.48C111.413 7.05 112.523 5.04 113.333 3.63C113.573 3.24 114.743 0.899998 115.493 1.26C115.613 1.32 115.733 1.44 115.793 1.59C116.123 2.52 111.983 9.3 110.093 12.3L110.183 12.33C109.853 12.84 109.523 13.29 109.193 13.77L108.923 14.25C117.263 13.71 125.873 13.38 129.023 14.07C129.353 14.13 129.653 14.22 129.863 14.31C130.163 14.43 130.373 14.58 130.493 14.73C130.583 14.82 130.643 14.94 130.673 15.03C130.703 15.15 130.733 15.27 130.703 15.39C130.703 15.69 130.433 15.93 130.103 15.93C129.833 15.9 129.593 15.72 129.563 15.45C129.533 15.42 129.473 15.39 129.413 15.39C129.263 15.3 129.053 15.24 128.783 15.18C125.633 14.52 116.783 14.88 108.293 15.45C101.933 27.81 93.7129 44.97 93.2629 50.01C93.2629 50.31 93.2629 50.55 93.2929 50.73C93.2929 50.82 93.3229 50.88 93.3529 50.91C93.5629 51.12 93.5629 51.51 93.3529 51.72C93.1129 51.96 92.7529 51.96 92.5129 51.72C92.3329 51.54 92.1829 51.27 92.1229 50.91C92.0929 50.64 92.0929 50.31 92.1229 49.92C92.5429 45.33 98.9929 31.35 104.903 19.56C101.783 23.58 98.9029 26.79 96.6229 28.56C95.4829 29.46 94.4629 30 93.6229 30.12C93.4129 30.15 93.2329 30.18 93.0529 30.15C92.8129 30.72 92.5129 31.23 92.1829 31.68C91.1029 33.21 89.6629 34.02 88.7629 34.11C88.4629 34.11 88.1929 34.08 87.9229 33.96C87.5929 33.81 87.3229 33.54 87.1429 33.18C86.9629 32.85 86.8729 32.46 86.8429 31.98C86.7529 30.93 87.0229 29.49 87.8629 27.72C88.8829 25.65 90.1129 24.27 90.9829 23.49C91.0429 23.19 91.3129 23.01 91.5829 23.01C91.9429 22.74 92.1529 22.62 92.1529 22.62ZM111.163 30.57C111.163 30.54 111.823 29.82 112.093 29.88C112.453 29.97 112.423 30.87 112.363 31.26C112.273 31.89 111.193 33.6 110.593 32.82C109.993 32.07 111.163 30.57 111.163 30.57ZM138.044 4.41C138.194 4.11 138.554 4.02 138.824 4.17C139.094 4.32 139.214 4.68 139.064 4.95L138.584 5.79C142.184 5.46 145.394 5.34 146.834 5.7C147.164 5.76 147.434 5.88 147.614 6.03C147.914 6.24 148.034 6.54 148.004 6.87C147.974 7.2 147.704 7.44 147.374 7.41C147.104 7.38 146.894 7.17 146.864 6.93C146.774 6.9 146.684 6.84 146.564 6.81C145.124 6.48 141.704 6.63 137.954 7.02C134.924 12.6 126.524 28.2 121.754 37.86C121.724 38.1 121.454 39.06 121.124 40.26C126.254 39.69 131.354 39.33 133.334 39.84H133.364C133.724 39.93 133.994 40.05 134.204 40.2C134.504 40.44 134.624 40.74 134.594 41.1C134.564 41.4 134.294 41.64 133.964 41.61C133.694 41.58 133.484 41.37 133.454 41.1C133.364 41.07 133.244 41.01 133.094 40.98H133.064C131.144 40.5 125.954 40.89 120.764 41.46C120.284 42.96 119.744 44.52 119.234 45.39C119.084 45.63 118.964 45.84 118.814 45.96V45.99C118.664 46.11 118.514 46.23 118.364 46.26C118.124 46.35 117.884 46.32 117.674 46.2C117.614 46.17 117.554 46.11 117.494 46.05C117.254 45.81 117.224 45.36 117.434 44.76C117.554 44.34 117.764 43.77 118.064 43.05C118.244 42.66 118.424 42.21 118.664 41.73C112.904 42.42 107.744 43.26 107.714 43.26C107.384 43.29 107.084 43.08 107.054 42.78C106.994 42.45 107.204 42.15 107.534 42.12C107.564 42.09 113.174 41.19 119.234 40.47C119.654 39.57 120.134 38.55 120.674 37.47C120.674 37.44 120.704 37.41 120.704 37.38C125.294 28.05 133.244 13.26 136.544 7.17C130.394 7.83 123.854 8.88 123.824 8.88C123.524 8.91 123.224 8.7 123.164 8.4C123.104 8.07 123.344 7.77 123.644 7.74C123.674 7.71 130.754 6.57 137.204 5.94C137.714 4.98 138.014 4.41 138.044 4.41ZM138.419 23.55C138.569 23.25 138.899 23.13 139.199 23.25C139.499 23.4 139.619 23.73 139.499 24.03C139.469 24.03 137.099 29.4 136.199 32.19C136.709 31.53 137.339 30.6 137.999 29.64C139.379 27.69 140.909 25.47 142.049 24.33C142.349 24.03 142.619 23.79 142.889 23.64C143.249 23.4 143.609 23.34 143.939 23.46C144.269 23.61 144.479 23.85 144.569 24.21C144.569 24.24 144.569 24.27 144.569 24.3C144.629 24.51 144.629 24.81 144.599 25.11C144.479 25.98 144.059 27.21 143.639 28.47C143.129 30 142.589 31.59 142.589 32.55C142.589 32.76 142.619 32.91 142.649 33.03C142.679 33.06 142.709 33.12 142.739 33.12C142.799 33.15 142.919 33.15 143.069 33.12C143.279 33.09 143.519 33.03 143.789 32.91C146.519 31.74 151.319 27.09 151.349 27.06C151.559 26.85 151.919 26.85 152.159 27.09C152.369 27.33 152.369 27.69 152.159 27.9C152.129 27.93 147.179 32.73 144.239 33.99C143.879 34.14 143.519 34.23 143.219 34.29C142.889 34.32 142.589 34.32 142.289 34.2C141.959 34.05 141.749 33.81 141.599 33.48C141.479 33.24 141.419 32.91 141.419 32.55C141.449 31.41 141.989 29.7 142.529 28.11C142.949 26.88 143.339 25.74 143.429 24.96C143.429 24.84 143.459 24.72 143.459 24.66C143.279 24.75 143.099 24.93 142.859 25.14C141.779 26.22 140.309 28.38 138.959 30.3C137.969 31.74 137.099 33.03 136.469 33.72C136.289 33.93 136.109 34.08 135.989 34.2C135.659 34.41 135.359 34.47 135.089 34.29C134.849 34.14 134.759 33.93 134.729 33.63C134.729 33.48 134.759 33.3 134.789 33.12C135.149 30.84 138.419 23.58 138.419 23.55Z" fill="#A7E1FF"/>
</svg>
