<svg width="216" height="230" viewBox="0 0 216 230" fill="none" xmlns="http://www.w3.org/2000/svg">
<path d="M137.806 137.318C118.183 134.44 97.8407 132.882 77.3786 130.764C67.1076 129.725 56.7566 128.486 46.3657 126.767C41.0504 126.008 36.1746 125.009 30.3797 124.01L19.789 121.851C17.8476 121.458 15.9375 120.924 14.074 120.253L8.03923 118.335C5.26007 117.618 2.57664 116.572 0.0462189 115.217C-1.91185 114.096 -3.73543 112.756 -5.38903 111.221C-6.84527 109.676 -8.04595 107.908 -8.94592 105.985C-9.92336 103.764 -10.229 101.305 -9.82514 98.9115C-8.95184 94.3945 -6.43063 90.3634 -2.75134 87.6014C-1.873 86.686 -0.909492 85.8563 0.126152 85.1236L3.88287 82.9255C5.16175 82.2062 6.32073 81.4068 7.67954 80.7674L12.0757 78.969L16.0722 77.3704C17.3511 76.8908 18.6699 76.611 20.0687 76.2114L24.0652 75.0524L25.9835 74.4929L27.3024 74.2131C30.8193 73.4538 34.2963 72.8543 37.7333 72.3348C44.6073 71.3357 51.3214 70.6962 57.9156 70.0967C70.3844 69.3487 82.7659 67.5303 94.9232 64.6615C96.2819 64.3394 97.6172 63.9255 98.9198 63.4226C99.6008 63.1971 100.257 62.9025 100.878 62.5433C101.98 61.8701 102.66 60.6777 102.676 59.3861C102.629 57.9551 102.171 56.5679 101.358 55.3896C100.029 53.1918 98.3557 51.2217 96.4019 49.5547C91.733 45.6424 86.6228 42.2892 81.1753 39.5634C75.4603 36.5261 69.8652 33.7685 63.9503 31.3306C42.5013 23.2306 20.0712 18.0162 -2.75134 15.8242C-17.3419 14.0914 -32.0199 13.1974 -46.7129 13.1466C-54.0265 13.1466 -61.3801 13.1466 -68.7336 13.5462C-76.0872 13.9459 -83.5607 14.2256 -90.5146 15.1448C-94.8708 15.6643 -96.7891 15.8242 -96.9889 15.1448C-97.1887 14.4654 -95.3903 12.627 -91.6736 10.5888C-86.6074 8.02607 -81.2355 6.11905 -75.6875 4.91375C-68.0044 2.94256 -60.1474 1.72453 -52.2281 1.27693C-36.715 0.397598 -21.1604 0.557816 -5.66879 1.75651C9.88902 2.88 25.3599 4.98906 40.6507 8.07099C56.3044 11.2776 71.5096 16.3774 85.9311 23.2577C93.6959 26.7067 100.978 31.1537 107.592 36.4861C109.457 38.0373 111.182 39.749 112.748 41.6017C113.61 42.563 114.411 43.5774 115.146 44.639L116.265 46.3175C116.624 46.917 117.024 47.7163 117.384 48.3957C120.629 54.2674 121.35 61.2053 119.382 67.6189C117.953 71.2761 115.479 74.4315 112.268 76.691C110.694 77.8342 109.007 78.8119 107.232 79.6084C105.93 80.2479 104.596 80.8215 103.236 81.3269C100.798 82.2062 98.3602 82.9255 95.9224 83.7248C93.4845 84.5241 91.0067 85.0836 88.5688 85.6032C78.7774 87.6414 69.1458 88.6405 59.8339 89.5997C50.8847 90.5339 41.9974 91.9884 33.2172 93.9559C30.5795 94.5554 30.2198 94.7152 29.2207 94.995L26.9427 95.7543C25.5519 96.328 24.2145 97.0234 22.9462 97.8325C22.2668 98.3121 21.4275 98.9915 21.4675 99.9107C21.5075 100.83 22.3467 101.349 23.0261 101.749C24.5974 102.499 26.2457 103.075 27.9418 103.468H28.6212H28.9409L29.2207 103.987L31.6985 104.547C33.3771 104.946 34.7758 105.346 37.5734 105.786C42.4891 106.705 47.4448 107.504 52.4404 108.223C72.4229 111.021 92.885 112.46 113.507 114.418C126.216 115.617 139.005 117.056 151.754 119.174L161.345 120.892L170.857 122.931L175.293 123.85L180.608 124.889C185.244 125.848 189.76 126.967 194.037 128.286C198.251 129.52 202.282 131.307 206.026 133.601C209.216 135.446 211.948 137.987 214.019 141.035C215.165 142.966 215.734 145.185 215.658 147.429C215.517 149.657 214.598 151.765 213.06 153.384C209.969 156.41 206.201 158.657 202.07 159.938C196.996 161.706 191.782 163.043 186.483 163.935L178.21 165.533L172.336 166.532C164.343 167.891 156.789 169.13 149.196 170.529C141.635 171.941 134.151 173.742 126.775 175.924L124.577 176.644L122.979 177.203C121.94 177.603 120.901 178.002 119.901 178.482C117.971 179.298 116.259 180.558 114.906 182.159C114.064 183.358 114.064 184.956 114.906 186.155C115.754 187.317 116.9 188.228 118.223 188.793C120.693 189.941 123.298 190.774 125.976 191.271C136.007 193.829 146.238 196.546 156.509 198.904L175.173 203.1C198.553 208.696 205.666 212.332 209.063 219.486C209.975 221.016 210.725 222.637 211.301 224.322C212.261 229.437 201.87 230.596 184.485 227.519C168.779 224.642 152.753 221.364 136.527 217.248L124.537 214.011L121.62 213.252L120.061 212.812L117.424 211.893C115.785 211.413 113.787 210.694 111.948 210.054C110.11 209.415 108.272 208.656 106.473 207.896C100.069 205.341 94.5245 201.016 90.4871 195.427C88.8997 192.774 87.8792 189.822 87.4897 186.755L87.2899 184.317L87.6096 181.879V181.279C87.3698 181.279 87.6096 180.88 87.6096 180.68L87.8894 179.561C87.8894 178.802 88.2091 178.002 88.4089 177.323L91.2065 172.247C91.7 171.375 92.3195 170.581 93.0449 169.889C93.6869 169.073 94.3953 168.311 95.163 167.611C98.7685 164.552 102.809 162.047 107.153 160.178C109.535 159.095 111.977 158.148 114.466 157.34L118.463 156.022L120.901 155.342C123.778 154.503 126.576 153.824 129.373 153.144C134.968 151.825 140.643 150.786 145.879 149.827C151.114 148.868 156.789 147.909 162.144 147.029L174.574 144.951C174.574 144.951 174.933 144.951 175.013 144.951C175.042 144.888 175.042 144.815 175.013 144.751L171.296 143.952L162.544 142.074C159.826 141.514 157.149 140.915 154.551 140.435C149.076 139.396 143.521 138.557 137.966 137.798L137.806 137.318Z" fill="#D8F2FF"/>
</svg>
