<svg width="328" height="200" viewBox="0 0 328 200" fill="none" xmlns="http://www.w3.org/2000/svg">
<path d="M210.529 49.9681C210.965 49.7342 211.237 49.2799 211.237 48.7856C211.237 48.2913 210.965 47.837 210.529 47.603C210.132 47.1086 209.681 46.6586 209.187 46.2607H208.74L208.484 45.4297L205.671 43.8317L199.791 40.7635C195.828 38.782 191.801 36.8643 187.582 34.9467L174.031 29.1299L148.462 16.3457C136.189 9.95364 123.533 4.39252 111.388 -2.25525C89.9746 -13.9528 68.8168 -26.1617 48.1703 -39.7768C43.0567 -43.2285 37.943 -46.7442 32.8932 -50.4516C30.3364 -52.3053 27.8435 -54.2229 25.3506 -56.1406L21.6432 -59.1448L16.7212 -63.8111C10.0903 -69.2029 4.85102 -76.1081 1.44415 -83.9462C0.0520072 -87.3223 -0.347166 -91.0257 0.293573 -94.6209C1.14469 -98.4043 3.43789 -101.707 6.68566 -103.826C12.6453 -107.204 19.4807 -108.718 26.3094 -108.172C30.1446 -108.172 34.2995 -107.597 38.1987 -107.149C39.9884 -107.149 42.3535 -106.638 43.7598 -106.318L47.7868 -105.551C58.5894 -103.442 69.0725 -101.077 79.7472 -98.7119C93.1067 -95.7076 106.402 -92.8951 119.634 -90.1465C132.557 -86.9141 145.694 -84.6071 158.945 -83.243C166.744 -83.243 166.68 -80.7501 159.457 -76.8509C147.354 -71.7313 134.213 -69.5412 121.104 -70.4588C106.786 -71.7373 92.7871 -73.8466 78.9802 -75.8921L58.3977 -79.0242L48.2342 -80.4305L39.1575 -81.5811C38.1987 -81.5811 38.2626 -82.0285 37.3677 -82.2842C36.4728 -82.5399 35.3861 -82.2842 35.4501 -81.4532C35.4865 -80.5698 35.7995 -79.7201 36.345 -79.0242V-78.6407L37.2398 -77.8097L41.0112 -74.6776C43.568 -72.5682 46.1888 -70.5228 48.8735 -68.2855C74.8253 -48.5979 106.402 -33.4486 136.829 -17.8519C153.384 -9.35046 170.707 -0.721146 187.134 7.07721C195.572 10.8485 204.649 14.7477 213.406 19.2222L229.258 27.6597C235.449 31.0721 240.936 35.6269 245.43 41.0831C247.721 43.9348 249.416 47.2169 250.416 50.7352C251.533 54.3367 251.533 58.192 250.416 61.7935C247.916 69.1268 242.37 75.0225 235.203 77.9655C227.572 80.8866 219.348 81.9173 211.233 80.9698L204.84 80.2666L200.238 79.6913L192.823 78.7325C188.102 78.1333 183.31 78.9803 179.08 81.1615C176.762 82.143 175.379 84.5448 175.693 87.0422C176.182 89.4282 177.309 91.6371 178.952 93.4343C180.514 95.3365 182.247 97.0911 184.13 98.6758C186.367 100.657 190.139 103.598 193.399 106.027C200.238 111.013 207.461 115.743 214.812 120.217C237.76 134.024 262.177 144.699 286.467 156.205C291.837 158.761 297.27 160.999 302.576 163.747C307.881 166.496 311.588 168.541 314.912 170.651C317.647 172.481 320.158 174.626 322.391 177.043C325.599 180.337 327.448 184.719 327.569 189.316C327.759 191.25 327.759 193.198 327.569 195.132C326.354 200.63 316.638 200.118 301.105 195.132C278.989 186.12 256.361 175.956 233.477 164.642C222.163 158.889 210.785 152.753 199.471 145.977C193.846 142.653 188.221 139.074 182.596 135.303C179.72 133.449 176.907 131.467 174.094 129.422L170.131 126.545L165.465 122.838L163.42 121.048L160.607 118.619C158.753 117.085 157.155 115.423 155.493 113.761C152.331 110.575 149.464 107.109 146.928 103.406C142.373 96.9431 139.999 89.1949 140.152 81.2894C140.646 73.6438 143.946 66.4501 149.421 61.0904C155.541 55.5132 162.974 51.5769 171.026 49.6485C173.136 49.0093 175.373 48.6258 177.418 48.1144C179.464 47.603 181.893 47.603 184.13 47.2834C186.367 46.9638 188.796 47.2834 191.097 47.2834C193.399 47.2834 194.997 47.603 196.978 47.7309C198.96 47.8587 200.174 48.1144 201.389 48.3062L205.032 48.8815L207.781 49.3289C208.244 49.5574 208.788 49.5574 209.251 49.3289L210.529 49.9681Z" fill="#A7E1FF"/>
</svg>
