<svg width="160" height="54" viewBox="0 0 160 54" fill="none" xmlns="http://www.w3.org/2000/svg">
<path d="M132.685 33.4588C132.691 33.4569 132.697 33.4612 132.697 33.4674C132.697 34.7781 132.686 36.0874 132.697 37.4013C132.721 39.7692 134.12 40.8631 136.415 40.3154C137.951 39.9491 137.951 39.9491 138.454 41.4472C138.714 42.2175 138.971 42.9895 139.235 43.7598C139.337 44.0503 139.427 44.3123 139.016 44.4528C136.066 45.4647 133.129 45.6904 130.351 44.0013C128.283 42.7385 127.639 40.6248 127.56 38.3784C127.454 35.3586 127.501 32.3325 127.528 29.3095C127.528 28.686 127.36 28.4918 126.737 28.5281C125.897 28.5786 125.053 28.5171 124.207 28.5471C123.743 28.5628 123.541 28.4366 123.553 27.9346C123.583 26.8306 123.583 25.7256 123.553 24.6196C123.539 24.0828 123.759 23.9502 124.257 23.9692C125.126 24.0023 125.997 23.9455 126.864 23.9881C127.403 24.0134 127.526 23.8129 127.514 23.3125C127.482 21.9202 127.498 20.5263 127.492 19.134C127.492 18.8325 127.481 18.5547 127.901 18.5168C129.258 18.3921 130.617 18.2721 131.971 18.1127C132.624 18.0353 132.762 18.3021 132.741 18.902C132.699 20.3479 132.741 21.7939 132.708 23.2399C132.697 23.805 132.866 24.0165 133.469 23.9976C134.916 23.9487 136.366 23.9976 137.815 23.966C138.313 23.9566 138.521 24.086 138.502 24.6243C138.464 25.6741 138.457 26.7285 138.502 27.7815C138.527 28.3639 138.354 28.5707 137.757 28.5534C136.283 28.5155 134.805 28.5534 133.328 28.525C132.8 28.5139 132.656 28.7033 132.664 29.2006C132.687 30.6171 132.673 32.0337 132.673 33.4502C132.673 33.4564 132.679 33.4607 132.685 33.4588Z" fill="white"/>
<path d="M91.6994 30.1447C91.6994 25.4405 91.7121 20.7364 91.6836 16.0322C91.6836 15.4008 91.8655 15.2319 92.4744 15.2555C93.7113 15.3013 94.9497 15.2871 96.1866 15.2555C96.6373 15.2461 96.835 15.3234 96.835 15.8459C96.8192 25.3332 96.8192 34.821 96.835 44.3093C96.835 44.8365 96.6278 44.9975 96.1328 44.9896C94.8959 44.9707 93.6559 44.9502 92.4206 44.9896C91.8196 45.0133 91.6836 44.8318 91.6852 44.2445C91.7105 39.5609 91.6994 34.8489 91.6994 30.1447Z" fill="white"/>
<path d="M86.9718 34.3927C86.9718 37.6809 86.956 40.9691 86.9892 44.2557C86.9892 44.8618 86.8168 45.0181 86.2348 44.9976C85.0248 44.955 83.8085 44.936 82.597 44.9976C81.8789 45.0355 81.7508 44.7198 81.754 44.1215C81.7698 41.6763 81.754 39.2279 81.7619 36.7827C81.7724 32.8131 81.7866 28.8419 81.8046 24.8692C81.8046 23.8273 81.8046 23.8257 82.8833 23.8241C84.0173 23.8241 85.1514 23.8526 86.2838 23.8131C86.8453 23.7926 86.9861 23.9709 86.9813 24.5266C86.9592 27.8164 86.9718 31.1045 86.9718 34.3927Z" fill="white"/>
<path d="M152.172 40.7102C152.172 39.4994 152.161 38.2903 152.172 37.0795C152.172 36.819 151.993 36.3912 152.349 36.3265C152.811 36.2428 153.466 36.0297 153.746 36.4844C154.076 37.029 154.26 36.7622 154.571 36.568C156.232 35.5325 158.525 35.9808 159.484 37.5152C159.82 38.0859 159.988 38.7398 159.968 39.4016C159.984 41.138 159.968 42.8744 159.999 44.6109C160.009 45.0955 159.803 45.1618 159.39 45.1713C157.88 45.2013 157.882 45.2139 157.88 43.7237C157.88 42.3819 157.88 41.0401 157.88 39.6999C157.88 38.9533 157.697 38.2492 156.953 37.9225C156.175 37.5815 155.406 37.7646 154.714 38.2255C154.358 38.4655 154.258 38.8191 154.263 39.25C154.282 40.9865 154.252 42.7229 154.28 44.4593C154.29 44.9929 154.165 45.1855 153.591 45.176C152.167 45.1523 152.167 45.176 152.167 43.7821L152.172 40.7102Z" fill="white"/>
<path d="M84.3927 15.0426C86.1483 15.0063 87.4975 16.2518 87.5386 17.9488C87.5563 18.3612 87.4903 18.7729 87.3445 19.1591C87.1988 19.5454 86.9763 19.8983 86.6904 20.1966C86.4045 20.4949 86.0612 20.7324 85.681 20.8949C85.3008 21.0574 84.8917 21.1415 84.4781 21.1422C82.7256 21.1833 81.3069 19.8904 81.299 18.1429C81.2832 16.4917 82.3397 14.9952 84.3927 15.0426Z" fill="white"/>
<path d="M149.718 40.741C149.723 40.7406 149.727 40.7442 149.727 40.7489C149.727 42.0341 149.709 43.3193 149.727 44.603C149.736 45.056 149.583 45.1965 149.138 45.1823C147.214 45.1192 147.603 45.4191 147.581 43.6685C147.561 41.9846 147.561 40.3008 147.581 38.617C147.581 38.164 147.498 37.9508 146.981 37.9666C145.986 37.9982 146.583 37.2152 146.458 36.8143C146.315 36.3644 146.601 36.2476 147.024 36.2665C147.68 36.3107 148.339 36.3107 148.996 36.2665C149.629 36.2081 149.736 36.4828 149.721 37.0369C149.684 38.2684 149.709 39.5015 149.709 40.733C149.709 40.7377 149.713 40.7414 149.718 40.741Z" fill="white"/>
<path d="M63.4515 5.49346C63.4515 6.46376 63.4515 7.43564 63.4515 8.4091C63.4515 8.68219 63.4658 8.94423 63.0608 8.92687C62.6559 8.9095 62.6749 8.66167 62.6797 8.3791C62.6907 7.74767 62.6797 7.11624 62.7018 6.48481C62.7255 6.00019 62.6022 5.7634 62.0502 5.78392C61.0521 5.82181 60.0494 5.81233 59.045 5.78392C58.6132 5.77129 58.4978 5.94178 58.5104 6.338C58.531 7.01995 58.5104 7.70347 58.5215 8.39015C58.5215 8.63641 58.5373 8.86372 58.1814 8.87477C57.8256 8.88582 57.7465 8.70113 57.7481 8.38699C57.756 6.41535 57.7481 4.44055 57.7481 2.47522C57.7481 2.19581 57.7671 1.92114 58.134 1.91325C58.5009 1.90535 58.5152 2.18792 58.5136 2.46417C58.5136 3.14769 58.5326 3.83122 58.5136 4.51632C58.4978 4.92517 58.6338 5.07198 59.0514 5.06251C60.051 5.03567 61.0521 5.03094 62.0565 5.06251C62.5405 5.07514 62.716 4.90465 62.6892 4.43108C62.6607 3.8549 62.6623 3.27556 62.6765 2.69464C62.6765 2.4105 62.5405 2.01112 63.0561 1.99375C63.5717 1.97639 63.4452 2.38366 63.4499 2.66465C63.4626 3.61179 63.4499 4.55894 63.4499 5.50609L63.4515 5.49346Z" fill="white"/>
<path d="M66.114 5.4135C66.111 5.41624 66.1061 5.41407 66.1061 5.40997C66.1062 4.46637 66.1234 3.52276 66.1061 2.57916C66.095 2.12926 66.2279 1.87354 66.7119 1.87354C67.6846 1.87354 68.6589 1.87354 69.6316 1.87354C69.8625 1.87354 70.1551 1.87353 70.1662 2.19872C70.1788 2.56337 69.891 2.59337 69.6126 2.59337C68.9546 2.59337 68.2967 2.61862 67.6403 2.58547C67.1199 2.55863 66.9017 2.69597 66.9001 3.27373C66.9001 4.94071 66.8716 4.94071 68.5561 4.93755C68.6889 4.93755 68.8202 4.9265 68.9515 4.93755C69.1935 4.95966 69.5399 4.84442 69.543 5.25327C69.543 5.69843 69.1856 5.6195 68.9104 5.62266C68.4106 5.62266 67.9108 5.63529 67.411 5.62266C67.0678 5.60949 66.8974 5.73335 66.9084 6.04834C66.9102 6.1002 66.9142 6.15255 66.9048 6.20357C66.7941 8.26677 66.7941 8.26677 68.8566 8.26835C69.1729 8.26835 69.4892 8.28098 69.8056 8.26835C70.0254 8.26835 70.2563 8.24625 70.2532 8.55407C70.2532 8.82085 70.0476 8.91083 69.8214 8.91557C69.1634 8.92662 68.507 8.92662 67.8491 8.92346C66.1203 8.91557 66.1203 8.91399 66.1219 7.2186V5.41702C66.1219 5.41292 66.1171 5.41076 66.114 5.4135Z" fill="white"/>
<path d="M143.42 45.1767C142.343 45.1767 141.639 44.5121 141.639 43.4308C141.639 42.3258 142.471 41.4986 143.331 41.5523C144.438 41.6233 145.161 42.2816 145.155 43.3771C145.148 44.4726 144.473 45.172 143.42 45.1767Z" fill="white"/>
<path d="M157.359 48.4798C157.505 49.3007 158.225 49.4349 158.643 48.7141C158.776 48.4884 158.851 48.2279 158.996 48.0132C159.194 47.718 159.542 47.7685 159.787 47.8554C160.13 47.9864 159.876 48.2484 159.787 48.4347C159.206 49.667 158.62 50.8973 158.03 52.1254C157.734 52.7411 157.209 53.0615 156.564 53.2083C156.364 53.2525 156.062 53.4893 155.986 53.1357C155.926 52.8594 155.755 52.4348 156.29 52.3117C156.523 52.2713 156.745 52.1809 156.94 52.0465C157.195 51.8381 157.505 51.5729 157.217 51.1925C156.557 50.3243 156.66 49.2492 156.385 48.2768C156.32 48.0511 156.341 47.8396 156.643 47.8301C156.921 47.8191 157.236 47.7464 157.307 48.1774C157.324 48.2784 157.341 48.3791 157.359 48.4798Z" fill="white"/>
<path d="M-nan -nanL153.231 46.3134C153.432 46.3734 153.789 46.1982 153.833 46.6023C153.878 47.0064 153.624 47.0885 153.281 47.0554C153.135 47.038 152.988 47.0774 152.87 47.1656C152.752 47.2538 152.673 47.384 152.649 47.529C152.536 47.971 152.921 47.7847 153.103 47.8194C153.356 47.8683 153.367 48.0309 153.356 48.2267C153.341 48.4808 153.212 48.634 152.955 48.5961C152.432 48.5187 152.348 48.8486 152.285 49.2449C152.147 50.1273 151.995 51.0081 151.842 51.8874C151.736 52.4967 151.442 52.9624 150.825 53.1755C150.656 53.2355 150.468 53.3776 150.335 53.1755C150.27 53.0906 150.237 52.9854 150.243 52.8788C150.248 52.7721 150.291 52.6709 150.365 52.593C151.331 51.5354 151.051 50.1273 151.402 48.8944C151.456 48.7034 151.266 48.6576 151.135 48.5692C150.819 48.3624 151.024 47.9157 151.114 47.9062C151.714 47.8478 151.715 47.3127 151.948 46.9717C152.078 46.7529 152.268 46.5751 152.495 46.4587C152.721 46.3423 152.976 46.2919 153.231 46.3134L-nan -nanZ" fill="white"/>
<path d="M53.0111 5.74554C53.0116 5.7445 53.0119 5.74336 53.0119 5.7422C53.0119 4.90298 52.9882 4.06377 53.0214 3.22613C53.0388 2.75256 52.9218 2.54103 52.414 2.5947C52.0503 2.63416 51.6802 2.60259 51.3069 2.61049C51.1139 2.61049 50.9713 2.56897 50.925 2.41496C50.8948 2.31424 50.8935 2.20182 50.9297 2.10309C50.9479 2.05344 50.9771 2.00852 51.0151 1.97167C51.0531 1.93481 51.0989 1.90698 51.1491 1.89022C51.1994 1.87346 51.2527 1.86821 51.3053 1.87487C52.6987 1.87487 54.0922 1.87487 55.484 1.88276C55.7134 1.88276 55.9174 1.96169 55.9063 2.23794C55.9091 2.29106 55.8999 2.3441 55.8795 2.39324C55.8592 2.44239 55.8281 2.48639 55.7886 2.52206C55.749 2.55773 55.7021 2.58416 55.651 2.59946C55.5502 2.62969 55.4406 2.61049 55.3354 2.61049C53.7679 2.68152 53.7664 2.68152 53.7664 4.23958C53.7664 5.60768 53.7664 6.9721 53.7664 8.33283C53.7664 8.62487 53.8122 8.93111 53.3551 8.91059C52.9376 8.89323 53.0119 8.59488 53.0103 8.34388C53.0103 7.47941 53.0103 6.60864 53.0103 5.74888C53.0103 5.74772 53.0106 5.74658 53.0111 5.74554Z" fill="white"/>
<path d="M123.756 50.6562C123.905 49.8306 124.055 49.0034 124.197 48.1762C124.26 47.8132 124.528 47.8211 124.797 47.8258C125.171 47.8258 125.127 48.1021 125.089 48.3341C124.996 48.9024 124.871 49.4675 124.784 50.0374C124.729 50.4005 124.485 50.8677 125.065 51.0208C125.592 51.1598 126.038 50.934 126.195 50.4147C126.373 49.7844 126.504 49.1417 126.587 48.492C126.646 48.0784 126.733 47.7516 127.242 47.8369C127.778 47.9268 127.509 48.3357 127.473 48.5819C127.335 49.4896 127.136 50.3863 126.976 51.2908C126.925 51.5797 126.818 51.878 126.502 51.777C125.918 51.5907 125.375 51.8464 124.814 51.8212C124.082 51.7896 123.724 51.3997 123.756 50.6562Z" fill="white"/>
<path d="M111.349 51.8195C109.942 51.8416 110.42 49.7226 110.619 48.3294C110.622 48.3052 110.626 48.2809 110.629 48.2567C110.695 47.7831 110.994 47.802 111.311 47.8352C111.793 47.8857 111.529 48.2172 111.496 48.4319C111.406 49.0549 111.301 49.6753 111.179 50.293C111.124 50.5661 111.07 50.844 111.363 50.9813C111.492 51.048 111.637 51.0795 111.782 51.0726C111.927 51.0656 112.068 51.0205 112.19 50.9418C112.367 50.827 112.514 50.6724 112.62 50.4903C112.726 50.3082 112.788 50.1039 112.801 49.8937C112.867 49.3475 113.005 48.8108 113.077 48.2661C113.136 47.8226 113.43 47.7831 113.761 47.8352C114.159 47.8968 113.96 48.1856 113.919 48.3909C113.748 49.3712 113.555 50.3499 113.391 51.3302C113.34 51.6348 113.223 51.8685 112.896 51.7785C112.367 51.6348 111.864 51.8116 111.349 51.8195Z" fill="white"/>
<path d="M105.33 46.996C105.732 46.3374 106.214 47.2493 105.73 47.8504C105.584 48.0325 105.435 48.2092 105.281 48.3788C104.635 49.0709 104.259 49.9708 104.221 50.9156C104.205 51.1507 104.145 51.3808 104.045 51.5944C103.9 51.9101 103.587 51.8106 103.348 51.7696C103.052 51.7191 103.199 51.4886 103.25 51.3323C103.748 49.8264 103.293 48.4656 102.638 47.127C102.544 46.936 102.203 46.6329 102.661 46.5208C102.93 46.4561 103.348 46.3377 103.478 46.8618C103.571 47.2375 103.794 47.5801 103.92 47.9479C104.11 48.4609 104.311 48.3993 104.582 48.0031C104.816 47.6574 105.108 47.3496 105.33 46.996Z" fill="white"/>
<path d="M143.308 51.4325C143.254 52.0867 142.12 52.0059 141.605 51.5993C141.339 51.389 141.274 51.0201 141.365 50.4459C141.432 50.0339 141.538 49.6282 141.628 49.2193C141.68 48.9778 141.856 48.7158 141.493 48.55C141.441 48.5263 141.413 48.4206 141.4 48.348C141.326 47.9423 142.412 46.8183 142.824 46.8688C143.159 46.9115 143.012 47.1372 142.966 47.2808C142.836 47.7007 142.977 47.8618 143.409 47.8365C143.61 47.8255 143.86 47.8144 143.833 48.1427C143.812 48.3985 143.733 48.6432 143.42 48.5958C142.688 48.4869 142.536 48.9257 142.471 49.5051C142.431 49.8413 142.313 50.1681 142.264 50.5027C142.213 50.8042 142.31 51.0205 142.661 51.0379C142.947 51.0536 143.352 50.8879 143.308 51.4325Z" fill="white"/>
<path d="M153.784 51.0459C153.76 50.7866 153.809 50.5259 153.861 50.2708L154.605 46.6448C154.678 46.2912 154.943 46.2865 155.217 46.3117C155.59 46.3465 155.508 46.6022 155.459 46.839C155.226 47.9692 154.984 49.0995 154.766 50.2314C154.712 50.5123 154.739 50.8075 154.689 51.0885C154.646 51.3269 155.426 51.6458 154.627 51.7989C154.031 51.9141 153.825 51.5621 153.784 51.0459Z" fill="white"/>
<path d="M116.855 48.5916C116.259 48.5458 115.906 48.8678 115.769 49.3998C115.61 49.9807 115.522 50.5758 115.427 51.1694C115.36 51.5877 115.201 51.8939 114.718 51.7882C114.204 51.6745 114.479 51.2736 114.519 51.0194C114.658 50.1449 114.848 49.283 115.019 48.4069C115.028 48.2771 115.055 48.1492 115.098 48.0264C115.204 47.8181 117.312 47.7344 117.436 47.9254C117.559 48.1164 117.406 48.2774 117.366 48.4479C117.289 48.7857 117.047 48.6073 116.855 48.5916Z" fill="white"/>
<path d="M148.682 35.1414C147.938 35.1414 147.448 34.6852 147.459 34.0175C147.47 33.3497 147.967 32.8619 148.669 32.8604C149.414 32.8604 149.922 33.3671 149.893 34.0853C149.868 34.7199 149.373 35.1509 148.682 35.1414Z" fill="white"/>
<path d="M128.385 48.4526C127.822 47.8582 129.93 47.7592 129.737 48.5545C129.533 49.4447 129.375 50.3446 129.262 51.2507C129.202 51.6848 129.003 51.8427 128.59 51.8017C128.073 51.7511 128.31 51.3707 128.339 51.1434C128.4 50.6288 128.566 50.1252 128.623 49.609C128.665 49.2428 128.94 48.8623 128.435 48.4961C128.416 48.4822 128.399 48.4677 128.385 48.4526Z" fill="white"/>
<path d="M130.021 46.6738C130.034 47.2225 128.91 47.2508 128.895 46.7021C128.887 46.3864 129.034 46.1465 129.399 46.1354C129.765 46.1244 130.004 46.2475 130.021 46.6579C130.021 46.6633 130.021 46.6686 130.021 46.6738Z" fill="white"/>
<path fill-rule="evenodd" clip-rule="evenodd" d="M0 22.766C0.365362 14.1517 4.66429 6.91549 13.2542 2.41339C16.9759 0.463844 21.0043 -0.260722 25.2416 0.0818295C31.3425 0.572241 36.4871 3.01799 40.6753 7.41906C43.9321 10.7916 46.0626 15.0879 46.7742 19.7178C47.8371 26.3478 46.4705 32.4884 42.5559 37.9314C39.1348 42.6908 34.4215 45.7453 28.6991 47.0508C16.6089 49.8102 4.24041 42.5045 0.89838 30.2469C0.319495 28.1237 0.0474496 25.9737 0 22.766ZM2.86563 22.0845C2.78386 22.078 2.70049 22.0715 2.6157 22.0756C2.40696 22.0857 2.34064 22.3285 2.47434 22.4891C2.66954 22.7236 2.89913 22.9006 3.15233 23.0387C3.4419 23.1982 3.76212 23.3076 4.09648 23.3958C6.19217 23.9515 8.34005 24.0746 10.4943 24.1678C11.2116 24.1982 11.9284 24.2477 12.6451 24.2971C13.7139 24.3709 14.7823 24.4447 15.8513 24.4551C17.5263 24.4693 18.4405 25.4385 19.1491 26.7456C19.5069 27.4059 19.8476 28.0773 20.188 28.7478L20.188 28.7479L20.1881 28.748L20.1881 28.7481L20.1882 28.7482L20.1882 28.7483C20.3954 29.1564 20.6024 29.5642 20.813 29.969C21.2875 30.8657 21.8901 31.6518 22.809 32.1427C22.8378 32.1583 22.8675 32.1763 22.8979 32.1947L22.898 32.1947C23.0341 32.2772 23.1828 32.3673 23.3199 32.2769C23.3913 32.2306 23.4244 32.179 23.4341 32.1245C23.4536 32.0359 23.4091 31.9398 23.3656 31.8459C23.3436 31.7984 23.3218 31.7514 23.3088 31.7062L23.0509 30.8316C22.2527 28.1251 21.4559 25.4231 20.6848 22.7083C20.5425 22.2079 20.3242 22.0769 19.8149 22.0769C14.2238 22.0942 8.6358 22.0942 3.04941 22.0942C2.98916 22.0942 2.92788 22.0894 2.86568 22.0845L2.86563 22.0845ZM27.2629 22.3948C27.4182 22.0817 27.6745 22.0761 28.0071 22.0775C30.8477 22.088 33.6905 22.0917 36.5353 22.0885H38.3556C39.2671 22.0878 40.1784 22.0876 41.0895 22.0885H44.9102C44.96 22.0885 45.0177 22.0777 45.0772 22.0666C45.2579 22.0329 45.4561 21.9959 45.5049 22.2464C45.5182 22.3182 45.5067 22.3864 45.4785 22.4495C45.4162 22.6029 45.2536 22.7272 45.1008 22.8023C44.2024 23.2427 43.2724 23.6247 42.2728 23.7337C40.6806 23.9031 39.0863 24.0441 37.4899 24.1567C36.4992 24.2267 35.5074 24.2846 34.5157 24.3425L34.5154 24.3425L34.5153 24.3425C33.3809 24.4088 32.2467 24.475 31.1143 24.5593C30.3329 24.6192 29.7952 25.1654 29.3349 25.7558C28.7117 26.5516 28.2766 27.4526 27.8415 28.3535L27.8415 28.3535C27.6483 28.7536 27.4552 29.1536 27.2455 29.5444C26.6983 30.5752 26.0973 31.5508 25.0312 32.1333C24.9959 32.1522 24.9599 32.1761 24.9232 32.2005C24.7823 32.2942 24.6306 32.395 24.465 32.2485C24.3299 32.1292 24.3954 31.9892 24.4559 31.8597C24.4755 31.8179 24.4945 31.7772 24.5061 31.7386C24.8055 30.7175 25.1073 29.697 25.4092 28.6766L25.4094 28.6757L25.4097 28.6748L25.41 28.6739L25.4102 28.673L25.4105 28.6721L25.4106 28.6717C26.0093 26.6478 26.6079 24.6241 27.187 22.5955C27.2089 22.517 27.2342 22.4508 27.2629 22.3948ZM11.3183 25.3059C11.3157 25.3059 11.3136 25.3038 11.3136 25.3012C11.3136 25.2986 11.3114 25.2965 11.3088 25.2965H9.89366L9.81393 25.2963H9.81288H9.81271H9.81253C8.93488 25.2944 8.05741 25.2926 7.17948 25.2965H6.81692C6.77216 25.2965 6.72287 25.2906 6.67241 25.2846C6.50359 25.2646 6.32168 25.243 6.25227 25.4338C6.22365 25.5133 6.23785 25.5886 6.27264 25.6612C6.30652 25.733 6.36028 25.8021 6.41305 25.8699L6.41308 25.8699L6.41309 25.87C6.44319 25.9087 6.47297 25.9469 6.49856 25.9851C6.92718 26.6276 7.60571 26.8217 8.28899 27.0048C10.3562 27.5645 12.4567 27.5696 14.5575 27.5746C15.6327 27.5772 16.708 27.5798 17.7789 27.6568L17.7919 27.6578C17.8766 27.6645 17.9656 27.6715 18.0321 27.6461C18.1117 27.6202 18.1626 27.5528 18.1431 27.3928C18.0561 26.6856 16.5457 25.3091 15.8165 25.3028C14.8894 25.2998 13.9647 25.3017 13.0413 25.3036C12.4666 25.3048 11.8923 25.3059 11.3183 25.3059ZM29.7233 27.6097C29.6179 27.561 29.624 27.4528 29.7699 27.2382C30.1242 26.7188 30.4816 26.1979 30.877 25.7117C31.1586 25.3692 31.5745 25.2918 32.0174 25.295C33.0177 25.3034 34.0208 25.3006 35.0211 25.2978H35.0212H35.0213C35.5196 25.2964 36.0172 25.295 36.5135 25.295C36.5148 25.295 36.5162 25.2955 36.5172 25.2965C36.5181 25.2975 36.5195 25.298 36.5208 25.298H36.5219C36.8963 25.298 37.2707 25.2978 37.6452 25.2976H37.6453H37.6455H37.6456H37.6457H37.6459H37.6469C38.4159 25.2972 39.185 25.2968 39.9548 25.2981H41.017C41.06 25.2981 41.1074 25.2938 41.1559 25.2894C41.2695 25.279 41.3894 25.268 41.4736 25.3107C41.5234 25.3339 41.5616 25.3746 41.58 25.4433C41.6212 25.5964 41.4741 25.8505 41.3396 25.9926C40.4444 26.9382 39.2803 27.3281 38.0261 27.3849C36.4878 27.4536 34.948 27.4973 33.4081 27.541L33.4078 27.5411C32.2941 27.5727 31.1804 27.6043 30.0672 27.6454C29.9082 27.6511 29.7907 27.6439 29.7233 27.6097ZM33.951 28.7135H34.7688L35.1922 28.713C35.9666 28.712 36.7401 28.711 37.5112 28.7135H37.6663C37.7105 28.7135 37.7595 28.7061 37.8096 28.6984C37.9728 28.6735 38.1479 28.6467 38.2072 28.8714C38.2657 29.0829 38.1123 29.2739 37.9541 29.4176C37.2279 30.0879 36.2954 30.2404 35.3835 30.3896L35.2653 30.4089C35.1572 30.4265 35.049 30.4426 34.9407 30.4573C33.7343 30.6219 32.52 30.6179 31.3057 30.6139C30.4152 30.6109 29.5248 30.608 28.6374 30.6715L28.6168 30.6733C28.5935 30.676 28.5695 30.6799 28.5454 30.6837C28.4484 30.6994 28.3485 30.7155 28.2744 30.6561C28.2502 30.639 28.229 30.6149 28.2119 30.5815C28.1865 30.5317 28.1822 30.4858 28.1909 30.4425C28.2002 30.3849 28.2334 30.3344 28.2709 30.2856C28.28 30.2731 28.2893 30.2607 28.2986 30.2484C28.3201 30.2199 28.3414 30.1917 28.359 30.1632C28.8697 29.348 29.429 28.6973 30.4146 28.6531C30.5811 28.645 30.7597 28.6544 30.9522 28.6835C31.6316 28.7821 32.3301 28.7583 33.0285 28.7345L33.0287 28.7345C33.3367 28.724 33.6446 28.7135 33.951 28.7135ZM19.6261 30.6066C19.6261 30.6066 19.626 30.6066 19.6261 30.6067C19.6261 30.6067 19.626 30.6068 19.626 30.6068C19.0511 30.6039 18.4789 30.6093 17.9094 30.6147H17.9092H17.9091H17.9089H17.9088H17.9086H17.9086C15.6592 30.6359 13.4496 30.6567 11.2661 30.1695C10.8924 30.0992 10.5404 29.9424 10.2383 29.7119C9.93644 29.4816 9.69279 29.184 9.52677 28.8429C9.52648 28.8423 9.5266 28.8416 9.52707 28.8412C9.52731 28.8409 9.52754 28.8407 9.52777 28.8405C9.52782 28.8404 9.52784 28.8403 9.5278 28.8403C9.52777 28.8402 9.52778 28.8401 9.52784 28.8401C9.53431 28.8338 9.5408 28.8279 9.54729 28.8221C9.5919 28.7822 9.63774 28.7544 9.68427 28.7353C9.81048 28.6828 9.93931 28.6951 10.0638 28.7071C10.1181 28.7123 10.1716 28.7174 10.2237 28.717C10.9104 28.7145 11.5979 28.7237 12.2854 28.7329C13.7546 28.7525 15.2237 28.7722 16.6847 28.6776C17.5051 28.6243 18.1353 28.7754 18.6311 29.1555C18.9705 29.415 19.2465 29.7817 19.477 30.2634C19.529 30.3719 19.5788 30.4861 19.6265 30.6063C19.6265 30.6064 19.6264 30.6066 19.6263 30.6066C19.6262 30.6066 19.6262 30.6066 19.6261 30.6066Z" fill="white"/>
<path fill-rule="evenodd" clip-rule="evenodd" d="M59.6257 13.2077C59.3181 13.5254 58.8029 13.4597 58.7279 13.0239C58.6861 12.7809 58.6774 12.5342 58.6687 12.289C58.6581 11.9924 58.6477 11.698 58.5788 11.4152C58.4571 10.9022 58.2878 10.7191 57.7595 10.7317C56.4167 10.7711 55.0707 10.7869 53.7279 10.7317C52.9798 10.697 52.8106 10.9811 52.8106 11.6788C52.8348 22.5942 52.8348 33.5079 52.8106 44.4201C52.809 45.1384 53.0557 45.3357 53.7137 45.3199C55.2131 45.2868 56.7172 45.2583 58.2182 45.2868C58.8003 45.2962 58.9173 45.08 58.9173 44.5527C58.8952 40.7925 58.8952 37.0324 58.8952 33.2722C58.8952 33.2287 58.8895 33.1826 58.8837 33.1353C58.8404 32.7838 59.2632 32.8212 59.5117 33.0736C60.7343 34.3153 62.2701 35.0114 64.0071 35.3796C65.7012 35.7413 67.4469 35.7948 69.1601 35.5375C72.6967 35.0181 75.4899 33.3764 77.3515 30.2997C78.9663 27.624 79.5547 24.7368 79.221 21.6176C78.9711 19.297 78.3701 17.1375 76.9814 15.2433C74.62 12.0356 71.3965 10.3544 67.4329 10.2328C64.9466 10.1571 62.5788 10.6622 60.5654 12.3087C60.2286 12.5849 59.9298 12.8936 59.6257 13.2077ZM65.248 16.1375C61.8746 16.5759 59.4132 19.316 59.4735 22.9231C59.3643 26.8222 62.4074 29.7236 66.0405 29.8483C66.1033 29.8505 66.1659 29.8519 66.2283 29.8525C70.1532 29.8956 73.2186 26.9962 73.217 23.0399C73.217 18.803 70.3969 16.1352 66.3163 16.0767C65.9517 16.0716 65.595 16.0924 65.248 16.1375Z" fill="white"/>
<path fill-rule="evenodd" clip-rule="evenodd" d="M111.378 23.503C104.42 23.484 100.262 28.7739 100.428 34.3762C100.194 40.6479 104.915 45.4784 111.441 45.4168C117.3 45.3631 122.29 41.1846 122.26 34.3668C122.23 27.9672 117.352 23.5219 111.378 23.503ZM116.152 37.8423C116.697 36.8698 117.008 35.7022 117.002 34.4752C116.983 30.0299 113.091 27.1506 109.148 28.7165C107.49 29.3819 106.515 30.5538 106.033 32.0158C105.82 32.6577 105.702 33.3559 105.664 34.0921C105.415 38.9509 109.23 41.6282 113.396 40.2485C114.55 39.8622 115.512 38.9864 116.152 37.8423Z" fill="white"/>
<path fill-rule="evenodd" clip-rule="evenodd" d="M123.008 51.9601C123.062 51.2749 122.793 50.3738 123.133 49.7766C123.35 49.3956 123.425 48.9631 123.497 48.2173C123.522 47.93 123.246 47.6838 123.087 47.7722C122.785 47.9365 122.496 47.8906 122.21 47.8452C122.067 47.8226 121.925 47.8001 121.782 47.8037C121.031 47.8227 120.523 48.1542 120.24 48.8093C119.965 49.4328 119.96 50.0485 120.557 50.522C120.634 50.582 120.765 50.6925 120.751 50.7399C120.505 51.4953 120.962 51.5497 121.427 51.6051C121.492 51.6129 121.556 51.6206 121.62 51.6302C121.839 51.6618 122.031 51.7533 122.039 52.0185C122.039 52.2348 121.89 52.3406 121.722 52.4305C121.28 52.6673 120.851 52.5616 120.435 52.3627C120.158 52.2285 119.945 52.208 119.802 52.5442C119.659 52.8801 119.874 52.9676 120.079 53.0511C120.112 53.0645 120.145 53.0778 120.176 53.092C120.463 53.2249 120.774 53.2984 121.091 53.3082C121.408 53.318 121.723 53.2638 122.018 53.1488C122.588 52.9404 122.958 52.601 123.008 51.9601ZM121.842 48.5817C121.812 48.581 121.78 48.5816 121.747 48.5835C121.636 48.5892 121.542 48.609 121.462 48.6401C120.854 48.8761 120.855 50.1161 121.506 50.1241C121.509 50.1242 121.512 50.1242 121.515 50.1242C121.953 50.1242 122.42 49.5781 122.387 49.095C122.359 48.7305 122.155 48.5873 121.842 48.5817Z" fill="white"/>
<path fill-rule="evenodd" clip-rule="evenodd" d="M132.881 47.8662C131.259 47.7478 130.343 48.6397 130.33 50.2657C130.321 51.3896 130.904 51.939 132.008 51.8032C132.341 51.737 132.682 51.7274 133.017 51.7748C133.364 51.849 133.58 51.748 133.65 51.317C133.823 50.2473 134.021 49.1744 134.218 48.1017C134.297 47.6753 134.375 47.2489 134.452 46.8228C134.453 46.8164 134.455 46.81 134.456 46.8035C134.502 46.5741 134.551 46.336 134.183 46.3129C133.894 46.2956 133.658 46.335 133.611 46.6902C133.596 46.7983 133.571 46.905 133.546 47.0116C133.518 47.1355 133.489 47.2592 133.476 47.3848C133.44 47.7621 133.324 47.8994 132.881 47.8662ZM131.275 50.1662C131.275 50.1662 131.276 50.1665 131.276 50.1668C131.276 50.1816 131.277 50.1965 131.278 50.2115C131.282 50.3001 131.286 50.3899 131.298 50.4762C131.32 50.6552 131.373 50.8192 131.521 50.9266C131.567 50.9607 131.623 50.9891 131.69 51.0104C131.757 51.0313 131.825 51.0474 131.892 51.0572C132.162 51.0975 132.427 51.0381 132.624 50.7835C133.044 50.2341 133.098 49.5743 133.138 48.9239C133.15 48.6642 132.925 48.5993 132.701 48.5758C132.672 48.5727 132.642 48.5703 132.614 48.5683C132.428 48.556 132.254 48.5884 132.096 48.6583C131.603 48.8738 131.27 49.4476 131.274 50.1657C131.274 50.166 131.275 50.1662 131.275 50.1662Z" fill="white"/>
<path fill-rule="evenodd" clip-rule="evenodd" d="M134.906 50.9443C135.181 51.6089 135.726 51.8709 136.433 51.8267C136.495 51.823 136.557 51.8204 136.62 51.8177C136.768 51.8115 136.917 51.8052 137.064 51.7841C137.484 51.7257 137.562 51.3611 137.511 51.0706C137.457 50.7607 137.314 50.8501 137.169 50.9403C137.101 50.9833 137.032 51.0264 136.972 51.0264C136.894 51.0276 136.815 51.0342 136.737 51.0409C136.5 51.061 136.264 51.081 136.043 50.9506C135.83 50.8243 135.654 50.6491 135.727 50.3776C135.794 50.1311 135.946 50.1779 136.096 50.2239C136.147 50.2398 136.198 50.2556 136.246 50.2592C136.854 50.3164 137.463 50.1522 137.959 49.7967C138.362 49.5031 138.444 49.0706 138.376 48.597C138.352 48.4108 138.267 48.2378 138.135 48.1048C138.002 47.9718 137.829 47.8862 137.642 47.8614C136.782 47.7067 135.925 47.8014 135.336 48.5196C134.748 49.2379 134.541 50.0572 134.906 50.9443ZM136.085 49.0166C136.035 49.1035 136.001 49.1992 135.985 49.2994C135.95 49.467 136.017 49.5125 136.115 49.5236C136.154 49.5281 136.198 49.5271 136.243 49.5261C136.38 49.523 136.522 49.5294 136.657 49.5049C136.659 49.5046 136.66 49.5042 136.662 49.5039C136.735 49.4907 136.808 49.4774 136.879 49.4608C137.156 49.3969 137.403 49.2841 137.459 48.9394C137.461 48.9267 137.463 48.9137 137.464 48.9004C137.509 48.5697 137.206 48.5773 136.969 48.5832C136.938 48.5839 136.91 48.5846 136.882 48.5846C136.671 48.5713 136.462 48.637 136.296 48.7688C136.21 48.8377 136.138 48.922 136.085 49.0166Z" fill="white"/>
<path fill-rule="evenodd" clip-rule="evenodd" d="M108.31 47.8154C106.989 47.817 106.096 48.791 106.096 50.2433C106.093 51.353 106.531 51.8187 107.576 51.8171C108.906 51.8155 109.851 50.8084 109.882 49.3593C109.903 48.3853 109.321 47.8154 108.31 47.8154ZM108.824 48.8446C108.737 48.7271 108.599 48.6388 108.389 48.5961C108.222 48.5556 108.048 48.5625 107.885 48.6161C107.722 48.6697 107.578 48.7678 107.468 48.8992C107.16 49.248 107.043 49.6632 107.033 50.1952C107.034 50.2139 107.035 50.2329 107.035 50.2521C107.036 50.2701 107.037 50.2883 107.037 50.3066C107.049 50.6523 107.077 51.0399 107.666 51.0641C108.32 51.091 108.799 50.5464 108.932 49.6355C108.974 49.3408 108.976 49.0485 108.824 48.8446Z" fill="white"/>
<path fill-rule="evenodd" clip-rule="evenodd" d="M144.217 50.2909C144.215 51.339 144.706 51.8126 145.764 51.8126C146.898 51.9626 148.013 50.8197 148.013 49.3043C148.013 48.3176 147.443 47.8125 146.396 47.8125C145.115 47.8157 144.217 48.8354 144.217 50.2909ZM145.29 49.4039C145.209 49.6154 145.162 49.862 145.154 50.1366C145.154 50.1441 145.154 50.1515 145.155 50.1589C145.156 50.424 145.158 50.6882 145.297 50.8631C145.377 50.9654 145.503 51.0369 145.701 51.06C145.732 51.0639 145.765 51.0665 145.8 51.068C145.837 51.0691 145.874 51.0682 145.911 51.0653C146.553 51.0181 147.058 50.3604 147.072 49.4795C147.072 49.0059 146.994 48.5813 146.36 48.5892C145.868 48.5892 145.482 48.8939 145.29 49.4039Z" fill="white"/>
</svg>
