<svg width="160" height="54" viewBox="0 0 160 54" fill="none" xmlns="http://www.w3.org/2000/svg">
<path d="M132.092 33.3209C132.092 34.6278 132.081 35.9331 132.092 37.2431C132.115 39.5964 133.507 40.6836 135.787 40.1392C137.314 39.7752 137.314 39.7752 137.814 41.2641C138.071 42.0297 138.328 42.7969 138.59 43.5625C138.691 43.8512 138.78 44.1116 138.372 44.2512C135.44 45.2569 132.521 45.4812 129.761 43.8025C127.705 42.5474 127.065 40.4467 126.986 38.2142C126.881 35.213 126.928 32.2054 126.955 29.201C126.955 28.5813 126.788 28.3884 126.169 28.4244C125.334 28.4747 124.495 28.4135 123.654 28.4433C123.193 28.459 122.992 28.3335 123.005 27.8346C123.034 26.7374 123.034 25.6392 123.005 24.5399C122.99 24.0065 123.209 23.8747 123.704 23.8935C124.567 23.9265 125.433 23.87 126.295 23.9124C126.831 23.9375 126.953 23.7382 126.941 23.2409C126.909 21.8572 126.925 20.4718 126.919 19.0881C126.919 18.7884 126.908 18.5123 127.326 18.4747C128.674 18.3507 130.025 18.2315 131.37 18.073C132.02 17.9962 132.156 18.2613 132.136 18.8575C132.093 20.2946 132.136 21.7316 132.103 23.1687C132.092 23.7304 132.26 23.9406 132.859 23.9218C134.297 23.8732 135.739 23.9218 137.179 23.8904C137.674 23.881 137.88 24.0096 137.861 24.5446C137.823 25.5879 137.817 26.6359 137.861 27.6824C137.886 28.2613 137.715 28.4668 137.12 28.4496C135.655 28.4119 134.187 28.4495 132.719 28.4213C132.194 28.4103 132.051 28.5986 132.059 29.0928C132.082 30.5048 132.068 31.9168 132.068 33.3287L132.092 33.3209Z" fill="#1C3867"/>
<path d="M91.3458 30.0312C91.3458 25.3559 91.3584 20.6807 91.3301 16.0054C91.3301 15.3779 91.5108 15.21 92.116 15.2336C93.3453 15.2791 94.5761 15.2649 95.8054 15.2336C96.2534 15.2241 96.4499 15.301 96.4499 15.8203C96.4341 25.2492 96.4341 34.6787 96.4499 44.1086C96.4499 44.6326 96.2439 44.7927 95.7519 44.7848C94.5227 44.766 93.2903 44.7456 92.0626 44.7848C91.4653 44.8084 91.3301 44.6279 91.3317 44.0443C91.3568 39.3895 91.3458 34.7064 91.3458 30.0312Z" fill="#1C3867"/>
<path d="M86.6487 34.2539C86.6487 37.5219 86.633 40.7899 86.666 44.0562C86.666 44.6587 86.4947 44.814 85.9162 44.7936C84.7137 44.7513 83.5049 44.7324 82.3008 44.7936C81.5871 44.8313 81.4598 44.5175 81.4629 43.9229C81.4787 41.4927 81.4629 39.0594 81.4708 36.6292C81.4813 32.684 81.4954 28.7373 81.5132 24.7889C81.5132 23.7535 81.5132 23.7519 82.5853 23.7503C83.7124 23.7503 84.8394 23.7786 85.965 23.7393C86.523 23.719 86.6629 23.8962 86.6582 24.4485C86.6362 27.718 86.6487 30.986 86.6487 34.2539Z" fill="#1C3867"/>
<path d="M151.447 40.5324C151.447 39.3291 151.436 38.1273 151.447 36.924C151.447 36.6651 151.269 36.2399 151.623 36.1756C152.082 36.0925 152.733 35.8807 153.011 36.3325C153.34 36.8738 153.522 36.6086 153.832 36.4157C155.482 35.3865 157.761 35.832 158.714 37.357C159.048 37.9241 159.215 38.5741 159.195 39.2318C159.211 40.9575 159.195 42.6833 159.226 44.4091C159.236 44.8907 159.031 44.9566 158.621 44.966C157.12 44.9958 157.122 45.0084 157.12 43.5274C157.12 42.1938 157.12 40.8603 157.12 39.5283C157.12 38.7862 156.938 38.0865 156.199 37.7618C155.425 37.4229 154.662 37.6049 153.973 38.063C153.619 38.3014 153.52 38.6529 153.525 39.0812C153.544 40.8069 153.514 42.5327 153.542 44.2584C153.552 44.7887 153.428 44.9801 152.857 44.9707C151.442 44.9472 151.442 44.9707 151.442 43.5854L151.447 40.5324Z" fill="#1C3867"/>
<path d="M84.0846 15.0216C85.8295 14.9855 87.1703 16.2234 87.2112 17.9099C87.2288 18.3197 87.1632 18.7289 87.0183 19.1128C86.8734 19.4967 86.6523 19.8474 86.3682 20.1439C86.0841 20.4404 85.7428 20.6764 85.365 20.8379C84.9872 20.9994 84.5805 21.083 84.1695 21.0837C82.4278 21.1245 81.0178 19.8396 81.0099 18.1029C80.9942 16.4618 82.0443 14.9745 84.0846 15.0216Z" fill="#1C3867"/>
<path d="M149.017 40.5613C149.017 41.8415 149 43.1217 149.017 44.4003C149.026 44.8506 148.874 44.9902 148.432 44.9761C146.519 44.9133 146.906 45.2114 146.884 43.4715C146.864 41.7981 146.864 40.1246 146.884 38.4511C146.884 38.0009 146.802 37.7891 146.288 37.8048C145.299 37.8361 145.892 37.058 145.768 36.6595C145.626 36.2124 145.911 36.0963 146.33 36.1151C146.983 36.159 147.638 36.159 148.291 36.1151C148.919 36.057 149.026 36.33 149.011 36.8807C148.974 38.1076 149 39.336 149 40.5628L149.017 40.5613Z" fill="#1C3867"/>
<path d="M63.27 5.53102C63.27 6.49535 63.27 7.46125 63.27 8.42872C63.27 8.70014 63.2841 8.96057 62.8817 8.94331C62.4793 8.92606 62.4981 8.67974 62.5029 8.39892C62.5139 7.77137 62.5029 7.14382 62.5249 6.51627C62.5484 6.03463 62.4258 5.79929 61.8772 5.81969C60.8853 5.85734 59.8887 5.84793 58.8906 5.81969C58.4614 5.80714 58.3467 5.97658 58.3593 6.37037C58.3797 7.04812 58.3593 7.72744 58.3703 8.4099C58.3703 8.65464 58.386 8.88056 58.0323 8.89154C57.6786 8.90252 57.6 8.71896 57.6016 8.40676C57.6094 6.44724 57.6016 4.48458 57.6016 2.53133C57.6016 2.25364 57.6204 1.98066 57.9851 1.97282C58.3498 1.96497 58.364 2.2458 58.3624 2.52035C58.3624 3.19967 58.3813 3.879 58.3624 4.55989C58.3467 4.96622 58.4819 5.11213 58.8969 5.10271C59.8903 5.07604 60.8853 5.07134 61.8835 5.10271C62.3645 5.11527 62.539 4.94583 62.5123 4.47517C62.484 3.90253 62.4856 3.32675 62.4997 2.74941C62.4997 2.46701 62.3645 2.07008 62.877 2.05283C63.3894 2.03557 63.2637 2.44034 63.2684 2.7196C63.281 3.66092 63.2684 4.60224 63.2684 5.54357L63.27 5.53102Z" fill="#1C3867"/>
<path d="M65.9088 5.45885C65.9088 4.51753 65.9261 3.5762 65.9088 2.63488C65.8978 2.18775 66.0299 1.93359 66.5109 1.93359C67.4776 1.93359 68.4459 1.93359 69.4126 1.93359C69.6422 1.93359 69.933 1.93359 69.944 2.25678C69.9565 2.61919 69.6704 2.649 69.3938 2.649C68.7399 2.649 68.0859 2.6741 67.4336 2.64115C66.9164 2.61448 66.6995 2.75098 66.6979 3.32518C66.6979 4.98191 66.6696 4.98191 68.3437 4.97877C68.4758 4.97877 68.6063 4.96779 68.7367 4.97877C68.9772 5.00074 69.3215 4.88621 69.3246 5.29255C69.3246 5.73497 68.9694 5.65653 68.6959 5.65966C68.1991 5.65966 67.7024 5.67221 67.2057 5.65966C66.8378 5.64554 66.6696 5.78988 66.7121 6.16013C66.7105 6.18593 66.7073 6.21159 66.7026 6.23701C66.5926 8.28752 66.5926 8.28752 68.6424 8.28909C68.9568 8.28909 69.2712 8.30164 69.5856 8.28909C69.8041 8.28909 70.0336 8.26712 70.0304 8.57305C70.0304 8.83819 69.8261 8.92762 69.6013 8.93233C68.9474 8.94331 68.295 8.94331 67.6411 8.94018C65.923 8.93233 65.923 8.93076 65.9245 7.24579V5.44473L65.9088 5.45885Z" fill="#1C3867"/>
<path d="M142.749 44.9713C141.678 44.9713 140.979 44.3108 140.979 43.2361C140.979 42.1379 141.805 41.3158 142.66 41.3692C143.761 41.4398 144.479 42.094 144.473 43.1828C144.467 44.2716 143.795 44.9666 142.749 44.9713Z" fill="#1C3867"/>
<path d="M156.952 50.1011C157.508 49.6116 157.59 48.9872 157.881 48.4867C158.013 48.2624 158.086 48.0035 158.231 47.7902C158.428 47.4968 158.773 47.547 159.017 47.6333C159.358 47.7635 159.105 48.0239 159.017 48.209C158.44 49.4338 157.857 50.6565 157.271 51.8771C156.977 52.4889 156.455 52.8074 155.813 52.9533C155.615 52.9972 155.315 53.2326 155.24 52.8811C155.18 52.6066 155.01 52.1846 155.541 52.0622C155.773 52.0221 155.994 51.9322 156.188 51.7986C156.441 51.5915 156.749 51.328 156.463 50.9499C155.807 50.087 155.909 49.0186 155.636 48.0522C155.571 47.8278 155.592 47.6176 155.892 47.6082C156.169 47.5972 156.481 47.525 156.552 47.9533C156.669 48.6452 156.807 49.3229 156.952 50.1011Z" fill="#1C3867"/>
<path d="M152.499 46.101C152.699 46.1606 153.054 45.9865 153.098 46.3881C153.142 46.7897 152.891 46.8713 152.55 46.8384C152.404 46.8211 152.258 46.8603 152.141 46.948C152.024 47.0356 151.945 47.1649 151.921 47.309C151.809 47.7483 152.191 47.5632 152.372 47.5977C152.624 47.6464 152.635 47.8079 152.624 48.0025C152.609 48.2551 152.481 48.4073 152.226 48.3696C151.706 48.2927 151.622 48.6206 151.559 49.0144C151.423 49.8914 151.272 50.7668 151.119 51.6407C151.014 52.2463 150.722 52.7091 150.108 52.9209C149.94 52.9805 149.753 53.1217 149.621 52.9209C149.557 52.8365 149.524 52.732 149.53 52.626C149.535 52.52 149.578 52.4194 149.651 52.342C150.611 51.2908 150.333 49.8914 150.682 48.6661C150.736 48.4763 150.547 48.4308 150.417 48.3429C150.102 48.1374 150.307 47.6934 150.396 47.684C150.992 47.626 150.993 47.0941 151.225 46.7552C151.354 46.5377 151.542 46.361 151.768 46.2453C151.993 46.1296 152.247 46.0796 152.499 46.101Z" fill="#1C3867"/>
<path d="M52.8994 5.78022C52.8994 4.94558 52.8758 4.11094 52.9088 3.27786C52.9261 2.8072 52.8098 2.59697 52.3052 2.65032C51.9436 2.68954 51.5758 2.65816 51.2048 2.66601C50.9596 2.66601 50.7961 2.59855 50.8103 2.31615C50.8051 2.26385 50.8119 2.21107 50.83 2.16173C50.8481 2.11238 50.8771 2.06774 50.9148 2.03111C50.9526 1.99449 50.9981 1.96682 51.048 1.95017C51.098 1.93351 51.151 1.9283 51.2033 1.93491C52.5881 1.93491 53.973 1.93491 55.3563 1.94276C55.5842 1.94276 55.787 2.0212 55.776 2.29575C55.7787 2.34854 55.7696 2.40126 55.7494 2.4501C55.7291 2.49894 55.6982 2.54267 55.6589 2.57812C55.6197 2.61357 55.573 2.63984 55.5223 2.65505C55.4715 2.67025 55.4181 2.67399 55.3657 2.66601C55.3138 2.66601 55.262 2.66601 55.2085 2.66601C53.6507 2.7366 53.6492 2.73661 53.6492 4.28508C53.6492 5.64477 53.6492 7.0008 53.6492 8.35317C53.6492 8.64341 53.6948 8.94777 53.2405 8.92737C52.8255 8.91012 52.8994 8.6136 52.8978 8.36415C52.8978 7.50441 52.8978 6.63839 52.8978 5.78335L52.8994 5.78022Z" fill="#1C3867"/>
<path d="M123.205 50.4161C123.353 49.5956 123.502 48.7735 123.644 47.9514C123.706 47.5906 123.972 47.5984 124.239 47.6031C124.612 47.6031 124.568 47.8777 124.53 48.1083C124.437 48.6731 124.313 49.2348 124.227 49.8011C124.172 50.162 123.93 50.6263 124.507 50.7785C125.03 50.9166 125.473 50.6922 125.629 50.1761C125.806 49.5497 125.937 48.9109 126.019 48.2652C126.077 47.8542 126.163 47.5294 126.67 47.6141C127.202 47.7035 126.935 48.1099 126.899 48.3546C126.762 49.2567 126.564 50.1478 126.405 51.0468C126.355 51.3339 126.248 51.6304 125.934 51.53C125.354 51.3449 124.815 51.599 124.257 51.5739C123.529 51.5426 123.174 51.1551 123.205 50.4161Z" fill="#1C3867"/>
<path d="M109.768 50.1697C109.87 49.6206 110.048 48.8299 110.158 48.0313C110.224 47.5607 110.521 47.5795 110.835 47.6124C111.315 47.6626 111.052 47.9921 111.019 48.2055C110.93 48.8246 110.825 49.4412 110.705 50.0552C110.65 50.3266 110.596 50.6027 110.887 50.7392C111.016 50.8055 111.159 50.8368 111.304 50.8299C111.448 50.823 111.588 50.7782 111.709 50.7C111.885 50.5859 112.032 50.4321 112.137 50.2512C112.242 50.0703 112.304 49.8672 112.316 49.6582C112.382 49.1154 112.519 48.582 112.591 48.0407C112.649 47.5999 112.942 47.5607 113.27 47.6124C113.666 47.6736 113.468 47.9607 113.427 48.1647C113.258 49.1389 113.066 50.1116 112.902 51.0859C112.852 51.3887 112.736 51.6209 112.41 51.5315C111.885 51.3887 111.386 51.5644 110.873 51.5723C110.073 51.5848 109.733 51.2287 109.768 50.1697Z" fill="#1C3867"/>
<path d="M106.26 46.3907C105.755 47.0183 105.331 47.6207 104.845 48.1541C104.204 48.842 103.83 49.7363 103.792 50.6753C103.776 50.909 103.717 51.1377 103.618 51.3499C103.473 51.6637 103.162 51.5649 102.924 51.5241C102.63 51.4739 102.777 51.2448 102.827 51.0895C103.322 49.5928 102.869 48.2404 102.218 46.91C102.126 46.7202 101.786 46.419 102.242 46.3076C102.509 46.2433 102.924 46.1256 103.053 46.6465C103.146 47.0198 103.368 47.3603 103.493 47.7258C103.682 48.2357 103.882 48.1745 104.15 47.7808C104.383 47.4372 104.674 47.1312 104.894 46.7798C105.2 46.2778 105.611 46.1632 106.26 46.3907Z" fill="#1C3867"/>
<path d="M141.886 51.5772C140.864 51.5772 140.55 51.2022 140.709 50.2076C140.775 49.7981 140.88 49.3949 140.97 48.9886C141.022 48.7485 141.196 48.4881 140.836 48.3234C140.784 48.2998 140.756 48.1947 140.743 48.1225C140.67 47.7193 141.749 46.6023 142.158 46.6525C142.491 46.6949 142.345 46.9192 142.3 47.062C142.171 47.4793 142.311 47.6393 142.74 47.6142C142.939 47.6033 143.188 47.5923 143.161 47.9186C143.141 48.1728 143.062 48.4159 142.751 48.3689C142.023 48.2606 141.872 48.6968 141.808 49.2725C141.768 49.6067 141.65 49.9315 141.602 50.2641C141.551 50.5637 141.647 50.7786 141.996 50.7959C142.281 50.8116 142.683 50.6469 142.639 51.1881C142.595 51.7294 142.144 51.5113 141.886 51.5772Z" fill="#1C3867"/>
<path d="M153.048 50.4148L153.865 46.4298C153.938 46.0784 154.202 46.0737 154.474 46.0988C154.845 46.1333 154.763 46.3875 154.714 46.6228C154.483 47.7461 154.243 48.8694 154.026 49.9943C153.972 50.2736 153.999 50.5669 153.949 50.8462C153.906 51.0831 154.681 51.4 153.887 51.5522C153.295 51.6667 153.09 51.3169 153.049 50.8038C153.045 50.7521 153.048 50.6987 153.048 50.4148Z" fill="#1C3867"/>
<path d="M116.348 48.3641C115.755 48.3187 115.405 48.6387 115.268 49.1674C115.111 49.7448 115.023 50.3362 114.928 50.9261C114.862 51.3419 114.704 51.6462 114.224 51.5411C113.713 51.4281 113.987 51.0297 114.026 50.7771C114.165 49.9079 114.353 49.0513 114.523 48.1806C114.532 48.0517 114.559 47.9245 114.602 47.8025C114.707 47.5954 116.802 47.5123 116.925 47.7021C117.047 47.8919 116.895 48.0519 116.856 48.2214C116.779 48.5571 116.538 48.3798 116.348 48.3641Z" fill="#1C3867"/>
<path d="M147.977 34.9965C147.238 34.9965 146.751 34.5431 146.762 33.8795C146.773 33.2158 147.266 32.7311 147.964 32.7295C148.705 32.7295 149.209 33.2331 149.181 33.9469C149.156 34.5776 148.664 35.0059 147.977 34.9965Z" fill="#1C3867"/>
<path d="M128.589 47.6008C129.101 47.5114 129.307 47.6871 129.152 48.3272C128.949 49.212 128.792 50.1063 128.68 51.0069C128.62 51.4383 128.422 51.5952 128.012 51.5544C127.498 51.5042 127.734 51.1261 127.762 50.9002C127.823 50.3887 127.988 49.8883 128.045 49.3752C128.086 49.0113 128.359 48.6332 127.858 48.2692C127.534 48.0339 127.921 47.6087 128.589 47.6008Z" fill="#1C3867"/>
<path d="M128.89 47.0092C128.612 46.9292 128.324 46.835 128.315 46.4867C128.307 46.173 128.453 45.9345 128.816 45.9235C129.179 45.9125 129.417 46.0349 129.434 46.4428C129.451 46.8507 129.151 46.8868 128.89 47.0092Z" fill="#1C3867"/>
<path fill-rule="evenodd" clip-rule="evenodd" d="M0.210938 22.6973C0.574053 14.136 4.84655 6.94426 13.3837 2.46984C17.0824 0.532281 21.0861 -0.18783 25.2973 0.152615C31.3608 0.640012 36.4737 3.07072 40.6362 7.44473C43.8729 10.7966 45.9903 15.0665 46.6975 19.6678C47.7539 26.2571 46.3957 32.36 42.5052 37.7695C39.1051 42.4996 34.4208 45.5354 28.7336 46.8328C16.7177 49.5752 4.42528 42.3145 1.10379 30.1322C0.528468 28.0221 0.258095 25.8852 0.210938 22.6973ZM2.45722 22.1152L2.45794 22.1165L2.45735 22.1168C2.68335 22.502 2.98136 22.7663 3.3239 22.9573C3.61691 23.1218 3.94221 23.2336 4.28223 23.3233C6.36503 23.8755 8.49971 23.9979 10.6407 24.0905C11.3536 24.1207 12.066 24.1699 12.7783 24.219H12.7783H12.7783H12.7783H12.7784H12.7784C13.8406 24.2924 14.9024 24.3657 15.9648 24.376C17.6295 24.3901 18.538 25.3534 19.2423 26.6524C19.598 27.3089 19.9367 27.9762 20.275 28.6428L20.2751 28.643C20.481 29.0485 20.6866 29.4537 20.8959 29.8561C21.3675 30.7472 21.9664 31.5285 22.8797 32.0164C22.9084 32.0319 22.938 32.0498 22.9682 32.0681C23.1034 32.15 23.2512 32.2395 23.3874 32.1498C23.4388 32.1165 23.4702 32.0805 23.4873 32.0426C23.5369 31.9432 23.4851 31.8312 23.4346 31.7223L23.4346 31.7223L23.4346 31.7222L23.4346 31.7222L23.4346 31.7222L23.4346 31.7222C23.4127 31.6749 23.3911 31.6282 23.3781 31.5834L23.1218 30.714L23.1216 30.7135L23.1216 30.7134L23.1216 30.7133L23.1216 30.7133L23.1215 30.7132C22.3284 28.0237 21.5365 25.3386 20.7703 22.6408C20.6288 22.1435 20.4119 22.0133 19.9057 22.0133C14.349 22.0305 8.79536 22.0305 3.24331 22.0305C3.18342 22.0305 3.1225 22.0257 3.06066 22.0209C3.01572 22.0173 2.97029 22.0137 2.92441 22.0119C2.77364 22.0043 2.61729 22.0176 2.45722 22.1152ZM27.2656 22.4206C27.414 22.019 27.6842 22.0123 28.0444 22.0137C30.8676 22.0242 33.6929 22.0278 36.5203 22.0247H37.5352C38.8897 22.0233 40.2441 22.0225 41.5977 22.0247H44.8436C44.8931 22.0247 44.9504 22.014 45.0096 22.003C45.1892 21.9694 45.3862 21.9326 45.4346 22.1816C45.4459 22.2424 45.4393 22.3005 45.4198 22.3552C45.3672 22.5203 45.1953 22.6543 45.0344 22.7334C44.1416 23.1711 43.2173 23.5508 42.2238 23.659C40.6414 23.8274 39.0569 23.9676 37.4703 24.0795C36.4857 24.149 35.5001 24.2066 34.5145 24.2641L34.5141 24.2641C33.3867 24.33 32.2594 24.3958 31.1339 24.4795C30.3574 24.5392 29.8229 25.082 29.3655 25.6687C28.7461 26.4596 28.3137 27.3551 27.8813 28.2505L27.8813 28.2505L27.8813 28.2506C27.6893 28.6481 27.4973 29.0457 27.289 29.434C26.7451 30.4585 26.1477 31.4281 25.0883 32.007C25.0532 32.0258 25.0174 32.0496 24.9809 32.0738C24.8408 32.1669 24.6901 32.2671 24.5255 32.1215C24.3913 32.0029 24.4563 31.8638 24.5165 31.7351C24.5359 31.6935 24.5549 31.6531 24.5664 31.6148C24.8644 30.5983 25.1648 29.5825 25.4653 28.5668L25.4654 28.5666L25.4654 28.5663L25.4655 28.5661L25.4656 28.5659L25.4656 28.5656C26.0605 26.5545 26.6554 24.5436 27.2308 22.5279C27.2416 22.4892 27.2532 22.4535 27.2656 22.4206ZM11.4549 25.2216V25.2203L11.4572 25.2147H11.4549V25.2122H9.76965C9.01035 25.2106 8.25115 25.2094 7.49162 25.2122H6.98594C6.94148 25.2122 6.89253 25.2064 6.84242 25.2004H6.8424H6.84238H6.84236H6.84234H6.84233C6.67454 25.1805 6.49375 25.1591 6.42477 25.3487C6.36867 25.5045 6.47812 25.6442 6.58359 25.7789C6.61409 25.8178 6.64425 25.8563 6.66999 25.8947L6.68426 25.9152L6.69092 25.9247C7.11778 26.5413 7.78243 26.7313 8.45165 26.9107C10.5062 27.4669 12.5938 27.4719 14.6816 27.477C15.7502 27.4795 16.8189 27.4821 17.8832 27.5586L17.8961 27.5596C17.9926 27.5672 18.0948 27.5753 18.1624 27.5347C18.2236 27.502 18.2593 27.4333 18.2425 27.2957C18.1561 26.5928 16.6549 25.2248 15.9302 25.2185C15.0089 25.2156 14.0899 25.2174 13.1722 25.2193L13.1707 25.2193C12.5984 25.2205 12.0265 25.2216 11.4549 25.2216ZM29.7448 27.5077C29.6493 27.4573 29.6591 27.3499 29.7999 27.1428C30.152 26.6266 30.5072 26.1089 30.9002 25.6257C31.18 25.2852 31.5934 25.2084 32.0336 25.2115C33.0276 25.2199 34.0244 25.2171 35.0184 25.2143H35.0188H35.0189H35.0189C35.5149 25.2129 36.0102 25.2115 36.5041 25.2115L36.5064 25.2138H36.5083C36.8806 25.2138 37.2528 25.2136 37.6252 25.2134C38.514 25.2129 39.403 25.2124 40.2931 25.2146H40.9778C41.0205 25.2146 41.0676 25.2103 41.1158 25.2059L41.1159 25.2059C41.2322 25.1953 41.3551 25.1841 41.4391 25.2311C41.4839 25.2548 41.5182 25.2943 41.5353 25.3581C41.5762 25.5103 41.43 25.7629 41.2964 25.9041C40.4067 26.8438 39.2497 27.2313 38.0032 27.2878C36.4746 27.3561 34.9443 27.3995 33.4141 27.443H33.414L33.4136 27.443C32.3066 27.4744 31.1997 27.5059 30.0933 27.5467C29.9298 27.5526 29.8105 27.5447 29.7448 27.5077ZM33.9555 28.6088C33.763 28.6088 33.5698 28.6132 33.3763 28.6193C33.2635 28.6226 33.1506 28.6264 33.0378 28.6303C32.3436 28.6539 31.6494 28.6776 30.9742 28.5796C30.923 28.5718 30.8729 28.5655 30.8236 28.5605C29.5978 28.434 28.9661 29.1383 28.3956 30.049C28.3781 30.0773 28.3569 30.1054 28.3356 30.1337C28.2609 30.2328 28.1834 30.3355 28.2494 30.4648C28.2663 30.4979 28.2873 30.5218 28.3113 30.5388C28.385 30.5993 28.4851 30.5832 28.5822 30.5675C28.6147 30.5623 28.6468 30.5571 28.6776 30.5548C29.1908 30.5177 29.705 30.5031 30.2197 30.498C30.5877 30.4945 30.9559 30.4957 31.3241 30.4969H31.3242C31.5222 30.4976 31.7201 30.4982 31.9181 30.4982C33.0355 30.498 34.1518 30.4746 35.2608 30.2944L35.3782 30.2751C36.2845 30.1269 37.2113 29.9753 37.9331 29.3091C38.0903 29.1664 38.2428 28.9765 38.1846 28.7663C38.1256 28.543 37.9516 28.5696 37.7894 28.5944C37.7453 28.6011 37.7021 28.6077 37.6623 28.6091C37.6593 28.6091 37.6563 28.6091 37.6534 28.6091C37.6494 28.6091 37.6455 28.609 37.6417 28.6088C36.8255 28.6057 36.0066 28.6067 35.1868 28.6078C34.7765 28.6083 34.366 28.6088 33.9555 28.6088ZM9.99696 28.5943C10.0703 28.5887 10.1436 28.5958 10.2155 28.6026C10.2694 28.6078 10.3226 28.6129 10.3744 28.6126C11.0569 28.6101 11.7402 28.6192 12.4234 28.6283C13.8836 28.6479 15.3436 28.6674 16.7957 28.5733C18.2937 28.4761 19.1536 29.0644 19.7195 30.4905C19.1474 30.4876 18.5782 30.493 18.0117 30.4983C15.7761 30.5193 13.5814 30.54 11.4118 30.0543C11.0404 29.9844 10.6906 29.8286 10.3903 29.5995C10.0901 29.3704 9.84772 29.0743 9.68272 28.7349C9.78497 28.6364 9.89107 28.6023 9.99696 28.5943Z" fill="#1C3867"/>
<path fill-rule="evenodd" clip-rule="evenodd" d="M59.4725 13.1991C59.2807 13.3972 59.0869 13.5974 58.88 13.7929C58.5579 13.3162 58.5395 12.7977 58.5213 12.2861C58.5108 11.9913 58.5004 11.6987 58.432 11.4177C58.311 10.9078 58.1428 10.7258 57.6178 10.7383C56.2832 10.7776 54.9455 10.7932 53.6109 10.7383C52.8674 10.7038 52.6992 10.9862 52.6992 11.6797C52.7233 22.5279 52.7233 33.3745 52.6992 44.2196C52.6977 44.9335 52.9429 45.1296 53.5968 45.1139C55.087 45.081 56.5819 45.0527 58.0736 45.081C58.6521 45.0904 58.7684 44.8754 58.7684 44.3514C58.7464 40.6144 58.7464 36.8773 58.7464 33.1403C58.7464 33.097 58.7408 33.0512 58.735 33.0042C58.7133 32.8278 58.6895 32.6345 58.9539 32.497C60.2272 34.0141 61.9029 34.8268 63.8269 35.2347C65.5106 35.5942 67.2456 35.6474 68.9482 35.3916C72.4631 34.8754 75.2391 33.2438 77.0892 30.1861C78.6942 27.5268 79.2789 24.6574 78.9473 21.5573C78.6989 19.251 78.1016 17.1048 76.7214 15.2222C74.3745 12.0342 71.1709 10.3634 67.2317 10.2426C64.7606 10.1673 62.4074 10.6693 60.4064 12.3056C60.0717 12.5802 59.7747 12.887 59.4725 13.1991ZM65.1789 29.6822C61.8719 29.2491 59.2201 26.4877 59.3218 22.8547C59.2557 18.9012 62.2377 15.9956 66.1219 16.0505C66.4488 16.0552 66.7675 16.0767 67.0772 16.1146C70.6114 16.5459 72.9808 19.0992 72.9808 22.9709C72.9808 23.5775 72.9083 24.159 72.7714 24.7086C72.0194 27.731 69.3181 29.7896 66.006 29.7413C65.9538 29.7405 65.9015 29.7392 65.849 29.7374C65.7289 29.7333 65.6095 29.7261 65.4908 29.716C65.3862 29.707 65.2822 29.6958 65.1789 29.6822Z" fill="#1C3867"/>
<path fill-rule="evenodd" clip-rule="evenodd" d="M110.9 23.4302C103.986 23.4114 99.853 28.6687 100.018 34.2366C99.7854 40.4697 104.478 45.2705 110.963 45.2093C116.786 45.156 121.745 41.0032 121.715 34.2272C121.685 27.867 116.838 23.4491 110.9 23.4302ZM115.852 37.2768C116.264 36.3983 116.494 35.3887 116.49 34.335C116.471 29.917 112.602 27.0554 108.684 28.6117C106.944 29.3101 105.96 30.5696 105.512 32.1373C105.348 32.7061 105.255 33.3158 105.221 33.9542C104.974 38.7832 108.766 41.444 112.906 40.0728C114.185 39.6444 115.228 38.6108 115.852 37.2768Z" fill="#1C3867"/>
<path fill-rule="evenodd" clip-rule="evenodd" d="M122.465 51.7131C122.515 51.0761 122.088 50.8533 121.522 50.6635C122.666 49.6924 122.812 49.4178 122.951 47.9933C122.976 47.7077 122.701 47.463 122.543 47.5509C122.243 47.7142 121.956 47.6686 121.671 47.6235C121.529 47.601 121.388 47.5786 121.247 47.5822C120.5 47.6011 119.995 47.9305 119.714 48.5816C119.44 49.2013 119.436 49.8132 120.028 50.2838C120.105 50.3435 120.236 50.4533 120.222 50.5003C119.977 51.2511 120.431 51.3052 120.893 51.3603C120.958 51.3679 121.022 51.3756 121.085 51.3852C121.303 51.4166 121.493 51.5076 121.501 51.7711C121.501 51.9861 121.353 52.0912 121.187 52.1806C120.747 52.4159 120.321 52.3108 119.907 52.1131C119.632 51.9798 119.42 51.9594 119.279 52.2936C119.136 52.6274 119.35 52.7144 119.554 52.7973C119.586 52.8106 119.619 52.8238 119.65 52.838C119.935 52.9701 120.245 53.0432 120.559 53.0529C120.874 53.0626 121.188 53.0087 121.481 52.8944C122.047 52.6873 122.415 52.35 122.465 51.7131ZM120.584 49.71C120.502 49.5985 120.456 49.4326 120.451 49.206C120.467 49.1085 120.486 49.0102 120.514 48.9168C120.601 48.6247 120.772 48.3796 121.213 48.357C121.267 48.354 121.317 48.3543 121.365 48.3583C121.642 48.3804 121.821 48.5268 121.847 48.8656C121.88 49.3456 121.416 49.8885 120.981 49.8885C120.97 49.8884 120.958 49.888 120.947 49.8875C120.788 49.8801 120.667 49.8224 120.584 49.71Z" fill="#1C3867"/>
<path fill-rule="evenodd" clip-rule="evenodd" d="M132.28 47.6438C130.667 47.5261 129.757 48.4125 129.744 50.0285C129.735 51.1455 130.315 51.6915 131.412 51.5565C131.742 51.4908 132.081 51.4812 132.415 51.5283C132.759 51.602 132.975 51.5016 133.044 51.0733C133.216 50.0102 133.412 48.9439 133.608 47.8778C133.686 47.454 133.764 47.0302 133.841 46.6068C133.842 46.6004 133.843 46.594 133.845 46.5876C133.891 46.3595 133.939 46.1229 133.573 46.1C133.286 46.0828 133.052 46.122 133.004 46.475C132.99 46.5824 132.965 46.6885 132.941 46.7944C132.912 46.9175 132.883 47.0405 132.871 47.1653C132.835 47.5402 132.72 47.6767 132.28 47.6438ZM130.684 49.9296C130.684 49.9297 130.684 49.9297 130.684 49.9298C130.685 49.9448 130.685 49.96 130.686 49.9751C130.69 50.0608 130.694 50.1476 130.705 50.2313C130.724 50.3961 130.77 50.5486 130.891 50.6561C130.944 50.7034 131.011 50.742 131.096 50.7691C131.197 50.8007 131.3 50.8212 131.401 50.8255C131.632 50.8366 131.853 50.7633 132.024 50.5431C132.442 49.9971 132.495 49.3413 132.534 48.6949C132.549 48.4047 132.264 48.3592 132.017 48.3419C131.96 48.3382 131.905 48.3386 131.85 48.3429C131.8 48.3469 131.75 48.3543 131.702 48.3649C131.103 48.4962 130.677 49.1209 130.683 49.9296H130.684Z" fill="#1C3867"/>
<path fill-rule="evenodd" clip-rule="evenodd" d="M134.29 50.7033C134.563 51.3638 135.104 51.6242 135.807 51.5803C135.869 51.5766 135.931 51.574 135.993 51.5713C136.14 51.5651 136.288 51.5589 136.434 51.5379C136.852 51.4799 136.929 51.1175 136.879 50.8288C136.825 50.5208 136.682 50.6097 136.539 50.6993C136.471 50.742 136.402 50.7849 136.343 50.7849C136.265 50.786 136.187 50.7927 136.109 50.7993C135.874 50.8192 135.64 50.8392 135.42 50.7096C135.208 50.5841 135.033 50.4099 135.106 50.1401C135.172 49.8951 135.323 49.9416 135.472 49.9873C135.523 50.0031 135.574 50.0188 135.621 50.0224C136.226 50.0793 136.83 49.916 137.324 49.5627C137.725 49.2709 137.806 48.841 137.739 48.3704C137.715 48.1854 137.63 48.0134 137.498 47.8812C137.367 47.7491 137.195 47.664 137.009 47.6393C136.154 47.4855 135.302 47.5797 134.717 48.2935C134.133 49.0073 133.927 49.8216 134.29 50.7033ZM135.825 49.3131C135.825 49.3131 135.824 49.3132 135.824 49.3133C135.804 49.3052 135.782 49.3002 135.759 49.2971C135.715 49.2916 135.667 49.2927 135.62 49.2938C135.585 49.2946 135.551 49.2953 135.519 49.2935C135.407 49.2876 135.324 49.2503 135.362 49.0685C135.396 48.861 135.506 48.6735 135.671 48.5425C135.702 48.5174 135.735 48.4947 135.77 48.4746C135.915 48.3884 136.085 48.3473 136.255 48.3581C136.282 48.3581 136.311 48.3574 136.341 48.3567C136.577 48.3508 136.879 48.3433 136.834 48.6719C136.827 48.7271 136.815 48.7768 136.8 48.8215C136.731 49.0265 136.577 49.1279 136.395 49.189C136.282 49.2271 136.158 49.2496 136.037 49.2717C135.965 49.2848 135.894 49.2977 135.826 49.3136C135.826 49.3134 135.825 49.3132 135.825 49.3131Z" fill="#1C3867"/>
<path fill-rule="evenodd" clip-rule="evenodd" d="M107.855 47.5933C106.542 47.5948 105.654 48.5628 105.654 50.0062C105.651 51.1091 106.087 51.5719 107.126 51.5704C108.448 51.5688 109.386 50.5678 109.418 49.1276C109.438 48.1596 108.859 47.5933 107.855 47.5933ZM107.746 48.3444C107.64 48.341 107.533 48.3561 107.431 48.3897C107.269 48.4429 107.126 48.5404 107.017 48.671C106.71 49.0177 106.594 49.4303 106.584 49.9591C106.585 49.9777 106.586 49.9966 106.587 50.0157C106.589 50.0735 106.591 50.1332 106.596 50.1928C106.615 50.475 106.687 50.7531 107.101 50.8119C107.136 50.8169 107.173 50.8203 107.213 50.8219C107.842 50.847 108.34 50.3073 108.471 49.4021C108.537 48.9409 108.504 48.4859 107.932 48.3698C107.87 48.3549 107.808 48.3465 107.746 48.3444Z" fill="#1C3867"/>
<path fill-rule="evenodd" clip-rule="evenodd" d="M143.539 50.0544C143.537 51.0962 144.025 51.5668 145.076 51.5668C146.203 51.7159 147.312 50.58 147.312 49.0739C147.312 48.0933 146.746 47.5913 145.705 47.5913C144.432 47.5944 143.539 48.6079 143.539 50.0544ZM144.504 49.561C144.486 49.6686 144.476 49.7819 144.472 49.9005C144.472 49.9079 144.473 49.9153 144.473 49.9227C144.473 49.9375 144.473 49.9522 144.473 49.967C144.474 50.3973 144.504 50.8061 145.114 50.8262C145.114 50.8262 145.114 50.8262 145.114 50.8262C145.114 50.8262 145.114 50.8262 145.114 50.8262C145.116 50.8262 145.117 50.8263 145.119 50.8263C145.806 50.8467 146.362 50.1705 146.376 49.248C146.376 48.7908 146.304 48.3795 145.722 48.3636C145.703 48.363 145.684 48.3628 145.664 48.363C145.656 48.3631 145.648 48.3633 145.64 48.3635C145.051 48.378 144.622 48.8361 144.504 49.561Z" fill="#1C3867"/>
</svg>
