<svg width="76" height="13" viewBox="0 0 76 13" fill="none" xmlns="http://www.w3.org/2000/svg">
<path fill-rule="evenodd" clip-rule="evenodd" d="M12.9046 6.5767C12.8408 3.50754 10.347 1.01378 7.27789 1.01378C4.20874 1.01378 1.77879 3.57134 1.77879 6.64049H0.691406C0.691406 3.25155 3.37696 0.502188 6.7659 0.437988C10.1548 0.437988 12.9684 3.18775 12.9684 6.5767H12.9046Z" fill="white"/>
<path fill-rule="evenodd" clip-rule="evenodd" d="M12.8422 6.64043C12.8422 4.14666 10.86 2.16449 8.36629 2.16449C5.87253 2.16449 4.08217 4.14666 4.08217 6.64043H2.86719C2.86719 3.82687 5.16915 1.5891 7.9827 1.5249C10.7324 1.5249 12.9702 4.08246 13.034 6.57622L12.8422 6.64043Z" fill="white"/>
<path fill-rule="evenodd" clip-rule="evenodd" d="M12.9048 6.57653C12.9048 4.78616 11.3705 3.31558 9.51589 3.31558C7.66132 3.31558 6.31875 4.78616 6.31875 6.64073H5.16797C5.16797 4.46676 6.83074 2.67639 9.0047 2.67639C11.1787 2.67639 12.9052 4.46676 12.969 6.57693L12.9048 6.57653Z" fill="white"/>
<path fill-rule="evenodd" clip-rule="evenodd" d="M0.819404 6.64046C0.819404 9.70961 3.31316 12.2034 6.3823 12.2034C9.51565 12.2034 11.9452 9.64541 11.9452 6.57666H13.0322C13.0322 9.96521 10.2824 12.7788 6.89389 12.7788C3.50496 12.7788 0.755606 10.0294 0.691406 6.64046H0.819404Z" fill="white"/>
<path fill-rule="evenodd" clip-rule="evenodd" d="M0.819003 6.57666C0.819003 9.07042 2.80117 11.0522 5.29492 11.0522C7.78868 11.0522 9.64284 9.07042 9.57904 6.57666H10.794C10.794 9.39022 8.49206 11.6918 5.74271 11.6918C2.92916 11.6918 0.691406 9.13462 0.691406 6.64046L0.819003 6.57666Z" fill="white"/>
<path fill-rule="evenodd" clip-rule="evenodd" d="M0.755859 6.64048C0.819658 8.43086 2.35443 9.90183 4.1448 9.90183C5.99936 9.90183 7.34194 8.43086 7.34194 6.57669H8.49272C8.49272 8.75065 6.83035 10.5414 4.65599 10.5414C2.48243 10.5414 0.755859 8.81485 0.755859 6.64048ZM22.5601 8.04766H20.5137L22.1765 4.46652L22.5601 8.04766ZM18.9793 11.372L19.5547 10.0928H22.7519L22.9441 11.372H26.1412L24.3508 1.46116H21.0895L15.7822 11.372H18.9793ZM27.6114 11.372L29.3379 1.46116H32.5989L30.8727 11.372H27.6114ZM37.267 3.89072H38.866C39.3768 3.89072 39.6966 3.95492 39.8888 4.14672C40.0163 4.27432 40.0809 4.53031 40.0163 4.78591C39.9529 5.10571 39.8242 5.3617 39.569 5.4893C39.3768 5.6815 38.9936 5.7453 38.482 5.7453H36.9472L37.267 3.89072ZM35.9878 11.372L36.5636 7.91926H37.8424C38.226 7.91926 38.5462 7.98346 38.7372 8.04766C38.9294 8.17526 39.057 8.30326 39.1212 8.49506C39.1846 8.68645 39.1846 8.94245 39.1212 9.26224L39.057 10.0294C38.9294 10.669 38.9294 11.1164 38.9294 11.372H42.2545V11.0522C42.1903 11.0522 42.0623 11.0522 42.0623 10.9888C41.9989 10.9246 41.9989 10.7966 42.0623 10.5414L42.3187 9.00625C42.3821 8.30326 42.3821 7.79167 42.1903 7.53607C41.9989 7.21628 41.6149 6.95988 41.0399 6.70468C41.3597 6.64088 41.6153 6.51248 41.8705 6.38529C42.1903 6.12929 42.4467 5.8737 42.6377 5.5539C42.8941 5.16991 43.0217 4.78631 43.1493 4.27472C43.2135 3.89112 43.2135 3.57133 43.1493 3.31573C43.0942 3.04147 42.9855 2.78077 42.8295 2.54855C42.6496 2.30446 42.434 2.08884 42.1899 1.90896C41.8701 1.78096 41.5503 1.65296 41.1029 1.58916C40.6555 1.52536 40.0805 1.46116 39.3768 1.46116H34.581L32.8545 11.372H35.9878ZM49.288 3.69893C49.7354 3.69893 50.0552 3.76273 50.1828 3.76273C50.375 3.82693 50.5026 3.95492 50.5668 4.08252C50.6944 4.21052 50.6944 4.40232 50.6944 4.59411C50.6302 4.85011 50.5022 5.04191 50.247 5.23371C50.0548 5.3617 49.6708 5.4893 49.16 5.4893H47.945L48.2648 3.69893H49.288ZM48.7764 11.372C49.5436 11.372 50.0556 11.3086 50.375 11.2444C50.6944 11.1802 51.0779 11.0522 51.3977 10.9246C51.7817 10.7324 52.0373 10.6048 52.2291 10.413C52.5489 10.2216 52.7407 9.90224 52.9329 9.58244C53.1636 9.2356 53.3162 8.84283 53.3803 8.43126C53.4437 7.85587 53.3803 7.34427 53.1881 6.96028C52.9325 6.51288 52.6127 6.25729 52.1011 6.12929C53.0605 5.5539 53.6355 4.85051 53.7635 4.01912C53.9557 3.12394 53.7001 2.48435 52.9963 2.03695C52.4847 1.65296 51.6537 1.46116 50.375 1.46116H45.5154L43.7889 11.372H48.7764ZM48.9682 7.21627C49.6078 7.21627 49.991 7.34387 50.1828 7.47187C50.375 7.66407 50.4384 7.85586 50.375 8.17566C50.3108 8.43126 50.1828 8.68645 49.9276 8.87865C49.6712 9.00625 49.288 9.13505 48.6484 9.13505H47.3058L47.6256 7.21668L48.9682 7.21627ZM56.4494 1.46116H59.647L58.56 7.59947C58.4958 7.98346 58.4958 8.30326 58.56 8.49506C58.6234 8.68645 58.7514 8.87825 59.0074 9.00584C59.263 9.13424 59.519 9.19804 59.838 9.19804C60.2862 9.19804 60.7336 9.07045 60.9892 8.81485C61.309 8.55845 61.5008 8.11106 61.6288 7.59947L62.7157 1.46116H65.9133L64.8897 7.27967C64.7621 7.98346 64.6341 8.55885 64.4423 9.00625C64.2501 9.39024 63.9949 9.77344 63.6751 10.0932C63.3553 10.413 62.9713 10.7328 62.5881 10.9246C62.1407 11.1802 61.6934 11.372 61.1814 11.5C60.606 11.5642 60.0302 11.6284 59.4548 11.6284C58.751 11.6284 58.1756 11.5642 57.664 11.5C57.1532 11.3724 56.7692 11.1802 56.4494 10.9246C56.0663 10.669 55.8099 10.413 55.6181 10.0932C55.4267 9.77344 55.2983 9.32604 55.2983 8.81485C55.2349 8.49506 55.2983 7.91926 55.4267 7.21627L56.4494 1.46116ZM75.7603 4.33852H72.627C72.627 4.08252 72.4994 3.82692 72.3706 3.69893C72.1792 3.57093 71.9232 3.50713 71.54 3.50713C71.156 3.50713 70.8362 3.57093 70.6452 3.69893C70.453 3.82692 70.3888 3.95492 70.3254 4.14672C70.3254 4.33852 70.3254 4.40232 70.453 4.53031C70.5806 4.65831 70.9004 4.78591 71.4758 4.91391L72.6904 5.23371C73.7773 5.5535 74.5453 5.93709 74.9285 6.44869C75.3125 6.95988 75.4401 7.53567 75.3125 8.23866C75.1841 8.81485 74.9927 9.26224 74.6729 9.70964C74.3531 10.157 73.9691 10.541 73.5859 10.7966C73.202 11.0522 72.6904 11.244 72.115 11.4362C71.5396 11.5638 70.9004 11.6284 70.2608 11.6284C69.6212 11.6284 68.9816 11.5642 68.4066 11.372C67.8304 11.1798 67.383 10.9246 67.0633 10.6048C66.7435 10.285 66.4879 9.90183 66.3603 9.45444C66.2961 9.13465 66.2961 8.75065 66.2961 8.30326H69.4294C69.4294 8.62305 69.557 8.87865 69.7492 9.00625C69.9414 9.19844 70.3254 9.26264 70.8362 9.26264C71.2836 9.26264 71.6034 9.19844 71.7956 9.07045C71.9878 8.94245 72.052 8.81485 72.1154 8.62305C72.1154 8.43086 72.1154 8.23906 71.9878 8.11146C71.8602 7.98386 71.5404 7.85587 70.9642 7.72827L69.8772 7.47187C69.3664 7.34427 68.7902 7.15208 68.3428 6.89648C67.8954 6.64048 67.5123 6.32069 67.3201 5.87329C67.1279 5.4897 67.1279 5.04231 67.1925 4.46652C67.3201 3.89113 67.5123 3.44373 67.8312 2.99594C68.151 2.54855 68.535 2.22875 68.9824 1.97275C69.3664 1.65296 69.8772 1.52536 70.3892 1.39736C70.9012 1.26936 71.4128 1.20557 71.9236 1.20557C72.5632 1.20557 73.0748 1.26936 73.5867 1.39736C74.0975 1.52536 74.4173 1.71716 74.7371 1.90896C74.9935 2.10075 75.1845 2.35635 75.3133 2.61234C75.5047 2.86794 75.5689 3.12394 75.6331 3.37953C75.6961 3.63513 75.7603 3.95492 75.7603 4.33852Z" fill="white"/>
</svg>
