<svg width="72" height="17" viewBox="0 0 72 17" fill="none" xmlns="http://www.w3.org/2000/svg">
<path d="M11.0114 10.2423C11.5876 9.04506 11.701 7.68749 11.3308 6.41624C10.9607 5.14498 10.1316 4.04437 8.9943 3.31434C9.90812 2.40555 10.8977 1.50491 11.9421 0.64502C10.7237 1.34603 9.56726 2.14343 8.48475 3.02907C7.30967 2.4361 5.95786 2.25775 4.66164 2.52468C3.36542 2.7916 2.20576 3.48714 1.38197 4.49173C0.558179 5.49632 0.121707 6.74724 0.147571 8.02947C0.173435 9.31171 0.660019 10.5452 1.5237 11.5179C0.433004 13.8041 0.260346 15.638 1.20365 16.2575C2.23538 16.9217 4.47572 15.7155 5.83593 13.7552C5.83593 13.7552 3.75561 15.5687 2.61439 15.1531C1.91112 14.8963 1.91112 13.853 2.48805 12.3615C3.58115 13.1375 4.92421 13.5113 6.27631 13.4157C7.62841 13.3201 8.90108 12.7614 9.86601 11.8399L10.0681 12.2066C12.5527 12.011 19.9686 11.8195 19.9686 11.8195C19.9517 11.4812 15.0415 11.8072 11.0114 10.2423ZM0.828853 7.91534C0.829749 7.10307 1.04111 6.30398 1.44359 5.59118C1.84607 4.87838 2.42682 4.27463 3.13272 3.83516C3.83862 3.39569 4.64712 3.13453 5.48427 3.07558C6.32141 3.01664 7.16046 3.16178 7.92466 3.49773C5.46303 5.5814 3.40771 8.0756 1.85638 10.8618C1.18782 10.016 0.826609 8.98021 0.828853 7.91534ZM5.84435 12.769C4.71833 12.7711 3.62463 12.4049 2.74072 11.7298C3.73456 9.56176 5.75591 6.652 8.51423 3.80745C9.55034 4.43882 10.312 5.41518 10.6556 6.55247C10.9993 7.68975 10.9012 8.90941 10.3798 9.98152C9.5092 9.60341 8.70501 9.09604 7.99625 8.47773L9.50806 11.2245C9.03999 11.7119 8.47304 12.1007 7.84264 12.3665C7.21224 12.6322 6.53197 12.7693 5.84435 12.769Z" fill="white"/>
<path d="M45.0208 7.40992L45.9473 6.21586H42.7131L43.509 5.19296H46.7474L47.6781 3.9989H41.2182L36.7754 9.70431H43.2353L44.1618 8.51025H40.9276L41.7825 7.40992H45.0208Z" fill="white"/>
<path d="M49.5053 3.9989L45.0625 9.70431H48.2882L52.7268 3.9989H49.5053Z" fill="white"/>
<path d="M60.2425 3.9989L57.9896 6.89236L57.2989 3.9989H54.7807L50.3379 9.70431H52.4687L54.7007 6.83938L55.3871 9.70431H57.9306L62.3734 3.9989H60.2425Z" fill="white"/>
<path d="M70.7803 3.99888H65.6005C65.1798 3.99841 64.7647 4.09282 64.3883 4.27462C64.0118 4.45642 63.6843 4.72061 63.4318 5.04623L60.7577 8.48171C60.6533 8.61392 60.597 8.77583 60.5977 8.94221C60.5977 9.14471 60.6805 9.33897 60.8281 9.48253C60.9756 9.6261 61.1759 9.70729 61.3851 9.70837H66.5649C66.9863 9.70916 67.402 9.61492 67.7792 9.43312C68.1564 9.25132 68.4846 8.98696 68.7378 8.66102L69.3821 7.84596H70.1317L71.0666 6.62337H67.0997L65.8363 8.23311C65.7708 8.31801 65.6856 8.3869 65.5876 8.43431C65.4896 8.48171 65.3816 8.50632 65.2721 8.50616H64.3582C64.3035 8.50616 64.251 8.48512 64.2123 8.44767C64.1736 8.41022 64.1519 8.35943 64.1519 8.30647C64.1515 8.26357 64.1664 8.22186 64.194 8.18829L66.2996 5.45784C66.3649 5.37271 66.4501 5.30364 66.5481 5.25621C66.6461 5.20878 66.7543 5.18431 66.8639 5.18479H67.7777C67.8048 5.18479 67.8316 5.18996 67.8567 5.2C67.8817 5.21003 67.9044 5.22474 67.9236 5.24328C67.9428 5.26183 67.958 5.28384 67.9683 5.30807C67.9787 5.33229 67.984 5.35826 67.984 5.38448C67.9829 5.42713 67.9682 5.46839 67.9419 5.50267L67.5966 5.94687H70.8139L71.3825 5.21332C71.4713 5.1 71.5255 4.9649 71.5391 4.82328C71.5527 4.68167 71.5251 4.5392 71.4594 4.41199C71.3936 4.28478 71.2924 4.17791 71.1672 4.10346C71.042 4.02902 70.8977 3.98997 70.7508 3.99073L70.7803 3.99888Z" fill="white"/>
<path d="M38.5756 4.76526C38.5756 4.56314 38.4926 4.3693 38.3449 4.22639C38.1972 4.08347 37.9969 4.00318 37.7881 4.00318H32.6084C32.187 4.00239 31.7712 4.09663 31.394 4.27843C31.0168 4.46023 30.6886 4.72459 30.4354 5.05053L27.7613 8.486C27.6741 8.59973 27.6212 8.7346 27.6085 8.87566C27.5957 9.01672 27.6236 9.15843 27.6891 9.28508C27.7545 9.41173 27.8549 9.51835 27.9792 9.59311C28.1034 9.66787 28.2467 9.70784 28.393 9.70859H33.5727C33.9941 9.70938 34.4099 9.61514 34.787 9.43334C35.1642 9.25154 35.4925 8.98718 35.7457 8.66124L38.4198 5.22577C38.5224 5.0929 38.5771 4.93112 38.5756 4.76526ZM34.975 5.51104L32.8694 8.23741C32.8041 8.32254 32.719 8.39161 32.6209 8.43904C32.5229 8.48647 32.4147 8.51093 32.3051 8.51045H31.3745C31.3365 8.51008 31.2994 8.49958 31.2672 8.48011C31.235 8.46063 31.209 8.43294 31.192 8.40008C31.175 8.36721 31.1677 8.33046 31.171 8.29385C31.1742 8.25724 31.1878 8.22219 31.2102 8.19258L33.3158 5.46213C33.3819 5.3777 33.4671 5.30915 33.565 5.26179C33.6629 5.21444 33.7707 5.18956 33.8801 5.18909H34.7939C34.8487 5.18909 34.9012 5.21013 34.9399 5.24758C34.9786 5.28503 35.0003 5.33582 35.0003 5.38878C34.9991 5.43142 34.9844 5.47268 34.9582 5.50696L34.975 5.51104Z" fill="white"/>
<path d="M26.3917 6.99018C27.0177 6.85282 27.5728 6.50475 27.9582 6.00803L28.5731 5.2215C28.6619 5.10818 28.7161 4.97307 28.7297 4.83146C28.7433 4.68985 28.7157 4.54738 28.65 4.42017C28.5843 4.29296 28.4831 4.18609 28.3578 4.11164C28.2326 4.0372 28.0884 3.99815 27.9414 3.99891H21.4057L16.9629 9.70432H23.726C24.1474 9.70511 24.5632 9.61087 24.9404 9.42907C25.3175 9.24727 25.6458 8.98292 25.899 8.65697L26.5264 7.84191C26.6093 7.73653 26.6537 7.60755 26.6528 7.47514C26.6526 7.37926 26.6293 7.28475 26.5847 7.19913C26.5401 7.11352 26.4755 7.03917 26.3959 6.98203L26.3917 6.99018ZM23.4018 7.73188L23.0017 8.24537C22.9361 8.33026 22.8509 8.39916 22.753 8.44656C22.655 8.49397 22.5469 8.51857 22.4374 8.51841H21.1193L21.9615 7.41808H23.2249C23.2796 7.41808 23.3321 7.43912 23.3708 7.47657C23.4095 7.51402 23.4312 7.56481 23.4312 7.61777C23.4313 7.66062 23.4164 7.70223 23.3891 7.73596L23.4018 7.73188ZM25.1283 5.51492L24.7872 5.95098C24.721 6.03489 24.6356 6.10283 24.5377 6.14949C24.4398 6.19615 24.3321 6.22027 24.2229 6.21995H22.9048L23.7008 5.19705H24.9641C24.9912 5.19705 25.018 5.20221 25.0431 5.21225C25.0681 5.22228 25.0908 5.23699 25.11 5.25554C25.1292 5.27408 25.1444 5.29609 25.1547 5.32032C25.1651 5.34455 25.1704 5.37051 25.1704 5.39674C25.1693 5.43938 25.1546 5.48064 25.1283 5.51492Z" fill="white"/>
</svg>
