<svg width="12" height="11" viewBox="0 0 12 11" fill="none" xmlns="http://www.w3.org/2000/svg">
<path fill-rule="evenodd" clip-rule="evenodd" d="M5.7919 0.351074C5.89327 0.351009 5.99263 0.37932 6.07874 0.432804C6.16485 0.486288 6.23428 0.562809 6.27915 0.653705L7.64171 3.41575L10.6897 3.85884C10.79 3.8734 10.8841 3.91571 10.9616 3.98099C11.0391 4.04627 11.0967 4.13191 11.128 4.22824C11.1594 4.32458 11.1632 4.42775 11.1389 4.52611C11.1147 4.62446 11.0634 4.71408 10.9909 4.78483L8.78563 6.9351L9.30618 9.97009C9.32334 10.0699 9.31226 10.1726 9.27411 10.2665C9.23595 10.3604 9.17231 10.4417 9.09036 10.5013C9.0084 10.5609 8.91138 10.5964 8.81031 10.6037C8.70924 10.611 8.60817 10.5899 8.51847 10.5428L5.7919 9.10926L3.06533 10.5428C2.97568 10.5898 2.87467 10.6109 2.7737 10.6036C2.67271 10.5963 2.57579 10.5609 2.49386 10.5014C2.41194 10.4419 2.34828 10.3607 2.31006 10.2669C2.27185 10.1732 2.26061 10.0707 2.27762 9.97082L2.7989 6.93438L0.592154 4.78483C0.519441 4.71411 0.467988 4.62444 0.443627 4.52598C0.419267 4.42752 0.422972 4.3242 0.454323 4.22774C0.485674 4.13127 0.543417 4.04551 0.621009 3.98019C0.698602 3.91486 0.792943 3.87257 0.893339 3.85811L3.94136 3.41575L5.30465 0.653705C5.34952 0.562809 5.41894 0.486288 5.50505 0.432804C5.59116 0.37932 5.69053 0.351009 5.7919 0.351074Z" fill="#F3B316"/>
</svg>
