<svg width="447" height="168" viewBox="0 0 447 168" fill="none" xmlns="http://www.w3.org/2000/svg">
<g opacity="0.4">
<path d="M189.679 150.578V154.121C189.679 155.713 188.384 157.007 186.793 157.007C185.202 157.007 183.908 155.713 183.908 154.121V150.578H182.646V154.121C182.646 156.408 184.507 158.269 186.793 158.269C189.079 158.269 190.94 156.408 190.94 154.121V150.578H189.679Z" fill="#1C3867"/>
<path d="M231.738 121.64L195.474 143.592V144.425H195.159V143.783L194.99 143.885C194.848 143.97 194.746 144.108 194.705 144.268L194.322 145.756C194.182 146.298 193.814 146.724 193.344 146.974L193.219 148.368C194.338 148.088 195.247 147.226 195.545 146.068L195.863 144.832L233.007 122.347C232.576 122.127 232.152 121.893 231.738 121.64Z" fill="#1C3867"/>
<path d="M194.01 139.524C197.147 139.759 200.313 138.95 202.935 137.234L230.304 120.654C229.946 120.387 229.597 120.107 229.255 119.813L202.263 136.167C199.859 137.742 196.973 138.462 194.123 138.257L194.01 139.524Z" fill="#1C3867"/>
<path d="M193.347 146.972L194.015 139.522L194.129 138.255L194.13 138.245C194.13 134.201 190.84 130.911 186.795 130.911C182.751 130.911 179.462 134.201 179.463 138.301L180.514 150.002C180.543 150.327 180.815 150.576 181.142 150.576H182.648H183.909H189.68H190.941H192.446C192.773 150.576 193.045 150.327 193.074 150.002L193.221 148.366L193.347 146.972ZM192.051 149.911L191.78 149.314H181.718L181.708 149.193L181.448 149.721L180.882 149.442L181.6 147.987L180.723 138.243C180.723 134.98 183.316 132.33 186.547 132.196V131.552H187.177V132.212C190.346 132.413 192.87 135.026 192.872 138.189L191.972 148.211L192.628 149.651L192.051 149.911Z" fill="#1C3867"/>
<path d="M314.694 150.578V154.121C314.694 155.713 313.4 157.007 311.809 157.007C310.218 157.007 308.923 155.713 308.923 154.121V150.578H307.662V154.121C307.662 156.408 309.523 158.269 311.809 158.269C314.096 158.269 315.956 156.408 315.956 154.121V150.578H314.694Z" fill="#1C3867"/>
<path d="M268.328 120.673L295.644 137.221C297.989 138.757 300.711 139.568 303.514 139.568C303.872 139.568 304.23 139.552 304.587 139.524L304.478 138.302C304.478 138.287 304.48 138.272 304.48 138.257C304.158 138.28 303.837 138.307 303.515 138.307C300.958 138.307 298.476 137.567 296.318 136.154L269.365 119.824C269.028 120.122 268.684 120.402 268.328 120.673Z" fill="#1C3867"/>
<path d="M305.253 146.973C304.783 146.723 304.415 146.298 304.276 145.756L303.895 144.269C303.855 144.109 303.752 143.971 303.61 143.885L303.549 143.849V144.688H303.234V143.658L266.903 121.667C266.494 121.921 266.077 122.162 265.65 122.383L302.736 144.831L303.052 146.068C303.349 147.224 304.258 148.087 305.377 148.367L305.253 146.973Z" fill="#1C3867"/>
<path d="M304.584 139.525L305.253 146.972L305.378 148.367L305.526 150.003C305.555 150.329 305.827 150.577 306.154 150.577H307.659H308.92H314.691H315.952H317.458C317.785 150.577 318.058 150.329 318.087 150.003L319.14 138.246C319.14 134.202 315.85 130.913 311.806 130.913C307.776 130.913 304.498 134.178 304.475 138.258C304.475 138.273 304.473 138.288 304.473 138.303L304.584 139.525ZM312.286 131.552V132.222C315.406 132.47 317.88 135.059 317.882 138.189L316.998 148.032L317.735 149.651L317.161 149.913L316.883 149.303L316.882 149.316H306.757L306.556 149.722L305.99 149.443L306.626 148.155L305.733 138.245C305.733 134.949 308.378 132.27 311.655 132.188V131.552H312.286Z" fill="#1C3867"/>
<path d="M252.19 159.78V163.324C252.19 164.915 250.896 166.209 249.306 166.209C247.714 166.209 246.42 164.915 246.42 163.324V159.78H245.158V163.324C245.158 165.611 247.019 167.47 249.306 167.47C251.592 167.47 253.452 165.61 253.452 163.324V159.78H252.19Z" fill="#1C3867"/>
<path d="M247.772 134.848H248.353V129.867C247.893 129.745 247.466 129.546 247.092 129.272V134.961C247.307 134.894 247.533 134.848 247.772 134.848Z" fill="#1C3867"/>
<path d="M248.353 140.182V139.508H247.772C247.533 139.508 247.309 139.461 247.092 139.395V140.454C247.498 140.327 247.921 140.238 248.353 140.182Z" fill="#1C3867"/>
<path d="M250.826 139.508H250.244V140.182C250.677 140.237 251.099 140.325 251.505 140.454V139.395C251.289 139.463 251.063 139.508 250.826 139.508Z" fill="#1C3867"/>
<path d="M250.244 129.867V134.848H250.826C251.064 134.848 251.289 134.895 251.505 134.962V129.274C251.131 129.547 250.705 129.747 250.244 129.867Z" fill="#1C3867"/>
<path d="M250.248 140.182C249.938 140.142 249.624 140.114 249.302 140.114C248.981 140.114 248.667 140.142 248.355 140.182C247.922 140.238 247.5 140.327 247.094 140.455C244.124 141.396 241.967 144.185 241.969 147.506L243.021 159.205C243.05 159.53 243.322 159.779 243.649 159.779H245.154H246.415H252.186H253.447H254.953C255.28 159.779 255.552 159.53 255.581 159.205L256.635 147.449C256.635 144.173 254.476 141.393 251.508 140.455C251.104 140.326 250.681 140.239 250.248 140.182ZM254.668 159.279L254.321 158.518H244.345L244.063 159.089L243.496 158.81L244.136 157.516L243.229 147.448C243.229 144.147 245.879 141.465 249.162 141.388V141.049H249.793V141.424C252.909 141.678 255.376 144.264 255.378 147.391L254.484 157.35L255.243 159.016L254.668 159.279Z" fill="#1C3867"/>
<path d="M250.827 134.848H250.245H248.352H247.77C247.532 134.848 247.308 134.895 247.091 134.962C246.138 135.254 245.439 136.131 245.439 137.178C245.439 138.225 246.138 139.101 247.091 139.395C247.308 139.462 247.532 139.509 247.77 139.509H248.352H250.245H250.827C251.065 139.509 251.29 139.462 251.507 139.395C252.459 139.103 253.158 138.225 253.158 137.178C253.158 136.131 252.459 135.254 251.507 134.962C251.29 134.895 251.064 134.848 250.827 134.848ZM252.21 137.178C252.21 137.941 251.59 138.563 250.825 138.563H247.769C247.006 138.563 246.384 137.942 246.384 137.178C246.384 136.416 247.005 135.794 247.769 135.794H250.825C251.59 135.794 252.21 136.415 252.21 137.178Z" fill="#1C3867"/>
<path d="M251.488 127.439C251.061 128.211 250.247 128.74 249.303 128.74C248.359 128.74 247.545 128.211 247.117 127.439H245.748C246.002 128.182 246.471 128.819 247.093 129.273C247.467 129.545 247.894 129.746 248.354 129.867C248.659 129.946 248.972 130.002 249.301 130.002C249.631 130.002 249.943 129.946 250.247 129.867C250.708 129.746 251.134 129.547 251.509 129.273C252.132 128.82 252.601 128.18 252.855 127.438H251.488V127.439Z" fill="#1C3867"/>
<path d="M258.278 124.399C258.17 125.395 257.333 126.178 256.309 126.178H242.292C241.261 126.178 240.419 125.386 240.321 124.38C239.893 124.349 239.468 124.31 239.047 124.251C239.081 126.014 240.52 127.44 242.292 127.44H245.747H247.116H251.486H252.855H256.309C258.063 127.44 259.487 126.042 259.549 124.303C259.128 124.357 258.703 124.375 258.278 124.399Z" fill="#1C3867"/>
<path d="M249.574 8.52851L251.353 49.4547H252.617L250.825 8.24976C250.437 8.41121 250.013 8.49824 249.574 8.52851Z" fill="#1C3867"/>
<path d="M247.242 49.4549L249.021 8.52872C248.582 8.49844 248.159 8.41141 247.77 8.25122L245.979 49.4562L247.242 49.4549Z" fill="#1C3867"/>
<path d="M192.502 73.2908L192.181 73.4371C191.389 73.8004 190.639 74.1435 189.883 74.1624L162.934 74.86L165.04 76.0671L189.914 75.4225C190.931 75.396 191.833 74.9823 192.706 74.5825L193.055 74.4324L219.879 71.897V70.6306L192.949 73.1748C192.795 73.1887 192.645 73.2278 192.502 73.2908Z" fill="#1C3867"/>
<path d="M193.236 77.9435L192.965 77.7808L193.293 77.2346L193.09 77.2258L192.758 77.0933C191.893 76.7477 190.998 76.387 189.911 76.387C189.908 76.387 189.905 76.387 189.905 76.387L166.643 76.9886L168.75 78.197L190.011 77.6471C190.751 77.6471 191.498 77.946 192.289 78.2639L192.629 78.3988C192.774 78.4556 192.927 78.4859 193.074 78.4909L219.877 79.6123V78.3484L193.652 77.2472L193.236 77.9435Z" fill="#1C3867"/>
<path d="M157.395 76.7344C157.395 76.7394 157.393 76.7445 157.393 76.7495C157.418 77.7044 158.086 78.4524 158.949 78.4524L160.327 78.417L157.395 76.7344Z" fill="#1C3867"/>
<path d="M194.22 75.6858L193.289 77.2348L192.961 77.781L193.232 77.9437L193.647 77.2499L194.404 75.9886L219.873 74.229V73.9124L194.301 75.6795L194.22 75.6858Z" fill="#1C3867"/>
<path d="M305.975 78.3988L306.313 78.2651C307.103 77.9485 307.848 77.6496 308.661 77.6496H308.664L329.569 78.1907L331.674 76.9836L308.591 76.387C307.607 76.387 306.71 76.7464 305.844 77.0946L305.476 77.2321L305.312 77.2384L305.637 77.7808L305.366 77.9435L304.952 77.2535L278.725 78.3522V79.6135L305.52 78.4922C305.674 78.4871 305.826 78.4569 305.975 78.3988Z" fill="#1C3867"/>
<path d="M337.996 78.4069L339.69 78.451C340.519 78.451 341.189 77.7031 341.213 76.7482C341.214 76.6889 341.192 76.6347 341.19 76.5767L337.996 78.4069Z" fill="#1C3867"/>
<path d="M305.898 74.5861C306.77 74.986 307.673 75.3997 308.69 75.4262L333.28 76.0632L335.386 74.8548L308.721 74.1648C307.963 74.1447 307.215 73.8028 306.423 73.4395L306.101 73.2932C305.959 73.2289 305.809 73.1911 305.666 73.1797L278.725 70.6343V71.9007L305.584 74.4436L305.898 74.5861Z" fill="#1C3867"/>
<path d="M304.952 77.2537L305.366 77.9437L305.637 77.781L305.31 77.2386L304.421 75.7552L304.378 75.6858L278.725 73.9124V74.229L304.193 75.9886L304.952 77.2537Z" fill="#1C3867"/>
<path d="M184.572 90.8613L138.764 64.6023H136.229L157.392 76.7341L160.324 78.4155L181.868 90.7655L182.117 90.7705L184.572 90.8613Z" fill="#1C3867"/>
<path d="M211.979 104.434L217.436 107.563L217.612 107.27L217.883 107.433L217.71 107.72L222.7 110.58C222.463 110.053 222.226 109.525 222.019 108.983C221.975 108.881 221.941 108.771 221.9 108.668L214.364 104.346L211.979 104.434Z" fill="#1C3867"/>
<path d="M166.643 76.9896L165.039 76.0701L162.932 74.863L144.519 64.3066C144.05 64.4933 143.542 64.6018 143.008 64.6018H142.498L188.563 91.0084L191.274 91.1093L168.751 78.198L166.643 76.9896Z" fill="#1C3867"/>
<path d="M224.27 113.613L208.484 104.564L206.102 104.651L225.795 115.941C225.253 115.186 224.741 114.412 224.27 113.613Z" fill="#1C3867"/>
<path d="M217.28 108.441L217.714 107.72L217.885 107.433L217.615 107.271L217.44 107.563L217.169 108.015L210.979 104.472L210.383 104.493L217.146 108.364L217.28 108.441Z" fill="#1C3867"/>
<path d="M141.324 64.6023H140.689L186.701 90.9395L187.38 90.9648L141.324 64.6023Z" fill="#1C3867"/>
<path d="M138.769 64.6021H140.691H141.327H142.496H143.006C143.541 64.6021 144.048 64.4924 144.517 64.307C145.861 63.7747 146.849 62.5587 147.07 61.088L145.814 61.0337C145.554 62.3468 144.394 63.342 143.006 63.342H134.167C133.2 63.342 132.325 62.9712 131.646 62.3809H130.758V62.2963H130.443V61.7489H131.059C130.758 61.3364 130.535 60.8672 130.415 60.3551L129.127 60.2983C129.523 62.7328 131.623 64.6021 134.169 64.6021H136.233H138.769Z" fill="#1C3867"/>
<path d="M276.547 109.009C276.364 109.475 276.152 109.927 275.949 110.382L280.688 107.665L280.549 107.434L280.821 107.272L280.962 107.509L286.337 104.429L283.954 104.34L276.725 108.485C276.661 108.657 276.615 108.836 276.547 109.009Z" fill="#1C3867"/>
<path d="M333.279 76.0625L331.674 76.9821L329.568 78.1892L307.004 91.1245L309.715 91.0248L355.807 64.6018H355.299C354.764 64.6018 354.257 64.4921 353.787 64.3066L335.386 74.8554L333.279 76.0625Z" fill="#1C3867"/>
<path d="M289.841 104.556L274.428 113.392C273.966 114.186 273.461 114.953 272.932 115.704L292.224 104.644L289.841 104.556Z" fill="#1C3867"/>
<path d="M359.535 64.6023L313.697 90.8777L316.408 90.7781L337.989 78.4066L341.182 76.5764L362.07 64.6023H359.535Z" fill="#1C3867"/>
<path d="M280.965 107.507L280.824 107.271L280.553 107.434L280.691 107.665L281.159 108.442L288.062 104.49L287.466 104.469L281.27 108.016L280.965 107.507Z" fill="#1C3867"/>
<path d="M311.035 90.9761L311.714 90.9509L357.747 64.6023H357.111L311.035 90.9761Z" fill="#1C3867"/>
<path d="M368.142 62.3797H366.662C365.984 62.97 365.108 63.3408 364.141 63.3408H355.302C353.916 63.3408 352.759 62.3532 352.495 61.0452L351.238 61.1007C351.463 62.5651 352.449 63.776 353.79 64.3058C354.259 64.4925 354.768 64.6009 355.302 64.6009H355.811H357.114H357.749H359.541H362.077H364.142C365.927 64.6009 367.497 63.6814 368.416 62.2939H368.143V62.3797H368.142Z" fill="#1C3867"/>
<path d="M367.891 60.3678C367.77 60.8748 367.549 61.3403 367.25 61.7489H368.457V62.2157C368.819 61.6468 369.066 61.0035 369.181 60.3123L367.891 60.3678Z" fill="#1C3867"/>
<path d="M-19.4634 47.0562V47.7008L51.9727 49.2018V48.6342H53.234V49.2283L56.9689 49.3065V48.6342H58.2303V49.333L76.9502 49.7265V49.0214H78.2115V49.753L81.9464 49.8312V49.4225H83.2078V49.8577L129.227 50.8252V50.5628H130.489V50.8516L168.641 51.6526V51.2856H169.272V51.6665L213.139 52.5873V52.2278H213.77V52.6012L216.089 52.6503L216.077 51.8872L217.339 51.867L217.351 52.6768L223.485 52.8055C223.948 52.3565 224.446 51.944 224.977 51.5744L-20.0814 46.4255C-20.1205 46.4205 -20.1483 46.4369 -20.1836 46.4407C-20.007 46.4205 -19.8355 46.4571 -19.698 46.5668C-19.5504 46.6854 -19.4634 46.8657 -19.4634 47.0562Z" fill="#1C3867"/>
<path d="M130.411 60.3534L143.737 60.94C143.78 60.8164 143.815 60.689 143.815 60.5515H144.446C144.446 60.6953 144.424 60.834 144.394 60.969L145.811 61.0308L147.067 61.085L219.874 64.2876V63.0238L217.508 62.9191L217.515 63.4337L216.254 63.4539L216.245 62.8648L132.616 59.188V59.2384H131.985V59.1602L130.489 59.0946V60.2034H129.227V59.0391L-18.5828 52.5393L-19.4644 53.0855V53.1044C-19.4644 53.3958 -19.6637 53.6506 -19.9488 53.7174L-20.0371 53.7389L129.123 60.298L130.411 60.3534Z" fill="#1C3867"/>
<path d="M53.2423 53.1384L53.2158 53.7691L52.2937 53.73C52.3808 53.7804 52.4754 53.8183 52.5813 53.8221L82.5551 54.9169C82.5639 54.9169 82.5715 54.9169 82.579 54.9169C82.7418 54.9169 82.8994 54.8539 83.0167 54.7403C83.1404 54.6205 83.2097 54.4565 83.2097 54.2862V49.8563V49.4212H81.9484V49.8299V53.6316L53.236 52.5821V49.2269V48.6328H51.9746V49.2004V53.0854L53.2423 53.1384Z" fill="#1C3867"/>
<path d="M57.5818 51.4963L77.563 52.0336C77.5693 52.0336 77.5744 52.0336 77.5807 52.0336C77.7447 52.0336 77.9023 51.9693 78.0209 51.8545C78.1432 51.7347 78.2114 51.572 78.2114 51.403V49.7518V49.0203H76.95V49.7254V50.7546L58.2301 50.2526V49.3331V48.6343H56.9688V49.3066V50.8669C56.9675 51.2075 57.2399 51.4862 57.5818 51.4963Z" fill="#1C3867"/>
<path d="M216.257 63.4549L217.518 63.4347L217.509 62.9201L217.354 52.6753L217.341 51.8655L216.08 51.8857L216.091 52.6488L216.247 62.8646L216.257 63.4549Z" fill="#1C3867"/>
<path d="M129.227 59.0399V60.2028H130.488V59.0941V50.8511V50.5623H129.227V50.8246V59.0399Z" fill="#1C3867"/>
<path d="M518.062 53.1031V53.0501L517.315 52.533L369.371 59.0391V60.2033H368.11V59.0946L366 59.1879V59.9624H365.369V59.2157L282.354 62.866L282.345 63.4551L281.083 63.4349L281.091 62.9203L278.725 63.025V64.2889L351.237 61.1001L352.493 61.0446L354.497 60.9563C354.468 60.8252 354.449 60.6915 354.449 60.5527H355.08C355.08 60.6851 355.115 60.8088 355.156 60.9273L367.889 60.3673L369.179 60.3105L518.636 53.7376L518.547 53.7161C518.261 53.6493 518.062 53.3957 518.062 53.1031Z" fill="#1C3867"/>
<path d="M275.109 52.8043L281.25 52.6756L281.262 51.8658L282.524 51.886L282.512 52.6491L284.218 52.6125V52.2265H284.848V52.5986L328.716 51.6778V51.2843H329.347V51.664L368.112 50.8491V50.5603H369.374V50.8226L415.393 49.8552V49.42H416.654V49.8287L420.389 49.7505V49.0189H421.651V49.724L440.371 49.3305V48.6317H441.632V49.304L445.367 49.2258V48.6317H446.628V49.1993L518.064 47.6983V47.0537C518.064 46.8645 518.15 46.6829 518.299 46.563C518.431 46.4545 518.6 46.4167 518.774 46.4369C518.743 46.4331 518.714 46.4192 518.682 46.423L273.617 51.5719C274.147 51.9427 274.645 52.3552 275.109 52.8043Z" fill="#1C3867"/>
<path d="M415.586 54.7405C415.704 54.8541 415.861 54.9171 416.024 54.9171C416.032 54.9171 416.039 54.9171 416.048 54.9171L446.022 53.8223C446.125 53.8185 446.217 53.7844 446.302 53.7365L445.148 53.792L445.119 53.1613L446.63 53.0894V49.2019V48.6343H445.368V49.2284V52.5836L416.656 53.6331V49.8313V49.4226H415.395V49.8578V54.2877C415.392 54.458 415.463 54.622 415.586 54.7405Z" fill="#1C3867"/>
<path d="M420.585 51.8543C420.704 51.9691 420.861 52.0335 421.025 52.0335C421.032 52.0335 421.037 52.0335 421.043 52.0335L441.024 51.4961C441.365 51.486 441.637 51.2073 441.637 50.8654V49.3051V48.6328H440.376V49.3316V50.2511L421.656 50.7532V49.7239V49.0188H420.395V49.7504V51.4015C420.393 51.5731 420.463 51.7345 420.585 51.8543Z" fill="#1C3867"/>
<path d="M281.086 63.4347L282.347 63.4549L282.356 62.8646L282.511 52.6488L282.524 51.8857L281.263 51.8655L281.25 52.6753L281.094 62.9201L281.086 63.4347Z" fill="#1C3867"/>
<path d="M368.113 59.0941V60.2028H369.375V59.0399V50.8246V50.5623H368.113V50.8511V59.0941Z" fill="#1C3867"/>
<path d="M274.427 113.392C274.992 112.422 275.491 111.412 275.952 110.382C276.155 109.927 276.367 109.474 276.55 109.008C276.618 108.836 276.664 108.658 276.728 108.482C277.259 107.052 277.678 105.595 277.996 104.118L276.712 104.07C276.374 105.585 275.947 107.085 275.375 108.548C274.26 111.391 272.738 114.034 270.841 116.413C267.645 120.661 262.563 123.197 257.248 123.197H241.74C236.217 123.197 231.086 120.705 227.659 116.358C225.779 113.987 224.278 111.353 223.191 108.51C223.051 108.178 222.93 107.857 222.817 107.519C222.425 106.386 222.125 105.232 221.869 104.069L220.59 104.117C220.862 105.401 221.189 106.676 221.622 107.926C221.707 108.181 221.805 108.423 221.902 108.668C221.943 108.771 221.977 108.881 222.02 108.983C222.227 109.525 222.465 110.053 222.701 110.58C223.168 111.621 223.686 112.632 224.263 113.614C224.733 114.412 225.246 115.186 225.788 115.941C226.077 116.343 226.358 116.752 226.667 117.142C227.447 118.131 228.325 119.01 229.257 119.813C229.597 120.107 229.947 120.387 230.306 120.655C230.503 120.802 230.703 120.945 230.905 121.083L231.298 120.845L231.46 121.114L231.184 121.281C231.368 121.404 231.551 121.524 231.739 121.64C232.153 121.893 232.577 122.127 233.008 122.347C234.889 123.311 236.923 123.954 239.049 124.252C239.47 124.311 239.895 124.35 240.323 124.381C240.794 124.415 241.264 124.461 241.74 124.461H257.248C257.594 124.461 257.935 124.42 258.279 124.401C258.704 124.376 259.13 124.358 259.551 124.304C261.693 124.027 263.757 123.369 265.656 122.385C266.083 122.163 266.5 121.922 266.908 121.669C267.036 121.589 267.168 121.519 267.294 121.437L266.836 121.163L266.999 120.892L267.572 121.233C267.83 121.056 268.08 120.866 268.33 120.676C268.686 120.405 269.031 120.123 269.367 119.827C270.267 119.03 271.109 118.161 271.84 117.188C272.224 116.708 272.579 116.208 272.934 115.706C273.461 114.953 273.966 114.186 274.427 113.392Z" fill="#1C3867"/>
<path d="M223.486 52.8048C221.264 54.9592 219.875 57.9701 219.875 61.3038V63.0256V64.2895V70.6341V71.9005V73.9124V74.229V78.3512V79.615V92.1669L221.136 92.2135V85.2319L220.952 85.3378L220.795 85.0641L221.136 84.8674V83.4483C221.037 83.5063 220.928 83.5606 220.83 83.6199L220.182 82.5389C220.489 82.3547 220.816 82.1806 221.136 82.0028V61.3026C221.136 55.465 225.887 50.7147 231.723 50.7147H247.523V50.0878H248.784V50.7147H249.815V50.0878H251.076V50.7147H266.866C272.71 50.7147 277.464 55.47 277.464 61.3127V82.0015C277.784 82.1794 278.111 82.3535 278.419 82.5376L277.77 83.6186C277.672 83.5593 277.563 83.5051 277.464 83.4471V84.8661L277.807 85.0629L277.649 85.3366L277.464 85.2306V92.2135L278.725 92.1669V79.6138V78.3524V74.229V73.9124V71.9005V70.6341V64.2895V63.0256V61.3139C278.725 57.9764 277.334 54.9617 275.108 52.8048C274.645 52.3557 274.145 51.9433 273.614 51.5749C271.697 50.2417 269.372 49.4546 266.866 49.4546H252.619H251.355H249.545V50.1244H249.229V49.4546H247.243H245.979H231.72C229.215 49.4546 226.892 50.2417 224.976 51.5737C224.447 51.9433 223.949 52.3557 223.486 52.8048Z" fill="#1C3867"/>
<path d="M245.201 77.0732C247.212 76.971 248.787 75.3123 248.787 73.2992V50.7158V50.0889H247.526V50.7158V67.7013C247.726 67.6672 247.925 67.6294 248.13 67.6067L248.199 68.2323C247.972 68.2575 247.749 68.2966 247.527 68.337V73.2979C247.527 74.64 246.477 75.7437 245.135 75.8131C243.27 75.9191 241.456 76.0944 239.699 76.3239C239.672 76.4892 239.641 76.6532 239.622 76.8209L238.996 76.7515C239.009 76.638 239.033 76.5283 239.048 76.4148C237.843 76.585 236.66 76.773 235.522 77C230.057 78.0684 225.12 79.794 221.14 82.0013C220.82 82.1792 220.493 82.3533 220.186 82.5374L220.834 83.6184C220.932 83.5591 221.041 83.5049 221.14 83.4469C225.101 81.1373 230.143 79.3373 235.767 78.2387C238.699 77.6547 241.875 77.2624 245.201 77.0732Z" fill="#1C3867"/>
<path d="M249.816 73.2992C249.816 75.3136 251.392 76.971 253.399 77.0732C256.729 77.2611 259.905 77.6547 262.841 78.2412C268.463 79.3399 273.504 81.1398 277.465 83.4481C277.565 83.5061 277.674 83.5604 277.772 83.6197L278.42 82.5387C278.113 82.3545 277.786 82.1805 277.465 82.0026C273.485 79.7952 268.549 78.0697 263.086 77.0026C261.947 76.7755 260.764 76.5863 259.559 76.4173C259.578 76.5485 259.603 76.6771 259.617 76.8096L258.989 76.8764C258.969 76.686 258.913 76.5081 258.883 76.3227C257.132 76.0944 255.326 75.9203 253.467 75.8156C252.128 75.7462 251.079 74.6425 251.079 73.3005V68.361C250.937 68.3345 250.802 68.2865 250.656 68.2664L250.742 67.6407C250.856 67.6571 250.967 67.6824 251.079 67.7013V50.7158V50.0889H249.818V50.7158V73.2992H249.816Z" fill="#1C3867"/>
<path d="M228.648 114.749C228.646 115.33 228.872 115.878 229.282 116.289C229.692 116.703 230.24 116.931 230.823 116.931C231.403 116.931 231.948 116.705 232.358 116.297L235.08 113.589C234.743 113.331 234.41 113.07 234.09 112.795L231.469 115.404C231.125 115.748 230.522 115.748 230.176 115.401C230.003 115.227 229.909 114.999 229.909 114.753C229.91 114.509 230.006 114.28 230.178 114.107L232.75 111.549C232.457 111.249 232.178 110.932 231.902 110.614L229.289 113.213C228.875 113.621 228.65 114.168 228.648 114.749Z" fill="#1C3867"/>
<path d="M267.777 116.93C268.359 116.93 268.908 116.702 269.318 116.288C269.728 115.877 269.954 115.33 269.951 114.748C269.95 114.167 269.723 113.621 269.31 113.211L266.698 110.612C266.422 110.929 266.143 111.246 265.849 111.547L268.421 114.105C268.594 114.278 268.69 114.506 268.691 114.751C268.691 114.996 268.597 115.225 268.424 115.399C268.251 115.573 268.021 115.669 267.777 115.669C267.533 115.668 267.304 115.575 267.131 115.402L264.51 112.793C264.189 113.069 263.856 113.331 263.52 113.587L266.242 116.295C266.653 116.705 267.196 116.929 267.777 116.93Z" fill="#1C3867"/>
<path d="M269.679 87.3587L269.469 87.1216L269.503 87.0913C267.351 84.3491 264.015 82.5769 260.266 82.5769H238.326C234.577 82.5769 231.242 84.3479 229.089 87.0913L229.123 87.1216L228.914 87.3587L228.9 87.3461C227.81 88.8156 227.057 90.5424 226.748 92.4218L228.016 92.4685C228.896 87.5706 233.178 83.8395 238.326 83.8395H260.266C265.414 83.8395 269.697 87.5706 270.577 92.4685L271.844 92.4218C271.536 90.5424 270.783 88.8143 269.692 87.3461L269.679 87.3587Z" fill="#1C3867"/>
<path d="M250.495 116.756H249.459V117.344H249.144V116.756H248.107C239.513 116.756 232.17 111.367 229.231 103.799L227.906 103.847C228.822 106.352 230.182 108.64 231.904 110.613C232.18 110.93 232.459 111.246 232.752 111.548C233.18 111.983 233.629 112.394 234.092 112.793C234.412 113.069 234.745 113.33 235.082 113.586C238.704 116.352 243.209 118.016 248.107 118.016H250.496C255.394 118.016 259.901 116.353 263.521 113.586C263.858 113.329 264.191 113.068 264.511 112.793C264.974 112.394 265.423 111.983 265.851 111.548C266.144 111.247 266.423 110.931 266.699 110.613C268.421 108.639 269.781 106.353 270.697 103.847L269.372 103.798C266.432 111.367 259.088 116.756 250.495 116.756Z" fill="#1C3867"/>
<path d="M258.004 86.3315H240.592C236.831 86.3315 233.724 89.1595 233.271 92.7998C233.492 92.8566 233.702 92.936 233.91 93.018C234.265 89.6262 237.109 86.9622 240.592 86.9622H258.004C261.489 86.9622 264.333 89.625 264.687 93.018C264.895 92.936 265.104 92.8566 265.325 92.7998C264.872 89.1595 261.766 86.3315 258.004 86.3315Z" fill="#1C3867"/>
<path d="M253.306 109.074H245.3C240.811 109.074 236.928 106.472 235.049 102.703C234.877 102.823 234.687 102.918 234.502 103.017C236.49 106.975 240.578 109.705 245.3 109.705H249.146V109.324H249.462V109.705H253.306C258.029 109.705 262.117 106.975 264.105 103.017C263.919 102.918 263.729 102.823 263.557 102.703C261.679 106.473 257.796 109.074 253.306 109.074Z" fill="#1C3867"/>
<path d="M249.02 8.52801C249.09 8.53305 249.158 8.54819 249.228 8.54945V8.05752H249.544V8.53179C249.555 8.53179 249.565 8.52927 249.575 8.52927C250.014 8.499 250.437 8.41196 250.827 8.25051C252.278 7.64884 253.304 6.21972 253.304 4.55219C253.304 2.34355 251.508 0.547363 249.299 0.547363C247.09 0.547363 245.293 2.34355 245.293 4.55219C245.293 6.21972 246.318 7.64884 247.77 8.25051C248.159 8.4107 248.583 8.49647 249.02 8.52801ZM252.043 4.55093C252.043 6.0633 250.811 7.2944 249.299 7.2944C247.785 7.2944 246.554 6.0633 246.554 4.55093C246.554 3.03855 247.785 1.80747 249.299 1.80747C250.811 1.80747 252.043 3.03855 252.043 4.55093Z" fill="#1C3867"/>
<path d="M259.166 96.7658H261.376C261.491 96.3192 261.661 95.8992 261.877 95.5044H258.906C259.019 95.9143 259.106 96.3356 259.166 96.7658Z" fill="#1C3867"/>
<path d="M259.125 99.8322H261.467C261.34 99.4285 261.258 99.0085 261.226 98.5708H259.257C259.24 98.9997 259.196 99.4197 259.125 99.8322Z" fill="#1C3867"/>
<path d="M239.342 98.5708H237.373C237.34 99.0085 237.26 99.4285 237.131 99.8322H239.473C239.404 99.4197 239.361 98.9997 239.342 98.5708Z" fill="#1C3867"/>
<path d="M239.691 95.5044H236.721C236.936 95.8992 237.107 96.3192 237.221 96.7658H239.431C239.492 96.3356 239.578 95.9143 239.691 95.5044Z" fill="#1C3867"/>
<path d="M239.435 96.765C239.372 97.2191 239.328 97.6782 239.328 98.1499C239.328 98.2925 239.343 98.4312 239.35 98.5712C239.367 98.9988 239.411 99.4201 239.482 99.8326C240.286 104.534 244.379 108.126 249.306 108.126C254.231 108.126 258.324 104.534 259.128 99.8326C259.198 99.4201 259.241 98.9988 259.26 98.5712C259.266 98.4312 259.282 98.2925 259.282 98.1499C259.282 97.6782 259.237 97.2191 259.174 96.765C259.114 96.3348 259.028 95.9148 258.915 95.5036C257.75 91.2856 253.889 88.1738 249.307 88.1738C244.723 88.1738 240.862 91.2843 239.698 95.5036C239.582 95.9135 239.496 96.3348 239.435 96.765ZM258.018 98.1487C258.018 100.495 257.082 102.623 255.569 104.192L255.925 104.548L255.701 104.772L255.345 104.416C253.777 105.929 251.649 106.865 249.304 106.865C246.958 106.865 244.83 105.929 243.262 104.415L242.905 104.772L242.682 104.548L243.038 104.192C241.525 102.624 240.589 100.495 240.589 98.1499C240.589 93.3441 244.5 89.4365 249.304 89.4365C254.109 89.4352 258.018 93.3442 258.018 98.1487Z" fill="#1C3867"/>
<path d="M208.479 104.565L210.382 104.494L210.979 104.472L211.981 104.435L214.364 104.347L220.589 104.117L221.868 104.069L227.905 103.847L229.229 103.799L232.08 103.693C232.962 103.661 233.773 103.407 234.498 103.017C234.683 102.918 234.874 102.823 235.046 102.703C236.034 102.015 236.763 101.005 237.134 99.8324C237.262 99.4287 237.344 99.0087 237.377 98.571C237.387 98.4323 237.417 98.2986 237.417 98.156C237.417 97.6729 237.336 97.2125 237.221 96.766C237.107 96.3195 236.936 95.8995 236.721 95.5046C236.105 94.377 235.121 93.4953 233.91 93.0185C233.702 92.9365 233.493 92.8571 233.272 92.8003C232.889 92.7019 232.493 92.6338 232.079 92.6174L228.018 92.4673L226.751 92.4206L221.134 92.2125L219.873 92.1658L191.267 91.1088L188.557 91.0079L187.379 90.9637L186.7 90.9385L184.572 90.8591L182.117 90.7682L181.869 90.7644L181.841 90.7632C180.374 90.7632 178.954 91.1933 177.734 92.0069C175.77 93.3149 174.596 95.4176 174.509 97.7751C174.423 100.133 175.441 102.316 177.304 103.765L177.573 103.972C178.864 104.979 180.48 105.532 182.12 105.532L206.093 104.648L208.479 104.565ZM177.563 103.585L177.536 102.954L178.279 102.924L178.082 102.773C176.544 101.576 175.702 99.7718 175.774 97.8243C175.846 95.8767 176.816 94.1411 178.438 93.0601C179.451 92.3853 180.628 92.0283 181.845 92.0283L192.839 92.4345V92.1053H193.47V92.4585L232.035 93.8813C234.238 93.962 235.968 95.6787 236.126 97.842L236.642 97.8432L236.64 98.4739L236.126 98.4726C235.969 100.636 234.238 102.353 232.035 102.436L182.351 104.272L182.123 104.277C181.093 104.277 180.075 104.013 179.176 103.521L177.563 103.585Z" fill="#1C3867"/>
<path d="M192.838 98.3761L207.385 98.4076V98.2386H208.016V98.4089L236.127 98.4694L236.64 98.4707L236.642 97.84L236.125 97.8387L193.469 97.7479V92.4552V92.1021H192.838V92.4325V98.3761Z" fill="#1C3867"/>
<path d="M179.178 103.518L208.018 102.332V98.4091V98.2388H207.387V98.4078V101.725L178.28 102.923L177.537 102.954L177.565 103.584L179.178 103.518Z" fill="#1C3867"/>
<path d="M313.702 90.8778L311.714 90.951L311.035 90.9762L309.717 91.0254L307.006 91.125L278.727 92.1682L277.465 92.2148L271.848 92.4217L270.581 92.4684L266.52 92.6185C266.108 92.6336 265.712 92.7017 265.328 92.8014C265.108 92.8581 264.898 92.9376 264.69 93.0196C263.479 93.4964 262.495 94.3781 261.88 95.5057C261.664 95.9005 261.495 96.3206 261.379 96.7671C261.264 97.2136 261.184 97.674 261.184 98.1571C261.184 98.2997 261.214 98.4334 261.224 98.5721C261.257 99.0098 261.337 99.4298 261.465 99.8335C261.836 101.007 262.565 102.016 263.554 102.704C263.726 102.824 263.916 102.919 264.101 103.018C264.826 103.409 265.639 103.662 266.519 103.695L269.37 103.8L270.694 103.85L276.71 104.072L277.994 104.12L283.955 104.339L286.338 104.427L287.463 104.469L288.058 104.492L289.839 104.557L292.222 104.646L316.204 105.532L316.479 105.537C318.118 105.537 319.732 104.984 321.026 103.977L321.293 103.769C323.154 102.321 324.174 100.137 324.088 97.78C324.002 95.4225 322.826 93.3198 320.862 92.0118C319.643 91.1969 318.222 90.7681 316.755 90.7681L316.41 90.7807L313.702 90.8778ZM319.419 103.524C318.521 104.012 317.508 104.275 316.482 104.275L266.57 102.433C264.365 102.351 262.635 100.633 262.478 98.4699L261.818 98.4712L261.816 97.8405L262.478 97.8393C262.637 95.676 264.366 93.9606 266.57 93.8786L304.989 92.4583V92.1026H305.62V92.4343L316.531 92.0307L316.761 92.0256C317.978 92.0256 319.155 92.3826 320.167 93.0574C321.79 94.1384 322.761 95.8741 322.831 97.8216C322.903 99.7691 322.062 101.573 320.522 102.77L320.32 102.928L320.923 102.953L320.896 103.584L319.419 103.524Z" fill="#1C3867"/>
<path d="M290.442 98.4089V98.2386H291.072V98.4076L305.307 98.3773L305.621 98.3761V92.4351V92.1021H304.99V92.4578V97.7479L262.479 97.8387L261.816 97.84L261.819 98.4707L262.479 98.4694L290.442 98.4089Z" fill="#1C3867"/>
<path d="M320.918 102.954L320.315 102.929L291.066 101.725V98.4078V98.2388H290.436V98.4091V102.332L319.415 103.524L320.891 103.584L320.918 102.954Z" fill="#1C3867"/>
<path d="M249.301 98.1503L249.413 98.2626L249.301 98.3749L255.343 104.417L255.698 104.771L255.923 104.548L255.567 104.192L249.414 98.0381L249.301 98.1503Z" fill="#1C3867"/>
<path d="M249.413 98.2626L249.301 98.1503L249.19 98.0381L243.035 104.191L242.68 104.548L242.902 104.771L243.259 104.416L249.301 98.3749L249.413 98.2626Z" fill="#1C3867"/>
<path d="M239.042 76.417C239.026 76.5292 239.003 76.6402 238.99 76.7538L239.616 76.8231C239.635 76.6554 239.666 76.4914 239.693 76.3262C240.355 72.3062 243.526 69.0784 247.521 68.3392C247.743 68.2976 247.966 68.2597 248.193 68.2345L248.124 67.6089C247.919 67.6316 247.72 67.6682 247.52 67.7035C243.15 68.459 239.68 72.0098 239.042 76.417Z" fill="#1C3867"/>
<path d="M251.077 67.7002C250.965 67.6813 250.855 67.6548 250.74 67.6396L250.654 68.2653C250.799 68.2855 250.934 68.3347 251.077 68.3599C255.117 69.1028 258.219 72.2764 258.881 76.3229C258.911 76.5096 258.967 76.6861 258.987 76.8766L259.615 76.8098C259.601 76.6773 259.576 76.5487 259.557 76.4175C258.919 71.9712 255.507 68.4621 251.077 67.7002Z" fill="#1C3867"/>
<path d="M365.37 55.8217V59.2147V59.9615H366V59.187V55.1607L329.345 56.8245V57.2659H328.714V56.8535L284.846 58.8426V52.5989V52.2268H284.215V52.6128V59.5036L365.37 55.8217Z" fill="#1C3867"/>
<path d="M328.717 57.2656H329.347V56.8241V51.6638V51.2842H328.717V51.6777V56.8531V57.2656Z" fill="#1C3867"/>
<path d="M169.274 56.8522V57.2659H168.643V56.8245L132.319 55.1759L131.988 55.1607V59.1605V59.2387H132.619V59.1883V55.8217L213.443 59.4885L213.774 59.5036V52.6002V52.2268H213.143V52.5863V58.8426L169.274 56.8522Z" fill="#1C3867"/>
<path d="M168.643 57.2656H169.273V56.8518V51.6651V51.2842H168.643V51.6512V56.8241V57.2656Z" fill="#1C3867"/>
<path d="M446.628 53.0881L445.117 53.16L445.146 53.7907L446.302 53.7352L514.363 50.4872L517.318 52.5331L518.064 53.0503L518.515 53.3631L518.875 52.8447L518.064 52.2834L514.546 49.8464L446.628 53.0881Z" fill="#1C3867"/>
<path d="M-15.8998 50.8814L52.2933 53.7308L53.2166 53.7699L53.2431 53.1393L51.9741 53.0863L-15.9704 50.247L-16.0676 50.2432L-19.4606 52.3421L-20.2578 52.8365L-19.9261 53.3726L-19.4606 53.085L-18.5789 52.5401L-15.8998 50.8814Z" fill="#1C3867"/>
<path d="M249.546 8.05811H249.23V8.54878V49.4548V50.1246H249.546V49.4548V8.53238V8.05811Z" fill="#1C3867"/>
<path d="M249.143 117.344H249.458V116.756V109.705V109.325H249.143V109.705V116.756V117.344Z" fill="#1C3867"/>
<path d="M225.281 84.1367L228.904 87.3443L228.917 87.3569L229.127 87.1198L229.093 87.0895L225.489 83.8983C224.862 83.3445 223.954 83.2499 223.225 83.6662L221.135 84.8657L220.793 85.0625L220.951 85.3362L221.135 85.2303L223.383 83.9412C223.993 83.5918 224.755 83.67 225.281 84.1367Z" fill="#1C3867"/>
<path d="M273.108 83.8994L269.505 87.0906L269.471 87.1209L269.68 87.358L269.694 87.3454L273.317 84.1378C273.84 83.6711 274.604 83.5929 275.214 83.9435L277.461 85.2327L277.647 85.3386L277.805 85.0649L277.461 84.8681L275.371 83.6686C274.644 83.251 273.734 83.3444 273.108 83.8994Z" fill="#1C3867"/>
<path d="M367.248 61.7492H356.276C355.75 61.7492 355.315 61.4024 355.156 60.9281C355.115 60.8083 355.08 60.6859 355.08 60.5535H354.449C354.449 60.6922 354.468 60.8272 354.497 60.9571C354.681 61.7707 355.407 62.3799 356.276 62.3799H366.662H368.141V62.2954H368.414H368.457V62.2159V61.7492H367.248Z" fill="#1C3867"/>
<path d="M142.62 62.3797C143.484 62.3797 144.205 61.7755 144.395 60.9695C144.427 60.8345 144.447 60.6971 144.447 60.552H143.816C143.816 60.6895 143.781 60.8169 143.738 60.9405C143.575 61.4072 143.143 61.749 142.62 61.749H131.056H130.439V62.2952H130.755V62.3797H131.643H142.62Z" fill="#1C3867"/>
<path d="M254.483 157.351L252.703 153.442H249.792V153.758H249.161V153.442H246.147L244.136 157.517L243.496 158.811L244.062 159.089L244.345 158.518L246.539 154.073H252.297L254.321 158.518L254.668 159.279L255.242 159.018L254.483 157.351Z" fill="#1C3867"/>
<path d="M249.16 153.442V153.757H249.791V153.442V141.423V141.049H249.16V141.388V153.442Z" fill="#1C3867"/>
<path d="M312.288 144.077V144.26H311.657V144.077H308.645L306.628 148.157L305.992 149.444L306.559 149.723L306.759 149.316L309.036 144.707H314.794L316.887 149.304L317.163 149.912L317.738 149.651L317 148.032L315.2 144.077H312.288Z" fill="#1C3867"/>
<path d="M311.654 132.189V144.077V144.26H312.285V144.077V132.223V131.553H311.654V132.189Z" fill="#1C3867"/>
<path d="M191.962 148.211L190.078 144.077H187.169V144.26H186.538V144.077H183.523L181.591 147.989L180.873 149.444L181.439 149.723L181.699 149.195L183.915 144.707H189.672L191.772 149.316L192.044 149.912L192.618 149.651L191.962 148.211Z" fill="#1C3867"/>
<path d="M186.543 144.077V144.26H187.174V144.077V132.213V131.553H186.543V132.199V144.077Z" fill="#1C3867"/>
<path d="M195.16 142.759V143.783V144.425H195.475V143.593V142.935L231.186 121.282L231.462 121.114L231.299 120.845L230.908 121.084L195.236 142.713L195.16 142.759Z" fill="#1C3867"/>
<path d="M303.241 143.658V144.687H303.556V143.848V142.757L267.573 121.231L267.001 120.889L266.838 121.16L267.297 121.434L303.241 142.937V143.658Z" fill="#1C3867"/>
</g>
</svg>
