<svg width="25" height="25" viewBox="0 0 25 25" fill="none" xmlns="http://www.w3.org/2000/svg">
<path d="M0 12.5C0 19.4036 5.59644 25 12.5 25C19.4036 25 25 19.4036 25 12.5C25 5.59644 19.4036 0 12.5 0C5.59644 0 0 5.59644 0 12.5Z" fill="white" fill-opacity="0.15"/>
<path fill-rule="evenodd" clip-rule="evenodd" d="M16.877 8.04688C15.7051 6.875 14.1426 6.25 12.502 6.25C9.06445 6.25 6.25195 9.0625 6.25195 12.5C6.25195 13.5938 6.56446 14.6875 7.11133 15.625L6.25195 18.75L9.53321 17.8906C10.4707 18.3594 11.4863 18.6719 12.502 18.6719C15.9395 18.6719 18.752 15.8594 18.752 12.4219C18.752 10.7813 18.0488 9.21875 16.877 8.04688ZM12.502 17.6563C11.5645 17.6563 10.627 17.4219 9.84571 16.9531L9.68945 16.875L7.73632 17.4219L8.28321 15.5469L8.12695 15.3125C7.58007 14.4531 7.3457 13.5156 7.3457 12.5781C7.3457 9.76563 9.68945 7.42188 12.502 7.42188C13.9082 7.42188 15.1582 7.96875 16.1738 8.90625C17.1895 9.92188 17.6582 11.1719 17.6582 12.5781C17.6582 15.3125 15.3926 17.6563 12.502 17.6563ZM15.3145 13.75C15.1582 13.6719 14.377 13.2813 14.2207 13.2813C14.0645 13.2031 13.9863 13.2031 13.9082 13.3594C13.8301 13.5156 13.5176 13.8281 13.4395 13.9844C13.3613 14.0625 13.2832 14.0625 13.1269 14.0625C12.9707 13.9844 12.502 13.8281 11.877 13.2813C11.4082 12.8906 11.0957 12.3438 11.0176 12.1875C10.9395 12.0313 11.0176 11.9531 11.0957 11.875C11.1738 11.7969 11.252 11.7188 11.3301 11.6406C11.4082 11.5625 11.4082 11.4844 11.4863 11.4063C11.5645 11.3281 11.4863 11.25 11.4863 11.1719C11.4863 11.0938 11.1738 10.3125 11.0176 10C10.9395 9.76563 10.7832 9.76563 10.7051 9.76563C10.627 9.76563 10.5488 9.76563 10.3926 9.76563C10.3144 9.76563 10.1582 9.76563 10.0019 9.92188C9.84569 10.0781 9.45508 10.4688 9.45508 11.25C9.45508 12.0313 10.0019 12.7344 10.0801 12.8906C10.1582 12.9688 11.1738 14.6094 12.7363 15.2344C14.0644 15.7813 14.2988 15.625 14.6113 15.625C14.9238 15.625 15.5488 15.2344 15.627 14.9219C15.7832 14.5313 15.7832 14.2188 15.7051 14.2188C15.627 13.8281 15.4707 13.8281 15.3145 13.75Z" fill="white"/>
</svg>
